<?xml version="1.0" encoding="us-ascii" standalone="no"?><svg xmlns="http://www.w3.org/2000/svg" xmlns:xlink="http://www.w3.org/1999/xlink" contentStyleType="text/css" height="1537px" preserveAspectRatio="none" style="width:1295px;height:1537px;background:#FFFFFF;" version="1.1" viewBox="0 0 1295 1537" width="1295px" zoomAndPan="magnify"><defs/><g><text fill="#000000" font-family="sans-serif" font-size="14" font-weight="bold" lengthAdjust="spacing" textLength="151" x="565.38" y="22.9951">Coinsage - Sprint 3</text><!--cluster Legenda--><g id="cluster_Legenda"><rect fill="none" height="143" rx="2.5" ry="2.5" style="stroke:#181818;stroke-width:1.0;" width="420.25" x="7" y="1388.2969"/><text fill="#000000" font-family="sans-serif" font-size="14" font-weight="bold" lengthAdjust="spacing" textLength="68" x="183.125" y="1403.292">Legenda</text></g><!--cluster Coinsage--><g id="cluster_Coinsage"><rect fill="none" height="1277" rx="2.5" ry="2.5" style="stroke:#181818;stroke-width:1.0;" width="1001.26" x="132.5" y="44.2969"/><text fill="#000000" font-family="sans-serif" font-size="14" font-weight="bold" lengthAdjust="spacing" textLength="73" x="596.63" y="59.292">Coinsage</text></g><!--entity Sprint 1--><g id="elem_Sprint 1"><rect fill="#ADD8E6" height="36.2969" rx="2.5" ry="2.5" style="stroke:#181818;stroke-width:0.5;" width="73" x="23" y="1479.1469"/><text fill="#000000" font-family="sans-serif" font-size="14" lengthAdjust="spacing" textLength="53" x="33" y="1502.142">Sprint 1</text></g><!--entity Sprint 2--><g id="elem_Sprint 2"><rect fill="#90EE90" height="36.2969" rx="2.5" ry="2.5" style="stroke:#181818;stroke-width:0.5;" width="73" x="23" y="1423.1469"/><text fill="#000000" font-family="sans-serif" font-size="14" lengthAdjust="spacing" textLength="53" x="33" y="1446.142">Sprint 2</text></g><!--entity Sprint 3--><g id="elem_Sprint 3"><rect fill="#F08080" height="36.2969" rx="2.5" ry="2.5" style="stroke:#181818;stroke-width:0.5;" width="73" x="338.25" y="1479.1469"/><text fill="#000000" font-family="sans-serif" font-size="14" lengthAdjust="spacing" textLength="53" x="348.25" y="1502.142">Sprint 3</text></g><!--entity Sprint 4--><g id="elem_Sprint 4"><rect fill="#FFFFE0" height="36.2969" rx="2.5" ry="2.5" style="stroke:#181818;stroke-width:0.5;" width="73" x="338.25" y="1423.1469"/><text fill="#000000" font-family="sans-serif" font-size="14" lengthAdjust="spacing" textLength="53" x="348.25" y="1446.142">Sprint 4</text></g><g id="elem_sch_cripto_info"><ellipse cx="374.7482" cy="1194.2965" fill="#ADD8E6" rx="162.2982" ry="34.8596" style="stroke:#181818;stroke-width:0.5;"/><text fill="#000000" font-family="sans-serif" font-size="14" lengthAdjust="spacing" textLength="296" x="226.7482" y="1197.1432">Schedule Coletar Informa&#231;&#245;es das moedas</text></g><g id="elem_sch_analysis"><ellipse cx="374.7547" cy="1117.2998" fill="#ADD8E6" rx="98.6147" ry="22.1229" style="stroke:#181818;stroke-width:0.5;"/><text fill="#000000" font-family="sans-serif" font-size="14" lengthAdjust="spacing" textLength="161" x="294.2547" y="1120.1465">Schedule Iniciar An&#225;lise</text></g><g id="elem_sch_sectors"><ellipse cx="374.7483" cy="1277.2985" fill="#F08080" rx="128.3083" ry="28.0617" style="stroke:#181818;stroke-width:0.5;"/><text fill="#000000" font-family="sans-serif" font-size="14" lengthAdjust="spacing" textLength="225" x="262.2483" y="1280.1452">RF01 - Schedule Coletar Setores</text></g><g id="elem_collect_cripto_week_incresse"><ellipse cx="898.8768" cy="498.2962" fill="#ADD8E6" rx="125.9468" ry="27.5894" style="stroke:#181818;stroke-width:0.5;"/><text fill="#000000" font-family="sans-serif" font-size="14" lengthAdjust="spacing" textLength="220" x="788.8768" y="501.1429">RF06 - Coletar varia&#231;&#227;o semanal</text></g><g id="elem_collect_sectors"><ellipse cx="898.8791" cy="1283.2987" fill="#90EE90" rx="96.3591" ry="21.6718" style="stroke:#181818;stroke-width:0.5;"/><text fill="#000000" font-family="sans-serif" font-size="14" lengthAdjust="spacing" textLength="156" x="820.8791" y="1286.1454">RF01 - Coletar Setores</text></g><g id="elem_collect_cripto_open_close"><ellipse cx="898.8827" cy="584.2934" fill="#90EE90" rx="180.7327" ry="38.5465" style="stroke:#181818;stroke-width:0.5;"/><text fill="#000000" font-family="sans-serif" font-size="14" lengthAdjust="spacing" textLength="334" x="731.8827" y="587.1401">RF18 - Coletar pre&#231;os de abertura e fechamento</text></g><g id="elem_collect_ema8_relations"><ellipse cx="898.879" cy="671.2967" fill="#90EE90" rx="131.149" ry="28.6298" style="stroke:#181818;stroke-width:0.5;"/><text fill="#000000" font-family="sans-serif" font-size="14" lengthAdjust="spacing" textLength="231" x="783.379" y="674.1434">RF17 - Calcular rela&#231;&#245;es de ema8</text></g><g id="elem_collect_volume_relations"><ellipse cx="898.8751" cy="749.2919" fill="#90EE90" rx="136.3751" ry="29.675" style="stroke:#181818;stroke-width:0.5;"/><text fill="#000000" font-family="sans-serif" font-size="14" lengthAdjust="spacing" textLength="242" x="777.8751" y="752.1386">RF14 - Calcular rela&#231;&#245;es de volume</text></g><g id="elem_collect_market_cap"><ellipse cx="898.8763" cy="1206.3001" fill="#F08080" rx="164.7163" ry="35.3433" style="stroke:#181818;stroke-width:0.5;"/><text fill="#000000" font-family="sans-serif" font-size="14" lengthAdjust="spacing" textLength="301" x="748.3763" y="1209.1468">RF03 - Coletar valor de mercado em bilh&#245;es</text></g><g id="elem_collect_cripto_current_price"><ellipse cx="898.8823" cy="1025.2993" fill="#F08080" rx="174.4123" ry="37.2825" style="stroke:#181818;stroke-width:0.5;"/><text fill="#000000" font-family="sans-serif" font-size="14" lengthAdjust="spacing" textLength="321" x="738.3823" y="1028.146">RF21 - Coletar o pre&#231;o no momento da an&#225;lise</text></g><g id="elem_collect_expressive_volume_date"><ellipse cx="898.8757" cy="836.298" fill="#F08080" rx="172.9557" ry="36.9911" style="stroke:#181818;stroke-width:0.5;"/><text fill="#000000" font-family="sans-serif" font-size="14" lengthAdjust="spacing" textLength="318" x="739.8757" y="839.1447">RF14 - Coletar aumento expressivo de volume</text></g><g id="elem_collect_emas_aligned"><ellipse cx="898.8838" cy="930.2936" fill="#F08080" rx="175.3838" ry="37.4768" style="stroke:#181818;stroke-width:0.5;"/><text fill="#000000" font-family="sans-serif" font-size="14" lengthAdjust="spacing" textLength="323" x="737.3838" y="933.1403">RF27 - Coletar alinhamento das m&#233;dias m&#243;veis</text></g><g id="elem_collect_cripto_price_variations"><ellipse cx="898.8794" cy="404.2928" fill="#F08080" rx="218.8794" ry="46.1759" style="stroke:#181818;stroke-width:0.5;"/><text fill="#000000" font-family="sans-serif" font-size="14" lengthAdjust="spacing" textLength="412" x="692.8794" y="407.1394">RF07 - Coletar vaia&#231;&#245;es de pre&#231;o para: 1y, 6m, 3m, 1m e 7d</text></g><g id="elem_view_cripto_info"><ellipse cx="374.7477" cy="605.2924" fill="#ADD8E6" rx="137.3277" ry="29.8655" style="stroke:#181818;stroke-width:0.5;"/><text fill="#000000" font-family="sans-serif" font-size="14" lengthAdjust="spacing" textLength="244" x="252.7477" y="608.1391">Vizualizar logo e nome das moedas</text></g><g id="elem_view_cripto_week_incresse"><ellipse cx="374.7505" cy="695.293" fill="#ADD8E6" rx="190.4805" ry="40.4961" style="stroke:#181818;stroke-width:0.5;"/><text fill="#000000" font-family="sans-serif" font-size="14" lengthAdjust="spacing" textLength="354" x="197.7505" y="698.1396">RF06 - Vizualizar porcentagem de varia&#231;&#227;o semanal</text></g><g id="elem_view_sectors"><ellipse cx="374.7508" cy="779.299" fill="#90EE90" rx="103.1608" ry="23.0322" style="stroke:#181818;stroke-width:0.5;"/><text fill="#000000" font-family="sans-serif" font-size="14" lengthAdjust="spacing" textLength="171" x="289.2508" y="782.1457">RF01 - Visualizar Setores</text></g><g id="elem_view_volume_relations"><ellipse cx="374.7546" cy="853.2958" fill="#90EE90" rx="141.1446" ry="30.6289" style="stroke:#181818;stroke-width:0.5;"/><text fill="#000000" font-family="sans-serif" font-size="14" lengthAdjust="spacing" textLength="252" x="248.7546" y="856.1425">RF14 - Visualizar rela&#231;&#245;es de volume</text></g><g id="elem_view_market_cap"><ellipse cx="374.755" cy="940.2939" fill="#F08080" rx="171.985" ry="36.797" style="stroke:#181818;stroke-width:0.5;"/><text fill="#000000" font-family="sans-serif" font-size="14" lengthAdjust="spacing" textLength="316" x="216.755" y="943.1406">RF03 - Visualizar valor de mercado em bilh&#245;es</text></g><g id="elem_view_cripto_current_price"><ellipse cx="374.7463" cy="1036.2981" fill="#F08080" rx="181.7063" ry="38.7413" style="stroke:#181818;stroke-width:0.5;"/><text fill="#000000" font-family="sans-serif" font-size="14" lengthAdjust="spacing" textLength="336" x="206.7463" y="1039.1448">RF21 - Visualizar o pre&#231;o no momento da an&#225;lise</text></g><g id="elem_view_expressive_volume_increase"><ellipse cx="374.7461" cy="117.2961" fill="#F08080" rx="180.2461" ry="38.4492" style="stroke:#181818;stroke-width:0.5;"/><text fill="#000000" font-family="sans-serif" font-size="14" lengthAdjust="spacing" textLength="333" x="208.2461" y="120.1428">RF14 - Visualizar aumento do volume expressivo</text></g><g id="elem_view_ema8_relations"><ellipse cx="374.7516" cy="209.2952" fill="#F08080" rx="155.5416" ry="33.5083" style="stroke:#181818;stroke-width:0.5;"/><text fill="#000000" font-family="sans-serif" font-size="14" lengthAdjust="spacing" textLength="282" x="233.7516" y="212.1419">RF17/RF19 - Visualizar rela&#231;&#245;es de ema8</text></g><g id="elem_view_cripto_open_close"><ellipse cx="374.7513" cy="302.2951" fill="#F08080" rx="184.1413" ry="39.2283" style="stroke:#181818;stroke-width:0.5;"/><text fill="#000000" font-family="sans-serif" font-size="14" lengthAdjust="spacing" textLength="341" x="204.2513" y="305.1418">RF18 - Visualizar pre&#231;o de abertura e fechamento</text></g><g id="elem_view_emas_aligned"><ellipse cx="374.7501" cy="400.2929" fill="#F08080" rx="182.6801" ry="38.936" style="stroke:#181818;stroke-width:0.5;"/><text fill="#000000" font-family="sans-serif" font-size="14" lengthAdjust="spacing" textLength="338" x="205.7501" y="403.1396">RF27 - Visualizar alinhamento das m&#233;dias m&#243;veis</text></g><g id="elem_view_cripto_price_variations"><ellipse cx="374.7491" cy="507.2967" fill="#F08080" rx="226.2491" ry="47.6498" style="stroke:#181818;stroke-width:0.5;"/><text fill="#000000" font-family="sans-serif" font-size="14" lengthAdjust="spacing" textLength="427" x="161.2491" y="510.1434">RF07 - Visualizar vaia&#231;&#245;es de pre&#231;o para: 1y, 6m, 3m, 1m e 7d</text></g><g id="elem_collect_rankings"><ellipse cx="898.8772" cy="1116.3003" fill="#FFFFE0" rx="158.9172" ry="34.1834" style="stroke:#181818;stroke-width:0.5;"/><text fill="#000000" font-family="sans-serif" font-size="14" lengthAdjust="spacing" textLength="289" x="754.3772" y="1119.147">RF03 - Coletar rankings das criptomoedas</text></g><!--entity investor--><g id="elem_investor"><ellipse cx="59.5" cy="575.6469" fill="#F1F1F1" rx="8" ry="8" style="stroke:#181818;stroke-width:0.5;"/><path d="M59.5,583.6469 L59.5,610.6469 M46.5,591.6469 L72.5,591.6469 M59.5,610.6469 L46.5,625.6469 M59.5,610.6469 L72.5,625.6469 " fill="none" style="stroke:#181818;stroke-width:0.5;"/><text fill="#000000" font-family="sans-serif" font-size="14" lengthAdjust="spacing" textLength="67" x="26" y="640.142">Investidor</text></g><!--entity schedule--><g id="elem_schedule"><ellipse cx="59.5" cy="1205.6469" fill="#F1F1F1" rx="8" ry="8" style="stroke:#181818;stroke-width:0.5;"/><path d="M59.5,1213.6469 L59.5,1240.6469 M46.5,1221.6469 L72.5,1221.6469 M59.5,1240.6469 L46.5,1255.6469 M59.5,1240.6469 L72.5,1255.6469 " fill="none" style="stroke:#181818;stroke-width:0.5;"/><text fill="#000000" font-family="sans-serif" font-size="14" lengthAdjust="spacing" textLength="96" x="11.5" y="1270.142">Temporizador</text></g><!--entity binance--><g id="elem_binance"><ellipse cx="1223.76" cy="687.6469" fill="#F1F1F1" rx="8" ry="8" style="stroke:#181818;stroke-width:0.5;"/><path d="M1223.76,695.6469 L1223.76,722.6469 M1210.76,703.6469 L1236.76,703.6469 M1223.76,722.6469 L1210.76,737.6469 M1223.76,722.6469 L1236.76,737.6469 " fill="none" style="stroke:#181818;stroke-width:0.5;"/><text fill="#000000" font-family="sans-serif" font-size="14" lengthAdjust="spacing" textLength="81" x="1183.26" y="752.142">Binance API</text></g><!--entity cmc--><g id="elem_cmc"><ellipse cx="1223.76" cy="1221.6469" fill="#F1F1F1" rx="8" ry="8" style="stroke:#181818;stroke-width:0.5;"/><path d="M1223.76,1229.6469 L1223.76,1256.6469 M1210.76,1237.6469 L1236.76,1237.6469 M1223.76,1256.6469 L1210.76,1271.6469 M1223.76,1256.6469 L1236.76,1271.6469 " fill="none" style="stroke:#181818;stroke-width:0.5;"/><text fill="#000000" font-family="sans-serif" font-size="14" lengthAdjust="spacing" textLength="130" x="1158.76" y="1286.142">CoinMarketCap API</text></g><!--link schedule to sch_analysis--><g id="link_schedule_sch_analysis"><path d="M79.72,1196.9369 C90.47,1179.5269 105.54,1160.3869 124.5,1149.2969 C170.44,1122.4169 229.2,1113.8869 278.13,1112.3269 " fill="none" id="schedule-sch_analysis" style="stroke:#181818;stroke-width:1.0;"/></g><!--link schedule to sch_cripto_info--><g id="link_schedule_sch_cripto_info"><path d="M107.74,1229.1169 C141.75,1224.6669 189.51,1218.4069 235.19,1212.4369 " fill="none" id="schedule-sch_cripto_info" style="stroke:#181818;stroke-width:1.0;"/></g><!--link schedule to sch_sectors--><g id="link_schedule_sch_sectors"><path d="M107.74,1241.6269 C149.1,1247.1769 210.79,1255.4469 264.35,1262.6269 " fill="none" id="schedule-sch_sectors" style="stroke:#181818;stroke-width:1.0;"/></g><!--link schedule to collect_rankings--><g id="link_schedule_collect_rankings"><path d="M80.86,1273.7269 C91.53,1289.6869 106.22,1306.5169 124.5,1315.2969 C315.38,1407.0369 393.19,1356.0969 601,1315.2969 C634.45,1308.7269 652.1,1313.9669 672,1286.2969 C688.25,1263.6969 661.74,1182.3069 680,1161.2969 C696.4,1142.4169 718.45,1130.2169 742.23,1122.5169 " fill="none" id="schedule-collect_rankings" style="stroke:#181818;stroke-width:1.0;"/></g><!--link sch_cripto_info to binance--><g id="link_sch_cripto_info_binance"><path d="M536.32,1190.1169 C561.26,1182.2669 584.26,1169.4769 601,1149.2969 C613.71,1133.9669 602.05,450.9669 609,432.2969 C626.06,386.4869 635.66,368.8769 680,348.2969 C866.15,261.8969 981.84,219.6769 1141.76,348.2969 C1193.06,389.5569 1213.71,593.0169 1220.24,678.9169 " fill="none" id="sch_cripto_info-binance" style="stroke:#181818;stroke-width:1.0;"/></g><!--link sch_cripto_info to cmc--><g id="link_sch_cripto_info_cmc"><path d="M534.35,1200.9369 C559.34,1208.5669 582.86,1220.6369 601,1239.2969 C615.77,1254.4969 595.74,1269.7669 609,1286.2969 C630.32,1312.8869 646.55,1308.7269 680,1315.2969 C881.38,1354.8369 947.9,1382.6469 1141.76,1315.2969 C1157.33,1309.8869 1172.17,1300.0969 1184.8,1289.7769 " fill="none" id="sch_cripto_info-cmc" style="stroke:#181818;stroke-width:1.0;"/></g><!--link collect_cripto_week_incresse to binance--><g id="link_collect_cripto_week_incresse_binance"><path d="M1023.8,494.2169 C1064.8,498.5269 1108.41,509.8469 1141.76,535.2969 C1187.53,570.2369 1208.03,636.7169 1216.76,678.9269 " fill="none" id="collect_cripto_week_incresse-binance" style="stroke:#181818;stroke-width:1.0;"/></g><!--link collect_cripto_current_price to binance--><g id="link_collect_cripto_current_price_binance"><path d="M1068.34,1016.0769 C1095.29,1008.1569 1121.06,995.9069 1141.76,977.2969 C1205.74,919.7669 1219.69,812.6269 1222.4,755.4869 " fill="none" id="collect_cripto_current_price-binance" style="stroke:#181818;stroke-width:1.0;"/></g><!--link collect_cripto_open_close to binance--><g id="link_collect_cripto_open_close_binance"><path d="M1060.58,601.7969 C1088.71,608.8269 1116.9,618.6369 1141.76,632.2969 C1162.48,643.6869 1181.05,662.2069 1195.17,679.0569 " fill="none" id="collect_cripto_open_close-binance" style="stroke:#181818;stroke-width:1.0;"/></g><!--link collect_ema8_relations to binance--><g id="link_collect_ema8_relations_binance"><path d="M1009.64,686.9369 C1069.42,695.4469 1139.77,705.4769 1182.81,711.6069 " fill="none" id="collect_ema8_relations-binance" style="stroke:#181818;stroke-width:1.0;"/></g><!--link collect_volume_relations to binance--><g id="link_collect_volume_relations_binance"><path d="M1023.79,737.0169 C1080.34,731.4069 1143.4,725.1669 1183.06,721.2269 " fill="none" id="collect_volume_relations-binance" style="stroke:#181818;stroke-width:1.0;"/></g><!--link collect_expressive_volume_date to binance--><g id="link_collect_expressive_volume_date_binance"><path d="M1053.29,819.3069 C1083.59,812.4369 1114.44,802.8069 1141.76,789.2969 C1158.62,780.9569 1174.67,768.1469 1187.97,755.6269 " fill="none" id="collect_expressive_volume_date-binance" style="stroke:#181818;stroke-width:1.0;"/></g><!--link collect_market_cap to cmc--><g id="link_collect_market_cap_cmc"><path d="M1037.74,1225.5069 C1079.74,1231.3669 1123.91,1237.5169 1158.55,1242.3469 " fill="none" id="collect_market_cap-cmc" style="stroke:#181818;stroke-width:1.0;"/></g><!--link collect_emas_aligned to binance--><g id="link_collect_emas_aligned_binance"><path d="M1066.68,918.9369 C1093.65,911.4069 1119.86,900.0869 1141.76,883.2969 C1182.72,851.8769 1204.2,794.3169 1214.5,755.9269 " fill="none" id="collect_emas_aligned-binance" style="stroke:#181818;stroke-width:1.0;"/></g><!--link collect_cripto_price_variations to binance--><g id="link_collect_cripto_price_variations_binance"><path d="M1089.36,427.3069 C1108.57,435.4969 1126.57,446.2469 1141.76,460.2969 C1203.91,517.7969 1218.67,622.4569 1221.98,678.8569 " fill="none" id="collect_cripto_price_variations-binance" style="stroke:#181818;stroke-width:1.0;"/></g><!--link sch_sectors to collect_sectors--><g id="link_sch_sectors_collect_sectors"><path d="M503.14,1278.7569 C595.52,1279.8269 718.47,1281.2369 802.46,1282.1969 " fill="none" id="sch_sectors-collect_sectors" style="stroke:#181818;stroke-width:1.0;"/></g><!--link collect_sectors to cmc--><g id="link_collect_sectors_cmc"><path d="M987.68,1274.5969 C1041.55,1269.2569 1109.35,1262.5369 1158.28,1257.6869 " fill="none" id="collect_sectors-cmc" style="stroke:#181818;stroke-width:1.0;"/></g><!--link collect_rankings to binance--><g id="link_collect_rankings_binance"><path d="M1057.89,1114.3769 C1088.89,1107.1069 1118.86,1094.2069 1141.76,1072.2969 C1187.21,1028.8169 1210.94,838.4169 1219.26,755.7869 " fill="none" id="collect_rankings-binance" style="stroke:#181818;stroke-width:1.0;"/></g><!--link collect_rankings to cmc--><g id="link_collect_rankings_cmc"><path d="M1048.46,1128.2069 C1080.62,1135.0069 1113.44,1145.4269 1141.76,1161.2969 C1163.94,1173.7369 1183.25,1194.5269 1197.45,1212.9869 " fill="none" id="collect_rankings-cmc" style="stroke:#181818;stroke-width:1.0;"/></g><!--link investor to view_sectors--><g id="link_investor_view_sectors"><path d="M67.46,643.8469 C75.44,676.2669 91.89,721.0769 124.5,745.2969 C167.8,777.4569 227.33,786.4969 277.35,787.2469 " fill="none" id="investor-view_sectors" style="stroke:#181818;stroke-width:1.0;"/></g><!--link investor to view_cripto_info--><g id="link_investor_view_cripto_info"><path d="M93.43,605.2969 C127.83,605.2969 184.09,605.2969 237.21,605.2969 " fill="none" id="investor-view_cripto_info" style="stroke:#181818;stroke-width:1.0;"/></g><!--link investor to view_cripto_week_incresse--><g id="link_investor_view_cripto_week_incresse"><path d="M93.5,629.0769 C103.12,635.1169 113.91,641.0869 124.5,645.2969 C153.31,656.7469 185.08,665.6769 216.01,672.6069 " fill="none" id="investor-view_cripto_week_incresse" style="stroke:#181818;stroke-width:1.0;"/></g><!--link investor to view_cripto_current_price--><g id="link_investor_view_cripto_current_price"><path d="M61.57,643.9069 C64.8,730.9869 77.39,938.8469 124.5,987.2969 C144.02,1007.3769 169.19,1020.5069 196.01,1028.9069 " fill="none" id="investor-view_cripto_current_price" style="stroke:#181818;stroke-width:1.0;"/></g><!--link investor to view_cripto_open_close--><g id="link_investor_view_cripto_open_close"><path d="M65.15,566.7769 C73.62,503.2569 93.57,380.6369 124.5,351.2969 C144.34,332.4769 169.18,319.9069 195.45,311.6469 " fill="none" id="investor-view_cripto_open_close" style="stroke:#181818;stroke-width:1.0;"/></g><!--link investor to view_ema8_relations--><g id="link_investor_view_ema8_relations"><path d="M62.11,566.8869 C66.35,484.9369 80.74,296.8269 124.5,253.2969 C149.73,228.1969 183.95,214.5669 218.94,207.6769 " fill="none" id="investor-view_ema8_relations" style="stroke:#181818;stroke-width:1.0;"/></g><!--link investor to view_volume_relations--><g id="link_investor_view_volume_relations"><path d="M60.9,643.7969 C63.6,690.9569 75.73,769.7769 124.5,812.2969 C154.58,838.5169 194.77,851.2769 234.08,856.8369 " fill="none" id="investor-view_volume_relations" style="stroke:#181818;stroke-width:1.0;"/></g><!--link investor to view_expressive_volume_increase--><g id="link_investor_view_expressive_volume_increase"><path d="M60.6,566.6769 C61.68,470.2469 69.85,222.5069 124.5,165.2969 C143.98,144.9069 169.3,131.7069 196.32,123.3769 " fill="none" id="investor-view_expressive_volume_increase" style="stroke:#181818;stroke-width:1.0;"/></g><!--link investor to view_market_cap--><g id="link_investor_view_market_cap"><path d="M63.82,643.7569 C70.7,714.2269 88.96,859.9869 124.5,894.2969 C146.19,915.2269 174.12,928.2569 203.39,936.1069 " fill="none" id="investor-view_market_cap" style="stroke:#181818;stroke-width:1.0;"/></g><!--link investor to view_emas_aligned--><g id="link_investor_view_emas_aligned"><path d="M65.81,566.7869 C72.86,530.8669 88.88,478.5669 124.5,449.2969 C146.14,431.5169 172.38,419.5469 199.6,411.5869 " fill="none" id="investor-view_emas_aligned" style="stroke:#181818;stroke-width:1.0;"/></g><!--link investor to view_cripto_price_variations--><g id="link_investor_view_cripto_price_variations"><path d="M93.25,581.9369 C102.96,575.8269 113.85,569.7169 124.5,565.2969 C149.53,554.9069 176.78,546.1669 203.78,538.8969 " fill="none" id="investor-view_cripto_price_variations" style="stroke:#181818;stroke-width:1.0;"/></g><!--link sch_analysis to collect_cripto_week_incresse--><g id="link_sch_analysis_collect_cripto_week_incresse"><path d="M457.98,1129.5269 C507.02,1131.7569 566.3,1124.6069 601,1085.2969 C618.76,1065.1769 598.17,626.8469 609,602.2969 C636.64,539.6269 703.3929,514.5993 768.9329,504.2893 " fill="none" id="sch_analysis-to-collect_cripto_week_incresse" style="stroke:#181818;stroke-width:1.0;"/><polygon fill="#181818" points="774.86,503.3569,765.3477,500.804,769.9207,504.1339,766.5909,508.7069,774.86,503.3569" style="stroke:#181818;stroke-width:1.0;"/><text fill="#000000" font-family="sans-serif" font-size="13" lengthAdjust="spacing" textLength="61" x="610" y="535.3638">&#171;include&#187;</text></g><!--link sch_analysis to collect_cripto_current_price--><g id="link_sch_analysis_collect_cripto_current_price"><path d="M461.22,1106.2569 C503.38,1100.5269 554.95,1093.1069 601,1085.2969 C658.42,1075.5669 715.8458,1064.2493 769.1858,1053.1493 " fill="none" id="sch_analysis-to-collect_cripto_current_price" style="stroke:#181818;stroke-width:1.0;"/><polygon fill="#181818" points="775.06,1051.9269,765.4338,1049.8444,770.1649,1052.9455,767.0637,1057.6766,775.06,1051.9269" style="stroke:#181818;stroke-width:1.0;"/><text fill="#000000" font-family="sans-serif" font-size="13" lengthAdjust="spacing" textLength="61" x="610" y="1070.3638">&#171;include&#187;</text></g><!--link sch_analysis to collect_cripto_current_price--><g id="link_sch_analysis_collect_cripto_current_price"><path d="M464.63,1126.6969 C510.63,1126.6169 564.61,1118.0869 601,1085.2969 C611.89,1075.4869 597.89,1062.8669 609,1053.2969 C646.12,1021.3069 690.7364,1009.8638 739.2264,1007.6238 " fill="none" id="sch_analysis-to-collect_cripto_current_price-1" style="stroke:#181818;stroke-width:1.0;"/><polygon fill="#181818" points="745.22,1007.3469,736.045,1003.7664,740.2253,1007.5776,736.4142,1011.7579,745.22,1007.3469" style="stroke:#181818;stroke-width:1.0;"/><text fill="#000000" font-family="sans-serif" font-size="13" lengthAdjust="spacing" textLength="61" x="610" y="1017.3638">&#171;include&#187;</text></g><!--link sch_analysis to collect_cripto_open_close--><g id="link_sch_analysis_collect_cripto_open_close"><path d="M458.21,1129.4969 C507.18,1131.6669 566.3,1124.4769 601,1085.2969 C615.73,1068.6569 598.84,705.0669 609,685.2969 C632.92,638.7569 675.4187,614.6821 725.7687,600.7021 " fill="none" id="sch_analysis-to-collect_cripto_open_close" style="stroke:#181818;stroke-width:1.0;"/><polygon fill="#181818" points="731.55,599.0969,721.8079,597.6505,726.7323,600.4346,723.9482,605.3589,731.55,599.0969" style="stroke:#181818;stroke-width:1.0;"/><text fill="#000000" font-family="sans-serif" font-size="13" lengthAdjust="spacing" textLength="61" x="610" y="620.3638">&#171;include&#187;</text></g><!--link sch_analysis to collect_ema8_relations--><g id="link_sch_analysis_collect_ema8_relations"><path d="M458.14,1129.4369 C507.08,1131.5869 566.2,1124.3869 601,1085.2969 C612.75,1072.0969 601.22,783.1669 609,767.2969 C637.65,708.7969 699.7388,685.2828 762.5888,675.6828 " fill="none" id="sch_analysis-to-collect_ema8_relations" style="stroke:#181818;stroke-width:1.0;"/><polygon fill="#181818" points="768.52,674.7769,759.0192,672.1817,763.5773,675.5318,760.2272,680.09,768.52,674.7769" style="stroke:#181818;stroke-width:1.0;"/><text fill="#000000" font-family="sans-serif" font-size="13" lengthAdjust="spacing" textLength="61" x="610" y="703.3638">&#171;include&#187;</text></g><!--link sch_analysis to collect_volume_relations--><g id="link_sch_analysis_collect_volume_relations"><path d="M458.57,1129.3469 C507.36,1131.3769 566.16,1124.0869 601,1085.2969 C618.46,1065.8569 597.69,873.8469 609,850.2969 C636.87,792.2169 697.2418,767.5425 759.2818,756.5625 " fill="none" id="sch_analysis-to-collect_volume_relations" style="stroke:#181818;stroke-width:1.0;"/><polygon fill="#181818" points="765.19,755.5169,755.6306,753.1466,760.2665,756.3882,757.0248,761.0241,765.19,755.5169" style="stroke:#181818;stroke-width:1.0;"/><text fill="#000000" font-family="sans-serif" font-size="13" lengthAdjust="spacing" textLength="61" x="610" y="785.3638">&#171;include&#187;</text></g><!--link sch_analysis to collect_expressive_volume_date--><g id="link_sch_analysis_collect_expressive_volume_date"><path d="M458.88,1129.1469 C507.47,1131.0169 565.95,1123.6269 601,1085.2969 C612.56,1072.6569 600.57,946.2169 609,931.2969 C634.77,885.6669 678.1568,862.6323 728.7568,849.7023 " fill="none" id="sch_analysis-to-collect_expressive_volume_date" style="stroke:#181818;stroke-width:1.0;"/><polygon fill="#181818" points="734.57,848.2169,724.8599,846.5696,729.7257,849.4548,726.8405,854.3206,734.57,848.2169" style="stroke:#181818;stroke-width:1.0;"/><text fill="#000000" font-family="sans-serif" font-size="13" lengthAdjust="spacing" textLength="61" x="610" y="868.3638">&#171;include&#187;</text></g><!--link sch_analysis to collect_market_cap--><g id="link_sch_analysis_collect_market_cap"><path d="M460.93,1128.4069 C503.14,1134.1569 554.83,1141.5869 601,1149.2969 C659.49,1159.0569 718.3031,1170.1476 772.3331,1180.7876 " fill="none" id="sch_analysis-to-collect_market_cap" style="stroke:#181818;stroke-width:1.0;"/><polygon fill="#181818" points="778.22,1181.9469,770.1625,1176.2833,773.3142,1180.9808,768.6167,1184.1325,778.22,1181.9469" style="stroke:#181818;stroke-width:1.0;"/><text fill="#000000" font-family="sans-serif" font-size="13" lengthAdjust="spacing" textLength="61" x="610" y="1148.3638">&#171;include&#187;</text></g><!--link sch_analysis to collect_emas_aligned--><g id="link_sch_analysis_collect_emas_aligned"><path d="M460.27,1128.6969 C508.27,1130.1169 565.65,1122.3969 601,1085.2969 C614.24,1071.3969 596.81,1014.1269 609,999.2969 C637.73,964.3469 674.859,946.5756 718.939,936.5656 " fill="none" id="sch_analysis-to-collect_emas_aligned" style="stroke:#181818;stroke-width:1.0;"/><polygon fill="#181818" points="724.79,935.2369,715.1277,933.3292,719.9141,936.3441,716.8992,941.1306,724.79,935.2369" style="stroke:#181818;stroke-width:1.0;"/><text fill="#000000" font-family="sans-serif" font-size="13" lengthAdjust="spacing" textLength="61" x="610" y="949.3638">&#171;include&#187;</text></g><!--link sch_analysis to collect_cripto_price_variations--><g id="link_sch_analysis_collect_cripto_price_variations"><path d="M458.01,1129.5569 C507.07,1131.7969 566.35,1124.6569 601,1085.2969 C611.43,1073.4569 602.07,531.4769 609,517.2969 C630.2,473.8669 666.4141,449.0551 711.8141,432.4751 " fill="none" id="sch_analysis-to-collect_cripto_price_variations" style="stroke:#181818;stroke-width:1.0;"/><polygon fill="#181818" points="717.45,430.4169,707.624,429.7469,712.7534,432.1321,710.3683,437.2615,717.45,430.4169" style="stroke:#181818;stroke-width:1.0;"/><text fill="#000000" font-family="sans-serif" font-size="13" lengthAdjust="spacing" textLength="61" x="610" y="450.3638">&#171;include&#187;</text></g><!--link sch_analysis to collect_rankings--><g id="link_sch_analysis_collect_rankings"><path d="M473.65,1117.1069 C548.43,1116.9669 647.03,1116.7787 733.64,1116.6087 " fill="none" id="sch_analysis-to-collect_rankings" style="stroke:#181818;stroke-width:1.0;"/><polygon fill="#181818" points="739.64,1116.5969,730.6322,1112.6145,734.64,1116.6067,730.6479,1120.6145,739.64,1116.5969" style="stroke:#181818;stroke-width:1.0;"/><text fill="#000000" font-family="sans-serif" font-size="13" lengthAdjust="spacing" textLength="61" x="610" y="1113.3638">&#171;include&#187;</text></g><!--SRC=[jLV1RXit4BthAmRgmPSOjYGZSeF0W6EWXO0KAE8sHKy2lJkM27D9WToL6nVzcAA7eESYNw0Vot1tkIAvk_8wTWt8WiZXp9kPnqSovxb0k59S6hP2E8RhZUOoXzbe9F0sXro1vgjr3YdNcEHSoH5BSgLXl91RD3bFbHu3Cy3BdqgxwLymsoZD7vWpCCaQqqAWCtZ79PC9mkNFYtB-flhjfYsadvY-m_oARHgZ94j68mk4oHNX7h_75SgKZVyS0VsPEoutJBCCCYwl13FcDvxcQvYSHjDIfMXm0vDeN3DvLusN4rwWkYoJCNpttjRZdIYmnsRgR7xKYBB7QEQChfHceiVep1dzZaAe-z5VGUwkQQtaNNRJqogD8xYkQs-WC0W9CsZSpAQg0OtROGfTcn8d1EPCmqBUAfsntUVT5rgVKXCoXVJbchfCDD_aQid9BYvEs-j2yeIJrqkv-rjmWuqN9fduPBY9NLY8iz3PXnzE9vQfCT9h9ERW7XZPqu3n2mqdv6-j2f723OAf6mOtHKvLou6uX2aSdRYwNPQWyF6g4QJN1CaXsJBDRSN-KM0miwbLx5L242PNiNl4EofRGfZ9HqVUqywykz9rdiEKzmJqV4pEFHyRZRlFYjgAm6vGvuLcW72BoPfbA7FL1LjjK2uJeHhCtM7cDWmJII4eZaRHC0Y1Id8UUBO3IsjZ1UOm-hD-jribYWm3nzNG0TVTz9e5lHIaH-G-GvsGcX5wqYgnjb63M5cfLik4vEeR61T1cFgTLdMVQ0Ljlh8nj161-NieQb9IQ4rsIugNu0lWgUfUus55XG7_s5ZkygtgANzZWAuJASjV0ivqxiCHNDPyhVHfzs_Ao-__jiXDp3Ipf0KhINvZ1VOfC0yem3sQrRsmMli69fzUmUli5SpeCybexypJhdQKRLYMik3pi0fT4_43qe6PFwur7_b3GHay432XLjG5gbI6iJ9lETuFakPQkZol12EXOjBHafLzxHOpFy0tAjb7RbnCNynApqEKx2pqqQi6fSDdI84Nur4rA6Ezl1Hu48QeWT-S_qKAF3nE3QWOLOqzNTY3QKj1oHTcNWJI_8J-VN-83isPKw7fEd2UXU0y35wtwE2vwZUfTQW-Mntz3WqGI5UMuUeOx8ed2wIV_45rT5lpxE0fRM_kNAwg2shbrXD3fyQDLNojxhuYkoSB71y7TzJMXAUphRbQo8Bn68y5G4-Swp1s8D-qohsGEgRik-ZWxT9RVl2cq6_dCRJ3ADfG7HOj_UtoqdrVwB3q53PAF-1mVpejpaK5TkUFrotNoVYo7G5eIDOHt9yhtx97iAWVpbxltLlQMlc7ONl29rxVP424Ngk01hrMUnAqJK8AjETZ0dHuw3qZshPx0dGYQIZGcqfC0DkBNrqBO8yoU9mU7rySViN16tZxbdw98iMBYqSNXvllYOkz7JbqPRHDXovhxTt1yRetzC3LtYP_Jbc7rsOl74-BrnAJWSiREGZilm80]--></g></svg>