<?xml version="1.0" encoding="us-ascii" standalone="no"?><svg xmlns="http://www.w3.org/2000/svg" xmlns:xlink="http://www.w3.org/1999/xlink" contentStyleType="text/css" height="1782px" preserveAspectRatio="none" style="width:1474px;height:1782px;background:#FFFFFF;" version="1.1" viewBox="0 0 1474 1782" width="1474px" zoomAndPan="magnify"><defs/><g><text fill="#000000" font-family="sans-serif" font-size="14" font-weight="bold" lengthAdjust="spacing" textLength="151" x="654.75" y="22.9951">Coinsage - Sprint 4</text><!--cluster Legenda--><g id="cluster_Legenda"><rect fill="none" height="143" rx="2.5" ry="2.5" style="stroke:#181818;stroke-width:1.0;" width="509.5" x="7" y="1633.2969"/><text fill="#000000" font-family="sans-serif" font-size="14" font-weight="bold" lengthAdjust="spacing" textLength="68" x="227.75" y="1648.292">Legenda</text></g><!--cluster Coinsage--><g id="cluster_Coinsage"><rect fill="none" height="1520" rx="2.5" ry="2.5" style="stroke:#181818;stroke-width:1.0;" width="1180" x="132.5" y="44.2969"/><text fill="#000000" font-family="sans-serif" font-size="14" font-weight="bold" lengthAdjust="spacing" textLength="73" x="686" y="59.292">Coinsage</text></g><!--entity Sprint 1--><g id="elem_Sprint 1"><rect fill="#ADD8E6" height="36.2969" rx="2.5" ry="2.5" style="stroke:#181818;stroke-width:0.5;" width="73" x="23" y="1724.2969"/><text fill="#000000" font-family="sans-serif" font-size="14" lengthAdjust="spacing" textLength="53" x="33" y="1747.292">Sprint 1</text></g><!--entity Sprint 2--><g id="elem_Sprint 2"><rect fill="#90EE90" height="36.2969" rx="2.5" ry="2.5" style="stroke:#181818;stroke-width:0.5;" width="73" x="23" y="1668.2969"/><text fill="#000000" font-family="sans-serif" font-size="14" lengthAdjust="spacing" textLength="53" x="33" y="1691.292">Sprint 2</text></g><!--entity Sprint 3--><g id="elem_Sprint 3"><rect fill="#F08080" height="36.2969" rx="2.5" ry="2.5" style="stroke:#181818;stroke-width:0.5;" width="73" x="427.5" y="1724.2969"/><text fill="#000000" font-family="sans-serif" font-size="14" lengthAdjust="spacing" textLength="53" x="437.5" y="1747.292">Sprint 3</text></g><!--entity Sprint 4--><g id="elem_Sprint 4"><rect fill="#FFFFE0" height="36.2969" rx="2.5" ry="2.5" style="stroke:#181818;stroke-width:0.5;" width="73" x="427.5" y="1668.2969"/><text fill="#000000" font-family="sans-serif" font-size="14" lengthAdjust="spacing" textLength="53" x="437.5" y="1691.292">Sprint 4</text></g><g id="elem_sch_cripto_info"><ellipse cx="463.7982" cy="1437.1565" fill="#ADD8E6" rx="162.2982" ry="34.8596" style="stroke:#181818;stroke-width:0.5;"/><text fill="#000000" font-family="sans-serif" font-size="14" lengthAdjust="spacing" textLength="296" x="315.7982" y="1440.0032">Schedule Coletar Informa&#231;&#245;es das moedas</text></g><g id="elem_sch_analysis"><ellipse cx="464.1147" cy="1360.4198" fill="#ADD8E6" rx="98.6147" ry="22.1229" style="stroke:#181818;stroke-width:0.5;"/><text fill="#000000" font-family="sans-serif" font-size="14" lengthAdjust="spacing" textLength="161" x="383.6147" y="1363.2665">Schedule Iniciar An&#225;lise</text></g><g id="elem_sch_sectors"><ellipse cx="463.8083" cy="1520.3585" fill="#F08080" rx="128.3083" ry="28.0617" style="stroke:#181818;stroke-width:0.5;"/><text fill="#000000" font-family="sans-serif" font-size="14" lengthAdjust="spacing" textLength="225" x="351.3083" y="1523.2052">RF01 - Schedule Coletar Setores</text></g><g id="elem_collect_cripto_week_incresse"><ellipse cx="1077.4468" cy="835.3862" fill="#ADD8E6" rx="125.9468" ry="27.5894" style="stroke:#181818;stroke-width:0.5;"/><text fill="#000000" font-family="sans-serif" font-size="14" lengthAdjust="spacing" textLength="220" x="967.4468" y="838.2329">RF06 - Coletar varia&#231;&#227;o semanal</text></g><g id="elem_collect_sectors"><ellipse cx="1077.3591" cy="1526.4687" fill="#90EE90" rx="96.3591" ry="21.6718" style="stroke:#181818;stroke-width:0.5;"/><text fill="#000000" font-family="sans-serif" font-size="14" lengthAdjust="spacing" textLength="156" x="999.3591" y="1529.3154">RF01 - Coletar Setores</text></g><g id="elem_collect_cripto_open_close"><ellipse cx="1077.7327" cy="921.3434" fill="#90EE90" rx="180.7327" ry="38.5465" style="stroke:#181818;stroke-width:0.5;"/><text fill="#000000" font-family="sans-serif" font-size="14" lengthAdjust="spacing" textLength="334" x="910.7327" y="924.1901">RF18 - Coletar pre&#231;os de abertura e fechamento</text></g><g id="elem_collect_ema8_relations"><ellipse cx="1077.649" cy="1008.4267" fill="#90EE90" rx="131.149" ry="28.6298" style="stroke:#181818;stroke-width:0.5;"/><text fill="#000000" font-family="sans-serif" font-size="14" lengthAdjust="spacing" textLength="231" x="962.149" y="1011.2734">RF17 - Calcular rela&#231;&#245;es de ema8</text></g><g id="elem_collect_volume_relations"><ellipse cx="1077.3751" cy="1086.4719" fill="#90EE90" rx="136.3751" ry="29.675" style="stroke:#181818;stroke-width:0.5;"/><text fill="#000000" font-family="sans-serif" font-size="14" lengthAdjust="spacing" textLength="242" x="956.3751" y="1089.3186">RF14 - Calcular rela&#231;&#245;es de volume</text></g><g id="elem_collect_market_cap"><ellipse cx="1077.7163" cy="1449.1401" fill="#F08080" rx="164.7163" ry="35.3433" style="stroke:#181818;stroke-width:0.5;"/><text fill="#000000" font-family="sans-serif" font-size="14" lengthAdjust="spacing" textLength="301" x="927.2163" y="1451.9868">RF03 - Coletar valor de mercado em bilh&#245;es</text></g><g id="elem_collect_cripto_current_price"><ellipse cx="1077.4123" cy="1173.0793" fill="#F08080" rx="174.4123" ry="37.2825" style="stroke:#181818;stroke-width:0.5;"/><text fill="#000000" font-family="sans-serif" font-size="14" lengthAdjust="spacing" textLength="321" x="916.9123" y="1175.926">RF21 - Coletar o pre&#231;o no momento da an&#225;lise</text></g><g id="elem_collect_expressive_volume_date"><ellipse cx="1077.4557" cy="1268.288" fill="#F08080" rx="172.9557" ry="36.9911" style="stroke:#181818;stroke-width:0.5;"/><text fill="#000000" font-family="sans-serif" font-size="14" lengthAdjust="spacing" textLength="318" x="918.4557" y="1271.1347">RF14 - Coletar aumento expressivo de volume</text></g><g id="elem_collect_emas_aligned"><ellipse cx="1077.3838" cy="637.2736" fill="#F08080" rx="175.3838" ry="37.4768" style="stroke:#181818;stroke-width:0.5;"/><text fill="#000000" font-family="sans-serif" font-size="14" lengthAdjust="spacing" textLength="323" x="915.8838" y="640.1203">RF27 - Coletar alinhamento das m&#233;dias m&#243;veis</text></g><g id="elem_collect_cripto_price_variations"><ellipse cx="1077.3794" cy="741.4728" fill="#F08080" rx="218.8794" ry="46.1759" style="stroke:#181818;stroke-width:0.5;"/><text fill="#000000" font-family="sans-serif" font-size="14" lengthAdjust="spacing" textLength="412" x="871.3794" y="744.3194">RF07 - Coletar vaia&#231;&#245;es de pre&#231;o para: 1y, 6m, 3m, 1m e 7d</text></g><g id="elem_view_cripto_info"><ellipse cx="463.8277" cy="749.1624" fill="#ADD8E6" rx="137.3277" ry="29.8655" style="stroke:#181818;stroke-width:0.5;"/><text fill="#000000" font-family="sans-serif" font-size="14" lengthAdjust="spacing" textLength="244" x="341.8277" y="752.0091">Vizualizar logo e nome das moedas</text></g><g id="elem_view_cripto_week_incresse"><ellipse cx="463.9805" cy="840.293" fill="#ADD8E6" rx="190.4805" ry="40.4961" style="stroke:#181818;stroke-width:0.5;"/><text fill="#000000" font-family="sans-serif" font-size="14" lengthAdjust="spacing" textLength="354" x="286.9805" y="843.1396">RF06 - Vizualizar porcentagem de varia&#231;&#227;o semanal</text></g><g id="elem_view_sectors"><ellipse cx="464.1608" cy="924.329" fill="#90EE90" rx="103.1608" ry="23.0322" style="stroke:#181818;stroke-width:0.5;"/><text fill="#000000" font-family="sans-serif" font-size="14" lengthAdjust="spacing" textLength="171" x="378.6608" y="927.1757">RF01 - Visualizar Setores</text></g><g id="elem_view_volume_relations"><ellipse cx="464.1446" cy="998.4258" fill="#90EE90" rx="141.1446" ry="30.6289" style="stroke:#181818;stroke-width:0.5;"/><text fill="#000000" font-family="sans-serif" font-size="14" lengthAdjust="spacing" textLength="252" x="338.1446" y="1001.2725">RF14 - Visualizar rela&#231;&#245;es de volume</text></g><g id="elem_view_market_cap"><ellipse cx="463.985" cy="1086.0939" fill="#F08080" rx="171.985" ry="36.797" style="stroke:#181818;stroke-width:0.5;"/><text fill="#000000" font-family="sans-serif" font-size="14" lengthAdjust="spacing" textLength="316" x="305.985" y="1088.9406">RF03 - Visualizar valor de mercado em bilh&#245;es</text></g><g id="elem_view_cripto_current_price"><ellipse cx="464.2063" cy="1182.5381" fill="#F08080" rx="181.7063" ry="38.7413" style="stroke:#181818;stroke-width:0.5;"/><text fill="#000000" font-family="sans-serif" font-size="14" lengthAdjust="spacing" textLength="336" x="296.2063" y="1185.3848">RF21 - Visualizar o pre&#231;o no momento da an&#225;lise</text></g><g id="elem_view_expressive_volume_increase"><ellipse cx="464.2461" cy="1279.2461" fill="#F08080" rx="180.2461" ry="38.4492" style="stroke:#181818;stroke-width:0.5;"/><text fill="#000000" font-family="sans-serif" font-size="14" lengthAdjust="spacing" textLength="333" x="297.7461" y="1282.0928">RF14 - Visualizar aumento do volume expressivo</text></g><g id="elem_view_ema8_relations"><ellipse cx="464.0416" cy="113.3052" fill="#F08080" rx="155.5416" ry="33.5083" style="stroke:#181818;stroke-width:0.5;"/><text fill="#000000" font-family="sans-serif" font-size="14" lengthAdjust="spacing" textLength="282" x="323.0416" y="116.1519">RF17/RF19 - Visualizar rela&#231;&#245;es de ema8</text></g><g id="elem_view_cripto_open_close"><ellipse cx="464.1413" cy="206.5251" fill="#F08080" rx="184.1413" ry="39.2283" style="stroke:#181818;stroke-width:0.5;"/><text fill="#000000" font-family="sans-serif" font-size="14" lengthAdjust="spacing" textLength="341" x="293.6413" y="209.3718">RF18 - Visualizar pre&#231;o de abertura e fechamento</text></g><g id="elem_view_emas_aligned"><ellipse cx="464.1801" cy="304.2329" fill="#F08080" rx="182.6801" ry="38.936" style="stroke:#181818;stroke-width:0.5;"/><text fill="#000000" font-family="sans-serif" font-size="14" lengthAdjust="spacing" textLength="338" x="295.1801" y="307.0796">RF27 - Visualizar alinhamento das m&#233;dias m&#243;veis</text></g><g id="elem_view_cripto_price_variations"><ellipse cx="464.2491" cy="411.4467" fill="#F08080" rx="226.2491" ry="47.6498" style="stroke:#181818;stroke-width:0.5;"/><text fill="#000000" font-family="sans-serif" font-size="14" lengthAdjust="spacing" textLength="427" x="250.7491" y="414.2934">RF07 - Visualizar vaia&#231;&#245;es de pre&#231;o para: 1y, 6m, 3m, 1m e 7d</text></g><g id="elem_register_cripto"><ellipse cx="463.8656" cy="513.27" fill="#FFFFE0" rx="160.3656" ry="34.4731" style="stroke:#181818;stroke-width:0.5;"/><text fill="#000000" font-family="sans-serif" font-size="14" lengthAdjust="spacing" textLength="292" x="317.8656" y="516.1167">RF20 - Cadastrar compra de criptomoedas</text></g><g id="elem_view_xlsl"><ellipse cx="464.1658" cy="633.33" fill="#FFFFE0" rx="315.6658" ry="65.5332" style="stroke:#181818;stroke-width:0.5;"/><text fill="#000000" font-family="sans-serif" font-size="14" lengthAdjust="spacing" textLength="608" x="160.1658" y="636.1767">RF08, RF13, RF18, RF19 - Visualizar planilha xlsl com dados da an&#225;lise das criptomoedas</text></g><g id="elem_collect_rankings"><ellipse cx="1077.4172" cy="1359.4803" fill="#FFFFE0" rx="158.9172" ry="34.1834" style="stroke:#181818;stroke-width:0.5;"/><text fill="#000000" font-family="sans-serif" font-size="14" lengthAdjust="spacing" textLength="289" x="932.9172" y="1362.327">RF03 - Coletar rankings das criptomoedas</text></g><!--entity investor--><g id="elem_investor"><ellipse cx="59.5" cy="719.7969" fill="#F1F1F1" rx="8" ry="8" style="stroke:#181818;stroke-width:0.5;"/><path d="M59.5,727.7969 L59.5,754.7969 M46.5,735.7969 L72.5,735.7969 M59.5,754.7969 L46.5,769.7969 M59.5,754.7969 L72.5,769.7969 " fill="none" style="stroke:#181818;stroke-width:0.5;"/><text fill="#000000" font-family="sans-serif" font-size="14" lengthAdjust="spacing" textLength="67" x="26" y="784.292">Investidor</text></g><!--entity schedule--><g id="elem_schedule"><ellipse cx="59.5" cy="1449.7969" fill="#F1F1F1" rx="8" ry="8" style="stroke:#181818;stroke-width:0.5;"/><path d="M59.5,1457.7969 L59.5,1484.7969 M46.5,1465.7969 L72.5,1465.7969 M59.5,1484.7969 L46.5,1499.7969 M59.5,1484.7969 L72.5,1499.7969 " fill="none" style="stroke:#181818;stroke-width:0.5;"/><text fill="#000000" font-family="sans-serif" font-size="14" lengthAdjust="spacing" textLength="96" x="11.5" y="1514.292">Temporizador</text></g><!--entity binance--><g id="elem_binance"><ellipse cx="1402.5" cy="891.7969" fill="#F1F1F1" rx="8" ry="8" style="stroke:#181818;stroke-width:0.5;"/><path d="M1402.5,899.7969 L1402.5,926.7969 M1389.5,907.7969 L1415.5,907.7969 M1402.5,926.7969 L1389.5,941.7969 M1402.5,926.7969 L1415.5,941.7969 " fill="none" style="stroke:#181818;stroke-width:0.5;"/><text fill="#000000" font-family="sans-serif" font-size="14" lengthAdjust="spacing" textLength="81" x="1362" y="956.292">Binance API</text></g><!--entity cmc--><g id="elem_cmc"><ellipse cx="1402.5" cy="1457.7969" fill="#F1F1F1" rx="8" ry="8" style="stroke:#181818;stroke-width:0.5;"/><path d="M1402.5,1465.7969 L1402.5,1492.7969 M1389.5,1473.7969 L1415.5,1473.7969 M1402.5,1492.7969 L1389.5,1507.7969 M1402.5,1492.7969 L1415.5,1507.7969 " fill="none" style="stroke:#181818;stroke-width:0.5;"/><text fill="#000000" font-family="sans-serif" font-size="14" lengthAdjust="spacing" textLength="130" x="1337.5" y="1522.292">CoinMarketCap API</text></g><!--link schedule to sch_analysis--><g id="link_schedule_sch_analysis"><path d="M78.92,1441.1169 C89.64,1423.1969 104.92,1403.3869 124.5,1392.2969 C201.8,1348.5069 305.2,1345.1469 377.3,1349.8069 " fill="none" id="schedule-sch_analysis" style="stroke:#181818;stroke-width:1.0;"/></g><!--link schedule to sch_cripto_info--><g id="link_schedule_sch_cripto_info"><path d="M107.55,1469.5369 C110.23,1469.0869 112.9,1468.6769 115.5,1468.2969 C178.3,1459.2469 247.88,1452.4069 308.19,1447.4969 " fill="none" id="schedule-sch_cripto_info" style="stroke:#181818;stroke-width:1.0;"/></g><!--link schedule to sch_sectors--><g id="link_schedule_sch_sectors"><path d="M107.86,1484.1169 C166.25,1490.0669 267.52,1500.3869 347.02,1508.4869 " fill="none" id="schedule-sch_sectors" style="stroke:#181818;stroke-width:1.0;"/></g><!--link schedule to collect_rankings--><g id="link_schedule_collect_rankings"><path d="M81.25,1517.6769 C91.92,1533.3169 106.5,1549.7069 124.5,1558.2969 C255.88,1620.9469 655.29,1634.1769 779.5,1558.2969 C845.14,1518.1969 797.27,1450.8669 858.5,1404.2969 C878.88,1388.7969 903.31,1378.3069 928.33,1371.2769 " fill="none" id="schedule-collect_rankings" style="stroke:#181818;stroke-width:1.0;"/></g><!--link register_cripto to binance--><g id="link_register_cripto_binance"><path d="M610.4,499.1069 C828.36,481.1669 1225.39,462.5269 1329.5,552.2969 C1379.12,595.0769 1395.19,797.6769 1399.82,883.1269 " fill="none" id="register_cripto-binance" style="stroke:#181818;stroke-width:1.0;"/></g><!--link sch_cripto_info to binance--><g id="link_sch_cripto_info_binance"><path d="M604.84,1454.8169 C667.61,1454.3869 736.95,1440.8169 779.5,1392.2969 C792.74,1377.1969 780.27,688.0369 787.5,669.2969 C804.62,624.9469 815.14,608.7869 858.5,589.2969 C952.14,547.2069 1239.76,525.8869 1320.5,589.2969 C1366.64,625.5269 1389.83,803.8869 1397.99,883.1769 " fill="none" id="sch_cripto_info-binance" style="stroke:#181818;stroke-width:1.0;"/></g><!--link sch_cripto_info to cmc--><g id="link_sch_cripto_info_cmc"><path d="M625.84,1441.0369 C676.96,1447.1869 732.41,1459.3169 779.5,1482.2969 C823.28,1503.6669 813.31,1540.0869 858.5,1558.2969 C1048.95,1635.0369 1128.32,1630.6069 1320.5,1558.2969 C1338.7,1551.4469 1355.48,1538.4469 1368.99,1525.4169 " fill="none" id="sch_cripto_info-cmc" style="stroke:#181818;stroke-width:1.0;"/></g><!--link collect_cripto_week_incresse to binance--><g id="link_collect_cripto_week_incresse_binance"><path d="M1197.13,844.0369 C1237.16,849.4369 1281.54,858.1669 1320.5,872.2969 C1334.71,877.4469 1349.17,885.2269 1361.87,893.0769 " fill="none" id="collect_cripto_week_incresse-binance" style="stroke:#181818;stroke-width:1.0;"/></g><!--link collect_cripto_current_price to binance--><g id="link_collect_cripto_current_price_binance"><path d="M1245.26,1162.9369 C1272.57,1155.1569 1298.94,1143.2469 1320.5,1125.2969 C1370.72,1083.4769 1390.01,1006.1369 1397.27,959.6369 " fill="none" id="collect_cripto_current_price-binance" style="stroke:#181818;stroke-width:1.0;"/></g><!--link collect_cripto_open_close to binance--><g id="link_collect_cripto_open_close_binance"><path d="M1258.42,921.2969 C1297.38,921.2969 1334.9,921.2969 1361.74,921.2969 " fill="none" id="collect_cripto_open_close-binance" style="stroke:#181818;stroke-width:1.0;"/></g><!--link collect_ema8_relations to binance--><g id="link_collect_ema8_relations_binance"><path d="M1199.53,997.8469 C1238.91,992.0769 1282.29,983.1369 1320.5,969.2969 C1334.64,964.1769 1349.08,956.5369 1361.77,948.8469 " fill="none" id="collect_ema8_relations-binance" style="stroke:#181818;stroke-width:1.0;"/></g><!--link collect_volume_relations to binance--><g id="link_collect_volume_relations_binance"><path d="M1213.56,1083.8069 C1250.54,1078.0369 1289.06,1066.8869 1320.5,1046.2969 C1351.98,1025.6869 1373.84,988.1269 1386.85,959.5369 " fill="none" id="collect_volume_relations-binance" style="stroke:#181818;stroke-width:1.0;"/></g><!--link collect_expressive_volume_date to binance--><g id="link_collect_expressive_volume_date_binance"><path d="M1246.39,1260.0969 C1273.74,1252.1269 1299.84,1239.5869 1320.5,1220.2969 C1358.58,1184.7469 1385.42,1031.7369 1396.22,959.4269 " fill="none" id="collect_expressive_volume_date-binance" style="stroke:#181818;stroke-width:1.0;"/></g><!--link collect_market_cap to cmc--><g id="link_collect_market_cap_cmc"><path d="M1222.52,1466.2369 C1262.73,1470.9669 1304.4,1475.8769 1337.4,1479.7569 " fill="none" id="collect_market_cap-cmc" style="stroke:#181818;stroke-width:1.0;"/></g><!--link collect_emas_aligned to binance--><g id="link_collect_emas_aligned_binance"><path d="M1246.91,647.0869 C1273.81,654.9669 1299.61,667.0469 1320.5,685.2969 C1378.57,736.0269 1395.05,830.3069 1399.7,883.0469 " fill="none" id="collect_emas_aligned-binance" style="stroke:#181818;stroke-width:1.0;"/></g><!--link collect_cripto_price_variations to binance--><g id="link_collect_cripto_price_variations_binance"><path d="M1259.89,766.9469 C1281.42,774.6169 1302.21,784.5169 1320.5,797.2969 C1350.85,818.5069 1372.69,855.0869 1385.98,883.0369 " fill="none" id="collect_cripto_price_variations-binance" style="stroke:#181818;stroke-width:1.0;"/></g><!--link sch_sectors to collect_sectors--><g id="link_sch_sectors_collect_sectors"><path d="M592.45,1521.5469 C708.13,1522.6869 876.16,1524.3269 980.75,1525.3569 " fill="none" id="sch_sectors-collect_sectors" style="stroke:#181818;stroke-width:1.0;"/></g><!--link collect_sectors to cmc--><g id="link_collect_sectors_cmc"><path d="M1162.94,1516.0969 C1217.52,1509.5069 1287.44,1501.0669 1337.45,1495.0269 " fill="none" id="collect_sectors-cmc" style="stroke:#181818;stroke-width:1.0;"/></g><!--link collect_rankings to binance--><g id="link_collect_rankings_binance"><path d="M1236.63,1357.8369 C1267.74,1350.5569 1297.75,1337.5369 1320.5,1315.2969 C1371,1265.9369 1392.26,1048.6469 1398.97,959.5869 " fill="none" id="collect_rankings-binance" style="stroke:#181818;stroke-width:1.0;"/></g><!--link collect_rankings to cmc--><g id="link_collect_rankings_cmc"><path d="M1225.42,1371.7869 C1258.02,1378.5369 1291.48,1388.7869 1320.5,1404.2969 C1340.74,1415.1169 1359.02,1432.7569 1373.07,1448.9969 " fill="none" id="collect_rankings-cmc" style="stroke:#181818;stroke-width:1.0;"/></g><!--link investor to view_sectors--><g id="link_investor_view_sectors"><path d="M66.94,787.4369 C74.64,820.3369 90.97,866.2369 124.5,890.2969 C198.4,943.3269 305.89,944.8569 379.8,937.6569 " fill="none" id="investor-view_sectors" style="stroke:#181818;stroke-width:1.0;"/></g><!--link investor to view_cripto_info--><g id="link_investor_view_cripto_info"><path d="M93.1,749.2969 C143.44,749.2969 242.99,749.2969 326.14,749.2969 " fill="none" id="investor-view_cripto_info" style="stroke:#181818;stroke-width:1.0;"/></g><!--link investor to view_cripto_week_incresse--><g id="link_investor_view_cripto_week_incresse"><path d="M93.04,773.1969 C102.74,779.3269 113.68,785.2969 124.5,789.2969 C174.53,807.7869 231.09,819.5869 283.44,827.1069 " fill="none" id="investor-view_cripto_week_incresse" style="stroke:#181818;stroke-width:1.0;"/></g><!--link investor to view_cripto_current_price--><g id="link_investor_view_cripto_current_price"><path d="M61.35,787.6169 C64.13,875.1169 75.84,1085.6669 124.5,1133.2969 C169.16,1177.0169 234.32,1193.0669 295.56,1196.8169 " fill="none" id="investor-view_cripto_current_price" style="stroke:#181818;stroke-width:1.0;"/></g><!--link investor to view_cripto_open_close--><g id="link_investor_view_cripto_open_close"><path d="M59.76,711.2169 C58.57,606.8169 61.23,319.5169 124.5,255.2969 C168.36,210.7769 233.37,194.5769 294.73,190.9469 " fill="none" id="investor-view_cripto_open_close" style="stroke:#181818;stroke-width:1.0;"/></g><!--link investor to view_ema8_relations--><g id="link_investor_view_ema8_relations"><path d="M61.93,711.2269 C66.95,586.6669 85.68,196.9669 124.5,157.2969 C177.76,102.8769 262.84,91.9969 334.38,94.6669 " fill="none" id="investor-view_ema8_relations" style="stroke:#181818;stroke-width:1.0;"/></g><!--link investor to view_volume_relations--><g id="link_investor_view_volume_relations"><path d="M60.51,787.4869 C62.76,835.1169 74.36,915.3669 124.5,957.2969 C184.22,1007.2269 271.9,1016.6869 343.06,1014.0669 " fill="none" id="investor-view_volume_relations" style="stroke:#181818;stroke-width:1.0;"/></g><!--link investor to view_expressive_volume_increase--><g id="link_investor_view_expressive_volume_increase"><path d="M59.91,787.4869 C59.16,890.0669 62.98,1168.0669 124.5,1230.2969 C169.48,1275.7969 236.56,1291.6769 299.18,1294.8069 " fill="none" id="investor-view_expressive_volume_increase" style="stroke:#181818;stroke-width:1.0;"/></g><!--link investor to view_market_cap--><g id="link_investor_view_market_cap"><path d="M63.63,787.3469 C70.26,857.8369 88.16,1004.6469 124.5,1038.2969 C172.41,1082.6469 241.65,1097.7469 305.04,1100.5469 " fill="none" id="investor-view_market_cap" style="stroke:#181818;stroke-width:1.0;"/></g><!--link investor to view_emas_aligned--><g id="link_investor_view_emas_aligned"><path d="M61.13,711.1169 C63.44,621.7469 74.23,402.7469 124.5,353.2969 C168.84,309.6769 233.57,293.5469 294.58,289.7169 " fill="none" id="investor-view_emas_aligned" style="stroke:#181818;stroke-width:1.0;"/></g><!--link investor to view_cripto_price_variations--><g id="link_investor_view_cripto_price_variations"><path d="M64.01,711.0369 C71.14,642.1169 89.67,501.1869 124.5,468.2969 C155.59,438.9369 195.84,421.5569 237.67,411.7469 " fill="none" id="investor-view_cripto_price_variations" style="stroke:#181818;stroke-width:1.0;"/></g><!--link investor to view_xlsl--><g id="link_investor_view_xlsl"><path d="M93.23,725.8869 C102.94,719.7769 113.83,713.6769 124.5,709.2969 C156.12,696.3069 190.35,685.3469 224.49,676.1469 " fill="none" id="investor-view_xlsl" style="stroke:#181818;stroke-width:1.0;"/></g><!--link investor to register_cripto--><g id="link_investor_register_cripto"><path d="M61.77,710.9269 C65.46,666.6369 78.67,595.0569 124.5,557.2969 C177.44,513.6769 251.71,500.5069 317.2,499.1669 " fill="none" id="investor-register_cripto" style="stroke:#181818;stroke-width:1.0;"/></g><!--link sch_analysis to collect_cripto_week_incresse--><g id="link_sch_analysis_collect_cripto_week_incresse"><path d="M532.37,1376.2169 C604.87,1388.9069 718.02,1394.9769 779.5,1328.2969 C794.34,1312.1969 778.24,954.1369 787.5,934.2969 C816.04,873.1369 881.6734,849.1866 946.4534,839.6966 " fill="none" id="sch_analysis-to-collect_cripto_week_incresse" style="stroke:#181818;stroke-width:1.0;"/><polygon fill="#181818" points="952.39,838.8269,942.9053,836.1737,947.4428,839.5516,944.0648,844.0892,952.39,838.8269" style="stroke:#181818;stroke-width:1.0;"/><text fill="#000000" font-family="sans-serif" font-size="13" lengthAdjust="spacing" textLength="61" x="788.5" y="869.3638">&#171;include&#187;</text></g><!--link sch_analysis to collect_cripto_current_price--><g id="link_sch_analysis_collect_cripto_current_price"><path d="M533.67,1375.9169 C605.66,1387.8169 716.83,1392.7069 779.5,1328.2969 C796.28,1311.0469 771.24,1238.0369 787.5,1220.2969 C818.24,1186.7569 856.8598,1171.7621 901.8398,1165.3621 " fill="none" id="sch_analysis-to-collect_cripto_current_price" style="stroke:#181818;stroke-width:1.0;"/><polygon fill="#181818" points="907.78,1164.5169,898.3063,1161.8246,902.8299,1165.2212,899.4332,1169.7448,907.78,1164.5169" style="stroke:#181818;stroke-width:1.0;"/><text fill="#000000" font-family="sans-serif" font-size="13" lengthAdjust="spacing" textLength="61" x="788.5" y="1178.3638">&#171;include&#187;</text></g><!--link sch_analysis to collect_cripto_current_price--><g id="link_sch_analysis_collect_cripto_current_price"><path d="M538.58,1374.7869 C609,1384.1169 713.94,1385.4669 779.5,1328.2969 C790.87,1318.3769 779.55,1308.1269 787.5,1295.2969 C806.77,1264.1869 829.31,1272.1269 850.5,1242.2969 C856.28,1234.1569 850.94,1227.8169 858.5,1221.2969 C875.59,1206.5569 890.5179,1197.9931 912.1479,1190.5331 " fill="none" id="sch_analysis-to-collect_cripto_current_price-1" style="stroke:#181818;stroke-width:1.0;"/><polygon fill="#181818" points="917.82,1188.5769,908.0076,1187.7299,913.0932,1190.2071,910.616,1195.2927,917.82,1188.5769" style="stroke:#181818;stroke-width:1.0;"/><text fill="#000000" font-family="sans-serif" font-size="13" lengthAdjust="spacing" textLength="61" x="788.5" y="1238.3638">&#171;include&#187;</text></g><!--link sch_analysis to collect_cripto_open_close--><g id="link_sch_analysis_collect_cripto_open_close"><path d="M532.3,1376.1569 C604.75,1388.7869 717.85,1394.8169 779.5,1328.2969 C791.36,1315.4969 778.89,1029.4769 787.5,1014.2969 C812.13,970.8469 852.3182,948.3939 900.4782,935.3639 " fill="none" id="sch_analysis-to-collect_cripto_open_close" style="stroke:#181818;stroke-width:1.0;"/><polygon fill="#181818" points="906.27,933.7969,896.5377,932.2862,901.4435,935.1027,898.627,940.0085,906.27,933.7969" style="stroke:#181818;stroke-width:1.0;"/><text fill="#000000" font-family="sans-serif" font-size="13" lengthAdjust="spacing" textLength="61" x="788.5" y="952.3638">&#171;include&#187;</text></g><!--link sch_analysis to collect_ema8_relations--><g id="link_sch_analysis_collect_ema8_relations"><path d="M532.53,1376.1269 C604.9,1388.6369 717.68,1394.4769 779.5,1328.2969 C797.71,1308.7969 773.9,1111.2469 787.5,1088.2969 C819.55,1034.2169 879.6987,1014.0371 940.6087,1007.0871 " fill="none" id="sch_analysis-to-collect_ema8_relations" style="stroke:#181818;stroke-width:1.0;"/><polygon fill="#181818" points="946.57,1006.4069,937.1746,1003.453,941.6022,1006.9737,938.0815,1011.4014,946.57,1006.4069" style="stroke:#181818;stroke-width:1.0;"/><text fill="#000000" font-family="sans-serif" font-size="13" lengthAdjust="spacing" textLength="61" x="788.5" y="1032.3638">&#171;include&#187;</text></g><!--link sch_analysis to collect_volume_relations--><g id="link_sch_analysis_collect_volume_relations"><path d="M533.01,1376.0669 C605.25,1388.3569 717.4,1393.8269 779.5,1328.2969 C792.35,1314.7269 777.26,1175.9269 787.5,1160.2969 C820.51,1109.9369 877.1689,1090.7391 935.7089,1084.0391 " fill="none" id="sch_analysis-to-collect_volume_relations" style="stroke:#181818;stroke-width:1.0;"/><polygon fill="#181818" points="941.67,1083.3569,932.2735,1080.4062,936.7024,1083.9254,933.1832,1088.3543,941.67,1083.3569" style="stroke:#181818;stroke-width:1.0;"/><text fill="#000000" font-family="sans-serif" font-size="13" lengthAdjust="spacing" textLength="61" x="788.5" y="1106.3638">&#171;include&#187;</text></g><!--link sch_analysis to collect_expressive_volume_date--><g id="link_sch_analysis_collect_expressive_volume_date"><path d="M557.5,1353.2869 C620.32,1347.9369 705.16,1339.5569 779.5,1328.2969 C838.53,1319.3569 897.7307,1307.7923 951.8807,1296.3023 " fill="none" id="sch_analysis-to-collect_expressive_volume_date" style="stroke:#181818;stroke-width:1.0;"/><polygon fill="#181818" points="957.75,1295.0569,948.1157,1293.0121,952.8589,1296.0947,949.7763,1300.8379,957.75,1295.0569" style="stroke:#181818;stroke-width:1.0;"/><text fill="#000000" font-family="sans-serif" font-size="13" lengthAdjust="spacing" textLength="61" x="788.5" y="1313.3638">&#171;include&#187;</text></g><!--link sch_analysis to collect_market_cap--><g id="link_sch_analysis_collect_market_cap"><path d="M557.12,1367.5169 C619.96,1372.9669 704.97,1381.3769 779.5,1392.2969 C839.24,1401.0469 899.3581,1412.2625 953.9381,1423.2525 " fill="none" id="sch_analysis-to-collect_market_cap" style="stroke:#181818;stroke-width:1.0;"/><polygon fill="#181818" points="959.82,1424.4369,951.7867,1418.739,954.9184,1423.4499,950.2075,1426.5816,959.82,1424.4369" style="stroke:#181818;stroke-width:1.0;"/><text fill="#000000" font-family="sans-serif" font-size="13" lengthAdjust="spacing" textLength="61" x="788.5" y="1389.3638">&#171;include&#187;</text></g><!--link sch_analysis to collect_emas_aligned--><g id="link_sch_analysis_collect_emas_aligned"><path d="M532.11,1376.2369 C604.67,1389.0169 718.13,1395.2569 779.5,1328.2969 C790.03,1316.8069 781.95,781.8569 787.5,767.2969 C804.66,722.2469 817.08,709.9569 858.5,685.2969 C879.4,672.8569 897.3807,665.2846 921.3307,658.4446 " fill="none" id="sch_analysis-to-collect_emas_aligned" style="stroke:#181818;stroke-width:1.0;"/><polygon fill="#181818" points="927.1,656.7969,917.3476,655.4222,922.2922,658.17,919.5445,663.1146,927.1,656.7969" style="stroke:#181818;stroke-width:1.0;"/><text fill="#000000" font-family="sans-serif" font-size="13" lengthAdjust="spacing" textLength="61" x="788.5" y="687.3638">&#171;include&#187;</text></g><!--link sch_analysis to collect_cripto_price_variations--><g id="link_sch_analysis_collect_cripto_price_variations"><path d="M532.08,1376.2069 C604.61,1388.9569 718.05,1395.1869 779.5,1328.2969 C797.43,1308.7769 775.53,874.9469 787.5,851.2969 C808.9,809.0269 844.2507,784.8759 888.7807,768.6959 " fill="none" id="sch_analysis-to-collect_cripto_price_variations" style="stroke:#181818;stroke-width:1.0;"/><polygon fill="#181818" points="894.42,766.6469,884.5951,765.9609,889.7206,768.3544,887.3271,773.4799,894.42,766.6469" style="stroke:#181818;stroke-width:1.0;"/><text fill="#000000" font-family="sans-serif" font-size="13" lengthAdjust="spacing" textLength="61" x="788.5" y="785.3638">&#171;include&#187;</text></g><!--link sch_analysis to collect_rankings--><g id="link_sch_analysis_collect_rankings"><path d="M562.57,1360.1369 C658.33,1359.9769 799.98,1359.7465 912.5,1359.5665 " fill="none" id="sch_analysis-to-collect_rankings" style="stroke:#181818;stroke-width:1.0;"/><polygon fill="#181818" points="918.5,1359.5569,909.4936,1355.5713,913.5,1359.5649,909.5064,1363.5713,918.5,1359.5569" style="stroke:#181818;stroke-width:1.0;"/><text fill="#000000" font-family="sans-serif" font-size="13" lengthAdjust="spacing" textLength="61" x="788.5" y="1355.3638">&#171;include&#187;</text></g><!--SRC=[jLXHJnmt47w_Ns7H1rv0S41pD8gG258hf5IAGfkeJoUpEznPUEsLxJqIglwOgWzHdwl-0lvOnzxrdUtr7akWaGASFPxvPkRpP_iCCnp8XMH2qmMGVN9LAoOCEPbCEDmOOYHHRB4qf6GA2iEacD32I4LsBiKAj66bL3k4QiBSHwdyz2zGrLAnU-eDTB64ik7W3TuoGKK1vFpzfPk_RZ_xQGlfPwfkmLpGUcrKLCLaOe5GiK3SE-zW0QAaExzF2FxJjqpKLD6AL4nSSAhr9rQQ9PaU9jD2bg2X9jDaN55nsuwxYI1GLvRf3ldkdQt7Mzx0WCsHj_b90OW1esDlT24LvGD69zxeD-1StZchtOpTzzxkFHEtap-Y2ldMzahaQt1qEEaSNtKTqgJHG0ggGVkPkgqKZjjX3DoP8dCu6Ah8fRYHgg8FNn_-nVKbjggIWBzyw-U5OhMHSuPsQGdxNYy5AnXwFHSFVtAcOUs52ig_QAPJ5nRYSUpimu-7Kyld5EaL8BzW0mpjSK27xI07w6yf6rwIQo2wQokvRWnMpH1a79Hazy3NxTo1WiUhXf1U8IIFP4KLinNxIn8DbKsjvRZa737vYjq1t6BP2iICFZ9v7sNppgNhFSSfRsWQ-9YU1Zvg1GzV9ROL2Bq6PHf52P0RA9Qq0c5a3hQiGSmBBjUOys5cDWpbHSCnZWA-PX0GBCbfvDaEpAsDbQ7jw4-6tQuaRog87BT3MrpdwNKSzPAZQg7x2bI1ceVeKT7uqaQDObLEq-O5YjetC2w1S1HsMdPzmXMu-LnZS2CI6kwXf4b5enJQpJ5U0I-0fwrxXuSsBGRuN5lkifKSAF_Q07mdIcfU0ixHB8J3cUZuskhJmzybSx__MG7JATFq71Si1FfDTJgam2oY00jerlN2QkrhClsoHrvLU-GO_qyht3kpCjSEruQvauMGXsteZeWV08zLyxZMV6Jt3MPmZy2uN60Ni58LfCgyOd0tIfexwGgy8em2Yub7I-NwcXUpCC0tAjb7fdtCKCoSvp5ATXBx65G3v_0PKX34U5GDNAoNbu80mXWr29lplqX1WCUh0HQZhN6W2nimVIbmVA7wHI3D3l373zlei3vpMZIv0-TP24xZu5sBjfwhOPDwX-gprJ7iq0Y1z6KPhuxHhdYoG8R9Zr77JnG5rNWG6t4ywIL_w6u8cATH2AsGLOt5HrXji40Y5IoODg0w6FqRUPZnwHx1BX-xd-tV2TrgJWKA0IMVkUOsB9Qwj5UhpTPqnU_1S9LmYp9FWao2qUt4lckOMEYyQtyAhQsY2FYSo3yD_8EExEz7T_FUH72-zEOw0O_6KpmM03u0huBOQLDmbNy_fe-DxLFsGRdrmXqittfv6hOBDct6AD6OZ4NlICfvoL-XCfR1ePEa7sthuNHwsp0fi3-IWqRw9gVlZmJ0cd-PuE6S-n9WbrnstpW4jF1VGbYhy7xGdmWvEJGP4M7GAgB1eDM617sJc0Bz-PG06G-3nsRVTaE0B98r1GPJIGdGDxGo5OqcstLYs_UhxnhP91OzyVVtpxQ_XSbhykODVk9D2MTdZowEz-iJ5mURUEpAP6UFNTRRxgFZvJLWvEf05vvJrl6rsMZDq-Brz6VayhM2nFR_0G00]--></g></svg>
