<?xml version="1.0" encoding="us-ascii" standalone="no"?><svg xmlns="http://www.w3.org/2000/svg" xmlns:xlink="http://www.w3.org/1999/xlink" contentStyleType="text/css" height="1586px" preserveAspectRatio="none" style="width:1295px;height:1586px;background:#FFFFFF;" version="1.1" viewBox="0 0 1295 1586" width="1295px" zoomAndPan="magnify"><defs/><g><text fill="#000000" font-family="sans-serif" font-size="14" font-weight="bold" lengthAdjust="spacing" textLength="151" x="565.25" y="22.9951">Coinsage - Sprint 4</text><!--cluster Legenda--><g id="cluster_Legenda"><rect fill="none" height="143" rx="2.5" ry="2.5" style="stroke:#181818;stroke-width:1.0;" width="420" x="7" y="1437.2969"/><text fill="#000000" font-family="sans-serif" font-size="14" font-weight="bold" lengthAdjust="spacing" textLength="68" x="183" y="1452.292">Legenda</text></g><!--cluster Coinsage--><g id="cluster_Coinsage"><rect fill="none" height="1369" rx="2.5" ry="2.5" style="stroke:#181818;stroke-width:1.0;" width="1001" x="132.5" y="44.2969"/><text fill="#000000" font-family="sans-serif" font-size="14" font-weight="bold" lengthAdjust="spacing" textLength="73" x="596.5" y="59.292">Coinsage</text></g><!--entity Sprint 1--><g id="elem_Sprint 1"><rect fill="#ADD8E6" height="36.2969" rx="2.5" ry="2.5" style="stroke:#181818;stroke-width:0.5;" width="73" x="23" y="1528.2969"/><text fill="#000000" font-family="sans-serif" font-size="14" lengthAdjust="spacing" textLength="53" x="33" y="1551.292">Sprint 1</text></g><!--entity Sprint 2--><g id="elem_Sprint 2"><rect fill="#90EE90" height="36.2969" rx="2.5" ry="2.5" style="stroke:#181818;stroke-width:0.5;" width="73" x="23" y="1472.2969"/><text fill="#000000" font-family="sans-serif" font-size="14" lengthAdjust="spacing" textLength="53" x="33" y="1495.292">Sprint 2</text></g><!--entity Sprint 3--><g id="elem_Sprint 3"><rect fill="#F08080" height="36.2969" rx="2.5" ry="2.5" style="stroke:#181818;stroke-width:0.5;" width="73" x="338" y="1528.2969"/><text fill="#000000" font-family="sans-serif" font-size="14" lengthAdjust="spacing" textLength="53" x="348" y="1551.292">Sprint 3</text></g><!--entity Sprint 4--><g id="elem_Sprint 4"><rect fill="#FFFFE0" height="36.2969" rx="2.5" ry="2.5" style="stroke:#181818;stroke-width:0.5;" width="73" x="338" y="1472.2969"/><text fill="#000000" font-family="sans-serif" font-size="14" lengthAdjust="spacing" textLength="53" x="348" y="1495.292">Sprint 4</text></g><g id="elem_sch_cripto_info"><ellipse cx="374.2982" cy="1132.1565" fill="#ADD8E6" rx="162.2982" ry="34.8596" style="stroke:#181818;stroke-width:0.5;"/><text fill="#000000" font-family="sans-serif" font-size="14" lengthAdjust="spacing" textLength="296" x="226.2982" y="1135.0032">Schedule Coletar Informa&#231;&#245;es das moedas</text></g><g id="elem_sch_analysis"><ellipse cx="374.6147" cy="1209.4198" fill="#ADD8E6" rx="98.6147" ry="22.1229" style="stroke:#181818;stroke-width:0.5;"/><text fill="#000000" font-family="sans-serif" font-size="14" lengthAdjust="spacing" textLength="161" x="294.1147" y="1212.2665">Schedule Iniciar An&#225;lise</text></g><g id="elem_sch_sectors"><ellipse cx="374.3083" cy="1279.3585" fill="#F08080" rx="128.3083" ry="28.0617" style="stroke:#181818;stroke-width:0.5;"/><text fill="#000000" font-family="sans-serif" font-size="14" lengthAdjust="spacing" textLength="225" x="261.8083" y="1282.2052">RF01 - Schedule Coletar Setores</text></g><g id="elem_collect_cripto_week_incresse"><ellipse cx="898.4468" cy="564.3862" fill="#ADD8E6" rx="125.9468" ry="27.5894" style="stroke:#181818;stroke-width:0.5;"/><text fill="#000000" font-family="sans-serif" font-size="14" lengthAdjust="spacing" textLength="220" x="788.4468" y="567.2329">RF06 - Coletar varia&#231;&#227;o semanal</text></g><g id="elem_collect_sectors"><ellipse cx="898.3591" cy="1284.4687" fill="#90EE90" rx="96.3591" ry="21.6718" style="stroke:#181818;stroke-width:0.5;"/><text fill="#000000" font-family="sans-serif" font-size="14" lengthAdjust="spacing" textLength="156" x="820.3591" y="1287.3154">RF01 - Coletar Setores</text></g><g id="elem_collect_cripto_open_close"><ellipse cx="898.7327" cy="650.3434" fill="#90EE90" rx="180.7327" ry="38.5465" style="stroke:#181818;stroke-width:0.5;"/><text fill="#000000" font-family="sans-serif" font-size="14" lengthAdjust="spacing" textLength="334" x="731.7327" y="653.1901">RF18 - Coletar pre&#231;os de abertura e fechamento</text></g><g id="elem_collect_ema8_relations"><ellipse cx="898.649" cy="737.4267" fill="#90EE90" rx="131.149" ry="28.6298" style="stroke:#181818;stroke-width:0.5;"/><text fill="#000000" font-family="sans-serif" font-size="14" lengthAdjust="spacing" textLength="231" x="783.149" y="740.2734">RF17 - Calcular rela&#231;&#245;es de ema8</text></g><g id="elem_collect_volume_relations"><ellipse cx="898.3751" cy="815.4719" fill="#90EE90" rx="136.3751" ry="29.675" style="stroke:#181818;stroke-width:0.5;"/><text fill="#000000" font-family="sans-serif" font-size="14" lengthAdjust="spacing" textLength="242" x="777.3751" y="818.3186">RF14 - Calcular rela&#231;&#245;es de volume</text></g><g id="elem_collect_market_cap"><ellipse cx="898.7163" cy="1361.1401" fill="#F08080" rx="164.7163" ry="35.3433" style="stroke:#181818;stroke-width:0.5;"/><text fill="#000000" font-family="sans-serif" font-size="14" lengthAdjust="spacing" textLength="301" x="748.2163" y="1363.9868">RF03 - Coletar valor de mercado em bilh&#245;es</text></g><g id="elem_collect_cripto_current_price"><ellipse cx="898.4123" cy="902.0793" fill="#F08080" rx="174.4123" ry="37.2825" style="stroke:#181818;stroke-width:0.5;"/><text fill="#000000" font-family="sans-serif" font-size="14" lengthAdjust="spacing" textLength="321" x="737.9123" y="904.926">RF21 - Coletar o pre&#231;o no momento da an&#225;lise</text></g><g id="elem_collect_expressive_volume_date"><ellipse cx="898.4557" cy="997.288" fill="#F08080" rx="172.9557" ry="36.9911" style="stroke:#181818;stroke-width:0.5;"/><text fill="#000000" font-family="sans-serif" font-size="14" lengthAdjust="spacing" textLength="318" x="739.4557" y="1000.1347">RF14 - Coletar aumento expressivo de volume</text></g><g id="elem_collect_emas_aligned"><ellipse cx="898.3838" cy="1092.2736" fill="#F08080" rx="175.3838" ry="37.4768" style="stroke:#181818;stroke-width:0.5;"/><text fill="#000000" font-family="sans-serif" font-size="14" lengthAdjust="spacing" textLength="323" x="736.8838" y="1095.1203">RF27 - Coletar alinhamento das m&#233;dias m&#243;veis</text></g><g id="elem_collect_cripto_price_variations"><ellipse cx="898.3794" cy="1196.4728" fill="#F08080" rx="218.8794" ry="46.1759" style="stroke:#181818;stroke-width:0.5;"/><text fill="#000000" font-family="sans-serif" font-size="14" lengthAdjust="spacing" textLength="412" x="692.3794" y="1199.3194">RF07 - Coletar vaia&#231;&#245;es de pre&#231;o para: 1y, 6m, 3m, 1m e 7d</text></g><g id="elem_view_cripto_info"><ellipse cx="374.3277" cy="109.1624" fill="#ADD8E6" rx="137.3277" ry="29.8655" style="stroke:#181818;stroke-width:0.5;"/><text fill="#000000" font-family="sans-serif" font-size="14" lengthAdjust="spacing" textLength="244" x="252.3277" y="112.0091">Vizualizar logo e nome das moedas</text></g><g id="elem_view_cripto_week_incresse"><ellipse cx="374.4805" cy="200.293" fill="#ADD8E6" rx="190.4805" ry="40.4961" style="stroke:#181818;stroke-width:0.5;"/><text fill="#000000" font-family="sans-serif" font-size="14" lengthAdjust="spacing" textLength="354" x="197.4805" y="203.1396">RF06 - Vizualizar porcentagem de varia&#231;&#227;o semanal</text></g><g id="elem_view_sectors"><ellipse cx="374.6608" cy="284.329" fill="#90EE90" rx="103.1608" ry="23.0322" style="stroke:#181818;stroke-width:0.5;"/><text fill="#000000" font-family="sans-serif" font-size="14" lengthAdjust="spacing" textLength="171" x="289.1608" y="287.1757">RF01 - Visualizar Setores</text></g><g id="elem_view_volume_relations"><ellipse cx="374.6446" cy="358.4258" fill="#90EE90" rx="141.1446" ry="30.6289" style="stroke:#181818;stroke-width:0.5;"/><text fill="#000000" font-family="sans-serif" font-size="14" lengthAdjust="spacing" textLength="252" x="248.6446" y="361.2725">RF14 - Visualizar rela&#231;&#245;es de volume</text></g><g id="elem_view_market_cap"><ellipse cx="374.485" cy="446.0939" fill="#F08080" rx="171.985" ry="36.797" style="stroke:#181818;stroke-width:0.5;"/><text fill="#000000" font-family="sans-serif" font-size="14" lengthAdjust="spacing" textLength="316" x="216.485" y="448.9406">RF03 - Visualizar valor de mercado em bilh&#245;es</text></g><g id="elem_view_cripto_current_price"><ellipse cx="374.7063" cy="542.5381" fill="#F08080" rx="181.7063" ry="38.7413" style="stroke:#181818;stroke-width:0.5;"/><text fill="#000000" font-family="sans-serif" font-size="14" lengthAdjust="spacing" textLength="336" x="206.7063" y="545.3848">RF21 - Visualizar o pre&#231;o no momento da an&#225;lise</text></g><g id="elem_view_expressive_volume_increase"><ellipse cx="374.7461" cy="639.2461" fill="#F08080" rx="180.2461" ry="38.4492" style="stroke:#181818;stroke-width:0.5;"/><text fill="#000000" font-family="sans-serif" font-size="14" lengthAdjust="spacing" textLength="333" x="208.2461" y="642.0928">RF14 - Visualizar aumento do volume expressivo</text></g><g id="elem_view_ema8_relations"><ellipse cx="374.5416" cy="731.3052" fill="#F08080" rx="155.5416" ry="33.5083" style="stroke:#181818;stroke-width:0.5;"/><text fill="#000000" font-family="sans-serif" font-size="14" lengthAdjust="spacing" textLength="282" x="233.5416" y="734.1519">RF17/RF19 - Visualizar rela&#231;&#245;es de ema8</text></g><g id="elem_view_cripto_open_close"><ellipse cx="374.6413" cy="824.5251" fill="#F08080" rx="184.1413" ry="39.2283" style="stroke:#181818;stroke-width:0.5;"/><text fill="#000000" font-family="sans-serif" font-size="14" lengthAdjust="spacing" textLength="341" x="204.1413" y="827.3718">RF18 - Visualizar pre&#231;o de abertura e fechamento</text></g><g id="elem_view_emas_aligned"><ellipse cx="374.6801" cy="922.2329" fill="#F08080" rx="182.6801" ry="38.936" style="stroke:#181818;stroke-width:0.5;"/><text fill="#000000" font-family="sans-serif" font-size="14" lengthAdjust="spacing" textLength="338" x="205.6801" y="925.0796">RF27 - Visualizar alinhamento das m&#233;dias m&#243;veis</text></g><g id="elem_view_cripto_price_variations"><ellipse cx="374.7491" cy="1029.4467" fill="#F08080" rx="226.2491" ry="47.6498" style="stroke:#181818;stroke-width:0.5;"/><text fill="#000000" font-family="sans-serif" font-size="14" lengthAdjust="spacing" textLength="427" x="161.2491" y="1032.2934">RF07 - Visualizar vaia&#231;&#245;es de pre&#231;o para: 1y, 6m, 3m, 1m e 7d</text></g><g id="elem_register_cripto"><ellipse cx="374.3656" cy="1362.27" fill="#FFFFE0" rx="160.3656" ry="34.4731" style="stroke:#181818;stroke-width:0.5;"/><text fill="#000000" font-family="sans-serif" font-size="14" lengthAdjust="spacing" textLength="292" x="228.3656" y="1365.1167">RF20 - Cadastrar compra de criptomoedas</text></g><!--entity investor--><g id="elem_investor"><ellipse cx="59.5" cy="561.7969" fill="#F1F1F1" rx="8" ry="8" style="stroke:#181818;stroke-width:0.5;"/><path d="M59.5,569.7969 L59.5,596.7969 M46.5,577.7969 L72.5,577.7969 M59.5,596.7969 L46.5,611.7969 M59.5,596.7969 L72.5,611.7969 " fill="none" style="stroke:#181818;stroke-width:0.5;"/><text fill="#000000" font-family="sans-serif" font-size="14" lengthAdjust="spacing" textLength="67" x="26" y="626.292">Investidor</text></g><!--entity schedule--><g id="elem_schedule"><ellipse cx="59.5" cy="1179.7969" fill="#F1F1F1" rx="8" ry="8" style="stroke:#181818;stroke-width:0.5;"/><path d="M59.5,1187.7969 L59.5,1214.7969 M46.5,1195.7969 L72.5,1195.7969 M59.5,1214.7969 L46.5,1229.7969 M59.5,1214.7969 L72.5,1229.7969 " fill="none" style="stroke:#181818;stroke-width:0.5;"/><text fill="#000000" font-family="sans-serif" font-size="14" lengthAdjust="spacing" textLength="96" x="11.5" y="1244.292">Temporizador</text></g><!--entity binance--><g id="elem_binance"><ellipse cx="1223.5" cy="836.7969" fill="#F1F1F1" rx="8" ry="8" style="stroke:#181818;stroke-width:0.5;"/><path d="M1223.5,844.7969 L1223.5,871.7969 M1210.5,852.7969 L1236.5,852.7969 M1223.5,871.7969 L1210.5,886.7969 M1223.5,871.7969 L1236.5,886.7969 " fill="none" style="stroke:#181818;stroke-width:0.5;"/><text fill="#000000" font-family="sans-serif" font-size="14" lengthAdjust="spacing" textLength="81" x="1183" y="901.292">Binance API</text></g><!--entity cmc--><g id="elem_cmc"><ellipse cx="1223.5" cy="1432.7969" fill="#F1F1F1" rx="8" ry="8" style="stroke:#181818;stroke-width:0.5;"/><path d="M1223.5,1440.7969 L1223.5,1467.7969 M1210.5,1448.7969 L1236.5,1448.7969 M1223.5,1467.7969 L1210.5,1482.7969 M1223.5,1467.7969 L1236.5,1482.7969 " fill="none" style="stroke:#181818;stroke-width:0.5;"/><text fill="#000000" font-family="sans-serif" font-size="14" lengthAdjust="spacing" textLength="130" x="1158.5" y="1497.292">CoinMarketCap API</text></g><!--link schedule to sch_analysis--><g id="link_schedule_sch_analysis"><path d="M107.7,1209.2969 C152.1,1209.2969 219.95,1209.2969 275.98,1209.2969 " fill="none" id="schedule-sch_analysis" style="stroke:#181818;stroke-width:1.0;"/></g><!--link schedule to sch_cripto_info--><g id="link_schedule_sch_cripto_info"><path d="M107.74,1183.8269 C113.3,1181.3869 118.96,1179.1369 124.5,1177.2969 C159.51,1165.6469 198.36,1156.7969 234.75,1150.1669 " fill="none" id="schedule-sch_cripto_info" style="stroke:#181818;stroke-width:1.0;"/></g><!--link schedule to sch_sectors--><g id="link_schedule_sch_sectors"><path d="M107.69,1234.9269 C113.26,1237.3369 118.94,1239.5269 124.5,1241.2969 C166.07,1254.4969 213.05,1263.1869 254.92,1268.8669 " fill="none" id="schedule-sch_sectors" style="stroke:#181818;stroke-width:1.0;"/></g><!--link register_cripto to binance--><g id="link_register_cripto_binance"><path d="M442.64,1393.5969 C589.19,1456.7369 940.64,1579.2769 1141.5,1406.2969 C1217.28,1341.0369 1223.17,1016.5069 1222.9,904.4369 " fill="none" id="register_cripto-binance" style="stroke:#181818;stroke-width:1.0;"/></g><!--link sch_cripto_info to binance--><g id="link_sch_cripto_info_binance"><path d="M535.58,1127.3669 C560.61,1119.4169 583.7,1106.5469 600.5,1086.2969 C618.41,1064.6969 595.95,606.3969 608.5,581.2969 C626.36,545.5969 641.73,539.2169 679.5,526.2969 C873.78,459.8469 980.36,399.0369 1141.5,526.2969 C1188.76,563.6269 1211.43,747.4869 1219.23,828.1969 " fill="none" id="sch_cripto_info-binance" style="stroke:#181818;stroke-width:1.0;"/></g><!--link sch_cripto_info to cmc--><g id="link_sch_cripto_info_cmc"><path d="M535.41,1137.2569 C560.29,1145.0469 583.38,1157.6069 600.5,1177.2969 C610.58,1188.8869 603.09,1300.9269 608.5,1315.2969 C626.58,1363.3069 634.62,1381.4569 679.5,1406.2969 C834.14,1491.8869 1051.65,1482.4869 1158.36,1471.0769 " fill="none" id="sch_cripto_info-cmc" style="stroke:#181818;stroke-width:1.0;"/></g><!--link collect_cripto_week_incresse to binance--><g id="link_collect_cripto_week_incresse_binance"><path d="M1020.64,557.5169 C1063.18,561.1969 1108.55,572.8069 1141.5,601.2969 C1208.1,658.8769 1220.87,769.5569 1222.74,827.9869 " fill="none" id="collect_cripto_week_incresse-binance" style="stroke:#181818;stroke-width:1.0;"/></g><!--link collect_cripto_current_price to binance--><g id="link_collect_cripto_current_price_binance"><path d="M1053.9,885.0869 C1101.59,879.7769 1150.1,874.3669 1182.77,870.7269 " fill="none" id="collect_cripto_current_price-binance" style="stroke:#181818;stroke-width:1.0;"/></g><!--link collect_cripto_open_close to binance--><g id="link_collect_cripto_open_close_binance"><path d="M1068.99,663.0269 C1095.07,670.6669 1120.33,681.9069 1141.5,698.2969 C1182.98,730.4069 1204.4,789.1469 1214.54,827.9669 " fill="none" id="collect_cripto_open_close-binance" style="stroke:#181818;stroke-width:1.0;"/></g><!--link collect_ema8_relations to binance--><g id="link_collect_ema8_relations_binance"><path d="M1028.54,741.1069 C1066.69,746.4869 1107.34,756.6569 1141.5,775.2969 C1164.34,787.7569 1183.93,809.2569 1198.12,828.2269 " fill="none" id="collect_ema8_relations-binance" style="stroke:#181818;stroke-width:1.0;"/></g><!--link collect_volume_relations to binance--><g id="link_collect_volume_relations_binance"><path d="M1009.3,832.6369 C1069.29,842.1069 1139.92,853.2569 1182.93,860.0469 " fill="none" id="collect_volume_relations-binance" style="stroke:#181818;stroke-width:1.0;"/></g><!--link collect_expressive_volume_date to binance--><g id="link_collect_expressive_volume_date_binance"><path d="M1054.09,981.0269 C1084.24,973.9369 1114.76,963.7869 1141.5,949.2969 C1161.68,938.3569 1179.95,920.7069 1194.01,904.4869 " fill="none" id="collect_expressive_volume_date-binance" style="stroke:#181818;stroke-width:1.0;"/></g><!--link collect_market_cap to cmc--><g id="link_collect_market_cap_cmc"><path d="M980.59,1392.1569 C1029.11,1409.8769 1092.28,1431.6469 1149.5,1447.2969 C1152.37,1448.0869 1155.31,1448.8469 1158.3,1449.5869 " fill="none" id="collect_market_cap-cmc" style="stroke:#181818;stroke-width:1.0;"/></g><!--link collect_emas_aligned to binance--><g id="link_collect_emas_aligned_binance"><path d="M1065.86,1080.9569 C1093.13,1073.2669 1119.59,1061.6469 1141.5,1044.2969 C1185.42,1009.5169 1206.37,945.6269 1215.72,904.5969 " fill="none" id="collect_emas_aligned-binance" style="stroke:#181818;stroke-width:1.0;"/></g><!--link collect_cripto_price_variations to binance--><g id="link_collect_cripto_price_variations_binance"><path d="M1088.14,1173.2469 C1107.77,1164.8669 1126.12,1153.8169 1141.5,1139.2969 C1207.45,1077.0069 1220.47,963.7469 1222.56,904.5969 " fill="none" id="collect_cripto_price_variations-binance" style="stroke:#181818;stroke-width:1.0;"/></g><!--link sch_sectors to collect_sectors--><g id="link_sch_sectors_collect_sectors"><path d="M503.2,1280.5169 C595.4,1281.4069 717.96,1282.5769 801.82,1283.3769 " fill="none" id="sch_sectors-collect_sectors" style="stroke:#181818;stroke-width:1.0;"/></g><!--link collect_sectors to cmc--><g id="link_collect_sectors_cmc"><path d="M989.2,1276.9369 C1038.06,1277.3069 1097.37,1285.2769 1141.5,1315.2969 C1179.09,1340.8569 1200.94,1389.8569 1212.28,1424.2369 " fill="none" id="collect_sectors-cmc" style="stroke:#181818;stroke-width:1.0;"/></g><!--link investor to view_sectors--><g id="link_investor_view_sectors"><path d="M64.13,553.0669 C71.37,485.3769 89.99,348.5969 124.5,317.2969 C167.22,278.5569 232.26,271.0369 285.15,272.8169 " fill="none" id="investor-view_sectors" style="stroke:#181818;stroke-width:1.0;"/></g><!--link investor to view_cripto_info--><g id="link_investor_view_cripto_info"><path d="M60.46,553.1069 C61.21,456.5069 68.6,206.0669 124.5,149.2969 C154.99,118.3369 199.26,105.3669 242.05,101.0969 " fill="none" id="investor-view_cripto_info" style="stroke:#181818;stroke-width:1.0;"/></g><!--link investor to view_cripto_week_incresse--><g id="link_investor_view_cripto_week_incresse"><path d="M62.46,553.0769 C67.35,473.4369 82.84,293.6269 124.5,251.2969 C142.84,232.6669 166.03,219.9269 190.84,211.3469 " fill="none" id="investor-view_cripto_week_incresse" style="stroke:#181818;stroke-width:1.0;"/></g><!--link investor to view_cripto_current_price--><g id="link_investor_view_cripto_current_price"><path d="M93.11,586.1869 C125.52,581.1169 177.56,572.9669 228.05,565.0669 " fill="none" id="investor-view_cripto_current_price" style="stroke:#181818;stroke-width:1.0;"/></g><!--link investor to view_cripto_open_close--><g id="link_investor_view_cripto_open_close"><path d="M63.04,629.6469 C67.96,671.5569 82.36,737.6169 124.5,774.2969 C145.45,792.5369 171.17,804.8269 198.04,812.9869 " fill="none" id="investor-view_cripto_open_close" style="stroke:#181818;stroke-width:1.0;"/></g><!--link investor to view_ema8_relations--><g id="link_investor_view_ema8_relations"><path d="M76.91,629.7369 C87.54,650.0169 103.37,673.4869 124.5,687.2969 C153.35,706.1469 187.92,717.5769 221.98,724.3569 " fill="none" id="investor-view_ema8_relations" style="stroke:#181818;stroke-width:1.0;"/></g><!--link investor to view_volume_relations--><g id="link_investor_view_volume_relations"><path d="M62,553.1969 C65.9,509.1569 79.32,437.8269 124.5,399.2969 C154.75,373.4969 194.85,360.8369 234,355.2469 " fill="none" id="investor-view_volume_relations" style="stroke:#181818;stroke-width:1.0;"/></g><!--link investor to view_expressive_volume_increase--><g id="link_investor_view_expressive_volume_increase"><path d="M93.11,596.2969 C125.44,601.2569 177.31,609.2069 227.68,616.9369 " fill="none" id="investor-view_expressive_volume_increase" style="stroke:#181818;stroke-width:1.0;"/></g><!--link investor to view_market_cap--><g id="link_investor_view_market_cap"><path d="M76.28,553.1369 C86.88,532.2569 102.88,507.7569 124.5,493.2969 C150.01,476.2369 180.1,464.9869 210.38,457.6469 " fill="none" id="investor-view_market_cap" style="stroke:#181818;stroke-width:1.0;"/></g><!--link investor to view_emas_aligned--><g id="link_investor_view_emas_aligned"><path d="M64.05,629.3269 C71.27,698.2469 89.98,839.7569 124.5,873.2969 C144.41,892.6369 169.6,905.4269 196.26,913.7169 " fill="none" id="investor-view_emas_aligned" style="stroke:#181818;stroke-width:1.0;"/></g><!--link investor to view_cripto_price_variations--><g id="link_investor_view_cripto_price_variations"><path d="M61.72,629.5969 C65.26,715.9869 78.45,922.3069 124.5,971.2969 C138.79,986.4969 156.22,998.0769 175.16,1006.8369 " fill="none" id="investor-view_cripto_price_variations" style="stroke:#181818;stroke-width:1.0;"/></g><!--link investor to register_cripto--><g id="link_investor_register_cripto"><path d="M63.55,629.4369 C75.49,778.1169 118.63,1310.8669 124.5,1317.2969 C147.83,1342.8469 180.36,1356.9369 214.24,1364.1969 " fill="none" id="investor-register_cripto" style="stroke:#181818;stroke-width:1.0;"/></g><!--link sch_analysis to collect_cripto_week_incresse--><g id="link_sch_analysis_collect_cripto_week_incresse"><path d="M456.83,1221.4669 C505.98,1223.8169 565.67,1216.8069 600.5,1177.2969 C619.35,1155.9169 596.61,690.1969 608.5,664.2969 C636.74,602.7769 702.605,578.6076 767.565,568.9676 " fill="none" id="sch_analysis-to-collect_cripto_week_incresse" style="stroke:#181818;stroke-width:1.0;"/><polygon fill="#181818" points="773.5,568.0869,764.0103,565.4513,768.5542,568.8208,765.1847,573.3647,773.5,568.0869" style="stroke:#181818;stroke-width:1.0;"/><text fill="#000000" font-family="sans-serif" font-size="13" lengthAdjust="spacing" textLength="61" x="609.5" y="599.3638">&#171;include&#187;</text></g><!--link sch_analysis to collect_cripto_current_price--><g id="link_sch_analysis_collect_cripto_current_price"><path d="M457.97,1221.0769 C506.6,1223.0069 565.32,1215.6969 600.5,1177.2969 C611.7,1165.0669 601.31,1043.2369 608.5,1028.2969 C624.76,994.5469 650.46,1003.2869 671.5,972.2969 C677.34,963.6869 671.67,957.1569 679.5,950.2969 C696.48,935.4269 711.3511,926.8026 732.9511,919.3126 " fill="none" id="sch_analysis-to-collect_cripto_current_price" style="stroke:#181818;stroke-width:1.0;"/><polygon fill="#181818" points="738.62,917.3469,728.8062,916.5162,733.896,918.985,731.4272,924.0747,738.62,917.3469" style="stroke:#181818;stroke-width:1.0;"/><text fill="#000000" font-family="sans-serif" font-size="13" lengthAdjust="spacing" textLength="61" x="609.5" y="968.3638">&#171;include&#187;</text></g><!--link sch_analysis to collect_cripto_current_price--><g id="link_sch_analysis_collect_cripto_current_price"><path d="M457.38,1221.2669 C506.26,1223.3969 565.47,1216.2369 600.5,1177.2969 C617.08,1158.8669 592.26,973.0269 608.5,954.2969 C638.06,920.2069 675.7995,904.4501 720.2695,897.1401 " fill="none" id="sch_analysis-to-collect_cripto_current_price-1" style="stroke:#181818;stroke-width:1.0;"/><polygon fill="#181818" points="726.19,896.1669,716.6604,893.6797,721.2562,896.9779,717.958,901.5737,726.19,896.1669" style="stroke:#181818;stroke-width:1.0;"/><text fill="#000000" font-family="sans-serif" font-size="13" lengthAdjust="spacing" textLength="61" x="609.5" y="907.3638">&#171;include&#187;</text></g><!--link sch_analysis to collect_cripto_open_close--><g id="link_sch_analysis_collect_cripto_open_close"><path d="M456.79,1221.4369 C505.93,1223.7669 565.61,1216.7569 600.5,1177.2969 C616.62,1159.0669 596.14,760.2669 608.5,739.2969 C633.3,697.2369 672.4219,675.5302 719.5719,662.9802 " fill="none" id="sch_analysis-to-collect_cripto_open_close" style="stroke:#181818;stroke-width:1.0;"/><polygon fill="#181818" points="725.37,661.4369,715.644,659.8864,720.5382,662.723,717.7017,667.6172,725.37,661.4369" style="stroke:#181818;stroke-width:1.0;"/><text fill="#000000" font-family="sans-serif" font-size="13" lengthAdjust="spacing" textLength="61" x="609.5" y="682.3638">&#171;include&#187;</text></g><!--link sch_analysis to collect_ema8_relations--><g id="link_sch_analysis_collect_ema8_relations"><path d="M457.01,1221.4069 C506.07,1223.6769 565.6,1216.6169 600.5,1177.2969 C613.78,1162.3369 598.4,834.5669 608.5,817.2969 C640.31,762.9269 700.6575,742.7465 761.7375,735.8865 " fill="none" id="sch_analysis-to-collect_ema8_relations" style="stroke:#181818;stroke-width:1.0;"/><polygon fill="#181818" points="767.7,735.2169,758.3098,732.2464,762.7312,735.7749,759.2027,740.1964,767.7,735.2169" style="stroke:#181818;stroke-width:1.0;"/><text fill="#000000" font-family="sans-serif" font-size="13" lengthAdjust="spacing" textLength="61" x="609.5" y="757.3638">&#171;include&#187;</text></g><!--link sch_analysis to collect_volume_relations--><g id="link_sch_analysis_collect_volume_relations"><path d="M457.21,1221.3469 C506.19,1223.5569 565.56,1216.4469 600.5,1177.2969 C621.82,1153.4169 591.22,916.2469 608.5,889.2969 C641.07,838.5069 697.8874,819.2857 756.6374,812.6957 " fill="none" id="sch_analysis-to-collect_volume_relations" style="stroke:#181818;stroke-width:1.0;"/><polygon fill="#181818" points="762.6,812.0269,753.2102,809.055,757.6312,812.5842,754.102,817.0052,762.6,812.0269" style="stroke:#181818;stroke-width:1.0;"/><text fill="#000000" font-family="sans-serif" font-size="13" lengthAdjust="spacing" textLength="61" x="609.5" y="835.3638">&#171;include&#187;</text></g><!--link sch_analysis to collect_expressive_volume_date--><g id="link_sch_analysis_collect_expressive_volume_date"><path d="M460.62,1220.0269 C508.04,1221.0169 564.59,1213.0869 600.5,1177.2969 C617.99,1159.8569 597.95,1144.6269 608.5,1122.2969 C628.53,1079.9169 638.87,1067.6869 679.5,1044.2969 C700.89,1031.9869 719.366,1024.4824 743.726,1017.7624 " fill="none" id="sch_analysis-to-collect_expressive_volume_date" style="stroke:#181818;stroke-width:1.0;"/><polygon fill="#181818" points="749.51,1016.1669,739.7704,1014.7043,744.69,1017.4965,741.8978,1022.4162,749.51,1016.1669" style="stroke:#181818;stroke-width:1.0;"/><text fill="#000000" font-family="sans-serif" font-size="13" lengthAdjust="spacing" textLength="61" x="609.5" y="1046.3638">&#171;include&#187;</text></g><!--link sch_analysis to collect_market_cap--><g id="link_sch_analysis_collect_market_cap"><path d="M473.11,1210.3169 C514.1,1213.9469 561.27,1222.4969 600.5,1241.2969 C643.88,1262.0969 636.84,1293.0669 679.5,1315.2969 C703.17,1327.6269 724.0991,1335.2017 750.5391,1341.8117 " fill="none" id="sch_analysis-to-collect_market_cap" style="stroke:#181818;stroke-width:1.0;"/><polygon fill="#181818" points="756.36,1343.2669,748.5989,1337.2035,751.5093,1342.0542,746.6586,1344.9646,756.36,1343.2669" style="stroke:#181818;stroke-width:1.0;"/><text fill="#000000" font-family="sans-serif" font-size="13" lengthAdjust="spacing" textLength="61" x="609.5" y="1243.3638">&#171;include&#187;</text></g><!--link sch_analysis to collect_emas_aligned--><g id="link_sch_analysis_collect_emas_aligned"><path d="M468.24,1202.3569 C509.36,1197.6869 557.96,1189.9769 600.5,1177.2969 C637.66,1166.2269 642.79,1152.7669 679.5,1140.2969 C706.65,1131.0769 730.4842,1124.5284 758.9442,1117.9484 " fill="none" id="sch_analysis-to-collect_emas_aligned" style="stroke:#181818;stroke-width:1.0;"/><polygon fill="#181818" points="764.79,1116.5969,755.1203,1114.727,759.9185,1117.7232,756.9223,1122.5214,764.79,1116.5969" style="stroke:#181818;stroke-width:1.0;"/><text fill="#000000" font-family="sans-serif" font-size="13" lengthAdjust="spacing" textLength="61" x="609.5" y="1140.3638">&#171;include&#187;</text></g><!--link sch_analysis to collect_cripto_price_variations--><g id="link_sch_analysis_collect_cripto_price_variations"><path d="M472.46,1206.8869 C531.13,1205.4169 602.4119,1203.6465 674.9619,1201.8365 " fill="none" id="sch_analysis-to-collect_cripto_price_variations" style="stroke:#181818;stroke-width:1.0;"/><polygon fill="#181818" points="680.96,1201.6869,671.863,1197.9126,675.9616,1201.8116,672.0626,1205.9101,680.96,1201.6869" style="stroke:#181818;stroke-width:1.0;"/><text fill="#000000" font-family="sans-serif" font-size="13" lengthAdjust="spacing" textLength="61" x="609.5" y="1198.3638">&#171;include&#187;</text></g><!--SRC=[jLV1RXit4BtlLn3g8PS8jcGrSeF0W6EWXO0K2E8sGKy2lJkM27791ScL6nVvcAA7eEUYNw0Vwt1tAP7SNNaTkmPaGUHmvd7Up2DfcE50hYGJcgw0ZCbrePWmP9Oa76uDCP8ejbeRaZ45gM5I93GrKf7HGcn16vP9DI9K4rRzbCfD_m9v8HMxfyv0fsl8IWxEu2qJLAH0BjylglcR-hURjf1-fce3veeMUwCqJvF40g5YXRX7xs058gEZFnA2Vth3H44LpKdEn1MdMdzYcLcJoMaqBMG66WeoYSOL5Pjwl9hm0ZLfcOp8T-ziFjxo4dfifixc9mKWUepEdD6LL9Jt6CsSqM_0kRohh5vqs7tlxDupiKc-11borBPIv78mFKqQnzSDGvgK6aXADMWtKzIPmd4xZ84RKwmS3eOgiX2tKkLqztNtBwxFaAfS0duvwfUfOeMHIuPsSGhRNXU2fGozNehTdvnfs7kXWlBFckdOXOLu5ZhxyEFfnDPpZFGQiBxW00pjSK3xT90JzBUM9S_83H3Tq4fkIeDPCmGh3ZBouiJbxR821Gzd3I6zGaWEoPOgPZFsboGQShkrkiObvuZ9PUmEO8DfIn4p-kZOzxHptrtRTPx3BH_ArFCnEVTy50fsNoNI2eJUW3AbeWJ8BQHhceCmiWksB40iKoxtcBl3p6qOojEIOnm5V5z1G30bvu5dEx2qDbQ6ZgEVzRlTIbxc43YkXuwuxYwliu1BZgg5xdDGAMeUeaT5usiRDOYLLvgsJ57Klg7Y8WXJdsdPy8GhiFagOh0H2VLxA28fBPL2koN6I-4PyDHvR_3GiiO0lnUsTjbMzgH_Rm2EYOoQvu0pdVjmE1DDlTRwjFixOzNtFrjWEguqlSG5Au5-OvtsIs0Ub03pogpXmchjQpBv_9Ayob-IC_nCSkoTUTP5HqN3if85lmxhq4qXVW0yLit3MlEHtPUuWti4nkKAMS1CvH0hyvR1tI1fRgJByuemKamc7YrvnMktcFa1lb79FZBjOlfYLdaUecIpq4Ul6bGEdo05Nem7rQ2AzVnIu44OeWO-EV-B57Xud1fWCkeSUxfm0DEMWgfUg7uMIFCJ_FV3iNBOdparcgu3vqa8piFW3KL7prMVfDQX-cHrz1aQ890kBSFLCUYAHmkal_aXwlY9eg0Q1-8WZhFMva-h6mBkqoY4bigymEGZh3gO9v4ALamRK0sCy4QET-tkUxDxxP3nEBYujYOyyMtDDUfcO-03wDfp7uF21Uxz55-sZq_P1zNH2wUt_EZbeT_EAzeEewZ7EYnQajpbfViAqM7fYMwq_Q2i-xVJAiCemUv8ijx3-tOItxyR04ZledazUnIx1xMryi-wzeHVGdsJ0QczLW6blLO7Gjic8Ptj-PZC3W-zHq3Rza1c9v8zdRrRYSaC3ACcippzwkWXXnq4xzBn-EBu0uwy9c_Uu2zUPd1nyU3YiCaUkTZhlA4hetOSkgpLeuFZTJVkmDLUCpybhSDpSn28nyLhYKQu_3y0]--></g></svg>
