<?xml version="1.0" encoding="us-ascii" standalone="no"?><svg xmlns="http://www.w3.org/2000/svg" xmlns:xlink="http://www.w3.org/1999/xlink" contentStyleType="text/css" height="1669px" preserveAspectRatio="none" style="width:1330px;height:1669px;background:#FFFFFF;" version="1.1" viewBox="0 0 1330 1669" width="1330px" zoomAndPan="magnify"><defs/><g><text fill="#000000" font-family="sans-serif" font-size="14" font-weight="bold" lengthAdjust="spacing" textLength="133" x="591.5" y="24.5332">Coinsage - Sprint 4</text><!--cluster Legenda--><g id="cluster_Legenda"><rect fill="none" height="148" rx="2.5" ry="2.5" style="stroke:#181818;stroke-width:1.0;" width="452" x="7" y="1515.6094"/><text fill="#000000" font-family="sans-serif" font-size="14" font-weight="bold" lengthAdjust="spacing" textLength="61" x="202.5" y="1532.1426">Legenda</text></g><!--cluster Coinsage--><g id="cluster_Coinsage"><rect fill="none" height="1446" rx="2.5" ry="2.5" style="stroke:#181818;stroke-width:1.0;" width="1049" x="126" y="45.6094"/><text fill="#000000" font-family="sans-serif" font-size="14" font-weight="bold" lengthAdjust="spacing" textLength="66" x="617.5" y="62.1426">Coinsage</text></g><!--entity Sprint 1--><g id="elem_Sprint 1"><rect fill="#ADD8E6" height="37.6094" rx="2.5" ry="2.5" style="stroke:#181818;stroke-width:0.5;" width="69" x="23" y="1609.6094"/><text fill="#000000" font-family="sans-serif" font-size="14" lengthAdjust="spacing" textLength="49" x="33" y="1634.1426">Sprint 1</text></g><!--entity Sprint 2--><g id="elem_Sprint 2"><rect fill="#90EE90" height="37.6094" rx="2.5" ry="2.5" style="stroke:#181818;stroke-width:0.5;" width="69" x="23" y="1551.6094"/><text fill="#000000" font-family="sans-serif" font-size="14" lengthAdjust="spacing" textLength="49" x="33" y="1576.1426">Sprint 2</text></g><!--entity Sprint 3--><g id="elem_Sprint 3"><rect fill="#F08080" height="37.6094" rx="2.5" ry="2.5" style="stroke:#181818;stroke-width:0.5;" width="69" x="374" y="1609.6094"/><text fill="#000000" font-family="sans-serif" font-size="14" lengthAdjust="spacing" textLength="49" x="384" y="1634.1426">Sprint 3</text></g><!--entity Sprint 4--><g id="elem_Sprint 4"><rect fill="#FFFFE0" height="37.6094" rx="2.5" ry="2.5" style="stroke:#181818;stroke-width:0.5;" width="69" x="374" y="1551.6094"/><text fill="#000000" font-family="sans-serif" font-size="14" lengthAdjust="spacing" textLength="49" x="384" y="1576.1426">Sprint 4</text></g><g id="elem_sch_cripto_info"><ellipse cx="408.6901" cy="1219.7474" fill="#ADD8E6" rx="151.1901" ry="32.638" style="stroke:#181818;stroke-width:0.5;"/><text fill="#000000" font-family="sans-serif" font-size="14" lengthAdjust="spacing" textLength="271" x="273.1901" y="1223.4759">Schedule Coletar Informa&#231;&#245;es das moedas</text></g><g id="elem_sch_analysis"><ellipse cx="408.6904" cy="1293.5474" fill="#ADD8E6" rx="95.1904" ry="21.4381" style="stroke:#181818;stroke-width:0.5;"/><text fill="#000000" font-family="sans-serif" font-size="14" lengthAdjust="spacing" textLength="150" x="333.6904" y="1297.276">Schedule Iniciar An&#225;lise</text></g><g id="elem_sch_sectors"><ellipse cx="408.4113" cy="1362.4916" fill="#F08080" rx="122.4113" ry="26.8823" style="stroke:#181818;stroke-width:0.5;"/><text fill="#000000" font-family="sans-serif" font-size="14" lengthAdjust="spacing" textLength="210" x="303.4113" y="1366.2202">RF01 - Schedule Coletar Setores</text></g><g id="elem_collect_cripto_week_incresse"><ellipse cx="953.4467" cy="674.3987" fill="#ADD8E6" rx="121.9467" ry="26.7893" style="stroke:#181818;stroke-width:0.5;"/><text fill="#000000" font-family="sans-serif" font-size="14" lengthAdjust="spacing" textLength="209" x="848.9467" y="678.1272">RF06 - Coletar varia&#231;&#227;o semanal</text></g><g id="elem_collect_sectors"><ellipse cx="953.3753" cy="1366.7844" fill="#90EE90" rx="93.8753" ry="21.1751" style="stroke:#181818;stroke-width:0.5;"/><text fill="#000000" font-family="sans-serif" font-size="14" lengthAdjust="spacing" textLength="147" x="879.8753" y="1370.5129">RF01 - Coletar Setores</text></g><g id="elem_collect_cripto_open_close"><ellipse cx="953.4281" cy="758.395" fill="#90EE90" rx="169.4281" ry="36.2856" style="stroke:#181818;stroke-width:0.5;"/><text fill="#000000" font-family="sans-serif" font-size="14" lengthAdjust="spacing" textLength="309" x="798.9281" y="762.1235">RF18 - Coletar pre&#231;os de abertura e fechamento</text></g><g id="elem_collect_ema8_relations"><ellipse cx="953.6716" cy="842.6437" fill="#90EE90" rx="125.6716" ry="27.5343" style="stroke:#181818;stroke-width:0.5;"/><text fill="#000000" font-family="sans-serif" font-size="14" lengthAdjust="spacing" textLength="217" x="845.1716" y="846.3722">RF17 - Calcular rela&#231;&#245;es de ema8</text></g><g id="elem_collect_volume_relations"><ellipse cx="953.3511" cy="918.5796" fill="#90EE90" rx="130.3511" ry="28.4702" style="stroke:#181818;stroke-width:0.5;"/><text fill="#000000" font-family="sans-serif" font-size="14" lengthAdjust="spacing" textLength="227" x="839.8511" y="922.3081">RF14 - Calcular rela&#231;&#245;es de volume</text></g><g id="elem_collect_market_cap"><ellipse cx="953.4928" cy="1441.6079" fill="#F08080" rx="155.4928" ry="33.4986" style="stroke:#181818;stroke-width:0.5;"/><text fill="#000000" font-family="sans-serif" font-size="14" lengthAdjust="spacing" textLength="280" x="813.4928" y="1445.3365">RF03 - Coletar valor de mercado em bilh&#245;es</text></g><g id="elem_collect_cripto_current_price"><ellipse cx="953.6497" cy="1002.7393" fill="#F08080" rx="163.6497" ry="35.1299" style="stroke:#181818;stroke-width:0.5;"/><text fill="#000000" font-family="sans-serif" font-size="14" lengthAdjust="spacing" textLength="297" x="805.1497" y="1006.4678">RF21 - Coletar o pre&#231;o no momento da an&#225;lise</text></g><g id="elem_collect_expressive_volume_date"><ellipse cx="953.7272" cy="1092.8548" fill="#F08080" rx="161.7272" ry="34.7454" style="stroke:#181818;stroke-width:0.5;"/><text fill="#000000" font-family="sans-serif" font-size="14" lengthAdjust="spacing" textLength="293" x="807.2272" y="1096.5833">RF14 - Coletar aumento expressivo de volume</text></g><g id="elem_collect_emas_aligned"><ellipse cx="953.6116" cy="1182.4317" fill="#F08080" rx="164.6116" ry="35.3223" style="stroke:#181818;stroke-width:0.5;"/><text fill="#000000" font-family="sans-serif" font-size="14" lengthAdjust="spacing" textLength="299" x="804.1116" y="1186.1602">RF27 - Coletar alinhamento das m&#233;dias m&#243;veis</text></g><g id="elem_collect_cripto_price_variations"><ellipse cx="953.347" cy="1281.5788" fill="#F08080" rx="205.347" ry="43.4694" style="stroke:#181818;stroke-width:0.5;"/><text fill="#000000" font-family="sans-serif" font-size="14" lengthAdjust="spacing" textLength="383" x="761.847" y="1285.3073">RF07 - Coletar vaia&#231;&#245;es de pre&#231;o para: 1y, 6m, 3m, 1m e 7d</text></g><g id="elem_view_cripto_info"><ellipse cx="408.5083" cy="109.611" fill="#ADD8E6" rx="128.0083" ry="28.0017" style="stroke:#181818;stroke-width:0.5;"/><text fill="#000000" font-family="sans-serif" font-size="14" lengthAdjust="spacing" textLength="222" x="297.5083" y="113.3395">Vizualizar logo e nome das moedas</text></g><g id="elem_view_cripto_week_incresse"><ellipse cx="408.5918" cy="195.8277" fill="#ADD8E6" rx="179.0918" ry="38.2184" style="stroke:#181818;stroke-width:0.5;"/><text fill="#000000" font-family="sans-serif" font-size="14" lengthAdjust="spacing" textLength="329" x="244.0918" y="199.5562">RF06 - Vizualizar porcentagem de varia&#231;&#227;o semanal</text></g><g id="elem_view_sectors"><ellipse cx="408.5583" cy="276.521" fill="#90EE90" rx="100.0583" ry="22.4117" style="stroke:#181818;stroke-width:0.5;"/><text fill="#000000" font-family="sans-serif" font-size="14" lengthAdjust="spacing" textLength="161" x="328.0583" y="280.2496">RF01 - Visualizar Setores</text></g><g id="elem_view_volume_relations"><ellipse cx="408.6118" cy="348.8317" fill="#90EE90" rx="134.1118" ry="29.2224" style="stroke:#181818;stroke-width:0.5;"/><text fill="#000000" font-family="sans-serif" font-size="14" lengthAdjust="spacing" textLength="235" x="291.1118" y="352.5603">RF14 - Visualizar rela&#231;&#245;es de volume</text></g><g id="elem_view_market_cap"><ellipse cx="408.7076" cy="432.4509" fill="#F08080" rx="162.2076" ry="34.8415" style="stroke:#181818;stroke-width:0.5;"/><text fill="#000000" font-family="sans-serif" font-size="14" lengthAdjust="spacing" textLength="294" x="261.7076" y="436.1794">RF03 - Visualizar valor de mercado em bilh&#245;es</text></g><g id="elem_view_cripto_current_price"><ellipse cx="408.3927" cy="524.5879" fill="#F08080" rx="170.3927" ry="36.4785" style="stroke:#181818;stroke-width:0.5;"/><text fill="#000000" font-family="sans-serif" font-size="14" lengthAdjust="spacing" textLength="311" x="252.8927" y="528.3164">RF21 - Visualizar o pre&#231;o no momento da an&#225;lise</text></g><g id="elem_view_expressive_volume_increase"><ellipse cx="408.4639" cy="617.7022" fill="#F08080" rx="168.4639" ry="36.0928" style="stroke:#181818;stroke-width:0.5;"/><text fill="#000000" font-family="sans-serif" font-size="14" lengthAdjust="spacing" textLength="307" x="254.9639" y="621.4307">RF14 - Visualizar aumento do volume expressivo</text></g><g id="elem_view_ema8_relations"><ellipse cx="408.3519" cy="705.5797" fill="#F08080" rx="147.8519" ry="31.9704" style="stroke:#181818;stroke-width:0.5;"/><text fill="#000000" font-family="sans-serif" font-size="14" lengthAdjust="spacing" textLength="264" x="276.3519" y="709.3083">RF17/RF19 - Visualizar rela&#231;&#245;es de ema8</text></g><g id="elem_view_cripto_open_close"><ellipse cx="408.306" cy="794.5706" fill="#F08080" rx="172.806" ry="36.9612" style="stroke:#181818;stroke-width:0.5;"/><text fill="#000000" font-family="sans-serif" font-size="14" lengthAdjust="spacing" textLength="316" x="250.306" y="798.2991">RF18 - Visualizar pre&#231;o de abertura e fechamento</text></g><g id="elem_view_emas_aligned"><ellipse cx="408.3577" cy="888.7809" fill="#F08080" rx="171.3577" ry="36.6715" style="stroke:#181818;stroke-width:0.5;"/><text fill="#000000" font-family="sans-serif" font-size="14" lengthAdjust="spacing" textLength="313" x="251.8577" y="892.5094">RF27 - Visualizar alinhamento das m&#233;dias m&#243;veis</text></g><g id="elem_view_cripto_price_variations"><ellipse cx="408.6849" cy="990.4464" fill="#F08080" rx="212.1849" ry="44.837" style="stroke:#181818;stroke-width:0.5;"/><text fill="#000000" font-family="sans-serif" font-size="14" lengthAdjust="spacing" textLength="397" x="210.1849" y="994.1749">RF07 - Visualizar vaia&#231;&#245;es de pre&#231;o para: 1y, 6m, 3m, 1m e 7d</text></g><g id="elem_register_cripto"><ellipse cx="408.6901" cy="1442.7474" fill="#FFFFE0" rx="151.1901" ry="32.638" style="stroke:#181818;stroke-width:0.5;"/><text fill="#000000" font-family="sans-serif" font-size="14" lengthAdjust="spacing" textLength="271" x="273.1901" y="1446.4759">RF20 - Cadastrar compra de criptomoedas</text></g><g id="elem_view_xlsl"><ellipse cx="408.7007" cy="1111.8495" fill="#FFFFE0" rx="266.7007" ry="55.7401" style="stroke:#181818;stroke-width:0.5;"/><text fill="#000000" font-family="sans-serif" font-size="14" lengthAdjust="spacing" textLength="508" x="154.7007" y="1115.578">RF08, RF13, RF18, RF19 - Planilha xlsl com dados da an&#225;lise das criptomoedas</text></g><!--entity investor--><g id="elem_investor"><ellipse cx="57.5" cy="587.1094" fill="#F1F1F1" rx="8" ry="8" style="stroke:#181818;stroke-width:0.5;"/><path d="M57.5,595.1094 L57.5,622.1094 M44.5,603.1094 L70.5,603.1094 M57.5,622.1094 L44.5,637.1094 M57.5,622.1094 L70.5,637.1094 " fill="none" style="stroke:#181818;stroke-width:0.5;"/><text fill="#000000" font-family="sans-serif" font-size="14" lengthAdjust="spacing" textLength="61" x="27" y="653.1426">Investidor</text></g><!--entity schedule--><g id="elem_schedule"><ellipse cx="57.5" cy="1263.1094" fill="#F1F1F1" rx="8" ry="8" style="stroke:#181818;stroke-width:0.5;"/><path d="M57.5,1271.1094 L57.5,1298.1094 M44.5,1279.1094 L70.5,1279.1094 M57.5,1298.1094 L44.5,1313.1094 M57.5,1298.1094 L70.5,1313.1094 " fill="none" style="stroke:#181818;stroke-width:0.5;"/><text fill="#000000" font-family="sans-serif" font-size="14" lengthAdjust="spacing" textLength="87" x="14" y="1329.1426">Temporizador</text></g><!--entity binance--><g id="elem_binance"><ellipse cx="1261.5" cy="937.1094" fill="#F1F1F1" rx="8" ry="8" style="stroke:#181818;stroke-width:0.5;"/><path d="M1261.5,945.1094 L1261.5,972.1094 M1248.5,953.1094 L1274.5,953.1094 M1261.5,972.1094 L1248.5,987.1094 M1261.5,972.1094 L1274.5,987.1094 " fill="none" style="stroke:#181818;stroke-width:0.5;"/><text fill="#000000" font-family="sans-serif" font-size="14" lengthAdjust="spacing" textLength="76" x="1223.5" y="1003.1426">Binance API</text></g><!--entity cmc--><g id="elem_cmc"><ellipse cx="1261.5" cy="1510.1094" fill="#F1F1F1" rx="8" ry="8" style="stroke:#181818;stroke-width:0.5;"/><path d="M1261.5,1518.1094 L1261.5,1545.1094 M1248.5,1526.1094 L1274.5,1526.1094 M1261.5,1545.1094 L1248.5,1560.1094 M1261.5,1545.1094 L1274.5,1560.1094 " fill="none" style="stroke:#181818;stroke-width:0.5;"/><text fill="#000000" font-family="sans-serif" font-size="14" lengthAdjust="spacing" textLength="123" x="1200" y="1576.1426">CoinMarketCap API</text></g><!--link schedule to sch_analysis--><g id="link_schedule_sch_analysis"><path d="M101.29,1293.6094 C153.81,1293.6094 244.36,1293.6094 313.41,1293.6094 " fill="none" id="schedule-sch_analysis" style="stroke:#181818;stroke-width:1.0;"/></g><!--link schedule to sch_cripto_info--><g id="link_schedule_sch_cripto_info"><path d="M101.26,1268.3694 C106.77,1265.7894 112.43,1263.4494 118,1261.6094 C164.9,1246.1294 217.95,1236.3494 265.7,1230.1794 " fill="none" id="schedule-sch_cripto_info" style="stroke:#181818;stroke-width:1.0;"/></g><!--link schedule to sch_sectors--><g id="link_schedule_sch_sectors"><path d="M101.29,1318.1194 C106.79,1320.6094 112.45,1322.8594 118,1324.6094 C172.75,1341.8694 235.72,1351.2994 288.91,1356.4394 " fill="none" id="schedule-sch_sectors" style="stroke:#181818;stroke-width:1.0;"/></g><!--link register_cripto to binance--><g id="link_register_cripto_binance"><path d="M515.32,1465.6394 C703.51,1503.8794 1085.75,1568.3694 1183,1484.6094 C1254.95,1422.6394 1261.06,1116.5594 1260.89,1006.8394 " fill="none" id="register_cripto-binance" style="stroke:#181818;stroke-width:1.0;"/></g><!--link sch_cripto_info to binance--><g id="link_sch_cripto_info_binance"><path d="M550.73,1230.5294 C597.01,1226.2794 644.37,1212.0094 675,1176.6094 C692.63,1156.2294 671.35,715.9094 683,691.6094 C699.24,657.7394 712.68,650.3694 748,637.6094 C929.84,571.9294 1031.47,517.5394 1183,637.6094 C1228.38,673.5594 1249.78,849.1794 1257.26,928.5394 " fill="none" id="sch_cripto_info-binance" style="stroke:#181818;stroke-width:1.0;"/></g><!--link sch_cripto_info to cmc--><g id="link_sch_cripto_info_cmc"><path d="M551.24,1208.9694 C597,1213.2694 643.89,1227.2894 675,1261.6094 C685.17,1272.8294 677.81,1383.3894 683,1397.6094 C699.56,1442.9494 706.09,1460.6694 748,1484.6094 C892.95,1567.4094 1098.7,1559.2894 1199.74,1548.7794 " fill="none" id="sch_cripto_info-cmc" style="stroke:#181818;stroke-width:1.0;"/></g><!--link collect_cripto_week_incresse to binance--><g id="link_collect_cripto_week_incresse_binance"><path d="M1073.72,669.7994 C1112.51,674.0594 1153.21,685.5494 1183,711.6094 C1246.09,766.7994 1258.74,871.4294 1260.72,928.3394 " fill="none" id="collect_cripto_week_incresse-binance" style="stroke:#181818;stroke-width:1.0;"/></g><!--link collect_cripto_current_price to binance--><g id="link_collect_cripto_current_price_binance"><path d="M1098.09,986.1894 C1144.37,980.8894 1191.79,975.4694 1223.35,971.8594 " fill="none" id="collect_cripto_current_price-binance" style="stroke:#181818;stroke-width:1.0;"/></g><!--link collect_cripto_open_close to binance--><g id="link_collect_cripto_open_close_binance"><path d="M1113.44,770.6994 C1138.48,777.9994 1162.74,788.7994 1183,804.6094 C1222.27,835.2694 1242.66,890.7194 1252.47,928.3394 " fill="none" id="collect_cripto_open_close-binance" style="stroke:#181818;stroke-width:1.0;"/></g><!--link collect_ema8_relations to binance--><g id="link_collect_ema8_relations_binance"><path d="M1077.6,846.9594 C1113.28,852.2494 1151.16,862.0294 1183,879.6094 C1204.03,891.2194 1222.14,910.8294 1235.55,928.5894 " fill="none" id="collect_ema8_relations-binance" style="stroke:#181818;stroke-width:1.0;"/></g><!--link collect_volume_relations to binance--><g id="link_collect_volume_relations_binance"><path d="M1059.38,935.3994 C1116.13,944.4894 1182.71,955.1494 1223.23,961.6394 " fill="none" id="collect_volume_relations-binance" style="stroke:#181818;stroke-width:1.0;"/></g><!--link collect_expressive_volume_date to binance--><g id="link_collect_expressive_volume_date_binance"><path d="M1099.6,1077.7594 C1128.36,1071.0894 1157.51,1061.4594 1183,1047.6094 C1201.35,1037.6394 1218.01,1021.8394 1231.14,1006.9094 " fill="none" id="collect_expressive_volume_date-binance" style="stroke:#181818;stroke-width:1.0;"/></g><!--link collect_market_cap to cmc--><g id="link_collect_market_cap_cmc"><path d="M1029.32,1470.9694 C1075.45,1488.3694 1136.1,1509.9994 1191,1525.6094 C1193.85,1526.4194 1196.78,1527.2094 1199.74,1527.9794 " fill="none" id="collect_market_cap-cmc" style="stroke:#181818;stroke-width:1.0;"/></g><!--link collect_emas_aligned to binance--><g id="link_collect_emas_aligned_binance"><path d="M1110.37,1171.6894 C1136.54,1164.3594 1161.98,1153.2494 1183,1136.6094 C1223.74,1104.3494 1243.89,1045.8194 1253.24,1006.8294 " fill="none" id="collect_emas_aligned-binance" style="stroke:#181818;stroke-width:1.0;"/></g><!--link collect_cripto_price_variations to binance--><g id="link_collect_cripto_price_variations_binance"><path d="M1132.03,1259.9194 C1150.79,1251.9694 1168.33,1241.4594 1183,1227.6094 C1244.82,1169.2494 1257.99,1063.9294 1260.39,1006.8894 " fill="none" id="collect_cripto_price_variations-binance" style="stroke:#181818;stroke-width:1.0;"/></g><!--link sch_sectors to collect_sectors--><g id="link_sch_sectors_collect_sectors"><path d="M531.02,1363.5094 C630.28,1364.2394 768.51,1365.2494 859.21,1365.9194 " fill="none" id="sch_sectors-collect_sectors" style="stroke:#181818;stroke-width:1.0;"/></g><!--link collect_sectors to cmc--><g id="link_collect_sectors_cmc"><path d="M1043.47,1360.3794 C1088.82,1361.4794 1142.73,1369.7894 1183,1397.6094 C1218.43,1422.0794 1239.15,1468.1494 1250.11,1501.3894 " fill="none" id="collect_sectors-cmc" style="stroke:#181818;stroke-width:1.0;"/></g><!--link investor to view_sectors--><g id="link_investor_view_sectors"><path d="M60.46,578.4794 C65.05,503.8694 79.23,345.4894 118,309.6094 C174.15,257.6394 265.01,255.5594 329.96,262.5594 " fill="none" id="investor-view_sectors" style="stroke:#181818;stroke-width:1.0;"/></g><!--link investor to view_cripto_info--><g id="link_investor_view_cripto_info"><path d="M60.74,578.5994 C67.26,471.3494 87.72,178.0294 118,147.6094 C164.85,100.5494 239.56,91.6994 301.35,94.2794 " fill="none" id="investor-view_cripto_info" style="stroke:#181818;stroke-width:1.0;"/></g><!--link investor to view_cripto_week_incresse--><g id="link_investor_view_cripto_week_incresse"><path d="M59.14,578.4494 C61.41,492.2894 71.66,290.2494 118,243.6094 C147.89,213.5194 188.96,197.9294 230.77,190.5794 " fill="none" id="investor-view_cripto_week_incresse" style="stroke:#181818;stroke-width:1.0;"/></g><!--link investor to view_cripto_current_price--><g id="link_investor_view_cripto_current_price"><path d="M88.12,590.0894 C97.14,583.0494 107.46,576.1894 118,571.6094 C158.05,554.2194 203.75,543.2094 246.83,536.2494 " fill="none" id="investor-view_cripto_current_price" style="stroke:#181818;stroke-width:1.0;"/></g><!--link investor to view_cripto_open_close--><g id="link_investor_view_cripto_open_close"><path d="M66.05,656.8194 C73.88,686.4494 89.18,725.6394 118,747.6094 C151.51,773.1494 193.61,787.0894 235.23,794.2594 " fill="none" id="investor-view_cripto_open_close" style="stroke:#181818;stroke-width:1.0;"/></g><!--link investor to view_ema8_relations--><g id="link_investor_view_ema8_relations"><path d="M88.07,645.2394 C97.09,652.2894 107.42,659.1194 118,663.6094 C163.24,682.7894 215.63,693.4794 263.31,699.3394 " fill="none" id="investor-view_ema8_relations" style="stroke:#181818;stroke-width:1.0;"/></g><!--link investor to view_volume_relations--><g id="link_investor_view_volume_relations"><path d="M63.37,578.2794 C71.5,519.4294 89.77,412.6594 118,387.6094 C163.62,347.1294 230.25,336.0794 288.1,335.7294 " fill="none" id="investor-view_volume_relations" style="stroke:#181818;stroke-width:1.0;"/></g><!--link investor to view_expressive_volume_increase--><g id="link_investor_view_expressive_volume_increase"><path d="M88.26,617.6094 C122.54,617.6094 181.66,617.6094 239.77,617.6094 " fill="none" id="investor-view_expressive_volume_increase" style="stroke:#181818;stroke-width:1.0;"/></g><!--link investor to view_market_cap--><g id="link_investor_view_market_cap"><path d="M64.51,578.3194 C71.59,546.1194 86.64,502.0294 118,477.6094 C154.52,449.1694 201.66,435.2694 247.25,429.1594 " fill="none" id="investor-view_market_cap" style="stroke:#181818;stroke-width:1.0;"/></g><!--link investor to view_emas_aligned--><g id="link_investor_view_emas_aligned"><path d="M63.74,656.7794 C72.24,714.1794 90.86,817.0294 118,841.6094 C150.74,871.2694 194.53,886.2194 238.13,893.0294 " fill="none" id="investor-view_emas_aligned" style="stroke:#181818;stroke-width:1.0;"/></g><!--link investor to view_cripto_price_variations--><g id="link_investor_view_cripto_price_variations"><path d="M60.49,656.7294 C65.17,732.6494 79.55,895.9494 118,934.6094 C140.65,957.3894 169.59,972.3594 200.38,981.9894 " fill="none" id="investor-view_cripto_price_variations" style="stroke:#181818;stroke-width:1.0;"/></g><!--link investor to view_xlsl--><g id="link_investor_view_xlsl"><path d="M58.47,656.7794 C59.22,751.4994 66.33,989.2894 118,1045.6094 C133.51,1062.5094 152.37,1075.5294 172.96,1085.5094 " fill="none" id="investor-view_xlsl" style="stroke:#181818;stroke-width:1.0;"/></g><!--link investor to register_cripto--><g id="link_investor_register_cripto"><path d="M61.15,656.8094 C71.86,814.2894 111.59,1392.7194 118,1399.6094 C156.69,1441.1694 216.77,1454.6394 272.19,1456.6294 " fill="none" id="investor-register_cripto" style="stroke:#181818;stroke-width:1.0;"/></g><!--link sch_analysis to collect_cripto_week_incresse--><g id="link_sch_analysis_collect_cripto_week_incresse"><path d="M480.16,1307.7894 C541.33,1315.4994 627.28,1314.5394 675,1261.6094 C693.19,1241.4294 672,797.4494 683,772.6094 C708.39,715.2494 768.1549,691.6151 828.3249,681.3851 " fill="none" id="sch_analysis-to-collect_cripto_week_incresse" style="stroke:#181818;stroke-width:1.0;"/><polygon fill="#181818" points="834.24,680.3794,824.6969,677.9445,829.3107,681.2174,826.0378,685.8313,834.24,680.3794" style="stroke:#181818;stroke-width:1.0;"/><text fill="#000000" font-family="sans-serif" font-size="13" lengthAdjust="spacing" textLength="55" x="684" y="711.1045">&#171;include&#187;</text></g><!--link sch_analysis to collect_cripto_current_price--><g id="link_sch_analysis_collect_cripto_current_price"><path d="M481.14,1307.4994 C541.89,1314.7094 626.63,1313.1594 675,1261.6094 C685.81,1250.0894 676.22,1133.8794 683,1119.6094 C697.72,1088.6394 720.47,1095.7994 740,1067.6094 C745.45,1059.7394 740.7,1053.7994 748,1047.6094 C764.29,1033.7994 778.1891,1025.8799 798.6991,1018.9099 " fill="none" id="sch_analysis-to-collect_cripto_current_price" style="stroke:#181818;stroke-width:1.0;"/><polygon fill="#181818" points="804.38,1016.9794,794.5716,1016.088,799.6459,1018.5882,797.1457,1023.6625,804.38,1016.9794" style="stroke:#181818;stroke-width:1.0;"/><text fill="#000000" font-family="sans-serif" font-size="13" lengthAdjust="spacing" textLength="55" x="684" y="1064.1045">&#171;include&#187;</text></g><!--link sch_analysis to collect_cripto_current_price--><g id="link_sch_analysis_collect_cripto_current_price"><path d="M480.78,1307.6494 C541.73,1315.0794 626.96,1313.7794 675,1261.6094 C691.04,1244.1894 667.39,1066.4194 683,1048.6094 C710.84,1016.8394 745.9685,1002.5036 787.6885,996.1436 " fill="none" id="sch_analysis-to-collect_cripto_current_price-1" style="stroke:#181818;stroke-width:1.0;"/><polygon fill="#181818" points="793.62,995.2394,784.12,992.6414,788.6771,995.9929,785.3256,1000.55,793.62,995.2394" style="stroke:#181818;stroke-width:1.0;"/><text fill="#000000" font-family="sans-serif" font-size="13" lengthAdjust="spacing" textLength="55" x="684" y="1008.1045">&#171;include&#187;</text></g><!--link sch_analysis to collect_cripto_open_close--><g id="link_sch_analysis_collect_cripto_open_close"><path d="M480.12,1307.7494 C541.27,1315.4494 627.21,1314.4694 675,1261.6094 C690.46,1244.4994 671.78,866.7594 683,846.6094 C705.69,805.8694 742.7246,784.8196 787.6546,772.4696 " fill="none" id="sch_analysis-to-collect_cripto_open_close" style="stroke:#181818;stroke-width:1.0;"/><polygon fill="#181818" points="793.44,770.8794,783.7017,769.4078,788.6188,772.2046,785.822,777.1217,793.44,770.8794" style="stroke:#181818;stroke-width:1.0;"/><text fill="#000000" font-family="sans-serif" font-size="13" lengthAdjust="spacing" textLength="55" x="684" y="792.1045">&#171;include&#187;</text></g><!--link sch_analysis to collect_ema8_relations--><g id="link_sch_analysis_collect_ema8_relations"><path d="M480.37,1307.7394 C541.47,1315.3694 627.18,1314.2894 675,1261.6094 C687.81,1247.4994 673.42,935.0894 683,918.6094 C711.97,868.8194 765.9077,849.5943 821.8877,842.4943 " fill="none" id="sch_analysis-to-collect_ema8_relations" style="stroke:#181818;stroke-width:1.0;"/><polygon fill="#181818" points="827.84,841.7394,818.4082,838.9036,822.8797,842.3685,819.4148,846.84,827.84,841.7394" style="stroke:#181818;stroke-width:1.0;"/><text fill="#000000" font-family="sans-serif" font-size="13" lengthAdjust="spacing" textLength="55" x="684" y="866.1045">&#171;include&#187;</text></g><!--link sch_analysis to collect_volume_relations--><g id="link_sch_analysis_collect_volume_relations"><path d="M480.59,1307.7094 C541.62,1315.2494 627.1,1314.0594 675,1261.6094 C695.46,1239.1994 666.43,1014.0294 683,988.6094 C713.02,942.5394 763.6182,924.3481 817.1982,917.5181 " fill="none" id="sch_analysis-to-collect_volume_relations" style="stroke:#181818;stroke-width:1.0;"/><polygon fill="#181818" points="823.15,916.7594,813.7164,913.9295,818.1901,917.3916,814.728,921.8653,823.15,916.7594" style="stroke:#181818;stroke-width:1.0;"/><text fill="#000000" font-family="sans-serif" font-size="13" lengthAdjust="spacing" textLength="55" x="684" y="938.1045">&#171;include&#187;</text></g><!--link sch_analysis to collect_expressive_volume_date--><g id="link_sch_analysis_collect_expressive_volume_date"><path d="M483.86,1306.7594 C543.56,1312.7294 625.36,1309.7894 675,1261.6094 C692.09,1245.0194 672.81,1230.1394 683,1208.6094 C701.44,1169.6394 710.68,1158.1894 748,1136.6094 C768.12,1124.9794 785.1747,1118 808.1247,1111.69 " fill="none" id="sch_analysis-to-collect_expressive_volume_date" style="stroke:#181818;stroke-width:1.0;"/><polygon fill="#181818" points="813.91,1110.0994,804.1716,1108.6285,809.0889,1111.4249,806.2925,1116.3422,813.91,1110.0994" style="stroke:#181818;stroke-width:1.0;"/><text fill="#000000" font-family="sans-serif" font-size="13" lengthAdjust="spacing" textLength="55" x="684" y="1139.1045">&#171;include&#187;</text></g><!--link sch_analysis to collect_market_cap--><g id="link_sch_analysis_collect_market_cap"><path d="M502.41,1290.2594 C555.35,1291.8294 621.57,1299.8494 675,1325.6094 C716.05,1345.3994 707.9,1375.9494 748,1397.6094 C769.97,1409.4694 789.078,1416.6493 813.768,1422.9793 " fill="none" id="sch_analysis-to-collect_market_cap" style="stroke:#181818;stroke-width:1.0;"/><polygon fill="#181818" points="819.58,1424.4694,811.8553,1418.3596,814.7366,1423.2276,809.8686,1426.1089,819.58,1424.4694" style="stroke:#181818;stroke-width:1.0;"/><text fill="#000000" font-family="sans-serif" font-size="13" lengthAdjust="spacing" textLength="55" x="684" y="1327.1045">&#171;include&#187;</text></g><!--link sch_analysis to collect_emas_aligned--><g id="link_sch_analysis_collect_emas_aligned"><path d="M502.15,1289.6294 C553.81,1285.6294 618.86,1277.6294 675,1261.6094 C709.42,1251.7894 714.1,1239.0794 748,1227.6094 C773.31,1219.0494 795.0939,1213.0397 821.6339,1206.9097 " fill="none" id="sch_analysis-to-collect_emas_aligned" style="stroke:#181818;stroke-width:1.0;"/><polygon fill="#181818" points="827.48,1205.5594,817.8107,1203.6874,822.6083,1206.6846,819.6111,1211.4822,827.48,1205.5594" style="stroke:#181818;stroke-width:1.0;"/><text fill="#000000" font-family="sans-serif" font-size="13" lengthAdjust="spacing" textLength="55" x="684" y="1228.1045">&#171;include&#187;</text></g><!--link sch_analysis to collect_cripto_price_variations--><g id="link_sch_analysis_collect_cripto_price_variations"><path d="M503.15,1291.5394 C570.73,1290.0494 658.5615,1288.1015 743.0115,1286.2415 " fill="none" id="sch_analysis-to-collect_cripto_price_variations" style="stroke:#181818;stroke-width:1.0;"/><polygon fill="#181818" points="749.01,1286.1094,739.9241,1282.3085,744.0112,1286.2195,740.1003,1290.3066,749.01,1286.1094" style="stroke:#181818;stroke-width:1.0;"/><text fill="#000000" font-family="sans-serif" font-size="13" lengthAdjust="spacing" textLength="55" x="684" y="1283.1045">&#171;include&#187;</text></g><!--SRC=[jLVDRXit4BxhAGZra8i5Mp-Dt20mu1Xe8I05ZBXDq9D0xuubGbnoGNBbn4KVfkWXwBde4-Z5EkGk9N9_v7Ni6h1baSEPZ_FDV2GDCnp8bMH2qnMG4Rd95HE6p0O33dU664aKMwqDIPc2n30f1ZGnKf7XGcn16vPADIHK4-Q-IkMdVu4ibuezK6-WapMa1GTly8u9AX8WbzSBDtzRVlVJ5jBFL6t0ND5yRvHaoM1WWL2nGjp3zx02aTBXxmE2Fth3H4uLpKZ6n1MdMdzYgLcJyLbjMiWKDEHaN1jNL6pASJSH1AhICXwIxzxRVBpZ1NJOJBpDJmf0T1XDlT6LL9Ht6CsyqM_0kRntLgzQxBxtTjTCR0P_H1dor3PIv7CmEHjKZcygXZGfD924Qj1-9YypXUDs60DNfbWv70nLP27kfChexklkNroV8bMP1Fpmr2yJnN8ZbmpjwYbiUbq8bZ3qUYbsVtAcOU-52ig_QARhBYp4QUpimuzdOrlFTQGtWFK51s1eZmCwf8ESeh-rB7XARe7eYbPoMnZCcY5OSP2ILwS-RvSE53oUDOJq6Y5v95kgcCtONv9eoEpMoXgNd2Ccdx5xW0scBK7CwADbtvFMVRTjrtkEjtmeqy37-3pmaIlOVPL8An1w2yeKYX8WTv2iQGR2o3ROCWUnJBZSOsuFCxTXA4yAZd4Ky7q50S6Kd4UUxS3IsbWPEev-rkrsAtcHGUIu73hYkhsyfX6N75KBtMUW4jGyH8-AnjSsQXGhSvgsJ53Klg7YQX0c8TEouWbNOFCvOh0H2Grxg4PIKYY5TakCby0Bu2dpNk6XHOa1FkUsTjbMTgH_Rm2UYPIQbu0pcOTmE1DLlPRwjFixPUxpdoqmNQyqlSG5Au5-wpeTbi0yAW4Mb5d5XTNQDsJyvOIypax857_76VREF6sZmz6mTB8Grc4PkYh43u37gdbSQpwoXm9ty830k5mX2vYf3EhAl6LmtqkQA-aAl2AC19E9HqlcU6qNip30DohPHwPzp53CdES-IZQBVNIgWNFu32a8OZog1YxMoqj10A6F6eJa_2zI4E3nQe39A7CSwC81J5CANBrG_IAGvgVuvuTZvR0_SqeqRGVEin2Sny4hYewUgo59ZKFrsUeOCjH387rQ-gjZr1LF5iXmyttKyHD5GJKUn44SPutDdxaR0kxJA8IMo2p7v2EiCbWWaGfMJ1jG5OpcZJpSyVa9GPQdxc_vlostQqu5TZybdxdcDXRcDxNtgKC_kemtOhljkqLHLBpXjz_M_HkBZ4RHTRan4KX-OwxIL1i3drqtWVjwAd21VxNLh_Z7f-mpxkWrDrX-zChIRHUqIejHhRDRB1e7GPkNzejBYsKWzRNjHytKlPr6yTSIx0z2wps-vG_gj_uA0DAxgDxi0SN-6M-jmXEsEH6MKDTaH6gdLKHffzM1qAP9J6TplavcYuVEWwTfUo2p5ScUpiwjrCbi6jgUZqPhhJUmzFtgMIE7ZKMFvD7eulXhahmXRz_YDrwaS77nwEAuzvwuE6Z8lYjhNTftMQDrUyThx-UUguCUVqvQ- -Vce1jFYzVGadZvVm00]--></g></svg>