<?xml version="1.0" encoding="us-ascii" standalone="no"?><svg xmlns="http://www.w3.org/2000/svg" xmlns:xlink="http://www.w3.org/1999/xlink" contentStyleType="text/css" height="1814px" preserveAspectRatio="none" style="width:1474px;height:1814px;background:#FFFFFF;" version="1.1" viewBox="0 0 1474 1814" width="1474px" zoomAndPan="magnify"><defs/><g><text fill="#000000" font-family="sans-serif" font-size="14" font-weight="bold" lengthAdjust="spacing" textLength="151" x="654.75" y="22.9951">Coinsage - Sprint 4</text><!--cluster Legenda--><g id="cluster_Legenda"><rect fill="none" height="143" rx="2.5" ry="2.5" style="stroke:#181818;stroke-width:1.0;" width="509.5" x="7" y="1665.2969"/><text fill="#000000" font-family="sans-serif" font-size="14" font-weight="bold" lengthAdjust="spacing" textLength="68" x="227.75" y="1680.292">Legenda</text></g><!--cluster Coinsage--><g id="cluster_Coinsage"><rect fill="none" height="1552" rx="2.5" ry="2.5" style="stroke:#181818;stroke-width:1.0;" width="1180" x="132.5" y="44.2969"/><text fill="#000000" font-family="sans-serif" font-size="14" font-weight="bold" lengthAdjust="spacing" textLength="73" x="686" y="59.292">Coinsage</text></g><!--entity Sprint 1--><g id="elem_Sprint 1"><rect fill="#ADD8E6" height="36.2969" rx="2.5" ry="2.5" style="stroke:#181818;stroke-width:0.5;" width="73" x="23" y="1756.2969"/><text fill="#000000" font-family="sans-serif" font-size="14" lengthAdjust="spacing" textLength="53" x="33" y="1779.292">Sprint 1</text></g><!--entity Sprint 2--><g id="elem_Sprint 2"><rect fill="#90EE90" height="36.2969" rx="2.5" ry="2.5" style="stroke:#181818;stroke-width:0.5;" width="73" x="23" y="1700.2969"/><text fill="#000000" font-family="sans-serif" font-size="14" lengthAdjust="spacing" textLength="53" x="33" y="1723.292">Sprint 2</text></g><!--entity Sprint 3--><g id="elem_Sprint 3"><rect fill="#F08080" height="36.2969" rx="2.5" ry="2.5" style="stroke:#181818;stroke-width:0.5;" width="73" x="427.5" y="1756.2969"/><text fill="#000000" font-family="sans-serif" font-size="14" lengthAdjust="spacing" textLength="53" x="437.5" y="1779.292">Sprint 3</text></g><!--entity Sprint 4--><g id="elem_Sprint 4"><rect fill="#FFFFE0" height="36.2969" rx="2.5" ry="2.5" style="stroke:#181818;stroke-width:0.5;" width="73" x="427.5" y="1700.2969"/><text fill="#000000" font-family="sans-serif" font-size="14" lengthAdjust="spacing" textLength="53" x="437.5" y="1723.292">Sprint 4</text></g><g id="elem_sch_cripto_info"><ellipse cx="463.7982" cy="1469.1565" fill="#ADD8E6" rx="162.2982" ry="34.8596" style="stroke:#181818;stroke-width:0.5;"/><text fill="#000000" font-family="sans-serif" font-size="14" lengthAdjust="spacing" textLength="296" x="315.7982" y="1472.0032">Schedule Coletar Informa&#231;&#245;es das moedas</text></g><g id="elem_sch_analysis"><ellipse cx="464.1147" cy="1392.4198" fill="#ADD8E6" rx="98.6147" ry="22.1229" style="stroke:#181818;stroke-width:0.5;"/><text fill="#000000" font-family="sans-serif" font-size="14" lengthAdjust="spacing" textLength="161" x="383.6147" y="1395.2665">Schedule Iniciar An&#225;lise</text></g><g id="elem_sch_sectors"><ellipse cx="463.8083" cy="1552.3585" fill="#F08080" rx="128.3083" ry="28.0617" style="stroke:#181818;stroke-width:0.5;"/><text fill="#000000" font-family="sans-serif" font-size="14" lengthAdjust="spacing" textLength="225" x="351.3083" y="1555.2052">RF02 - Schedule Coletar Setores</text></g><g id="elem_collect_cripto_week_incresse"><ellipse cx="1077.4468" cy="827.3862" fill="#ADD8E6" rx="125.9468" ry="27.5894" style="stroke:#181818;stroke-width:0.5;"/><text fill="#000000" font-family="sans-serif" font-size="14" lengthAdjust="spacing" textLength="220" x="967.4468" y="830.2329">RF01 - Coletar varia&#231;&#227;o semanal</text></g><g id="elem_collect_sectors"><ellipse cx="1077.3591" cy="1558.4687" fill="#90EE90" rx="96.3591" ry="21.6718" style="stroke:#181818;stroke-width:0.5;"/><text fill="#000000" font-family="sans-serif" font-size="14" lengthAdjust="spacing" textLength="156" x="999.3591" y="1561.3154">RF02 - Coletar Setores</text></g><g id="elem_collect_cripto_open_close"><ellipse cx="1077.7327" cy="913.3434" fill="#90EE90" rx="180.7327" ry="38.5465" style="stroke:#181818;stroke-width:0.5;"/><text fill="#000000" font-family="sans-serif" font-size="14" lengthAdjust="spacing" textLength="334" x="910.7327" y="916.1901">RF14 - Coletar pre&#231;os de abertura e fechamento</text></g><g id="elem_collect_ema8_relations"><ellipse cx="1077.7292" cy="1004.3427" fill="#90EE90" rx="150.7292" ry="32.5458" style="stroke:#181818;stroke-width:0.5;"/><text fill="#000000" font-family="sans-serif" font-size="14" lengthAdjust="spacing" textLength="272" x="941.7292" y="1007.1894">RF15/RF17 - Calcular rela&#231;&#245;es de ema8</text></g><g id="elem_collect_volume_relations"><ellipse cx="1077.3697" cy="1094.3708" fill="#90EE90" rx="175.8697" ry="37.5739" style="stroke:#181818;stroke-width:0.5;"/><text fill="#000000" font-family="sans-serif" font-size="14" lengthAdjust="spacing" textLength="324" x="915.3697" y="1097.2175">RF09/RF10/RF11 - Calcular rela&#231;&#245;es de volume</text></g><g id="elem_collect_market_cap"><ellipse cx="1077.7163" cy="1481.1401" fill="#F08080" rx="164.7163" ry="35.3433" style="stroke:#181818;stroke-width:0.5;"/><text fill="#000000" font-family="sans-serif" font-size="14" lengthAdjust="spacing" textLength="301" x="927.2163" y="1483.9868">RF03 - Coletar valor de mercado em bilh&#245;es</text></g><g id="elem_collect_cripto_current_price"><ellipse cx="1077.4123" cy="1189.0793" fill="#F08080" rx="174.4123" ry="37.2825" style="stroke:#181818;stroke-width:0.5;"/><text fill="#000000" font-family="sans-serif" font-size="14" lengthAdjust="spacing" textLength="321" x="916.9123" y="1191.926">RF21 - Coletar o pre&#231;o no momento da an&#225;lise</text></g><g id="elem_collect_expressive_volume_date"><ellipse cx="1077.4903" cy="1292.2949" fill="#F08080" rx="212.9903" ry="44.9981" style="stroke:#181818;stroke-width:0.5;"/><text fill="#000000" font-family="sans-serif" font-size="14" lengthAdjust="spacing" textLength="400" x="877.4903" y="1295.1416">RF09/RF10/RF11 - Coletar aumento expressivo de volume</text></g><g id="elem_collect_emas_aligned"><ellipse cx="1077.3838" cy="629.2736" fill="#F08080" rx="175.3838" ry="37.4768" style="stroke:#181818;stroke-width:0.5;"/><text fill="#000000" font-family="sans-serif" font-size="14" lengthAdjust="spacing" textLength="323" x="915.8838" y="632.1203">RF17 - Coletar alinhamento das m&#233;dias m&#243;veis</text></g><g id="elem_collect_cripto_price_variations"><ellipse cx="1077.3794" cy="733.4728" fill="#F08080" rx="218.8794" ry="46.1759" style="stroke:#181818;stroke-width:0.5;"/><text fill="#000000" font-family="sans-serif" font-size="14" lengthAdjust="spacing" textLength="412" x="871.3794" y="736.3194">RF19 - Coletar vaia&#231;&#245;es de pre&#231;o para: 1y, 6m, 3m, 1m e 7d</text></g><g id="elem_view_cripto_info"><ellipse cx="463.8277" cy="749.1624" fill="#ADD8E6" rx="137.3277" ry="29.8655" style="stroke:#181818;stroke-width:0.5;"/><text fill="#000000" font-family="sans-serif" font-size="14" lengthAdjust="spacing" textLength="244" x="341.8277" y="752.0091">Vizualizar logo e nome das moedas</text></g><g id="elem_view_cripto_week_incresse"><ellipse cx="463.9805" cy="840.293" fill="#ADD8E6" rx="190.4805" ry="40.4961" style="stroke:#181818;stroke-width:0.5;"/><text fill="#000000" font-family="sans-serif" font-size="14" lengthAdjust="spacing" textLength="354" x="286.9805" y="843.1396">RF01 - Vizualizar porcentagem de varia&#231;&#227;o semanal</text></g><g id="elem_view_sectors"><ellipse cx="464.1608" cy="924.329" fill="#90EE90" rx="103.1608" ry="23.0322" style="stroke:#181818;stroke-width:0.5;"/><text fill="#000000" font-family="sans-serif" font-size="14" lengthAdjust="spacing" textLength="171" x="378.6608" y="927.1757">RF02 - Visualizar Setores</text></g><g id="elem_view_volume_relations"><ellipse cx="464.2327" cy="1006.3434" fill="#90EE90" rx="180.7327" ry="38.5465" style="stroke:#181818;stroke-width:0.5;"/><text fill="#000000" font-family="sans-serif" font-size="14" lengthAdjust="spacing" textLength="334" x="297.2327" y="1009.1901">RF09/RF10/RF11 - Visualizar rela&#231;&#245;es de volume</text></g><g id="elem_view_market_cap"><ellipse cx="463.985" cy="1102.0939" fill="#F08080" rx="171.985" ry="36.797" style="stroke:#181818;stroke-width:0.5;"/><text fill="#000000" font-family="sans-serif" font-size="14" lengthAdjust="spacing" textLength="316" x="305.985" y="1104.9406">RF03 - Visualizar valor de mercado em bilh&#245;es</text></g><g id="elem_view_cripto_current_price"><ellipse cx="464.2063" cy="1198.5381" fill="#F08080" rx="181.7063" ry="38.7413" style="stroke:#181818;stroke-width:0.5;"/><text fill="#000000" font-family="sans-serif" font-size="14" lengthAdjust="spacing" textLength="336" x="296.2063" y="1201.3848">RF21 - Visualizar o pre&#231;o no momento da an&#225;lise</text></g><g id="elem_view_expressive_volume_increase"><ellipse cx="463.8527" cy="1303.2674" fill="#F08080" rx="220.3527" ry="46.4705" style="stroke:#181818;stroke-width:0.5;"/><text fill="#000000" font-family="sans-serif" font-size="14" lengthAdjust="spacing" textLength="415" x="256.3527" y="1306.1141">RF09/RF10/RF11 - Visualizar aumento do volume expressivo</text></g><g id="elem_view_ema8_relations"><ellipse cx="464.0416" cy="113.3052" fill="#F08080" rx="155.5416" ry="33.5083" style="stroke:#181818;stroke-width:0.5;"/><text fill="#000000" font-family="sans-serif" font-size="14" lengthAdjust="spacing" textLength="282" x="323.0416" y="116.1519">RF15/RF17 - Visualizar rela&#231;&#245;es de ema8</text></g><g id="elem_view_cripto_open_close"><ellipse cx="464.1413" cy="206.5251" fill="#F08080" rx="184.1413" ry="39.2283" style="stroke:#181818;stroke-width:0.5;"/><text fill="#000000" font-family="sans-serif" font-size="14" lengthAdjust="spacing" textLength="341" x="293.6413" y="209.3718">RF14 - Visualizar pre&#231;o de abertura e fechamento</text></g><g id="elem_view_emas_aligned"><ellipse cx="464.1801" cy="304.2329" fill="#F08080" rx="182.6801" ry="38.936" style="stroke:#181818;stroke-width:0.5;"/><text fill="#000000" font-family="sans-serif" font-size="14" lengthAdjust="spacing" textLength="338" x="295.1801" y="307.0796">RF17 - Visualizar alinhamento das m&#233;dias m&#243;veis</text></g><g id="elem_view_cripto_price_variations"><ellipse cx="464.2491" cy="411.4467" fill="#F08080" rx="226.2491" ry="47.6498" style="stroke:#181818;stroke-width:0.5;"/><text fill="#000000" font-family="sans-serif" font-size="14" lengthAdjust="spacing" textLength="427" x="250.7491" y="414.2934">RF19 - Visualizar vaia&#231;&#245;es de pre&#231;o para: 1y, 6m, 3m, 1m e 7d</text></g><g id="elem_register_cripto"><ellipse cx="463.8656" cy="513.27" fill="#FFFFE0" rx="160.3656" ry="34.4731" style="stroke:#181818;stroke-width:0.5;"/><text fill="#000000" font-family="sans-serif" font-size="14" lengthAdjust="spacing" textLength="292" x="317.8656" y="516.1167">RF20 - Cadastrar compra de criptomoedas</text></g><g id="elem_view_xlsl"><ellipse cx="464.1658" cy="633.33" fill="#FFFFE0" rx="315.6658" ry="65.5332" style="stroke:#181818;stroke-width:0.5;"/><text fill="#000000" font-family="sans-serif" font-size="14" lengthAdjust="spacing" textLength="608" x="160.1658" y="636.1767">RF08, RF13, RF14, RF19 - Visualizar planilha xlsl com dados da an&#225;lise das criptomoedas</text></g><g id="elem_collect_rankings"><ellipse cx="1077.4172" cy="1391.4803" fill="#FFFFE0" rx="158.9172" ry="34.1834" style="stroke:#181818;stroke-width:0.5;"/><text fill="#000000" font-family="sans-serif" font-size="14" lengthAdjust="spacing" textLength="289" x="932.9172" y="1394.327">RF03 - Coletar rankings das criptomoedas</text></g><!--entity investor--><g id="elem_investor"><ellipse cx="59.5" cy="719.7969" fill="#F1F1F1" rx="8" ry="8" style="stroke:#181818;stroke-width:0.5;"/><path d="M59.5,727.7969 L59.5,754.7969 M46.5,735.7969 L72.5,735.7969 M59.5,754.7969 L46.5,769.7969 M59.5,754.7969 L72.5,769.7969 " fill="none" style="stroke:#181818;stroke-width:0.5;"/><text fill="#000000" font-family="sans-serif" font-size="14" lengthAdjust="spacing" textLength="67" x="26" y="784.292">Investidor</text></g><!--entity schedule--><g id="elem_schedule"><ellipse cx="59.5" cy="1481.7969" fill="#F1F1F1" rx="8" ry="8" style="stroke:#181818;stroke-width:0.5;"/><path d="M59.5,1489.7969 L59.5,1516.7969 M46.5,1497.7969 L72.5,1497.7969 M59.5,1516.7969 L46.5,1531.7969 M59.5,1516.7969 L72.5,1531.7969 " fill="none" style="stroke:#181818;stroke-width:0.5;"/><text fill="#000000" font-family="sans-serif" font-size="14" lengthAdjust="spacing" textLength="96" x="11.5" y="1546.292">Temporizador</text></g><!--entity binance--><g id="elem_binance"><ellipse cx="1402.5" cy="883.7969" fill="#F1F1F1" rx="8" ry="8" style="stroke:#181818;stroke-width:0.5;"/><path d="M1402.5,891.7969 L1402.5,918.7969 M1389.5,899.7969 L1415.5,899.7969 M1402.5,918.7969 L1389.5,933.7969 M1402.5,918.7969 L1415.5,933.7969 " fill="none" style="stroke:#181818;stroke-width:0.5;"/><text fill="#000000" font-family="sans-serif" font-size="14" lengthAdjust="spacing" textLength="81" x="1362" y="948.292">Binance API</text></g><!--entity cmc--><g id="elem_cmc"><ellipse cx="1402.5" cy="1489.7969" fill="#F1F1F1" rx="8" ry="8" style="stroke:#181818;stroke-width:0.5;"/><path d="M1402.5,1497.7969 L1402.5,1524.7969 M1389.5,1505.7969 L1415.5,1505.7969 M1402.5,1524.7969 L1389.5,1539.7969 M1402.5,1524.7969 L1415.5,1539.7969 " fill="none" style="stroke:#181818;stroke-width:0.5;"/><text fill="#000000" font-family="sans-serif" font-size="14" lengthAdjust="spacing" textLength="130" x="1337.5" y="1554.292">CoinMarketCap API</text></g><!--link schedule to sch_analysis--><g id="link_schedule_sch_analysis"><path d="M78.92,1473.1169 C89.64,1455.1969 104.92,1435.3869 124.5,1424.2969 C201.8,1380.5069 305.2,1377.1469 377.3,1381.8069 " fill="none" id="schedule-sch_analysis" style="stroke:#181818;stroke-width:1.0;"/></g><!--link schedule to sch_cripto_info--><g id="link_schedule_sch_cripto_info"><path d="M107.55,1501.5369 C110.23,1501.0869 112.9,1500.6769 115.5,1500.2969 C178.3,1491.2469 247.88,1484.4069 308.19,1479.4969 " fill="none" id="schedule-sch_cripto_info" style="stroke:#181818;stroke-width:1.0;"/></g><!--link schedule to sch_sectors--><g id="link_schedule_sch_sectors"><path d="M107.86,1516.1169 C166.25,1522.0669 267.52,1532.3869 347.02,1540.4869 " fill="none" id="schedule-sch_sectors" style="stroke:#181818;stroke-width:1.0;"/></g><!--link schedule to collect_rankings--><g id="link_schedule_collect_rankings"><path d="M81.25,1549.6769 C91.92,1565.3169 106.5,1581.7069 124.5,1590.2969 C255.88,1652.9469 655.29,1666.1769 779.5,1590.2969 C845.14,1550.1969 797.27,1482.8669 858.5,1436.2969 C878.88,1420.7969 903.31,1410.3069 928.33,1403.2769 " fill="none" id="schedule-collect_rankings" style="stroke:#181818;stroke-width:1.0;"/></g><!--link register_cripto to binance--><g id="link_register_cripto_binance"><path d="M607.64,497.8969 C824.89,477.7369 1224.59,454.6769 1329.5,544.2969 C1379.31,586.8469 1395.28,789.5769 1399.85,875.0969 " fill="none" id="register_cripto-binance" style="stroke:#181818;stroke-width:1.0;"/></g><!--link sch_cripto_info to binance--><g id="link_sch_cripto_info_binance"><path d="M604.85,1486.8269 C667.62,1486.3969 736.97,1472.8269 779.5,1424.2969 C793.47,1408.3569 779.87,681.0769 787.5,661.2969 C804.61,616.9469 815.14,600.7869 858.5,581.2969 C952.14,539.2069 1239.76,517.8869 1320.5,581.2969 C1366.64,617.5269 1389.83,795.8869 1397.99,875.1769 " fill="none" id="sch_cripto_info-binance" style="stroke:#181818;stroke-width:1.0;"/></g><!--link sch_cripto_info to cmc--><g id="link_sch_cripto_info_cmc"><path d="M625.84,1473.0369 C676.96,1479.1869 732.41,1491.3169 779.5,1514.2969 C823.28,1535.6669 813.31,1572.0869 858.5,1590.2969 C1048.95,1667.0369 1128.32,1662.6069 1320.5,1590.2969 C1338.7,1583.4469 1355.48,1570.4469 1368.99,1557.4169 " fill="none" id="sch_cripto_info-cmc" style="stroke:#181818;stroke-width:1.0;"/></g><!--link collect_cripto_week_incresse to binance--><g id="link_collect_cripto_week_incresse_binance"><path d="M1197.13,836.0369 C1237.16,841.4369 1281.54,850.1669 1320.5,864.2969 C1334.71,869.4469 1349.17,877.2269 1361.87,885.0769 " fill="none" id="collect_cripto_week_incresse-binance" style="stroke:#181818;stroke-width:1.0;"/></g><!--link collect_cripto_current_price to binance--><g id="link_collect_cripto_current_price_binance"><path d="M1246.13,1179.4969 C1273.26,1171.6469 1299.35,1159.5669 1320.5,1141.2969 C1376.6,1092.8169 1393.85,1002.8069 1399.15,951.5769 " fill="none" id="collect_cripto_current_price-binance" style="stroke:#181818;stroke-width:1.0;"/></g><!--link collect_cripto_open_close to binance--><g id="link_collect_cripto_open_close_binance"><path d="M1258.42,913.2969 C1297.38,913.2969 1334.9,913.2969 1361.74,913.2969 " fill="none" id="collect_cripto_open_close-binance" style="stroke:#181818;stroke-width:1.0;"/></g><!--link collect_ema8_relations to binance--><g id="link_collect_ema8_relations_binance"><path d="M1211.72,989.4369 C1247.72,983.0569 1286.2,974.0269 1320.5,961.2969 C1334.6,956.0669 1349.03,948.3969 1361.72,940.7169 " fill="none" id="collect_ema8_relations-binance" style="stroke:#181818;stroke-width:1.0;"/></g><!--link collect_volume_relations to binance--><g id="link_collect_volume_relations_binance"><path d="M1242.24,1080.9769 C1270.02,1073.5169 1297.33,1062.4869 1320.5,1046.2969 C1353.52,1023.2269 1375.54,981.9569 1388.18,951.4869 " fill="none" id="collect_volume_relations-binance" style="stroke:#181818;stroke-width:1.0;"/></g><!--link collect_expressive_volume_date to binance--><g id="link_collect_expressive_volume_date_binance"><path d="M1266.22,1271.3469 C1286.32,1262.8569 1305.04,1251.4769 1320.5,1236.2969 C1360.98,1196.5569 1387,1027.9269 1396.94,951.3769 " fill="none" id="collect_expressive_volume_date-binance" style="stroke:#181818;stroke-width:1.0;"/></g><!--link collect_market_cap to cmc--><g id="link_collect_market_cap_cmc"><path d="M1222.52,1498.2369 C1262.73,1502.9669 1304.4,1507.8769 1337.4,1511.7569 " fill="none" id="collect_market_cap-cmc" style="stroke:#181818;stroke-width:1.0;"/></g><!--link collect_emas_aligned to binance--><g id="link_collect_emas_aligned_binance"><path d="M1246.91,639.0869 C1273.81,646.9669 1299.61,659.0469 1320.5,677.2969 C1378.57,728.0269 1395.05,822.3069 1399.7,875.0469 " fill="none" id="collect_emas_aligned-binance" style="stroke:#181818;stroke-width:1.0;"/></g><!--link collect_cripto_price_variations to binance--><g id="link_collect_cripto_price_variations_binance"><path d="M1259.89,758.9469 C1281.42,766.6169 1302.21,776.5169 1320.5,789.2969 C1350.85,810.5069 1372.69,847.0869 1385.98,875.0369 " fill="none" id="collect_cripto_price_variations-binance" style="stroke:#181818;stroke-width:1.0;"/></g><!--link sch_sectors to collect_sectors--><g id="link_sch_sectors_collect_sectors"><path d="M592.45,1553.5469 C708.13,1554.6869 876.16,1556.3269 980.75,1557.3569 " fill="none" id="sch_sectors-collect_sectors" style="stroke:#181818;stroke-width:1.0;"/></g><!--link collect_sectors to cmc--><g id="link_collect_sectors_cmc"><path d="M1162.94,1548.0969 C1217.52,1541.5069 1287.44,1533.0669 1337.45,1527.0269 " fill="none" id="collect_sectors-cmc" style="stroke:#181818;stroke-width:1.0;"/></g><!--link collect_rankings to binance--><g id="link_collect_rankings_binance"><path d="M1236.63,1390.2269 C1267.83,1382.9369 1297.88,1369.8169 1320.5,1347.2969 C1376.18,1291.8769 1394.63,1046.9069 1399.77,951.5069 " fill="none" id="collect_rankings-binance" style="stroke:#181818;stroke-width:1.0;"/></g><!--link collect_rankings to cmc--><g id="link_collect_rankings_cmc"><path d="M1225.42,1403.7869 C1258.02,1410.5369 1291.48,1420.7869 1320.5,1436.2969 C1340.74,1447.1169 1359.02,1464.7569 1373.07,1480.9969 " fill="none" id="collect_rankings-cmc" style="stroke:#181818;stroke-width:1.0;"/></g><!--link investor to view_sectors--><g id="link_investor_view_sectors"><path d="M66.94,787.4369 C74.64,820.3369 90.97,866.2369 124.5,890.2969 C198.4,943.3269 305.89,944.8569 379.8,937.6569 " fill="none" id="investor-view_sectors" style="stroke:#181818;stroke-width:1.0;"/></g><!--link investor to view_cripto_info--><g id="link_investor_view_cripto_info"><path d="M93.1,749.2969 C143.44,749.2969 242.99,749.2969 326.14,749.2969 " fill="none" id="investor-view_cripto_info" style="stroke:#181818;stroke-width:1.0;"/></g><!--link investor to view_cripto_week_incresse--><g id="link_investor_view_cripto_week_incresse"><path d="M93.04,773.1969 C102.74,779.3269 113.68,785.2969 124.5,789.2969 C174.53,807.7869 231.09,819.5869 283.44,827.1069 " fill="none" id="investor-view_cripto_week_incresse" style="stroke:#181818;stroke-width:1.0;"/></g><!--link investor to view_cripto_current_price--><g id="link_investor_view_cripto_current_price"><path d="M61.06,787.5269 C63.23,877.5769 73.71,1099.2569 124.5,1149.2969 C169.13,1193.2669 234.46,1209.3169 295.85,1212.9869 " fill="none" id="investor-view_cripto_current_price" style="stroke:#181818;stroke-width:1.0;"/></g><!--link investor to view_cripto_open_close--><g id="link_investor_view_cripto_open_close"><path d="M59.76,711.2169 C58.57,606.8169 61.23,319.5169 124.5,255.2969 C168.36,210.7769 233.37,194.5769 294.73,190.9469 " fill="none" id="investor-view_cripto_open_close" style="stroke:#181818;stroke-width:1.0;"/></g><!--link investor to view_ema8_relations--><g id="link_investor_view_ema8_relations"><path d="M61.93,711.2269 C66.95,586.6669 85.68,196.9669 124.5,157.2969 C177.76,102.8769 262.84,91.9969 334.38,94.6669 " fill="none" id="investor-view_ema8_relations" style="stroke:#181818;stroke-width:1.0;"/></g><!--link investor to view_volume_relations--><g id="link_investor_view_volume_relations"><path d="M60.66,787.3069 C63.08,834.7469 74.85,914.7869 124.5,957.2969 C169.83,996.1069 231.74,1011.9969 290.22,1016.9769 " fill="none" id="investor-view_volume_relations" style="stroke:#181818;stroke-width:1.0;"/></g><!--link investor to view_expressive_volume_increase--><g id="link_investor_view_expressive_volume_increase"><path d="M59.8,787.5269 C58.71,892.3669 61.62,1180.9369 124.5,1246.2969 C156.21,1279.2569 199.33,1297.5769 244.17,1307.0769 " fill="none" id="investor-view_expressive_volume_increase" style="stroke:#181818;stroke-width:1.0;"/></g><!--link investor to view_market_cap--><g id="link_investor_view_market_cap"><path d="M63.16,787.4169 C69.1,860.9569 86.09,1018.3369 124.5,1054.2969 C172.38,1099.1169 242,1114.1869 305.66,1116.8469 " fill="none" id="investor-view_market_cap" style="stroke:#181818;stroke-width:1.0;"/></g><!--link investor to view_emas_aligned--><g id="link_investor_view_emas_aligned"><path d="M61.13,711.1169 C63.44,621.7469 74.23,402.7469 124.5,353.2969 C168.84,309.6769 233.57,293.5469 294.58,289.7169 " fill="none" id="investor-view_emas_aligned" style="stroke:#181818;stroke-width:1.0;"/></g><!--link investor to view_cripto_price_variations--><g id="link_investor_view_cripto_price_variations"><path d="M64.01,711.0369 C71.14,642.1169 89.67,501.1869 124.5,468.2969 C155.59,438.9369 195.84,421.5569 237.67,411.7469 " fill="none" id="investor-view_cripto_price_variations" style="stroke:#181818;stroke-width:1.0;"/></g><!--link investor to view_xlsl--><g id="link_investor_view_xlsl"><path d="M93.23,725.8869 C102.94,719.7769 113.83,713.6769 124.5,709.2969 C156.12,696.3069 190.35,685.3469 224.49,676.1469 " fill="none" id="investor-view_xlsl" style="stroke:#181818;stroke-width:1.0;"/></g><!--link investor to register_cripto--><g id="link_investor_register_cripto"><path d="M61.77,710.9269 C65.46,666.6369 78.67,595.0569 124.5,557.2969 C177.44,513.6769 251.71,500.5069 317.2,499.1669 " fill="none" id="investor-register_cripto" style="stroke:#181818;stroke-width:1.0;"/></g><!--link sch_analysis to collect_cripto_week_incresse--><g id="link_sch_analysis_collect_cripto_week_incresse"><path d="M533.08,1408.1069 C605.64,1420.4669 718.34,1425.9269 779.5,1359.2969 C795.28,1342.1069 778.66,960.8969 787.5,939.2969 C804.89,896.8169 818.01,885.9169 858.5,864.2969 C887.79,848.6569 916.2617,840.3436 948.9517,834.8936 " fill="none" id="sch_analysis-to-collect_cripto_week_incresse" style="stroke:#181818;stroke-width:1.0;"/><polygon fill="#181818" points="954.87,833.9069,945.3347,831.4414,949.9381,834.7291,946.6503,839.3324,954.87,833.9069" style="stroke:#181818;stroke-width:1.0;"/><text fill="#000000" font-family="sans-serif" font-size="13" lengthAdjust="spacing" textLength="61" x="788.5" y="866.3638">&#171;include&#187;</text></g><!--link sch_analysis to collect_cripto_current_price--><g id="link_sch_analysis_collect_cripto_current_price"><path d="M534.08,1407.7669 C606.14,1419.4069 717.13,1423.8569 779.5,1359.2969 C797.15,1341.0369 770.66,1264.3069 787.5,1245.2969 C816.89,1212.1069 853.6521,1196.079 897.2121,1187.939 " fill="none" id="sch_analysis-to-collect_cripto_current_price" style="stroke:#181818;stroke-width:1.0;"/><polygon fill="#181818" points="903.11,1186.8369,893.5284,1184.5581,898.1951,1187.7553,894.9979,1192.422,903.11,1186.8369" style="stroke:#181818;stroke-width:1.0;"/><text fill="#000000" font-family="sans-serif" font-size="13" lengthAdjust="spacing" textLength="61" x="788.5" y="1201.3638">&#171;include&#187;</text></g><!--link sch_analysis to collect_cripto_current_price--><g id="link_sch_analysis_collect_cripto_current_price"><path d="M538.77,1406.7069 C609.34,1415.9169 714.39,1417.0169 779.5,1359.2969 C791.44,1348.7069 779.43,1338.0669 787.5,1324.2969 C806.59,1291.7169 830.83,1299.5269 850.5,1267.2969 C857.69,1255.5169 848.53,1246.8369 858.5,1237.2969 C874.6,1221.8869 888.8192,1213.0318 909.9492,1205.3718 " fill="none" id="sch_analysis-to-collect_cripto_current_price-1" style="stroke:#181818;stroke-width:1.0;"/><polygon fill="#181818" points="915.59,1203.3269,905.7656,1202.6337,910.8893,1205.0309,908.4921,1210.1547,915.59,1203.3269" style="stroke:#181818;stroke-width:1.0;"/><text fill="#000000" font-family="sans-serif" font-size="13" lengthAdjust="spacing" textLength="61" x="788.5" y="1263.3638">&#171;include&#187;</text></g><!--link sch_analysis to collect_cripto_open_close--><g id="link_sch_analysis_collect_cripto_open_close"><path d="M533.01,1408.0469 C605.53,1420.3569 718.17,1425.7769 779.5,1359.2969 C792.12,1345.6169 779.66,1041.1869 787.5,1024.2969 C810.97,973.7169 857.1186,947.5374 910.5586,932.3474 " fill="none" id="sch_analysis-to-collect_cripto_open_close" style="stroke:#181818;stroke-width:1.0;"/><polygon fill="#181818" points="916.33,930.7069,906.5793,929.32,911.5205,932.0739,908.7666,937.0152,916.33,930.7069" style="stroke:#181818;stroke-width:1.0;"/><text fill="#000000" font-family="sans-serif" font-size="13" lengthAdjust="spacing" textLength="61" x="788.5" y="957.3638">&#171;include&#187;</text></g><!--link sch_analysis to collect_ema8_relations--><g id="link_sch_analysis_collect_ema8_relations"><path d="M533.24,1408.0069 C605.68,1420.1969 718,1425.4369 779.5,1359.2969 C798.5,1338.8669 775.55,1133.5169 787.5,1108.2969 C813.7,1052.9969 868.6007,1027.6222 927.7007,1015.0822 " fill="none" id="sch_analysis-to-collect_ema8_relations" style="stroke:#181818;stroke-width:1.0;"/><polygon fill="#181818" points="933.57,1013.8369,923.9358,1011.792,928.6789,1014.8747,925.5963,1019.6178,933.57,1013.8369" style="stroke:#181818;stroke-width:1.0;"/><text fill="#000000" font-family="sans-serif" font-size="13" lengthAdjust="spacing" textLength="61" x="788.5" y="1042.3638">&#171;include&#187;</text></g><!--link sch_analysis to collect_volume_relations--><g id="link_sch_analysis_collect_volume_relations"><path d="M533.73,1407.9569 C606.04,1419.9369 717.74,1424.8169 779.5,1359.2969 C792.93,1345.0469 777.42,1200.0769 787.5,1183.2969 C813.25,1140.4369 854.0365,1118.6312 902.4065,1106.2812 " fill="none" id="sch_analysis-to-collect_volume_relations" style="stroke:#181818;stroke-width:1.0;"/><polygon fill="#181818" points="908.22,1104.7969,898.5102,1103.1477,903.3754,1106.0338,900.4893,1110.899,908.22,1104.7969" style="stroke:#181818;stroke-width:1.0;"/><text fill="#000000" font-family="sans-serif" font-size="13" lengthAdjust="spacing" textLength="61" x="788.5" y="1126.3638">&#171;include&#187;</text></g><!--link sch_analysis to collect_expressive_volume_date--><g id="link_sch_analysis_collect_expressive_volume_date"><path d="M557.93,1385.4269 C620.74,1380.0769 705.42,1371.4969 779.5,1359.2969 C832.18,1350.6269 883.6763,1339.7275 933.7963,1328.0575 " fill="none" id="sch_analysis-to-collect_expressive_volume_date" style="stroke:#181818;stroke-width:1.0;"/><polygon fill="#181818" points="939.64,1326.6969,929.9674,1324.8421,934.7703,1327.8308,931.7816,1332.6336,939.64,1326.6969" style="stroke:#181818;stroke-width:1.0;"/><text fill="#000000" font-family="sans-serif" font-size="13" lengthAdjust="spacing" textLength="61" x="788.5" y="1342.3638">&#171;include&#187;</text></g><!--link sch_analysis to collect_market_cap--><g id="link_sch_analysis_collect_market_cap"><path d="M557.12,1399.5169 C619.96,1404.9669 704.97,1413.3769 779.5,1424.2969 C839.24,1433.0469 899.3581,1444.2625 953.9381,1455.2525 " fill="none" id="sch_analysis-to-collect_market_cap" style="stroke:#181818;stroke-width:1.0;"/><polygon fill="#181818" points="959.82,1456.4369,951.7867,1450.739,954.9184,1455.4499,950.2075,1458.5816,959.82,1456.4369" style="stroke:#181818;stroke-width:1.0;"/><text fill="#000000" font-family="sans-serif" font-size="13" lengthAdjust="spacing" textLength="61" x="788.5" y="1421.3638">&#171;include&#187;</text></g><!--link sch_analysis to collect_emas_aligned--><g id="link_sch_analysis_collect_emas_aligned"><path d="M532.82,1408.1169 C605.43,1420.5669 718.43,1426.2069 779.5,1359.2969 C790.68,1347.0469 781.74,777.8469 787.5,762.2969 C804.59,716.1369 816.43,702.8469 858.5,677.2969 C879.2,664.7269 897.0248,657.0889 920.8548,650.2189 " fill="none" id="sch_analysis-to-collect_emas_aligned" style="stroke:#181818;stroke-width:1.0;"/><polygon fill="#181818" points="926.62,648.5569,916.8642,647.2065,921.8157,649.9419,919.0802,654.8934,926.62,648.5569" style="stroke:#181818;stroke-width:1.0;"/><text fill="#000000" font-family="sans-serif" font-size="13" lengthAdjust="spacing" textLength="61" x="788.5" y="679.3638">&#171;include&#187;</text></g><!--link sch_analysis to collect_cripto_price_variations--><g id="link_sch_analysis_collect_cripto_price_variations"><path d="M532.79,1408.0869 C605.38,1420.5269 718.36,1426.1369 779.5,1359.2969 C798.66,1338.3469 775.24,873.9069 787.5,848.2969 C808.78,803.8569 845.9708,778.5363 892.2808,761.7063 " fill="none" id="sch_analysis-to-collect_cripto_price_variations" style="stroke:#181818;stroke-width:1.0;"/><polygon fill="#181818" points="897.92,759.6569,888.095,758.9715,893.2207,761.3647,890.8275,766.4904,897.92,759.6569" style="stroke:#181818;stroke-width:1.0;"/><text fill="#000000" font-family="sans-serif" font-size="13" lengthAdjust="spacing" textLength="61" x="788.5" y="780.3638">&#171;include&#187;</text></g><!--link sch_analysis to collect_rankings--><g id="link_sch_analysis_collect_rankings"><path d="M562.57,1392.1369 C658.33,1391.9769 799.98,1391.7465 912.5,1391.5665 " fill="none" id="sch_analysis-to-collect_rankings" style="stroke:#181818;stroke-width:1.0;"/><polygon fill="#181818" points="918.5,1391.5569,909.4936,1387.5713,913.5,1391.5649,909.5064,1395.5713,918.5,1391.5569" style="stroke:#181818;stroke-width:1.0;"/><text fill="#000000" font-family="sans-serif" font-size="13" lengthAdjust="spacing" textLength="61" x="788.5" y="1387.3638">&#171;include&#187;</text></g><!--SRC=[jLZDRXit4BxhAGZtu8iDIxRI_20mu1XeOI05WhXDq9D0xuubmbnoGNBb94KUfkWXwBde4_Z5EkGk9PBBbTUn6o0oH0vdlfdv-96KOOO3EPTCQBe4SaWkQyM48VF9XCEr8KOInPOhGqgce31CYWajZ5HaxqAiGHjMIhL7g2RCVPNAJ_yALIqL-qAzWIvMK3OSlC4R9gWeW9ozkt3pL-rtFsqX_KBL3PXpMc-CYggOJ2mGAfQ8U-yjB46KTE-F2S5_-eQ9cYfQaOg9Sqwr_iXAioApQJ8jP0aQQZ9BnXKLD-sucmW2TMMPxP4VtjfwlE4D3DWSUvkV5O0OC3hnHkTIKJvWDFT6lmFdyjPPxMViddcxTqpSJBv65VAjxPN8r-1uEkaSNtOTqgJHG0ggGVkPkgqKZjjX3DoP8dCu6Ah8XRYMgg9tt-x-nVKbjggIW7zywnU5OhMH2uPsQGdxNYy4AnXwFHDtVtAcOUE52ie_QwPJ5nRYIUpi_K_JOyld5Eab8BzW2mpjSK27xI17w6yb6rwIAo2wQokvQWnMpH1a79Ha_yZNxSo1WlkhXf1c2CaZMLF5RCN-aaH3PLDhEIuvHqo-OhS0DrYs0Z6ZZqpUnzcyS-bwpt7AMve6FcRpm4UjuEwRnBO2eLUWJACe0N8DnOfM88pCmPOrY4N1vGPpFiop8_nuRcDHNZGSWodW6ne1mRgyYDpRWOMriLgqCuNfI-jxQZzcmm7MaZSLH27QeHr1ycmxYLhBKSJGVGMgG0d4F53W-Cf6ZM9LJk8M1MhSTn0mWN0SiajsRSCLk1TTdt1V4XfkgQHdHQCKsYqmNW5FW2VjG8UCDYqQ-5HRKhEr76Z4nW1yJqfgdW9OopWFXpFH4RaLhhk_I-R-_hC6fbFswGKkM0hqcmfu6E1bH0OM4AxhYXNXLsJs-O3yM1sG4_m_gt1JFIzpZN4DMJYz21dPXkue-Hxml3NtYz07zgN13BuWC2wNs0MiL0MfPAyPt8xIx4xJ0gy8ey1YufbJkRxcLIuCy9qIzu5f7pDKEUTvXCGbx0oy3Ig4S_q8UGXYtAiGBjRJoqC0OOn2X6twd-KXGEOL0ilILZlGYYsilZmu3b7z91AnEPa6YR4vcreqkOFfKGZcSV2kMJiFuR1TlHFuqOePTcY4QFgoZ5VCQ7yyM3J3vCSevaUA8ciyYArWpdiRP-hk3vYdKGYja5MDnKTORR10DXKicJQWEXZzwtj8_nS71FC-SPzpzvdKeEPKe2HGyebhRiDYgKjx3zjkKbVy7WnN2RSeytx891ZTNUmZY8cbphls9zF6Aeg0Ru_yEyA__iZXONIHxqq4PqvlhXFrQ3p5Om7WQ_4oY9qs1LVvnsRwCjazPL-VEs_dmVATLwjXks3JPemIZSbOz0wdd9VyjIfZ6Hm_IVhHjXvEfxSDamBxOpfef6zo-bX906pubmaUphbV3FR9HVVpH40B_uk5jGhl3Fs9a9D3an4H1gqY6WnQRKdGDuafq9zF2P3nC7Xizcst1CWYsL1WC9MK07r3ArFHQB9T9xPzl_ckaMrYqUy1XuUdkn_Ev1Lv_Hg_yQQ4qzDx5yVxzO6BWqqyTcMoiySkwsttqV7o6Z1oTQ0BZodh-DfijUPXyNhwCtBvHa5Y-_y0]--></g></svg>
