<svg xmlns="http://www.w3.org/2000/svg" xmlns:xlink="http://www.w3.org/1999/xlink" contentStyleType="text/css" height="2187px" preserveAspectRatio="none" style="width:1504px;height:2187px;background:#FFFFFF;" version="1.1" viewBox="0 0 1504 2187" width="1504px" zoomAndPan="magnify"><defs/><g><text fill="#000000" font-family="sans-serif" font-size="14" font-weight="bold" lengthAdjust="spacing" textLength="151" x="669.675" y="22.9951">Coinsage - Sprint 5</text><!--cluster Legenda--><g id="cluster_Legenda"><rect fill="none" height="199" rx="2.5" ry="2.5" style="stroke:#181818;stroke-width:1.0;" width="524.54" x="7" y="1982.2969"/><text fill="#000000" font-family="sans-serif" font-size="14" font-weight="bold" lengthAdjust="spacing" textLength="68" x="235.27" y="1997.292">Legenda</text></g><!--cluster Coinsage--><g id="cluster_Coinsage"><rect fill="none" height="1896" rx="2.5" ry="2.5" style="stroke:#181818;stroke-width:1.0;" width="1209.85" x="132.5" y="44.2969"/><text fill="#000000" font-family="sans-serif" font-size="14" font-weight="bold" lengthAdjust="spacing" textLength="73" x="700.925" y="59.292">Coinsage</text></g><!--entity Sprint 1--><g id="elem_Sprint 1"><rect fill="#ADD8E6" height="36.2969" rx="2.5" ry="2.5" style="stroke:#181818;stroke-width:0.5;" width="73" x="23" y="2129.1469"/><text fill="#000000" font-family="sans-serif" font-size="14" lengthAdjust="spacing" textLength="53" x="33" y="2152.142">Sprint 1</text></g><!--entity Sprint 2--><g id="elem_Sprint 2"><rect fill="#90EE90" height="36.2969" rx="2.5" ry="2.5" style="stroke:#181818;stroke-width:0.5;" width="73" x="23" y="2073.1469"/><text fill="#000000" font-family="sans-serif" font-size="14" lengthAdjust="spacing" textLength="53" x="33" y="2096.142">Sprint 2</text></g><!--entity Sprint 3--><g id="elem_Sprint 3"><rect fill="#F08080" height="36.2969" rx="2.5" ry="2.5" style="stroke:#181818;stroke-width:0.5;" width="73" x="23" y="2017.1469"/><text fill="#000000" font-family="sans-serif" font-size="14" lengthAdjust="spacing" textLength="53" x="33" y="2040.142">Sprint 3</text></g><!--entity Sprint 4--><g id="elem_Sprint 4"><rect fill="#FFFFE0" height="36.2969" rx="2.5" ry="2.5" style="stroke:#181818;stroke-width:0.5;" width="73" x="442.54" y="2129.1469"/><text fill="#000000" font-family="sans-serif" font-size="14" lengthAdjust="spacing" textLength="53" x="452.54" y="2152.142">Sprint 4</text></g><!--entity Sprint 5--><g id="elem_Sprint 5"><rect fill="#FFA07A" height="36.2969" rx="2.5" ry="2.5" style="stroke:#181818;stroke-width:0.5;" width="73" x="442.54" y="2073.1469"/><text fill="#000000" font-family="sans-serif" font-size="14" lengthAdjust="spacing" textLength="53" x="452.54" y="2096.142">Sprint 5</text></g><g id="elem_sch_cripto_info"><ellipse cx="479.0382" cy="1813.2965" fill="#ADD8E6" rx="162.2982" ry="34.8596" style="stroke:#181818;stroke-width:0.5;"/><text fill="#000000" font-family="sans-serif" font-size="14" lengthAdjust="spacing" textLength="296" x="331.0382" y="1816.1432">Schedule Coletar Informa&#231;&#245;es das moedas</text></g><g id="elem_sch_analysis"><ellipse cx="479.0447" cy="1736.2998" fill="#ADD8E6" rx="98.6147" ry="22.1229" style="stroke:#181818;stroke-width:0.5;"/><text fill="#000000" font-family="sans-serif" font-size="14" lengthAdjust="spacing" textLength="161" x="398.5447" y="1739.1465">Schedule Iniciar An&#225;lise</text></g><g id="elem_sch_sectors"><ellipse cx="479.0383" cy="1896.2985" fill="#F08080" rx="128.3083" ry="28.0617" style="stroke:#181818;stroke-width:0.5;"/><text fill="#000000" font-family="sans-serif" font-size="14" lengthAdjust="spacing" textLength="225" x="366.5383" y="1899.1452">RF02 - Schedule Coletar Setores</text></g><g id="elem_collect_cripto_week_incresse"><ellipse cx="1107.4668" cy="1471.2962" fill="#ADD8E6" rx="125.9468" ry="27.5894" style="stroke:#181818;stroke-width:0.5;"/><text fill="#000000" font-family="sans-serif" font-size="14" lengthAdjust="spacing" textLength="220" x="997.4668" y="1474.1429">RF01 - Coletar varia&#231;&#227;o semanal</text></g><g id="elem_collect_sectors"><ellipse cx="1107.4691" cy="1902.2987" fill="#90EE90" rx="96.3591" ry="21.6718" style="stroke:#181818;stroke-width:0.5;"/><text fill="#000000" font-family="sans-serif" font-size="14" lengthAdjust="spacing" textLength="156" x="1029.4691" y="1905.1454">RF02 - Coletar Setores</text></g><g id="elem_collect_cripto_open_close"><ellipse cx="1107.4727" cy="1557.2934" fill="#90EE90" rx="180.7327" ry="38.5465" style="stroke:#181818;stroke-width:0.5;"/><text fill="#000000" font-family="sans-serif" font-size="14" lengthAdjust="spacing" textLength="334" x="940.4727" y="1560.1401">RF14 - Coletar pre&#231;os de abertura e fechamento</text></g><g id="elem_collect_ema8_relations"><ellipse cx="1107.4692" cy="1648.2927" fill="#90EE90" rx="150.7292" ry="32.5458" style="stroke:#181818;stroke-width:0.5;"/><text fill="#000000" font-family="sans-serif" font-size="14" lengthAdjust="spacing" textLength="272" x="971.4692" y="1651.1394">RF15/RF17 - Calcular rela&#231;&#245;es de ema8</text></g><g id="elem_collect_volume_relations"><ellipse cx="1107.4697" cy="974.3008" fill="#90EE90" rx="175.8697" ry="37.5739" style="stroke:#181818;stroke-width:0.5;"/><text fill="#000000" font-family="sans-serif" font-size="14" lengthAdjust="spacing" textLength="324" x="945.4697" y="977.1475">RF09/RF10/RF11 - Calcular rela&#231;&#245;es de volume</text></g><g id="elem_collect_market_cap"><ellipse cx="1107.4663" cy="1825.3001" fill="#F08080" rx="164.7163" ry="35.3433" style="stroke:#181818;stroke-width:0.5;"/><text fill="#000000" font-family="sans-serif" font-size="14" lengthAdjust="spacing" textLength="301" x="956.9663" y="1828.1468">RF03 - Coletar valor de mercado em bilh&#245;es</text></g><g id="elem_collect_cripto_current_price"><ellipse cx="1107.4723" cy="1069.2993" fill="#F08080" rx="174.4123" ry="37.2825" style="stroke:#181818;stroke-width:0.5;"/><text fill="#000000" font-family="sans-serif" font-size="14" lengthAdjust="spacing" textLength="321" x="946.9723" y="1072.146">RF21 - Coletar o pre&#231;o no momento da an&#225;lise</text></g><g id="elem_collect_expressive_volume_date"><ellipse cx="1107.4703" cy="1171.2949" fill="#F08080" rx="212.9903" ry="44.9981" style="stroke:#181818;stroke-width:0.5;"/><text fill="#000000" font-family="sans-serif" font-size="14" lengthAdjust="spacing" textLength="400" x="907.4703" y="1174.1416">RF09/RF10/RF11 - Coletar aumento expressivo de volume</text></g><g id="elem_collect_emas_aligned"><ellipse cx="1107.4738" cy="1273.2936" fill="#F08080" rx="175.3838" ry="37.4768" style="stroke:#181818;stroke-width:0.5;"/><text fill="#000000" font-family="sans-serif" font-size="14" lengthAdjust="spacing" textLength="323" x="945.9738" y="1276.1403">RF17 - Coletar alinhamento das m&#233;dias m&#243;veis</text></g><g id="elem_collect_cripto_price_variations"><ellipse cx="1107.4694" cy="1377.2928" fill="#F08080" rx="218.8794" ry="46.1759" style="stroke:#181818;stroke-width:0.5;"/><text fill="#000000" font-family="sans-serif" font-size="14" lengthAdjust="spacing" textLength="412" x="901.4694" y="1380.1394">RF19 - Coletar vaia&#231;&#245;es de pre&#231;o para: 1y, 6m, 3m, 1m e 7d</text></g><g id="elem_view_cripto_info"><ellipse cx="479.0377" cy="456.2924" fill="#ADD8E6" rx="137.3277" ry="29.8655" style="stroke:#181818;stroke-width:0.5;"/><text fill="#000000" font-family="sans-serif" font-size="14" lengthAdjust="spacing" textLength="244" x="357.0377" y="459.1391">Vizualizar logo e nome das moedas</text></g><g id="elem_view_cripto_week_incresse"><ellipse cx="479.0405" cy="546.293" fill="#ADD8E6" rx="190.4805" ry="40.4961" style="stroke:#181818;stroke-width:0.5;"/><text fill="#000000" font-family="sans-serif" font-size="14" lengthAdjust="spacing" textLength="354" x="302.0405" y="549.1396">RF01 - Vizualizar porcentagem de varia&#231;&#227;o semanal</text></g><g id="elem_view_sectors"><ellipse cx="479.0408" cy="630.299" fill="#90EE90" rx="103.1608" ry="23.0322" style="stroke:#181818;stroke-width:0.5;"/><text fill="#000000" font-family="sans-serif" font-size="14" lengthAdjust="spacing" textLength="171" x="393.5408" y="633.1457">RF02 - Visualizar Setores</text></g><g id="elem_view_volume_relations"><ellipse cx="479.0427" cy="712.2934" fill="#90EE90" rx="180.7327" ry="38.5465" style="stroke:#181818;stroke-width:0.5;"/><text fill="#000000" font-family="sans-serif" font-size="14" lengthAdjust="spacing" textLength="334" x="312.0427" y="715.1401">RF09/RF10/RF11 - Visualizar rela&#231;&#245;es de volume</text></g><g id="elem_view_market_cap"><ellipse cx="479.045" cy="807.2939" fill="#F08080" rx="171.985" ry="36.797" style="stroke:#181818;stroke-width:0.5;"/><text fill="#000000" font-family="sans-serif" font-size="14" lengthAdjust="spacing" textLength="316" x="321.045" y="810.1406">RF03 - Visualizar valor de mercado em bilh&#245;es</text></g><g id="elem_view_cripto_current_price"><ellipse cx="479.0363" cy="903.2981" fill="#F08080" rx="181.7063" ry="38.7413" style="stroke:#181818;stroke-width:0.5;"/><text fill="#000000" font-family="sans-serif" font-size="14" lengthAdjust="spacing" textLength="336" x="311.0363" y="906.1448">RF21 - Visualizar o pre&#231;o no momento da an&#225;lise</text></g><g id="elem_view_expressive_volume_increase"><ellipse cx="479.0427" cy="1008.2974" fill="#F08080" rx="220.3527" ry="46.4705" style="stroke:#181818;stroke-width:0.5;"/><text fill="#000000" font-family="sans-serif" font-size="14" lengthAdjust="spacing" textLength="415" x="271.5427" y="1011.1441">RF09/RF10/RF11 - Visualizar aumento do volume expressivo</text></g><g id="elem_view_ema8_relations"><ellipse cx="479.0416" cy="1108.2952" fill="#F08080" rx="155.5416" ry="33.5083" style="stroke:#181818;stroke-width:0.5;"/><text fill="#000000" font-family="sans-serif" font-size="14" lengthAdjust="spacing" textLength="282" x="338.0416" y="1111.1419">RF15/RF17 - Visualizar rela&#231;&#245;es de ema8</text></g><g id="elem_view_cripto_open_close"><ellipse cx="479.0413" cy="1201.2951" fill="#F08080" rx="184.1413" ry="39.2283" style="stroke:#181818;stroke-width:0.5;"/><text fill="#000000" font-family="sans-serif" font-size="14" lengthAdjust="spacing" textLength="341" x="308.5413" y="1204.1418">RF14 - Visualizar pre&#231;o de abertura e fechamento</text></g><g id="elem_view_emas_aligned"><ellipse cx="479.0401" cy="1299.2929" fill="#F08080" rx="182.6801" ry="38.936" style="stroke:#181818;stroke-width:0.5;"/><text fill="#000000" font-family="sans-serif" font-size="14" lengthAdjust="spacing" textLength="338" x="310.0401" y="1302.1396">RF17 - Visualizar alinhamento das m&#233;dias m&#243;veis</text></g><g id="elem_view_cripto_price_variations"><ellipse cx="479.0391" cy="1406.2967" fill="#F08080" rx="226.2491" ry="47.6498" style="stroke:#181818;stroke-width:0.5;"/><text fill="#000000" font-family="sans-serif" font-size="14" lengthAdjust="spacing" textLength="427" x="265.5391" y="1409.1434">RF19 - Visualizar vaia&#231;&#245;es de pre&#231;o para: 1y, 6m, 3m, 1m e 7d</text></g><g id="elem_register_cripto"><ellipse cx="479.0356" cy="1508.3" fill="#FFFFE0" rx="160.3656" ry="34.4731" style="stroke:#181818;stroke-width:0.5;"/><text fill="#000000" font-family="sans-serif" font-size="14" lengthAdjust="spacing" textLength="292" x="333.0356" y="1511.1467">RF20 - Cadastrar compra de criptomoedas</text></g><g id="elem_view_xlsl"><ellipse cx="479.0358" cy="1628.3" fill="#FFFFE0" rx="315.6658" ry="65.5332" style="stroke:#181818;stroke-width:0.5;"/><text fill="#000000" font-family="sans-serif" font-size="14" lengthAdjust="spacing" textLength="608" x="175.0358" y="1631.1467">RF08, RF13, RF14, RF19 - Visualizar planilha xlsl com dados da an&#225;lise das criptomoedas</text></g><g id="elem_collect_rankings"><ellipse cx="1107.4672" cy="1735.3003" fill="#FFFFE0" rx="158.9172" ry="34.1834" style="stroke:#181818;stroke-width:0.5;"/><text fill="#000000" font-family="sans-serif" font-size="14" lengthAdjust="spacing" textLength="289" x="962.9672" y="1738.147">RF03 - Coletar rankings das criptomoedas</text></g><g id="elem_delete_cripto"><ellipse cx="479.0387" cy="107.3006" fill="#FFA07A" rx="126.4187" ry="27.6837" style="stroke:#181818;stroke-width:0.5;"/><text fill="#000000" font-family="sans-serif" font-size="14" lengthAdjust="spacing" textLength="221" x="368.5387" y="110.1473">RF23 - Excluir moeda da carteira</text></g><g id="elem_view_active_coins"><ellipse cx="479.0438" cy="223.2956" fill="#FFA07A" rx="330.5438" ry="68.5088" style="stroke:#181818;stroke-width:0.5;"/><text fill="#000000" font-family="sans-serif" font-size="14" lengthAdjust="spacing" textLength="638" x="160.0438" y="226.1423">RF24 - Visualizar hist&#243;rico de moedas ativas em sua carteira e os detalhes da aquisi&#231;&#227;o (xlsx)</text></g><g id="elem_view_monthly_profits"><ellipse cx="479.036" cy="359.3001" fill="#FFA07A" rx="225.266" ry="47.4532" style="stroke:#181818;stroke-width:0.5;"/><text fill="#000000" font-family="sans-serif" font-size="14" lengthAdjust="spacing" textLength="425" x="266.536" y="362.1468">RF25 - Visualizar lucros mensais das moedas da carteira (xlsx)</text></g><!--entity investor--><g id="elem_investor"><ellipse cx="59.5" cy="826.6469" fill="#F1F1F1" rx="8" ry="8" style="stroke:#181818;stroke-width:0.5;"/><path d="M59.5,834.6469 L59.5,861.6469 M46.5,842.6469 L72.5,842.6469 M59.5,861.6469 L46.5,876.6469 M59.5,861.6469 L72.5,876.6469 " fill="none" style="stroke:#181818;stroke-width:0.5;"/><text fill="#000000" font-family="sans-serif" font-size="14" lengthAdjust="spacing" textLength="67" x="26" y="891.142">Investidor</text></g><!--entity schedule--><g id="elem_schedule"><ellipse cx="59.5" cy="1825.6469" fill="#F1F1F1" rx="8" ry="8" style="stroke:#181818;stroke-width:0.5;"/><path d="M59.5,1833.6469 L59.5,1860.6469 M46.5,1841.6469 L72.5,1841.6469 M59.5,1860.6469 L46.5,1875.6469 M59.5,1860.6469 L72.5,1875.6469 " fill="none" style="stroke:#181818;stroke-width:0.5;"/><text fill="#000000" font-family="sans-serif" font-size="14" lengthAdjust="spacing" textLength="96" x="11.5" y="1890.142">Temporizador</text></g><!--entity binance--><g id="elem_binance"><ellipse cx="1432.35" cy="1201.6469" fill="#F1F1F1" rx="8" ry="8" style="stroke:#181818;stroke-width:0.5;"/><path d="M1432.35,1209.6469 L1432.35,1236.6469 M1419.35,1217.6469 L1445.35,1217.6469 M1432.35,1236.6469 L1419.35,1251.6469 M1432.35,1236.6469 L1445.35,1251.6469 " fill="none" style="stroke:#181818;stroke-width:0.5;"/><text fill="#000000" font-family="sans-serif" font-size="14" lengthAdjust="spacing" textLength="81" x="1391.85" y="1266.142">Binance API</text></g><!--entity cmc--><g id="elem_cmc"><ellipse cx="1432.35" cy="1833.6469" fill="#F1F1F1" rx="8" ry="8" style="stroke:#181818;stroke-width:0.5;"/><path d="M1432.35,1841.6469 L1432.35,1868.6469 M1419.35,1849.6469 L1445.35,1849.6469 M1432.35,1868.6469 L1419.35,1883.6469 M1432.35,1868.6469 L1445.35,1883.6469 " fill="none" style="stroke:#181818;stroke-width:0.5;"/><text fill="#000000" font-family="sans-serif" font-size="14" lengthAdjust="spacing" textLength="130" x="1367.35" y="1898.142">CoinMarketCap API</text></g><!--link schedule to sch_analysis--><g id="link_schedule_sch_analysis"><path d="M78.9,1817.0769 C89.61,1799.1569 104.9,1779.3469 124.5,1768.2969 C206.77,1721.9069 317.24,1719.5969 392.66,1725.2069 " fill="none" id="schedule-sch_analysis" style="stroke:#181818;stroke-width:1.0;"/></g><!--link schedule to sch_cripto_info--><g id="link_schedule_sch_cripto_info"><path d="M107.84,1845.4769 C110.43,1845.0469 112.99,1844.6569 115.5,1844.2969 C183.04,1834.6869 258.12,1827.6669 322.36,1822.7669 " fill="none" id="schedule-sch_cripto_info" style="stroke:#181818;stroke-width:1.0;"/></g><!--link schedule to sch_sectors--><g id="link_schedule_sch_sectors"><path d="M107.99,1859.9569 C169.12,1865.9669 277.42,1876.5969 361.13,1884.8169 " fill="none" id="schedule-sch_sectors" style="stroke:#181818;stroke-width:1.0;"/></g><!--link schedule to collect_rankings--><g id="link_schedule_collect_rankings"><path d="M81.25,1893.6769 C91.92,1909.3169 106.5,1925.7069 124.5,1934.2969 C261.92,1999.8269 679.67,2013.6669 809.59,1934.2969 C875.23,1894.1969 827.36,1826.8669 888.59,1780.2969 C908.88,1764.8669 933.19,1754.3969 958.1,1747.3669 " fill="none" id="schedule-collect_rankings" style="stroke:#181818;stroke-width:1.0;"/></g><!--link register_cripto to binance--><g id="link_register_cripto_binance"><path d="M612.15,1527.8869 C681.36,1530.1069 761.5,1518.4669 809.59,1464.2969 C830.8,1440.4069 794.84,911.7269 817.59,889.2969 C989.03,720.2269 1172.37,737.5869 1359.35,889.2969 C1406.05,927.1969 1423.6,1111.4969 1429.14,1192.7269 " fill="none" id="register_cripto-binance" style="stroke:#181818;stroke-width:1.0;"/></g><!--link sch_cripto_info to binance--><g id="link_sch_cripto_info_binance"><path d="M615.18,1832.5869 C683.75,1834.1869 762.33,1821.8969 809.59,1768.2969 C823.86,1752.1069 808.79,1011.0069 817.59,991.2969 C835.03,952.2269 848.71,941.7969 888.59,926.2969 C984.23,889.1269 1269.01,863.7369 1350.35,926.2969 C1392.63,958.8169 1417.46,1118.3769 1426.92,1192.8569 " fill="none" id="sch_cripto_info-binance" style="stroke:#181818;stroke-width:1.0;"/></g><!--link sch_cripto_info to cmc--><g id="link_sch_cripto_info_cmc"><path d="M641.38,1815.1569 C696.89,1820.9469 758,1833.3269 809.59,1858.2969 C853.44,1879.5269 843.4,1916.0869 888.59,1934.2969 C1078.94,2010.9969 1158.27,2006.5669 1350.35,1934.2969 C1368.37,1927.5169 1385.01,1914.6969 1398.45,1901.7969 " fill="none" id="sch_cripto_info-cmc" style="stroke:#181818;stroke-width:1.0;"/></g><!--link collect_cripto_week_incresse to binance--><g id="link_collect_cripto_week_incresse_binance"><path d="M1227.37,1480.1669 C1271.43,1477.0369 1318.39,1465.0669 1350.35,1433.2969 C1366,1417.7369 1351.75,1405.3569 1358.35,1384.2969 C1371.1,1343.5769 1392.83,1299.8969 1409.27,1269.6769 " fill="none" id="collect_cripto_week_incresse-binance" style="stroke:#181818;stroke-width:1.0;"/></g><!--link collect_cripto_current_price to binance--><g id="link_collect_cripto_current_price_binance"><path d="M1270.29,1082.9369 C1298.46,1090.1569 1326.38,1100.7769 1350.35,1116.2969 C1378.84,1134.7469 1400.27,1167.0669 1413.91,1192.7469 " fill="none" id="collect_cripto_current_price-binance" style="stroke:#181818;stroke-width:1.0;"/></g><!--link collect_cripto_open_close to binance--><g id="link_collect_cripto_open_close_binance"><path d="M1281.86,1546.9769 C1307.08,1538.9969 1331.01,1527.0069 1350.35,1509.2969 C1352.61,1507.2169 1398.77,1345.7769 1420.38,1269.8969 " fill="none" id="collect_cripto_open_close-binance" style="stroke:#181818;stroke-width:1.0;"/></g><!--link collect_ema8_relations to binance--><g id="link_collect_ema8_relations_binance"><path d="M1258.43,1649.7069 C1292.29,1643.1069 1325.52,1630.1269 1350.35,1606.2969 C1398.57,1559.9969 1420.97,1355.7069 1428.4,1269.6869 " fill="none" id="collect_ema8_relations-binance" style="stroke:#181818;stroke-width:1.0;"/></g><!--link collect_volume_relations to binance--><g id="link_collect_volume_relations_binance"><path d="M1276.52,984.8869 C1303.35,992.6869 1329.2,1004.5369 1350.35,1022.2969 C1401.75,1065.4669 1420.66,1145.3469 1427.52,1192.8769 " fill="none" id="collect_volume_relations-binance" style="stroke:#181818;stroke-width:1.0;"/></g><!--link collect_expressive_volume_date to binance--><g id="link_collect_expressive_volume_date_binance"><path d="M1268.49,1201.0369 C1314.32,1209.5469 1360.3,1218.0969 1391.66,1223.9169 " fill="none" id="collect_expressive_volume_date-binance" style="stroke:#181818;stroke-width:1.0;"/></g><!--link collect_market_cap to cmc--><g id="link_collect_market_cap_cmc"><path d="M1252.91,1842.2969 C1292.87,1846.9969 1334.24,1851.8669 1367.07,1855.7269 " fill="none" id="collect_market_cap-cmc" style="stroke:#181818;stroke-width:1.0;"/></g><!--link collect_emas_aligned to binance--><g id="link_collect_emas_aligned_binance"><path d="M1258.09,1253.8369 C1307.25,1247.4369 1357.88,1240.8569 1391.61,1236.4669 " fill="none" id="collect_emas_aligned-binance" style="stroke:#181818;stroke-width:1.0;"/></g><!--link collect_cripto_price_variations to binance--><g id="link_collect_cripto_price_variations_binance"><path d="M1283.2,1349.5169 C1306.65,1341.9969 1329.71,1332.4369 1350.35,1320.2969 C1371.77,1307.6869 1390.78,1287.5669 1404.99,1269.6469 " fill="none" id="collect_cripto_price_variations-binance" style="stroke:#181818;stroke-width:1.0;"/></g><!--link sch_sectors to collect_sectors--><g id="link_sch_sectors_collect_sectors"><path d="M607.56,1897.5169 C727.05,1898.6669 902.95,1900.3469 1010.82,1901.3769 " fill="none" id="sch_sectors-collect_sectors" style="stroke:#181818;stroke-width:1.0;"/></g><!--link collect_sectors to cmc--><g id="link_collect_sectors_cmc"><path d="M1193.3,1892.0469 C1247.67,1885.4869 1317.13,1877.0969 1366.97,1871.0769 " fill="none" id="collect_sectors-cmc" style="stroke:#181818;stroke-width:1.0;"/></g><!--link collect_rankings to binance--><g id="link_collect_rankings_binance"><path d="M1266.69,1734.3869 C1297.87,1727.0869 1327.85,1713.9169 1350.35,1691.2969 C1409.31,1631.9969 1425.84,1369.6669 1430.04,1269.9469 " fill="none" id="collect_rankings-binance" style="stroke:#181818;stroke-width:1.0;"/></g><!--link collect_rankings to cmc--><g id="link_collect_rankings_cmc"><path d="M1255.63,1747.8669 C1288.12,1754.6169 1321.43,1764.8469 1350.35,1780.2969 C1370.59,1791.1169 1388.87,1808.7569 1402.91,1824.9969 " fill="none" id="collect_rankings-cmc" style="stroke:#181818;stroke-width:1.0;"/></g><!--link view_monthly_profits to binance--><g id="link_view_monthly_profits_binance"><path d="M683.31,379.5169 C726.06,387.8669 770.13,399.6469 809.59,416.2969 C1083.08,531.6869 1191.07,557.8069 1350.35,808.2969 C1391.12,872.4169 1418.21,1101.3569 1427.64,1192.9869 " fill="none" id="view_monthly_profits-binance" style="stroke:#181818;stroke-width:1.0;"/></g><!--link investor to view_sectors--><g id="link_investor_view_sectors"><path d="M61.44,817.8369 C64.79,773.0769 77.67,700.5369 124.5,663.2969 C202.18,601.5169 321.99,604.3969 400.21,615.0369 " fill="none" id="investor-view_sectors" style="stroke:#181818;stroke-width:1.0;"/></g><!--link investor to view_cripto_info--><g id="link_investor_view_cripto_info"><path d="M61.73,817.7669 C65.25,734.0569 78.33,539.6369 124.5,496.2969 C189.24,435.5269 292.75,430.3969 371.08,437.5769 " fill="none" id="investor-view_cripto_info" style="stroke:#181818;stroke-width:1.0;"/></g><!--link investor to view_cripto_week_incresse--><g id="link_investor_view_cripto_week_incresse"><path d="M64.75,817.8869 C72.74,753.1769 92.14,626.5969 124.5,597.2969 C171.04,555.1469 236.07,538.3669 297.68,533.4669 " fill="none" id="investor-view_cripto_week_incresse" style="stroke:#181818;stroke-width:1.0;"/></g><!--link investor to view_cripto_current_price--><g id="link_investor_view_cripto_current_price"><path d="M93.26,859.9869 C141.52,865.4169 234.94,875.9269 317.64,885.2369 " fill="none" id="investor-view_cripto_current_price" style="stroke:#181818;stroke-width:1.0;"/></g><!--link investor to view_cripto_open_close--><g id="link_investor_view_cripto_open_close"><path d="M63.44,894.7069 C69.77,966.6869 87.25,1117.7469 124.5,1152.2969 C173.45,1197.6969 243.83,1213.5669 308.92,1216.7069 " fill="none" id="investor-view_cripto_open_close" style="stroke:#181818;stroke-width:1.0;"/></g><!--link investor to view_ema8_relations--><g id="link_investor_view_ema8_relations"><path d="M60.55,894.8769 C62.87,942.5269 74.57,1022.4069 124.5,1064.2969 C183.85,1114.0869 269.75,1125.6869 342.02,1124.5569 " fill="none" id="investor-view_ema8_relations" style="stroke:#181818;stroke-width:1.0;"/></g><!--link investor to view_volume_relations--><g id="link_investor_view_volume_relations"><path d="M76.44,818.0069 C87.01,797.5169 102.93,773.7869 124.5,760.2969 C175.97,728.1069 239.84,713.5369 299.08,707.7969 " fill="none" id="investor-view_volume_relations" style="stroke:#181818;stroke-width:1.0;"/></g><!--link investor to view_expressive_volume_increase--><g id="link_investor_view_expressive_volume_increase"><path d="M76.81,894.8869 C87.41,915.2069 103.25,938.6769 124.5,952.2969 C164.79,978.1169 212.82,993.4669 260.3,1002.3169 " fill="none" id="investor-view_expressive_volume_increase" style="stroke:#181818;stroke-width:1.0;"/></g><!--link investor to view_market_cap--><g id="link_investor_view_market_cap"><path d="M93.32,850.6369 C100.61,849.4569 108.31,848.2769 115.5,847.2969 C183.1,838.0469 258.02,829.4969 322.13,822.6969 " fill="none" id="investor-view_market_cap" style="stroke:#181818;stroke-width:1.0;"/></g><!--link investor to view_emas_aligned--><g id="link_investor_view_emas_aligned"><path d="M61.15,894.6369 C63.5,983.8169 74.37,1201.3269 124.5,1250.2969 C173.7,1298.3669 246.7,1313.9569 313.61,1316.2069 " fill="none" id="investor-view_emas_aligned" style="stroke:#181818;stroke-width:1.0;"/></g><!--link investor to view_cripto_price_variations--><g id="link_investor_view_cripto_price_variations"><path d="M59.84,894.9069 C58.89,999.3569 62.22,1283.9069 124.5,1348.2969 C158.77,1383.7269 205.71,1402.7769 254.18,1412.1969 " fill="none" id="investor-view_cripto_price_variations" style="stroke:#181818;stroke-width:1.0;"/></g><!--link investor to view_xlsl--><g id="link_investor_view_xlsl"><path d="M61.41,894.4769 C65.06,1032.8969 80.61,1502.8269 124.5,1552.2969 C143.04,1573.1969 165.82,1589.1269 190.8,1601.1769 " fill="none" id="investor-view_xlsl" style="stroke:#181818;stroke-width:1.0;"/></g><!--link investor to register_cripto--><g id="link_investor_register_cripto"><path d="M61.81,894.5069 C66.52,1021.4769 84.5,1423.5269 124.5,1464.2969 C181.14,1522.0169 272.15,1532.2569 347.64,1528.4569 " fill="none" id="investor-register_cripto" style="stroke:#181818;stroke-width:1.0;"/></g><!--link investor to view_monthly_profits--><g id="link_investor_view_monthly_profits"><path d="M60.5,817.9369 C61.32,721.5169 68.92,472.7469 124.5,416.2969 C159.29,380.9669 206.71,362.1169 255.52,352.9069 " fill="none" id="investor-view_monthly_profits" style="stroke:#181818;stroke-width:1.0;"/></g><!--link investor to view_active_coins--><g id="link_investor_view_active_coins"><path d="M62.39,817.8969 C68.61,698.6869 90,340.6169 124.5,302.2969 C142.17,282.6669 163.56,267.3469 186.98,255.4569 " fill="none" id="investor-view_active_coins" style="stroke:#181818;stroke-width:1.0;"/></g><!--link investor to delete_cripto--><g id="link_investor_delete_cripto"><path d="M61.15,818.0469 C63.94,677.1269 76.91,192.5869 124.5,144.2969 C191.32,76.4969 305.97,76.9669 386.55,88.0569 " fill="none" id="investor-delete_cripto" style="stroke:#181818;stroke-width:1.0;"/></g><!--link sch_analysis to collect_cripto_week_incresse--><g id="link_sch_analysis_collect_cripto_week_incresse"><path d="M548.26,1752.4669 C623.55,1765.8269 742.88,1772.9269 809.59,1704.2969 C827.75,1685.6069 807.43,1611.2969 817.59,1587.2969 C835.98,1543.8169 847.24,1531.0769 888.59,1508.2969 C917.57,1492.3269 945.8425,1483.9183 978.4325,1478.4583 " fill="none" id="sch_analysis-to-collect_cripto_week_incresse" style="stroke:#181818;stroke-width:1.0;"/><polygon fill="#181818" points="984.35,1477.4669,974.8128,1475.009,979.4187,1478.293,976.1346,1482.899,984.35,1477.4669" style="stroke:#181818;stroke-width:1.0;"/><text fill="#000000" font-family="sans-serif" font-size="13" lengthAdjust="spacing" textLength="61" x="818.59" y="1509.3638">&#171;include&#187;</text></g><!--link sch_analysis to collect_cripto_current_price--><g id="link_sch_analysis_collect_cripto_current_price"><path d="M546.91,1752.7369 C622.69,1766.9169 744.18,1775.3369 809.59,1704.2969 C830.63,1681.4469 800.08,1170.9569 817.59,1145.2969 C844.26,1106.2069 882.7653,1086.6834 928.8253,1075.9934 " fill="none" id="sch_analysis-to-collect_cripto_current_price" style="stroke:#181818;stroke-width:1.0;"/><polygon fill="#181818" points="934.67,1074.6369,924.9987,1072.7752,929.7995,1075.7673,926.8073,1080.568,934.67,1074.6369" style="stroke:#181818;stroke-width:1.0;"/><text fill="#000000" font-family="sans-serif" font-size="13" lengthAdjust="spacing" textLength="61" x="818.59" y="1091.3638">&#171;include&#187;</text></g><!--link sch_analysis to collect_cripto_current_price--><g id="link_sch_analysis_collect_cripto_current_price"><path d="M546.88,1752.7169 C622.65,1766.8769 744.11,1775.2769 809.59,1704.2969 C828.2,1684.1269 804.57,1234.4669 817.59,1210.2969 C833.66,1180.4469 862.47,1195.9469 880.59,1167.2969 C892.85,1147.9069 872.83,1132.9769 888.59,1116.2969 C903.47,1100.5469 916.6653,1091.5787 936.9453,1083.8287 " fill="none" id="sch_analysis-to-collect_cripto_current_price-1" style="stroke:#181818;stroke-width:1.0;"/><polygon fill="#181818" points="942.55,1081.6869,932.7151,1081.1632,937.8794,1083.4717,935.5709,1088.6361,942.55,1081.6869" style="stroke:#181818;stroke-width:1.0;"/><text fill="#000000" font-family="sans-serif" font-size="13" lengthAdjust="spacing" textLength="61" x="818.59" y="1163.3638">&#171;include&#187;</text></g><!--link sch_analysis to collect_cripto_open_close--><g id="link_sch_analysis_collect_cripto_open_close"><path d="M552.43,1751.3969 C626.27,1762.2769 739.67,1765.7969 809.59,1704.2969 C821.57,1693.7569 809.51,1683.0569 817.59,1669.2969 C839.1,1632.6669 850.81,1624.7369 888.59,1605.2969 C910.03,1594.2669 928.1335,1587.3434 952.0235,1580.7934 " fill="none" id="sch_analysis-to-collect_cripto_open_close" style="stroke:#181818;stroke-width:1.0;"/><polygon fill="#181818" points="957.81,1579.2069,948.0727,1577.729,952.988,1580.529,950.188,1585.4442,957.81,1579.2069" style="stroke:#181818;stroke-width:1.0;"/><text fill="#000000" font-family="sans-serif" font-size="13" lengthAdjust="spacing" textLength="61" x="818.59" y="1605.3638">&#171;include&#187;</text></g><!--link sch_analysis to collect_ema8_relations--><g id="link_sch_analysis_collect_ema8_relations"><path d="M573.35,1729.4769 C639.48,1724.0969 730.2,1715.6169 809.59,1704.2969 C844.9,1699.2669 920.5912,1684.9269 989.3112,1671.5069 " fill="none" id="sch_analysis-to-collect_ema8_relations" style="stroke:#181818;stroke-width:1.0;"/><polygon fill="#181818" points="995.2,1670.3569,985.6002,1668.156,990.2927,1671.3152,987.1335,1676.0077,995.2,1670.3569" style="stroke:#181818;stroke-width:1.0;"/><text fill="#000000" font-family="sans-serif" font-size="13" lengthAdjust="spacing" textLength="61" x="818.59" y="1687.3638">&#171;include&#187;</text></g><!--link sch_analysis to collect_volume_relations--><g id="link_sch_analysis_collect_volume_relations"><path d="M546.93,1752.7569 C622.73,1766.9569 744.23,1775.3969 809.59,1704.2969 C821.45,1691.3869 809.49,1088.8469 817.59,1073.2969 C842.02,1026.3969 885.4699,1002.5527 936.4899,989.0427 " fill="none" id="sch_analysis-to-collect_volume_relations" style="stroke:#181818;stroke-width:1.0;"/><polygon fill="#181818" points="942.29,987.5069,932.5659,985.9439,937.4566,988.7868,934.6138,993.6774,942.29,987.5069" style="stroke:#181818;stroke-width:1.0;"/><text fill="#000000" font-family="sans-serif" font-size="13" lengthAdjust="spacing" textLength="61" x="818.59" y="1009.3638">&#171;include&#187;</text></g><!--link sch_analysis to collect_expressive_volume_date--><g id="link_sch_analysis_collect_expressive_volume_date"><path d="M546.83,1752.6669 C622.55,1766.7869 743.97,1775.1469 809.59,1704.2969 C824.65,1688.0269 809.44,1325.9169 817.59,1305.2969 C834.93,1261.3869 848.17,1250.6869 888.59,1226.2969 C905.79,1215.9169 919.2282,1209.4727 938.7582,1202.6227 " fill="none" id="sch_analysis-to-collect_expressive_volume_date" style="stroke:#181818;stroke-width:1.0;"/><polygon fill="#181818" points="944.42,1200.6369,934.6033,1199.8411,939.7018,1202.2917,937.2511,1207.3902,944.42,1200.6369" style="stroke:#181818;stroke-width:1.0;"/><text fill="#000000" font-family="sans-serif" font-size="13" lengthAdjust="spacing" textLength="61" x="818.59" y="1228.3638">&#171;include&#187;</text></g><!--link sch_analysis to collect_market_cap--><g id="link_sch_analysis_collect_market_cap"><path d="M573.36,1743.0369 C639.5,1748.3769 730.22,1756.8469 809.59,1768.2969 C869.19,1776.8969 929.1286,1788.0496 983.6186,1799.0496 " fill="none" id="sch_analysis-to-collect_market_cap" style="stroke:#181818;stroke-width:1.0;"/><polygon fill="#181818" points="989.5,1800.2369,981.4695,1794.535,984.5989,1799.2475,979.8864,1802.3769,989.5,1800.2369" style="stroke:#181818;stroke-width:1.0;"/><text fill="#000000" font-family="sans-serif" font-size="13" lengthAdjust="spacing" textLength="61" x="818.59" y="1765.3638">&#171;include&#187;</text></g><!--link sch_analysis to collect_emas_aligned--><g id="link_sch_analysis_collect_emas_aligned"><path d="M547.09,1752.6569 C622.75,1766.6569 743.83,1774.8269 809.59,1704.2969 C820.88,1692.1869 811.73,1421.7869 817.59,1406.2969 C834.99,1360.2569 846.52,1346.8469 888.59,1321.2969 C909.2,1308.7769 926.8956,1301.1716 950.6156,1294.3216 " fill="none" id="sch_analysis-to-collect_emas_aligned" style="stroke:#181818;stroke-width:1.0;"/><polygon fill="#181818" points="956.38,1292.6569,946.6235,1291.3109,951.5763,1294.0441,948.8431,1298.9969,956.38,1292.6569" style="stroke:#181818;stroke-width:1.0;"/><text fill="#000000" font-family="sans-serif" font-size="13" lengthAdjust="spacing" textLength="61" x="818.59" y="1323.3638">&#171;include&#187;</text></g><!--link sch_analysis to collect_cripto_price_variations--><g id="link_sch_analysis_collect_cripto_price_variations"><path d="M547.29,1752.5869 C622.85,1766.4469 743.55,1774.3669 809.59,1704.2969 C825.83,1687.0569 807.04,1512.4969 817.59,1491.2969 C839.32,1447.6069 876.153,1422.6222 921.983,1405.9122 " fill="none" id="sch_analysis-to-collect_cripto_price_variations" style="stroke:#181818;stroke-width:1.0;"/><polygon fill="#181818" points="927.62,1403.8569,917.7943,1403.1818,922.9225,1405.5696,920.5347,1410.6978,927.62,1403.8569" style="stroke:#181818;stroke-width:1.0;"/><text fill="#000000" font-family="sans-serif" font-size="13" lengthAdjust="spacing" textLength="61" x="818.59" y="1424.3638">&#171;include&#187;</text></g><!--link sch_analysis to collect_rankings--><g id="link_sch_analysis_collect_rankings"><path d="M577.92,1736.1369 C676.94,1735.9869 825.6,1735.7467 942.09,1735.5567 " fill="none" id="sch_analysis-to-collect_rankings" style="stroke:#181818;stroke-width:1.0;"/><polygon fill="#181818" points="948.09,1735.5469,939.0835,1731.5616,943.09,1735.555,939.0965,1739.5615,948.09,1735.5469" style="stroke:#181818;stroke-width:1.0;"/><text fill="#000000" font-family="sans-serif" font-size="13" lengthAdjust="spacing" textLength="61" x="818.59" y="1731.3638">&#171;include&#187;</text></g><!--SRC=[jLZRRjms47tVho3SXxI03U_wqbmG672CjZ2G04NS9kZJWfR6kuGfKYMfZUsY7rFq8UXpq2_O7-kG4hKa9Qtbs3LW2KiEPmvd3Wz96MOua3F9XAOB87laebHC678ycN2uCiH8ejXYQKZE56I6IJ6XcP6Ax9oB5MZ3Sgbs2DM4kPzI-UvVe2YbOdVK6-Xi2Nd5mHkyOOAA3CZfp-Uk_xB-xRijf7TKNOCvesLhb1NPP6A1KB50t3jlOG4Yfpj_J0Z-wMicIgfeGGecpZZL-YFBpPBCfacta3beACaiQLTKNDVjhYC8rAHbjaE-UMlpyOPNC61pu6r-KW1YmEZG6vr9HVc0qP4t-Wqubvy6h8wzrGNb1TRdpoX3lhIT5FaS74phoJuZ5qs5DAaqa8ngqBwdh3E5xROPGpUco1mEXYfoBgwaAkZwy_fV79zZgGe9-FAbdsUAbKRE6TgbAUnwFHSiO-ZrLAp_uan3wuKAocyrqwaB2_4mTlR-n-c1vNEAz0AGNx01XlROeCDoa7tqjvGLpyab4DsKbLnM1hDc238ESl9it-Vjr862-xE6a6O8oIDPKSLinlwMH4DXfrPpN7AEc7p6FW5SOzeon8m-UkPzq3lllkbwp_6KDpGDVCoE0X-bWlLdYMK5GYz1cKfH0kGAiYKjG1ZP1rkM8EOPbotc_Z37-_XuRcDHdbKSWodWBOs0O5vUHEvjmzpQM2tQEeNfI-jxQX-puG0hoQi2eX1rqvOW_MmxZ4hBKSJGVG4gGmd4UQ30yQMD6iKgdCJDCzIuho1W0k4WP9TioeOZS2swEk6w93HSKadDiaefj9jZl0oU04zQWGOPhMeqS5DQKhEL72X4Qm2-9ZarJm6iPfo7mvbeY5mBr_gVdBdtbnKmdR9Fpt70Gg3VLC3302yZCh20S4rLh0Y_8hFRNV9ziKiEyNzMuA9wdlSLnXLaxlGYP6GTkg7aUy3zrjmlGX_ONOKpk4DWN2wm2fYf0bB9NZ7uD4gp6qqBl2AC39E9UqxXwjglSc60hvIu3qpxcA7AESyZ92vXP-1jK26SwqV8Gn3ZNeLmiPvU7W88OnGYBDF_B0y1CgyGc9Owsu5MR61rvS5nYEedaOXsPneaHhitrMZwDgP78JYAWpV5she9X-NgxC2FLiomGYD4qwTbl696w-F1eXbEVenYVgGeiiQ3s0ZcKMVXJDtv0UTf54BBP55YyX5M7IoGJGKBfWse1aRt-1xI_yKkmNaVkkUHUoOvA3aLA0cKt73DRLXCTMxFOPj5wfBVWU4ouGPj1H2UMEpLXuc5xdVezwFMgkFN9kwuapWRuOURZ5TCrRkBnPvHPO0fwZpdWF4XpbTpaKcT9UjXYPbUVy4wkpLHWoLOxHM-K4pHhes47777LqFv4khy_LunpUfjwLlCrCrtcyJX3THgIcPlJjiH7SU8U9KfZ8EhGbCMteB2MNV2eMEpvBT8MNd5J1BHtkRwRsR-FatszgAhKQSZsCKxVSqs6RMdjRO0yFvz4SHEQOwZ_FKzlUjjxxBt-QttdM3uriFgi5qWWpr6YMhtM7Is-pul_GVL7ijWGq-c7mdby7GwmfOas1zyWaBw8gVNlmH0kxPxWeTzTamlSODnI9dpveDGG1l_ZSXQXgUqRaV8sQ7EY2Y3LX5D1gqs9EcQn1JfzgS4wV4mU53fscu8qekafSZWL5A2T0tjnX2r9ikv1rHSwQv1A9bHRoJl4ykBNpqTo2PZqQUTlRsJxTz0o2lo-ZN-ubKE9oVt3ew5ue630_KOEpAHbB73EZepEbw_-8mS7GZIOz8wFZSRaNjOl8xmZHpUIbTa_ny0]--></g></svg>