<?xml version="1.0" encoding="us-ascii" standalone="no"?><svg xmlns="http://www.w3.org/2000/svg" xmlns:xlink="http://www.w3.org/1999/xlink" contentStyleType="text/css" height="879px" preserveAspectRatio="none" style="width:1016px;height:879px;background:#FFFFFF;" version="1.1" viewBox="0 0 1016 879" width="1016px" zoomAndPan="magnify"><defs/><g><text fill="#000000" font-family="sans-serif" font-size="14" font-weight="bold" lengthAdjust="spacing" textLength="151" x="425.5" y="22.9951">Coinsage - Sprint 2</text><!--cluster Legenda--><g id="cluster_Legenda"><rect fill="none" height="143" rx="2.5" ry="2.5" style="stroke:#181818;stroke-width:1.0;" width="105" x="7" y="89.2969"/><text fill="#000000" font-family="sans-serif" font-size="14" font-weight="bold" lengthAdjust="spacing" textLength="68" x="25.5" y="104.292">Legenda</text></g><!--cluster Coinsage--><g id="cluster_Coinsage"><rect fill="none" height="738" rx="2.5" ry="2.5" style="stroke:#181818;stroke-width:1.0;" width="758" x="145" y="44.2969"/><text fill="#000000" font-family="sans-serif" font-size="14" font-weight="bold" lengthAdjust="spacing" textLength="73" x="487.5" y="59.292">Coinsage</text></g><!--entity Sprint 1--><g id="elem_Sprint 1"><rect fill="#ADD8E6" height="36.2969" rx="2.5" ry="2.5" style="stroke:#181818;stroke-width:0.5;" width="73" x="23" y="124.2969"/><text fill="#000000" font-family="sans-serif" font-size="14" lengthAdjust="spacing" textLength="53" x="33" y="147.292">Sprint 1</text></g><!--entity Sprint 2--><g id="elem_Sprint 2"><rect fill="#90EE90" height="36.2969" rx="2.5" ry="2.5" style="stroke:#181818;stroke-width:0.5;" width="73" x="23" y="180.2969"/><text fill="#000000" font-family="sans-serif" font-size="14" lengthAdjust="spacing" textLength="53" x="33" y="203.292">Sprint 2</text></g><g id="elem_sch_analysis"><ellipse cx="327.6952" cy="617.1359" fill="#ADD8E6" rx="69.6952" ry="16.339" style="stroke:#181818;stroke-width:0.5;"/><text fill="#000000" font-family="sans-serif" font-size="14" lengthAdjust="spacing" textLength="92" x="278.6952" y="620.8835">Iniciar An&#225;lise</text></g><g id="elem_sch_cripto_info"><ellipse cx="327.2544" cy="682.0478" fill="#ADD8E6" rx="129.2544" ry="28.2509" style="stroke:#181818;stroke-width:0.5;"/><text fill="#000000" font-family="sans-serif" font-size="14" lengthAdjust="spacing" textLength="227" x="213.7544" y="684.8944">Coletar Informa&#231;&#245;es das moedas</text></g><g id="elem_collect_cripto_week_incresse"><ellipse cx="730.1608" cy="415.329" fill="#ADD8E6" rx="103.1608" ry="23.0322" style="stroke:#181818;stroke-width:0.5;"/><text fill="#000000" font-family="sans-serif" font-size="14" lengthAdjust="spacing" textLength="171" x="644.6608" y="418.1757">Coletar varia&#231;&#227;o semanal</text></g><g id="elem_collect_cripto_current_price"><ellipse cx="729.8592" cy="478.1687" fill="#90EE90" rx="84.8592" ry="19.3718" style="stroke:#181818;stroke-width:0.5;"/><text fill="#000000" font-family="sans-serif" font-size="14" lengthAdjust="spacing" textLength="130" x="664.8592" y="481.0154">Coletar pre&#231;o atual</text></g><g id="elem_sch_sectors"><ellipse cx="327.3844" cy="748.2738" fill="#90EE90" rx="75.3844" ry="17.4769" style="stroke:#181818;stroke-width:0.5;"/><text fill="#000000" font-family="sans-serif" font-size="14" lengthAdjust="spacing" textLength="107" x="270.8844" y="752.0213">Coletar Setores</text></g><g id="elem_collect_cripto_open_close"><ellipse cx="729.9876" cy="552.0944" fill="#90EE90" rx="156.9876" ry="33.7975" style="stroke:#181818;stroke-width:0.5;"/><text fill="#000000" font-family="sans-serif" font-size="14" lengthAdjust="spacing" textLength="285" x="587.4876" y="554.9411">Coletar pre&#231;os de abertura e fechamento</text></g><g id="elem_collect_ema8_relations"><ellipse cx="730.209" cy="630.3387" fill="#90EE90" rx="108.209" ry="24.0418" style="stroke:#181818;stroke-width:0.5;"/><text fill="#000000" font-family="sans-serif" font-size="14" lengthAdjust="spacing" textLength="182" x="639.209" y="633.1853">Calcular rela&#231;&#245;es de ema8</text></g><g id="elem_collect_volume_relations"><ellipse cx="729.8004" cy="699.357" fill="#90EE90" rx="113.3004" ry="25.0601" style="stroke:#181818;stroke-width:0.5;"/><text fill="#000000" font-family="sans-serif" font-size="14" lengthAdjust="spacing" textLength="193" x="633.3004" y="702.2036">Calcular rela&#231;&#245;es de volume</text></g><g id="elem_view_cripto_info"><ellipse cx="327.3277" cy="109.1624" fill="#ADD8E6" rx="137.3277" ry="29.8655" style="stroke:#181818;stroke-width:0.5;"/><text fill="#000000" font-family="sans-serif" font-size="14" lengthAdjust="spacing" textLength="244" x="205.3277" y="112.0091">Vizualizar logo e nome das moedas</text></g><g id="elem_view_cripto_week_incresse"><ellipse cx="327.6526" cy="195.5274" fill="#ADD8E6" rx="166.6526" ry="35.7305" style="stroke:#181818;stroke-width:0.5;"/><text fill="#000000" font-family="sans-serif" font-size="14" lengthAdjust="spacing" textLength="305" x="175.1526" y="198.3741">Vizualizar porcentagem de varia&#231;&#227;o semanal</text></g><g id="elem_view_cripto_current_price"><ellipse cx="327.4431" cy="271.4855" fill="#90EE90" rx="91.4431" ry="20.6886" style="stroke:#181818;stroke-width:0.5;"/><text fill="#000000" font-family="sans-serif" font-size="14" lengthAdjust="spacing" textLength="145" x="254.9431" y="274.3322">Vizualizar pre&#231;o atual</text></g><g id="elem_view_sectors"><ellipse cx="327.4455" cy="330.486" fill="#90EE90" rx="81.4455" ry="18.6891" style="stroke:#181818;stroke-width:0.5;"/><text fill="#000000" font-family="sans-serif" font-size="14" lengthAdjust="spacing" textLength="122" x="265.3109" y="333.7058">Visualizar Setores</text></g><g id="elem_view_cripto_open_close"><ellipse cx="327.3656" cy="403.27" fill="#90EE90" rx="160.3656" ry="34.4731" style="stroke:#181818;stroke-width:0.5;"/><text fill="#000000" font-family="sans-serif" font-size="14" lengthAdjust="spacing" textLength="292" x="181.3656" y="406.1167">Visualizar pre&#231;o de abertura e fechamento</text></g><g id="elem_view_ema8_relations"><ellipse cx="327.3359" cy="483.2641" fill="#90EE90" rx="112.8359" ry="24.9672" style="stroke:#181818;stroke-width:0.5;"/><text fill="#000000" font-family="sans-serif" font-size="14" lengthAdjust="spacing" textLength="192" x="231.3359" y="486.1107">Visualizar rela&#231;&#245;es de ema8</text></g><g id="elem_view_volume_relations"><ellipse cx="327.4616" cy="554.2892" fill="#90EE90" rx="117.9616" ry="25.9923" style="stroke:#181818;stroke-width:0.5;"/><text fill="#000000" font-family="sans-serif" font-size="14" lengthAdjust="spacing" textLength="203" x="225.9616" y="557.1359">Visualizar rela&#231;&#245;es de volume</text></g><!--entity investor--><g id="elem_investor"><ellipse cx="59.5" cy="300.7969" fill="#F1F1F1" rx="8" ry="8" style="stroke:#181818;stroke-width:0.5;"/><path d="M59.5,308.7969 L59.5,335.7969 M46.5,316.7969 L72.5,316.7969 M59.5,335.7969 L46.5,350.7969 M59.5,335.7969 L72.5,350.7969 " fill="none" style="stroke:#181818;stroke-width:0.5;"/><text fill="#000000" font-family="sans-serif" font-size="14" lengthAdjust="spacing" textLength="67" x="26" y="365.292">Investidor</text></g><!--entity schedule--><g id="elem_schedule"><ellipse cx="59.5" cy="652.7969" fill="#F1F1F1" rx="8" ry="8" style="stroke:#181818;stroke-width:0.5;"/><path d="M59.5,660.7969 L59.5,687.7969 M46.5,668.7969 L72.5,668.7969 M59.5,687.7969 L46.5,702.7969 M59.5,687.7969 L72.5,702.7969 " fill="none" style="stroke:#181818;stroke-width:0.5;"/><text fill="#000000" font-family="sans-serif" font-size="14" lengthAdjust="spacing" textLength="96" x="11.5" y="717.292">Temporizador</text></g><!--entity binance--><g id="elem_binance"><ellipse cx="968.5" cy="561.7969" fill="#F1F1F1" rx="8" ry="8" style="stroke:#181818;stroke-width:0.5;"/><path d="M968.5,569.7969 L968.5,596.7969 M955.5,577.7969 L981.5,577.7969 M968.5,596.7969 L955.5,611.7969 M968.5,596.7969 L981.5,611.7969 " fill="none" style="stroke:#181818;stroke-width:0.5;"/><text fill="#000000" font-family="sans-serif" font-size="14" lengthAdjust="spacing" textLength="81" x="928" y="626.292">Binance API</text></g><!--entity cmc--><g id="elem_cmc"><ellipse cx="730" cy="806.7969" fill="#F1F1F1" rx="8" ry="8" style="stroke:#181818;stroke-width:0.5;"/><path d="M730,814.7969 L730,841.7969 M717,822.7969 L743,822.7969 M730,841.7969 L717,856.7969 M730,841.7969 L743,856.7969 " fill="none" style="stroke:#181818;stroke-width:0.5;"/><text fill="#000000" font-family="sans-serif" font-size="14" lengthAdjust="spacing" textLength="130" x="665" y="871.292">CoinMarketCap API</text></g><!--link schedule to sch_analysis--><g id="link_schedule_sch_analysis"><path d="M107.61,655.1969 C117.1,650.6269 127.19,646.3769 137,643.2969 C176.61,630.8769 222.72,624.3869 259.53,620.9969 " fill="none" id="schedule-sch_analysis" style="stroke:#181818;stroke-width:1.0;"/></g><!--link schedule to sch_sectors--><g id="link_schedule_sch_sectors"><path d="M107.69,708.6069 C117.18,713.0669 127.24,717.2369 137,720.2969 C175.08,732.2369 219.1,739.1369 255.12,743.0969 " fill="none" id="schedule-sch_sectors" style="stroke:#181818;stroke-width:1.0;"/></g><!--link schedule to sch_cripto_info--><g id="link_schedule_sch_cripto_info"><path d="M107.75,682.2969 C133.05,682.2969 165.58,682.2969 197.77,682.2969 " fill="none" id="schedule-sch_cripto_info" style="stroke:#181818;stroke-width:1.0;"/></g><!--link sch_sectors to cmc--><g id="link_sch_sectors_cmc"><path d="M369.38,762.9669 C404.24,775.0069 455.87,791.7269 502,802.2969 C556.38,814.7569 619.17,823.7569 664.91,829.3569 " fill="none" id="sch_sectors-cmc" style="stroke:#181818;stroke-width:1.0;"/></g><!--link sch_cripto_info to binance--><g id="link_sch_cripto_info_binance"><path d="M415.53,703.2269 C557.87,735.3269 832.5,787.6869 911,734.2969 C945.32,710.9569 958.8,663.2069 964.08,629.3169 " fill="none" id="sch_cripto_info-binance" style="stroke:#181818;stroke-width:1.0;"/></g><!--link sch_cripto_info to cmc--><g id="link_sch_cripto_info_cmc"><path d="M449.36,692.1069 C466.18,698.2469 481.84,707.2469 494,720.2969 C509.65,737.0769 486.81,754.1069 502,771.2969 C513.05,783.7969 601.79,806.6769 664.98,821.6769 " fill="none" id="sch_cripto_info-cmc" style="stroke:#181818;stroke-width:1.0;"/></g><!--link collect_cripto_week_incresse to binance--><g id="link_collect_cripto_week_incresse_binance"><path d="M832.97,416.1869 C860.74,420.8869 889.15,430.3469 911,448.2969 C942.55,474.2269 956.57,520.2469 962.74,553.0669 " fill="none" id="collect_cripto_week_incresse-binance" style="stroke:#181818;stroke-width:1.0;"/></g><!--link collect_cripto_current_price to binance--><g id="link_collect_cripto_current_price_binance"><path d="M815.29,478.5369 C847.33,482.0269 882.85,490.2869 911,508.2969 C927.74,519.0069 940.77,536.6369 950.08,552.8969 " fill="none" id="collect_cripto_current_price-binance" style="stroke:#181818;stroke-width:1.0;"/></g><!--link collect_cripto_open_close to binance--><g id="link_collect_cripto_open_close_binance"><path d="M855.48,572.8269 C881.75,577.1569 907.6,581.4169 927.84,584.7569 " fill="none" id="collect_cripto_open_close-binance" style="stroke:#181818;stroke-width:1.0;"/></g><!--link collect_ema8_relations to binance--><g id="link_collect_ema8_relations_binance"><path d="M817.39,616.0469 C855.26,609.8069 897.84,602.7869 927.95,597.8169 " fill="none" id="collect_ema8_relations-binance" style="stroke:#181818;stroke-width:1.0;"/></g><!--link collect_volume_relations to binance--><g id="link_collect_volume_relations_binance"><path d="M838.03,691.4569 C863.28,686.1869 889.18,677.7369 911,664.2969 C924.92,655.7269 936.71,642.3969 945.87,629.4569 " fill="none" id="collect_volume_relations-binance" style="stroke:#181818;stroke-width:1.0;"/></g><!--link investor to view_sectors--><g id="link_investor_view_sectors"><path d="M93.12,330.2969 C130.92,330.2969 194.59,330.2969 245.89,330.2969 " fill="none" id="investor-view_sectors" style="stroke:#181818;stroke-width:1.0;"/></g><!--link investor to view_cripto_info--><g id="link_investor_view_cripto_info"><path d="M87.05,291.9769 C98.65,273.7069 111.52,251.1069 120,229.2969 C133.17,195.4169 111.28,174.9869 137,149.2969 C152.7,133.6169 172.9,123.3569 194.24,116.7769 " fill="none" id="investor-view_cripto_info" style="stroke:#181818;stroke-width:1.0;"/></g><!--link investor to view_cripto_week_incresse--><g id="link_investor_view_cripto_week_incresse"><path d="M84.57,291.9669 C97.9,273.7369 116.02,253.1569 137,240.2969 C153.72,230.0469 172.6,222.1369 191.78,216.0269 " fill="none" id="investor-view_cripto_week_incresse" style="stroke:#181818;stroke-width:1.0;"/></g><!--link investor to view_cripto_current_price--><g id="link_investor_view_cripto_current_price"><path d="M93.15,316.2269 C106.54,310.9069 122.31,305.1969 137,301.2969 C171.93,292.0169 211.29,285.2169 245.05,280.4569 " fill="none" id="investor-view_cripto_current_price" style="stroke:#181818;stroke-width:1.0;"/></g><!--link investor to view_cripto_open_close--><g id="link_investor_view_cripto_open_close"><path d="M93.35,343.2869 C106.77,348.3369 122.51,353.9369 137,358.2969 C161.69,365.7169 188.49,372.7169 213.94,378.8769 " fill="none" id="investor-view_cripto_open_close" style="stroke:#181818;stroke-width:1.0;"/></g><!--link investor to view_ema8_relations--><g id="link_investor_view_ema8_relations"><path d="M75.73,368.3969 C88.24,394.7069 108.56,428.2669 137,447.2969 C160.52,463.0369 189.16,472.3069 216.97,477.6669 " fill="none" id="investor-view_ema8_relations" style="stroke:#181818;stroke-width:1.0;"/></g><!--link investor to view_volume_relations--><g id="link_investor_view_volume_relations"><path d="M65.17,368.3769 C72.56,411.5469 91.19,480.7969 137,518.2969 C157.73,535.2669 184.01,545.1469 210.34,550.7069 " fill="none" id="investor-view_volume_relations" style="stroke:#181818;stroke-width:1.0;"/></g><!--link sch_analysis to collect_cripto_week_incresse--><g id="link_sch_analysis_collect_cripto_week_incresse"><path d="M390.67,624.3369 C426.08,624.6569 468.36,618.1269 494,590.2969 C509.11,573.8969 490.19,509.2069 502,490.2969 C528.77,447.4369 575.5062,429.3901 623.3662,421.1901 " fill="none" id="sch_analysis-to-collect_cripto_week_incresse" style="stroke:#181818;stroke-width:1.0;"/><polygon fill="#181818" points="629.28,420.1769,619.7338,417.7542,624.3518,421.0212,621.0847,425.6393,629.28,420.1769" style="stroke:#181818;stroke-width:1.0;"/><text fill="#000000" font-family="sans-serif" font-size="13" lengthAdjust="spacing" textLength="61" x="503" y="435.3638">&#171;include&#187;</text></g><!--link sch_analysis to collect_cripto_current_price--><g id="link_sch_analysis_collect_cripto_current_price"><path d="M393.19,622.7569 C427.22,622.0469 467.31,615.0269 494,590.2969 C505.07,580.0369 493.45,569.7369 502,557.2969 C523.72,525.7069 537.64,523.1269 573,508.2969 C597.93,497.8469 620.7172,492.0162 646.6472,487.5462 " fill="none" id="sch_analysis-to-collect_cripto_current_price" style="stroke:#181818;stroke-width:1.0;"/><polygon fill="#181818" points="652.56,486.5269,643.0113,484.114,647.6327,487.3763,644.3703,491.9977,652.56,486.5269" style="stroke:#181818;stroke-width:1.0;"/><text fill="#000000" font-family="sans-serif" font-size="13" lengthAdjust="spacing" textLength="61" x="503" y="508.3638">&#171;include&#187;</text></g><!--link sch_analysis to collect_cripto_open_close--><g id="link_sch_analysis_collect_cripto_open_close"><path d="M385.46,608.0569 C442.04,598.8669 524.7475,585.4482 597.8175,573.5882 " fill="none" id="sch_analysis-to-collect_cripto_open_close" style="stroke:#181818;stroke-width:1.0;"/><polygon fill="#181818" points="603.74,572.6269,594.2154,570.1205,598.8046,573.4279,595.4971,578.0171,603.74,572.6269" style="stroke:#181818;stroke-width:1.0;"/><text fill="#000000" font-family="sans-serif" font-size="13" lengthAdjust="spacing" textLength="61" x="503" y="575.3638">&#171;include&#187;</text></g><!--link sch_analysis to collect_ema8_relations--><g id="link_sch_analysis_collect_ema8_relations"><path d="M396.44,619.5069 C458.48,621.5169 545.1932,624.3322 616.9832,626.6622 " fill="none" id="sch_analysis-to-collect_ema8_relations" style="stroke:#181818;stroke-width:1.0;"/><polygon fill="#181818" points="622.98,626.8569,614.1145,622.567,617.9826,626.6947,613.855,630.5628,622.98,626.8569" style="stroke:#181818;stroke-width:1.0;"/><text fill="#000000" font-family="sans-serif" font-size="13" lengthAdjust="spacing" textLength="61" x="503" y="619.3638">&#171;include&#187;</text></g><!--link sch_analysis to collect_volume_relations--><g id="link_sch_analysis_collect_volume_relations"><path d="M393.23,622.7969 C424.24,626.6069 461.59,632.9269 494,643.2969 C497.79,644.5069 498.26,645.9369 502,647.2969 C532.49,658.4069 541.39,656.9669 573,664.2969 C597.74,670.0369 618.865,674.8257 643.335,680.3057 " fill="none" id="sch_analysis-to-collect_volume_relations" style="stroke:#181818;stroke-width:1.0;"/><polygon fill="#181818" points="649.19,681.6169,641.2817,675.7467,644.3109,680.5242,639.5334,683.5534,649.19,681.6169" style="stroke:#181818;stroke-width:1.0;"/><text fill="#000000" font-family="sans-serif" font-size="13" lengthAdjust="spacing" textLength="61" x="503" y="643.3638">&#171;include&#187;</text></g><!--SRC=[fLRDRXen4BxlKupe8IUKXFPGLL6aX4E5b4fLwOzwGiOxW8NNNjbUegRgmrGzv0dw1BnOnyiQl7z0L0v1zdppZVtDbp5EE8amra9PjaGOmZGtGZaO9Od4XGEdmOZboa4g378dj4eOTzh0OA8sQ9r8jHa0io3AfJOX_1cpN1lnn0B0yXMcXSG0k1UAAOvmzt5InkUxTGZx8trWPerkpF8zY6SyIVn1c5hIkGSFk4ILii7F1EXZrqBbpB0CCg76abdxJQHk1TTNZR3IALhCuRgnRvXQ7_RBFr6nIfhh0Rnwy9hSom9xCAE0UMyGLGcww82z3h2nDapsmju4s7UKKZyclseQXEQrH0Yt75qb5VMqwe65mY9mPj6M4LhvXM-gu88Pk5FRtr9O39sRCSNa3ojiy-hxpB6Mw2XpeXRQP6pxlFrBPL9AppJIrvw96v4xFHE4EqcsOKPugZyQB6R-33iNQ2df_e7g4N5DVDoWfUHJdBd1xRC6vefkDbuOWyhDI7gESHVXaWHSwKAcC4UmbHbWNZXIsW7v45Euk3nOfrLwYcHjF4X1STgmBQlqd9daH61pDAum310Mo5SiexFghdle7DMCIstn23-Jl91KmA3Sjmo1f7vRe_GRCu_n0y2-c6-ZPP5XZN6trSDPkVKJqWHnVLRzAfweWpHW34YzrAI7qXas7RSH-DXZEUZbexASPAN_gQmyVhSBO-hpB1YNQBemPljl2pRBsb0sTc1PyQG5e-Jgp4TD65_Z70T6z3qUB1dFDM0lNMJ1al2e_sY-Ti_Ay8R1S5YRYgr09MjhFtAYhq7FshHElsy89VZ7hZanQJiyb1qXdt5qE4RfHyTUFovgQWUeqQSEH4lu24EAJAgV4P4guPU5HyQURGTYTVk2DJrwKJKrUb47BTgGkXBjU5C7V_aluSvmsAuzliFXxV773zx1pGsjP97YxUt9v7hJNvWSEU7Sp8OzparhUQQH-0y0]--></g></svg>
