<?xml version="1.0" encoding="us-ascii" standalone="no"?><svg xmlns="http://www.w3.org/2000/svg" xmlns:xlink="http://www.w3.org/1999/xlink" contentStyleType="text/css" height="1737px" preserveAspectRatio="none" style="width:1474px;height:1737px;background:#FFFFFF;" version="1.1" viewBox="0 0 1474 1737" width="1474px" zoomAndPan="magnify"><defs/><g><text fill="#000000" font-family="sans-serif" font-size="14" font-weight="bold" lengthAdjust="spacing" textLength="151" x="654.75" y="22.9951">Coinsage - Sprint 4</text><!--cluster Legenda--><g id="cluster_Legenda"><rect fill="none" height="143" rx="2.5" ry="2.5" style="stroke:#181818;stroke-width:1.0;" width="509.5" x="7" y="1588.2969"/><text fill="#000000" font-family="sans-serif" font-size="14" font-weight="bold" lengthAdjust="spacing" textLength="68" x="227.75" y="1603.292">Legenda</text></g><!--cluster Coinsage--><g id="cluster_Coinsage"><rect fill="none" height="1520" rx="2.5" ry="2.5" style="stroke:#181818;stroke-width:1.0;" width="1180" x="132.5" y="44.2969"/><text fill="#000000" font-family="sans-serif" font-size="14" font-weight="bold" lengthAdjust="spacing" textLength="73" x="686" y="59.292">Coinsage</text></g><!--entity Sprint 1--><g id="elem_Sprint 1"><rect fill="#ADD8E6" height="36.2969" rx="2.5" ry="2.5" style="stroke:#181818;stroke-width:0.5;" width="73" x="23" y="1679.2969"/><text fill="#000000" font-family="sans-serif" font-size="14" lengthAdjust="spacing" textLength="53" x="33" y="1702.292">Sprint 1</text></g><!--entity Sprint 2--><g id="elem_Sprint 2"><rect fill="#90EE90" height="36.2969" rx="2.5" ry="2.5" style="stroke:#181818;stroke-width:0.5;" width="73" x="23" y="1623.2969"/><text fill="#000000" font-family="sans-serif" font-size="14" lengthAdjust="spacing" textLength="53" x="33" y="1646.292">Sprint 2</text></g><!--entity Sprint 3--><g id="elem_Sprint 3"><rect fill="#F08080" height="36.2969" rx="2.5" ry="2.5" style="stroke:#181818;stroke-width:0.5;" width="73" x="427.5" y="1679.2969"/><text fill="#000000" font-family="sans-serif" font-size="14" lengthAdjust="spacing" textLength="53" x="437.5" y="1702.292">Sprint 3</text></g><!--entity Sprint 4--><g id="elem_Sprint 4"><rect fill="#FFFFE0" height="36.2969" rx="2.5" ry="2.5" style="stroke:#181818;stroke-width:0.5;" width="73" x="427.5" y="1623.2969"/><text fill="#000000" font-family="sans-serif" font-size="14" lengthAdjust="spacing" textLength="53" x="437.5" y="1646.292">Sprint 4</text></g><g id="elem_sch_cripto_info"><ellipse cx="463.7982" cy="1283.1565" fill="#ADD8E6" rx="162.2982" ry="34.8596" style="stroke:#181818;stroke-width:0.5;"/><text fill="#000000" font-family="sans-serif" font-size="14" lengthAdjust="spacing" textLength="296" x="315.7982" y="1286.0032">Schedule Coletar Informa&#231;&#245;es das moedas</text></g><g id="elem_sch_analysis"><ellipse cx="464.1147" cy="1360.4198" fill="#ADD8E6" rx="98.6147" ry="22.1229" style="stroke:#181818;stroke-width:0.5;"/><text fill="#000000" font-family="sans-serif" font-size="14" lengthAdjust="spacing" textLength="161" x="383.6147" y="1363.2665">Schedule Iniciar An&#225;lise</text></g><g id="elem_sch_sectors"><ellipse cx="463.8083" cy="1430.3585" fill="#F08080" rx="128.3083" ry="28.0617" style="stroke:#181818;stroke-width:0.5;"/><text fill="#000000" font-family="sans-serif" font-size="14" lengthAdjust="spacing" textLength="225" x="351.3083" y="1433.2052">RF01 - Schedule Coletar Setores</text></g><g id="elem_collect_cripto_week_incresse"><ellipse cx="1077.4468" cy="715.3862" fill="#ADD8E6" rx="125.9468" ry="27.5894" style="stroke:#181818;stroke-width:0.5;"/><text fill="#000000" font-family="sans-serif" font-size="14" lengthAdjust="spacing" textLength="220" x="967.4468" y="718.2329">RF06 - Coletar varia&#231;&#227;o semanal</text></g><g id="elem_collect_sectors"><ellipse cx="1077.3591" cy="1435.4687" fill="#90EE90" rx="96.3591" ry="21.6718" style="stroke:#181818;stroke-width:0.5;"/><text fill="#000000" font-family="sans-serif" font-size="14" lengthAdjust="spacing" textLength="156" x="999.3591" y="1438.3154">RF01 - Coletar Setores</text></g><g id="elem_collect_cripto_open_close"><ellipse cx="1077.7327" cy="801.3434" fill="#90EE90" rx="180.7327" ry="38.5465" style="stroke:#181818;stroke-width:0.5;"/><text fill="#000000" font-family="sans-serif" font-size="14" lengthAdjust="spacing" textLength="334" x="910.7327" y="804.1901">RF18 - Coletar pre&#231;os de abertura e fechamento</text></g><g id="elem_collect_ema8_relations"><ellipse cx="1077.649" cy="888.4267" fill="#90EE90" rx="131.149" ry="28.6298" style="stroke:#181818;stroke-width:0.5;"/><text fill="#000000" font-family="sans-serif" font-size="14" lengthAdjust="spacing" textLength="231" x="962.149" y="891.2734">RF17 - Calcular rela&#231;&#245;es de ema8</text></g><g id="elem_collect_volume_relations"><ellipse cx="1077.3751" cy="966.4719" fill="#90EE90" rx="136.3751" ry="29.675" style="stroke:#181818;stroke-width:0.5;"/><text fill="#000000" font-family="sans-serif" font-size="14" lengthAdjust="spacing" textLength="242" x="956.3751" y="969.3186">RF14 - Calcular rela&#231;&#245;es de volume</text></g><g id="elem_collect_market_cap"><ellipse cx="1077.7163" cy="1512.1401" fill="#F08080" rx="164.7163" ry="35.3433" style="stroke:#181818;stroke-width:0.5;"/><text fill="#000000" font-family="sans-serif" font-size="14" lengthAdjust="spacing" textLength="301" x="927.2163" y="1514.9868">RF03 - Coletar valor de mercado em bilh&#245;es</text></g><g id="elem_collect_cripto_current_price"><ellipse cx="1077.4123" cy="1053.0793" fill="#F08080" rx="174.4123" ry="37.2825" style="stroke:#181818;stroke-width:0.5;"/><text fill="#000000" font-family="sans-serif" font-size="14" lengthAdjust="spacing" textLength="321" x="916.9123" y="1055.926">RF21 - Coletar o pre&#231;o no momento da an&#225;lise</text></g><g id="elem_collect_expressive_volume_date"><ellipse cx="1077.4557" cy="1148.288" fill="#F08080" rx="172.9557" ry="36.9911" style="stroke:#181818;stroke-width:0.5;"/><text fill="#000000" font-family="sans-serif" font-size="14" lengthAdjust="spacing" textLength="318" x="918.4557" y="1151.1347">RF14 - Coletar aumento expressivo de volume</text></g><g id="elem_collect_emas_aligned"><ellipse cx="1077.3838" cy="1243.2736" fill="#F08080" rx="175.3838" ry="37.4768" style="stroke:#181818;stroke-width:0.5;"/><text fill="#000000" font-family="sans-serif" font-size="14" lengthAdjust="spacing" textLength="323" x="915.8838" y="1246.1203">RF27 - Coletar alinhamento das m&#233;dias m&#243;veis</text></g><g id="elem_collect_cripto_price_variations"><ellipse cx="1077.3794" cy="1347.4728" fill="#F08080" rx="218.8794" ry="46.1759" style="stroke:#181818;stroke-width:0.5;"/><text fill="#000000" font-family="sans-serif" font-size="14" lengthAdjust="spacing" textLength="412" x="871.3794" y="1350.3194">RF07 - Coletar vaia&#231;&#245;es de pre&#231;o para: 1y, 6m, 3m, 1m e 7d</text></g><g id="elem_view_cripto_info"><ellipse cx="463.8277" cy="109.1624" fill="#ADD8E6" rx="137.3277" ry="29.8655" style="stroke:#181818;stroke-width:0.5;"/><text fill="#000000" font-family="sans-serif" font-size="14" lengthAdjust="spacing" textLength="244" x="341.8277" y="112.0091">Vizualizar logo e nome das moedas</text></g><g id="elem_view_cripto_week_incresse"><ellipse cx="463.9805" cy="200.293" fill="#ADD8E6" rx="190.4805" ry="40.4961" style="stroke:#181818;stroke-width:0.5;"/><text fill="#000000" font-family="sans-serif" font-size="14" lengthAdjust="spacing" textLength="354" x="286.9805" y="203.1396">RF06 - Vizualizar porcentagem de varia&#231;&#227;o semanal</text></g><g id="elem_view_sectors"><ellipse cx="464.1608" cy="284.329" fill="#90EE90" rx="103.1608" ry="23.0322" style="stroke:#181818;stroke-width:0.5;"/><text fill="#000000" font-family="sans-serif" font-size="14" lengthAdjust="spacing" textLength="171" x="378.6608" y="287.1757">RF01 - Visualizar Setores</text></g><g id="elem_view_volume_relations"><ellipse cx="464.1446" cy="358.4258" fill="#90EE90" rx="141.1446" ry="30.6289" style="stroke:#181818;stroke-width:0.5;"/><text fill="#000000" font-family="sans-serif" font-size="14" lengthAdjust="spacing" textLength="252" x="338.1446" y="361.2725">RF14 - Visualizar rela&#231;&#245;es de volume</text></g><g id="elem_view_market_cap"><ellipse cx="463.985" cy="446.0939" fill="#F08080" rx="171.985" ry="36.797" style="stroke:#181818;stroke-width:0.5;"/><text fill="#000000" font-family="sans-serif" font-size="14" lengthAdjust="spacing" textLength="316" x="305.985" y="448.9406">RF03 - Visualizar valor de mercado em bilh&#245;es</text></g><g id="elem_view_cripto_current_price"><ellipse cx="464.2063" cy="542.5381" fill="#F08080" rx="181.7063" ry="38.7413" style="stroke:#181818;stroke-width:0.5;"/><text fill="#000000" font-family="sans-serif" font-size="14" lengthAdjust="spacing" textLength="336" x="296.2063" y="545.3848">RF21 - Visualizar o pre&#231;o no momento da an&#225;lise</text></g><g id="elem_view_expressive_volume_increase"><ellipse cx="464.2461" cy="639.2461" fill="#F08080" rx="180.2461" ry="38.4492" style="stroke:#181818;stroke-width:0.5;"/><text fill="#000000" font-family="sans-serif" font-size="14" lengthAdjust="spacing" textLength="333" x="297.7461" y="642.0928">RF14 - Visualizar aumento do volume expressivo</text></g><g id="elem_view_ema8_relations"><ellipse cx="464.0416" cy="731.3052" fill="#F08080" rx="155.5416" ry="33.5083" style="stroke:#181818;stroke-width:0.5;"/><text fill="#000000" font-family="sans-serif" font-size="14" lengthAdjust="spacing" textLength="282" x="323.0416" y="734.1519">RF17/RF19 - Visualizar rela&#231;&#245;es de ema8</text></g><g id="elem_view_cripto_open_close"><ellipse cx="464.1413" cy="824.5251" fill="#F08080" rx="184.1413" ry="39.2283" style="stroke:#181818;stroke-width:0.5;"/><text fill="#000000" font-family="sans-serif" font-size="14" lengthAdjust="spacing" textLength="341" x="293.6413" y="827.3718">RF18 - Visualizar pre&#231;o de abertura e fechamento</text></g><g id="elem_view_emas_aligned"><ellipse cx="464.1801" cy="922.2329" fill="#F08080" rx="182.6801" ry="38.936" style="stroke:#181818;stroke-width:0.5;"/><text fill="#000000" font-family="sans-serif" font-size="14" lengthAdjust="spacing" textLength="338" x="295.1801" y="925.0796">RF27 - Visualizar alinhamento das m&#233;dias m&#243;veis</text></g><g id="elem_view_cripto_price_variations"><ellipse cx="464.2491" cy="1029.4467" fill="#F08080" rx="226.2491" ry="47.6498" style="stroke:#181818;stroke-width:0.5;"/><text fill="#000000" font-family="sans-serif" font-size="14" lengthAdjust="spacing" textLength="427" x="250.7491" y="1032.2934">RF07 - Visualizar vaia&#231;&#245;es de pre&#231;o para: 1y, 6m, 3m, 1m e 7d</text></g><g id="elem_register_cripto"><ellipse cx="463.8656" cy="1513.27" fill="#FFFFE0" rx="160.3656" ry="34.4731" style="stroke:#181818;stroke-width:0.5;"/><text fill="#000000" font-family="sans-serif" font-size="14" lengthAdjust="spacing" textLength="292" x="317.8656" y="1516.1167">RF20 - Cadastrar compra de criptomoedas</text></g><g id="elem_view_xlsl"><ellipse cx="464.1658" cy="1162.33" fill="#FFFFE0" rx="315.6658" ry="65.5332" style="stroke:#181818;stroke-width:0.5;"/><text fill="#000000" font-family="sans-serif" font-size="14" lengthAdjust="spacing" textLength="608" x="160.1658" y="1165.1767">RF08, RF13, RF18, RF19 - Visualizar planilha xlsl com dados da an&#225;lise das criptomoedas</text></g><!--entity investor--><g id="elem_investor"><ellipse cx="59.5" cy="609.7969" fill="#F1F1F1" rx="8" ry="8" style="stroke:#181818;stroke-width:0.5;"/><path d="M59.5,617.7969 L59.5,644.7969 M46.5,625.7969 L72.5,625.7969 M59.5,644.7969 L46.5,659.7969 M59.5,644.7969 L72.5,659.7969 " fill="none" style="stroke:#181818;stroke-width:0.5;"/><text fill="#000000" font-family="sans-serif" font-size="14" lengthAdjust="spacing" textLength="67" x="26" y="674.292">Investidor</text></g><!--entity schedule--><g id="elem_schedule"><ellipse cx="59.5" cy="1330.7969" fill="#F1F1F1" rx="8" ry="8" style="stroke:#181818;stroke-width:0.5;"/><path d="M59.5,1338.7969 L59.5,1365.7969 M46.5,1346.7969 L72.5,1346.7969 M59.5,1365.7969 L46.5,1380.7969 M59.5,1365.7969 L72.5,1380.7969 " fill="none" style="stroke:#181818;stroke-width:0.5;"/><text fill="#000000" font-family="sans-serif" font-size="14" lengthAdjust="spacing" textLength="96" x="11.5" y="1395.292">Temporizador</text></g><!--entity binance--><g id="elem_binance"><ellipse cx="1402.5" cy="987.7969" fill="#F1F1F1" rx="8" ry="8" style="stroke:#181818;stroke-width:0.5;"/><path d="M1402.5,995.7969 L1402.5,1022.7969 M1389.5,1003.7969 L1415.5,1003.7969 M1402.5,1022.7969 L1389.5,1037.7969 M1402.5,1022.7969 L1415.5,1037.7969 " fill="none" style="stroke:#181818;stroke-width:0.5;"/><text fill="#000000" font-family="sans-serif" font-size="14" lengthAdjust="spacing" textLength="81" x="1362" y="1052.292">Binance API</text></g><!--entity cmc--><g id="elem_cmc"><ellipse cx="1402.5" cy="1583.7969" fill="#F1F1F1" rx="8" ry="8" style="stroke:#181818;stroke-width:0.5;"/><path d="M1402.5,1591.7969 L1402.5,1618.7969 M1389.5,1599.7969 L1415.5,1599.7969 M1402.5,1618.7969 L1389.5,1633.7969 M1402.5,1618.7969 L1415.5,1633.7969 " fill="none" style="stroke:#181818;stroke-width:0.5;"/><text fill="#000000" font-family="sans-serif" font-size="14" lengthAdjust="spacing" textLength="130" x="1337.5" y="1648.292">CoinMarketCap API</text></g><!--link schedule to sch_analysis--><g id="link_schedule_sch_analysis"><path d="M107.86,1360.2969 C170.82,1360.2969 283.64,1360.2969 365.26,1360.2969 " fill="none" id="schedule-sch_analysis" style="stroke:#181818;stroke-width:1.0;"/></g><!--link schedule to sch_cripto_info--><g id="link_schedule_sch_cripto_info"><path d="M107.66,1334.5669 C113.23,1332.1769 118.92,1330.0069 124.5,1328.2969 C183.01,1310.3269 249.39,1299.5369 307.77,1293.0469 " fill="none" id="schedule-sch_cripto_info" style="stroke:#181818;stroke-width:1.0;"/></g><!--link schedule to sch_sectors--><g id="link_schedule_sch_sectors"><path d="M107.63,1386.1469 C113.2,1388.5169 118.9,1390.6369 124.5,1392.2969 C192.83,1412.5169 271.83,1422.1269 336.32,1426.6269 " fill="none" id="schedule-sch_sectors" style="stroke:#181818;stroke-width:1.0;"/></g><!--link register_cripto to binance--><g id="link_register_cripto_binance"><path d="M578.39,1537.6369 C785.19,1579.1269 1212.32,1650.4669 1320.5,1557.2969 C1396.28,1492.0369 1402.17,1167.5069 1401.9,1055.4369 " fill="none" id="register_cripto-binance" style="stroke:#181818;stroke-width:1.0;"/></g><!--link sch_cripto_info to binance--><g id="link_sch_cripto_info_binance"><path d="M606.4,1300.2269 C668.72,1299.3469 737.26,1285.3869 779.5,1237.2969 C798.02,1216.2169 774.95,757.3969 787.5,732.2969 C805.36,696.5969 820.73,690.2169 858.5,677.2969 C1052.78,610.8469 1159.36,550.0369 1320.5,677.2969 C1367.76,714.6269 1390.43,898.4869 1398.23,979.1969 " fill="none" id="sch_cripto_info-binance" style="stroke:#181818;stroke-width:1.0;"/></g><!--link sch_cripto_info to cmc--><g id="link_sch_cripto_info_cmc"><path d="M607.46,1266.7169 C669.05,1267.8369 736.67,1281.6969 779.5,1328.2969 C789.89,1339.6069 782.09,1451.9269 787.5,1466.2969 C805.58,1514.3069 813.62,1532.4569 858.5,1557.2969 C1013.14,1642.8869 1230.65,1633.4869 1337.36,1622.0769 " fill="none" id="sch_cripto_info-cmc" style="stroke:#181818;stroke-width:1.0;"/></g><!--link collect_cripto_week_incresse to binance--><g id="link_collect_cripto_week_incresse_binance"><path d="M1199.64,708.5169 C1242.18,712.1969 1287.55,723.8069 1320.5,752.2969 C1387.1,809.8769 1399.87,920.5569 1401.74,978.9869 " fill="none" id="collect_cripto_week_incresse-binance" style="stroke:#181818;stroke-width:1.0;"/></g><!--link collect_cripto_current_price to binance--><g id="link_collect_cripto_current_price_binance"><path d="M1232.9,1036.0869 C1280.59,1030.7769 1329.1,1025.3669 1361.77,1021.7269 " fill="none" id="collect_cripto_current_price-binance" style="stroke:#181818;stroke-width:1.0;"/></g><!--link collect_cripto_open_close to binance--><g id="link_collect_cripto_open_close_binance"><path d="M1247.99,814.0269 C1274.07,821.6669 1299.33,832.9069 1320.5,849.2969 C1361.98,881.4069 1383.4,940.1469 1393.54,978.9669 " fill="none" id="collect_cripto_open_close-binance" style="stroke:#181818;stroke-width:1.0;"/></g><!--link collect_ema8_relations to binance--><g id="link_collect_ema8_relations_binance"><path d="M1207.54,892.1069 C1245.69,897.4869 1286.34,907.6569 1320.5,926.2969 C1343.34,938.7569 1362.93,960.2569 1377.12,979.2269 " fill="none" id="collect_ema8_relations-binance" style="stroke:#181818;stroke-width:1.0;"/></g><!--link collect_volume_relations to binance--><g id="link_collect_volume_relations_binance"><path d="M1188.3,983.6369 C1248.29,993.1069 1318.92,1004.2569 1361.93,1011.0469 " fill="none" id="collect_volume_relations-binance" style="stroke:#181818;stroke-width:1.0;"/></g><!--link collect_expressive_volume_date to binance--><g id="link_collect_expressive_volume_date_binance"><path d="M1233.09,1132.0269 C1263.24,1124.9369 1293.76,1114.7869 1320.5,1100.2969 C1340.68,1089.3569 1358.95,1071.7069 1373.01,1055.4869 " fill="none" id="collect_expressive_volume_date-binance" style="stroke:#181818;stroke-width:1.0;"/></g><!--link collect_market_cap to cmc--><g id="link_collect_market_cap_cmc"><path d="M1159.59,1543.1569 C1208.11,1560.8769 1271.28,1582.6469 1328.5,1598.2969 C1331.37,1599.0869 1334.31,1599.8469 1337.3,1600.5869 " fill="none" id="collect_market_cap-cmc" style="stroke:#181818;stroke-width:1.0;"/></g><!--link collect_emas_aligned to binance--><g id="link_collect_emas_aligned_binance"><path d="M1244.86,1231.9569 C1272.13,1224.2669 1298.59,1212.6469 1320.5,1195.2969 C1364.42,1160.5169 1385.37,1096.6269 1394.72,1055.5969 " fill="none" id="collect_emas_aligned-binance" style="stroke:#181818;stroke-width:1.0;"/></g><!--link collect_cripto_price_variations to binance--><g id="link_collect_cripto_price_variations_binance"><path d="M1267.14,1324.2469 C1286.77,1315.8669 1305.12,1304.8169 1320.5,1290.2969 C1386.45,1228.0069 1399.47,1114.7469 1401.56,1055.5969 " fill="none" id="collect_cripto_price_variations-binance" style="stroke:#181818;stroke-width:1.0;"/></g><!--link sch_sectors to collect_sectors--><g id="link_sch_sectors_collect_sectors"><path d="M592.45,1431.3369 C708.13,1432.2869 876.16,1433.6569 980.75,1434.5169 " fill="none" id="sch_sectors-collect_sectors" style="stroke:#181818;stroke-width:1.0;"/></g><!--link collect_sectors to cmc--><g id="link_collect_sectors_cmc"><path d="M1168.2,1427.9369 C1217.06,1428.3069 1276.37,1436.2769 1320.5,1466.2969 C1358.09,1491.8569 1379.94,1540.8569 1391.28,1575.2369 " fill="none" id="collect_sectors-cmc" style="stroke:#181818;stroke-width:1.0;"/></g><!--link investor to view_sectors--><g id="link_investor_view_sectors"><path d="M62.54,601.2869 C67.5,524.4869 82.99,354.8869 124.5,317.2969 C195.62,252.8869 312.84,256.9569 388.98,268.5169 " fill="none" id="investor-view_sectors" style="stroke:#181818;stroke-width:1.0;"/></g><!--link investor to view_cripto_info--><g id="link_investor_view_cripto_info"><path d="M59.72,601.0669 C58.44,496.9669 60.95,212.0769 124.5,149.2969 C183.86,90.6569 280.52,84.4769 355.38,90.7669 " fill="none" id="investor-view_cripto_info" style="stroke:#181818;stroke-width:1.0;"/></g><!--link investor to view_cripto_week_incresse--><g id="link_investor_view_cripto_week_incresse"><path d="M61.29,601.2469 C63.94,513.2969 75.4,299.7169 124.5,251.2969 C165.86,210.5069 224.99,193.4269 282.29,187.9069 " fill="none" id="investor-view_cripto_week_incresse" style="stroke:#181818;stroke-width:1.0;"/></g><!--link investor to view_cripto_current_price--><g id="link_investor_view_cripto_current_price"><path d="M93,609.3269 C102.54,602.0069 113.4,594.9469 124.5,590.2969 C174.86,569.1769 232.74,557.0369 286.23,550.1469 " fill="none" id="investor-view_cripto_current_price" style="stroke:#181818;stroke-width:1.0;"/></g><!--link investor to view_cripto_open_close--><g id="link_investor_view_cripto_open_close"><path d="M68.17,677.3469 C76.52,708.4969 93.13,751.0669 124.5,774.2969 C169.26,807.4369 226.63,823.0169 281.38,829.4369 " fill="none" id="investor-view_cripto_open_close" style="stroke:#181818;stroke-width:1.0;"/></g><!--link investor to view_ema8_relations--><g id="link_investor_view_ema8_relations"><path d="M93.05,668.7269 C102.58,675.8969 113.44,682.7969 124.5,687.2969 C182.27,710.7969 249.76,722.4169 309.21,727.9469 " fill="none" id="investor-view_ema8_relations" style="stroke:#181818;stroke-width:1.0;"/></g><!--link investor to view_volume_relations--><g id="link_investor_view_volume_relations"><path d="M65.45,601.1769 C74.16,540.3769 94.23,425.5969 124.5,399.2969 C184.04,347.5569 273.31,338.5769 345.23,341.8469 " fill="none" id="investor-view_volume_relations" style="stroke:#181818;stroke-width:1.0;"/></g><!--link investor to view_expressive_volume_increase--><g id="link_investor_view_expressive_volume_increase"><path d="M93.1,639.2969 C135.11,639.2969 211.4,639.2969 283.83,639.2969 " fill="none" id="investor-view_expressive_volume_increase" style="stroke:#181818;stroke-width:1.0;"/></g><!--link investor to view_market_cap--><g id="link_investor_view_market_cap"><path d="M66.55,601.1369 C74.05,567.2469 90.29,519.1869 124.5,493.2969 C173.35,456.3269 237.86,441.5369 297.45,437.0469 " fill="none" id="investor-view_market_cap" style="stroke:#181818;stroke-width:1.0;"/></g><!--link investor to view_emas_aligned--><g id="link_investor_view_emas_aligned"><path d="M65.8,677.3569 C74.88,736.7869 95.31,847.4969 124.5,873.2969 C169.22,912.8169 230.99,928.8569 289.54,933.7669 " fill="none" id="investor-view_emas_aligned" style="stroke:#181818;stroke-width:1.0;"/></g><!--link investor to view_cripto_price_variations--><g id="link_investor_view_cripto_price_variations"><path d="M62.53,677.3269 C67.52,755.5969 83.14,930.7869 124.5,971.2969 C155.28,1001.4369 195.64,1019.1869 237.73,1029.1369 " fill="none" id="investor-view_cripto_price_variations" style="stroke:#181818;stroke-width:1.0;"/></g><!--link investor to view_xlsl--><g id="link_investor_view_xlsl"><path d="M60.6,677.3569 C61.67,774.3069 69.76,1027.0669 124.5,1086.2969 C141.87,1105.0969 162.81,1119.7469 185.64,1131.1069 " fill="none" id="investor-view_xlsl" style="stroke:#181818;stroke-width:1.0;"/></g><!--link investor to register_cripto--><g id="link_investor_register_cripto"><path d="M63.13,677.5169 C74.3,839.4569 117.6,1461.0069 124.5,1468.2969 C175.84,1522.5569 258.65,1534.2969 329.5,1532.2469 " fill="none" id="investor-register_cripto" style="stroke:#181818;stroke-width:1.0;"/></g><!--link sch_analysis to collect_cripto_week_incresse--><g id="link_sch_analysis_collect_cripto_week_incresse"><path d="M532.1,1376.2169 C604.64,1388.9869 718.09,1395.2169 779.5,1328.2969 C789.14,1317.7969 781.55,828.2469 787.5,815.2969 C815.74,753.7769 881.605,729.6076 946.565,719.9676 " fill="none" id="sch_analysis-to-collect_cripto_week_incresse" style="stroke:#181818;stroke-width:1.0;"/><polygon fill="#181818" points="952.5,719.0869,943.0103,716.4513,947.5542,719.8208,944.1847,724.3647,952.5,719.0869" style="stroke:#181818;stroke-width:1.0;"/><text fill="#000000" font-family="sans-serif" font-size="13" lengthAdjust="spacing" textLength="61" x="788.5" y="750.3638">&#171;include&#187;</text></g><!--link sch_analysis to collect_cripto_current_price--><g id="link_sch_analysis_collect_cripto_current_price"><path d="M533.27,1376.0569 C605.45,1388.2369 717.3,1393.5469 779.5,1328.2969 C790.94,1316.2969 780.31,1194.2369 787.5,1179.2969 C803.76,1145.5469 829.46,1154.2869 850.5,1123.2969 C856.34,1114.6869 850.67,1108.1569 858.5,1101.2969 C875.48,1086.4269 890.3511,1077.8026 911.9511,1070.3126 " fill="none" id="sch_analysis-to-collect_cripto_current_price" style="stroke:#181818;stroke-width:1.0;"/><polygon fill="#181818" points="917.62,1068.3469,907.8062,1067.5162,912.896,1069.985,910.4272,1075.0747,917.62,1068.3469" style="stroke:#181818;stroke-width:1.0;"/><text fill="#000000" font-family="sans-serif" font-size="13" lengthAdjust="spacing" textLength="61" x="788.5" y="1119.3638">&#171;include&#187;</text></g><!--link sch_analysis to collect_cripto_current_price--><g id="link_sch_analysis_collect_cripto_current_price"><path d="M532.83,1376.1569 C605.18,1388.5969 717.69,1394.2969 779.5,1328.2969 C796.45,1310.1969 771.26,1124.0269 787.5,1105.2969 C817.06,1071.2069 854.7995,1055.4501 899.2695,1048.1401 " fill="none" id="sch_analysis-to-collect_cripto_current_price-1" style="stroke:#181818;stroke-width:1.0;"/><polygon fill="#181818" points="905.19,1047.1669,895.6604,1044.6797,900.2562,1047.9779,896.958,1052.5737,905.19,1047.1669" style="stroke:#181818;stroke-width:1.0;"/><text fill="#000000" font-family="sans-serif" font-size="13" lengthAdjust="spacing" textLength="61" x="788.5" y="1058.3638">&#171;include&#187;</text></g><!--link sch_analysis to collect_cripto_open_close--><g id="link_sch_analysis_collect_cripto_open_close"><path d="M532.39,1376.2469 C604.92,1388.9469 718.09,1395.0369 779.5,1328.2969 C795.98,1310.3869 775.14,911.2669 787.5,890.2969 C812.3,848.2369 851.4219,826.5302 898.5719,813.9802 " fill="none" id="sch_analysis-to-collect_cripto_open_close" style="stroke:#181818;stroke-width:1.0;"/><polygon fill="#181818" points="904.37,812.4369,894.644,810.8864,899.5382,813.723,896.7017,818.6172,904.37,812.4369" style="stroke:#181818;stroke-width:1.0;"/><text fill="#000000" font-family="sans-serif" font-size="13" lengthAdjust="spacing" textLength="61" x="788.5" y="833.3638">&#171;include&#187;</text></g><!--link sch_analysis to collect_ema8_relations--><g id="link_sch_analysis_collect_ema8_relations"><path d="M532.34,1376.1969 C604.82,1388.8569 717.96,1394.9169 779.5,1328.2969 C793.07,1313.6069 777.4,985.5669 787.5,968.2969 C819.31,913.9269 879.6575,893.7465 940.7375,886.8865 " fill="none" id="sch_analysis-to-collect_ema8_relations" style="stroke:#181818;stroke-width:1.0;"/><polygon fill="#181818" points="946.7,886.2169,937.3098,883.2464,941.7312,886.7749,938.2027,891.1964,946.7,886.2169" style="stroke:#181818;stroke-width:1.0;"/><text fill="#000000" font-family="sans-serif" font-size="13" lengthAdjust="spacing" textLength="61" x="788.5" y="908.3638">&#171;include&#187;</text></g><!--link sch_analysis to collect_volume_relations--><g id="link_sch_analysis_collect_volume_relations"><path d="M532.6,1376.1869 C605.03,1388.7569 717.87,1394.6469 779.5,1328.2969 C790.39,1316.5669 778.86,1053.7669 787.5,1040.2969 C820.07,989.5069 876.8874,970.2857 935.6374,963.6957 " fill="none" id="sch_analysis-to-collect_volume_relations" style="stroke:#181818;stroke-width:1.0;"/><polygon fill="#181818" points="941.6,963.0269,932.2102,960.055,936.6312,963.5842,933.102,968.0052,941.6,963.0269" style="stroke:#181818;stroke-width:1.0;"/><text fill="#000000" font-family="sans-serif" font-size="13" lengthAdjust="spacing" textLength="61" x="788.5" y="986.3638">&#171;include&#187;</text></g><!--link sch_analysis to collect_expressive_volume_date--><g id="link_sch_analysis_collect_expressive_volume_date"><path d="M535.43,1375.4469 C606.74,1386.2869 715.39,1389.7069 779.5,1328.2969 C797.34,1311.2069 776.95,1295.6269 787.5,1273.2969 C807.53,1230.9169 817.87,1218.6869 858.5,1195.2969 C879.89,1182.9869 898.366,1175.4824 922.726,1168.7624 " fill="none" id="sch_analysis-to-collect_expressive_volume_date" style="stroke:#181818;stroke-width:1.0;"/><polygon fill="#181818" points="928.51,1167.1669,918.7704,1165.7043,923.69,1168.4965,920.8978,1173.4162,928.51,1167.1669" style="stroke:#181818;stroke-width:1.0;"/><text fill="#000000" font-family="sans-serif" font-size="13" lengthAdjust="spacing" textLength="61" x="788.5" y="1197.3638">&#171;include&#187;</text></g><!--link sch_analysis to collect_market_cap--><g id="link_sch_analysis_collect_market_cap"><path d="M559.22,1354.4369 C623.94,1354.0269 710.31,1360.8169 779.5,1392.2969 C823.29,1412.2269 815.84,1444.0669 858.5,1466.2969 C882.17,1478.6269 903.0991,1486.2017 929.5391,1492.8117 " fill="none" id="sch_analysis-to-collect_market_cap" style="stroke:#181818;stroke-width:1.0;"/><polygon fill="#181818" points="935.36,1494.2669,927.5989,1488.2035,930.5093,1493.0542,925.6586,1495.9646,935.36,1494.2669" style="stroke:#181818;stroke-width:1.0;"/><text fill="#000000" font-family="sans-serif" font-size="13" lengthAdjust="spacing" textLength="61" x="788.5" y="1394.3638">&#171;include&#187;</text></g><!--link sch_analysis to collect_emas_aligned--><g id="link_sch_analysis_collect_emas_aligned"><path d="M562.55,1358.7869 C625.46,1355.7669 708.48,1347.9269 779.5,1328.2969 C816.87,1317.9669 821.79,1303.7669 858.5,1291.2969 C885.65,1282.0769 909.4842,1275.5284 937.9442,1268.9484 " fill="none" id="sch_analysis-to-collect_emas_aligned" style="stroke:#181818;stroke-width:1.0;"/><polygon fill="#181818" points="943.79,1267.5969,934.1203,1265.727,938.9185,1268.7232,935.9223,1273.5214,943.79,1267.5969" style="stroke:#181818;stroke-width:1.0;"/><text fill="#000000" font-family="sans-serif" font-size="13" lengthAdjust="spacing" textLength="61" x="788.5" y="1291.3638">&#171;include&#187;</text></g><!--link sch_analysis to collect_cripto_price_variations--><g id="link_sch_analysis_collect_cripto_price_variations"><path d="M562.23,1358.2269 C642.01,1356.5369 751.9714,1354.1944 853.5914,1352.0344 " fill="none" id="sch_analysis-to-collect_cripto_price_variations" style="stroke:#181818;stroke-width:1.0;"/><polygon fill="#181818" points="859.59,1351.9069,850.507,1348.099,854.5911,1352.0131,850.677,1356.0972,859.59,1351.9069" style="stroke:#181818;stroke-width:1.0;"/><text fill="#000000" font-family="sans-serif" font-size="13" lengthAdjust="spacing" textLength="61" x="788.5" y="1348.3638">&#171;include&#187;</text></g><!--SRC=[jLVDRXit4BxhAGZra8i5Mp-Dt20mu1Xe8I05WhX9q9D0xuubGbnoGNBbn4KVfkWXwBd84-Z5EjnTIYHtLrx7hW5R5ZcS-JZVp4VICCE1N4acD5q16P7hN35Xo6mmu71hY954iTNQa9GfI0oJOa0J8nKPBiGMj66fL4D2DM7bLwdSz6-GvLAnU-eCTBA6jE3W3DumGKK2vFBTefo_gRwxQGlfLwesOAvelZTAicGmi42eM27kuLjOWKZfy8y1mH-zOIAdYcOaO-AAKwq_iTIioVWicXOo1Gqv6KVZYefDDLvEU87gj8o7v8UtDXzlU04TDXDdyui241r6KsTq9HNb7KOpP_GxS2xlIgiNBNO_EhjtJ6m6VmOPSjGsKkHoC3aRr8wlQuOqAJIGX6hGRYQlCeNZTXW3rwPOEHmCLMGXRgNAwExhxXkkJv6gJ09-EEgNYMAvaKk6Td4AcruNWYKClLwAtL-SQTXxeOBoBvhfs8M5E0sTlV_vR6phEKPw3LXVS026zZYWVJh8AVfRouAdv0Q8hcabDuN1h1c25GSfUN7gydPPWeA7iuQGNY8aXsHB5RCP-riI3PdTMbNZadF4v39s1x31j2M86Nsqx7lIkk-sxJhFuPOFPUhv69zxFd85kwyIQGL2Rq2PGb42v1QIDSr06Da6M-OWbWcNUypjOUOs3EL9mJ6E0hwl822OalF0inrOMXihGyVHpxhTRYKlCWWSLqD7NBUNrpJWagDgeViCL8AQX-XHqVZQHWrYPQMcBHCKjU-ek0Z2n6TQrZpX2co-aXXiH4Bz7ef8IWgbq6w9yH9u1ZnLtciyjAWmmEVSrYxRoexqxmt0CP5Iynnm9dCV3cUYhjTAdtR_fApy_7SBJCULffUuO2NGRwpJVWdCWn9WNfdLN5YjVKN6Nqx8o-o4JF5td67lpDCsEaeQbgKi-7LOXQuByJtWiMeUrfgFxBx07TmZC2vNo09cAeDOcRSCxdf9SorTdbU4aM0oyMZ9IbxRnSmFy9rAzf5f5zCNiz9p7oMRXJuwrQ1q-0Gfy68yg0PbhEUN0Wz27pNmoVbVfC33uzG0ar7bsDE50vYc59JrGlMpG9gVuf-VZfN3_iofqBGTE4z2S1u6hoawUgxw93KErIUheyzG3u5qQUclZa5NF5eW_SttKSTF50NLE107SPmrDdzMtX1mdqOXj4HcEIOVOLN1F8bKi6BQWAfXD6_a_exFJmYoF2t_Llz7vPPpAb08AFdCDRTXCTMflLeTMhDCVWD6cOboKG00B_lj5tVtt2AZKN1pRanuwj-Og-NLni0NsBNdFiuABd0FkFYsVtpAlkYEtdYzvKTlBzrsNjUq64LDtcBHE1FQlBJVOLeiFTMFjX_qLVTs6dqG9TYTYTPxUE4Vn0-06W3IkwYVxnx5xaLlhVp3jZdXbr3NP41gfrL0QQVLWT2cIKXdSpuciyL3vndKj3sGsOfaJsVdLc8ocuQsvuFHgFK6bhuFZZLos5ZmNXwDBeu_BCahylerVkD52XSN3ouEU- -HYxs6xBiowjA-ongjspjUUp_tNEtr-5FIsZyt1zruNBo6beJB_mC0]--></g></svg>
