<?xml version="1.0" encoding="us-ascii" standalone="no"?><svg xmlns="http://www.w3.org/2000/svg" xmlns:xlink="http://www.w3.org/1999/xlink" contentStyleType="text/css" height="984px" preserveAspectRatio="none" style="width:1050px;height:984px;background:#FFFFFF;" version="1.1" viewBox="0 0 1050 984" width="1050px" zoomAndPan="magnify"><defs/><g><text fill="#000000" font-family="sans-serif" font-size="14" font-weight="bold" lengthAdjust="spacing" textLength="154" x="441" y="22.9951">Coinsage - Sprint 2</text><!--cluster Legenda--><g id="cluster_Legenda"><rect fill="none" height="143" rx="2.5" ry="2.5" style="stroke:#181818;stroke-width:1.0;" width="110" x="7" y="99.2969"/><text fill="#000000" font-family="sans-serif" font-size="14" font-weight="bold" lengthAdjust="spacing" textLength="67" x="28.5" y="114.292">Legenda</text></g><!--cluster Coinsage--><g id="cluster_Coinsage"><rect fill="none" height="843" rx="2.5" ry="2.5" style="stroke:#181818;stroke-width:1.0;" width="784" x="150" y="44.2969"/><text fill="#000000" font-family="sans-serif" font-size="14" font-weight="bold" lengthAdjust="spacing" textLength="73" x="505.5" y="59.292">Coinsage</text></g><!--entity Sprint 1--><g id="elem_Sprint 1"><rect fill="#ADD8E6" height="36.2969" rx="2.5" ry="2.5" style="stroke:#181818;stroke-width:0.5;" width="78" x="23" y="134.2969"/><text fill="#000000" font-family="sans-serif" font-size="14" lengthAdjust="spacing" textLength="58" x="33" y="157.292">Sprint 1</text></g><!--entity Sprint 2--><g id="elem_Sprint 2"><rect fill="#90EE90" height="36.2969" rx="2.5" ry="2.5" style="stroke:#181818;stroke-width:0.5;" width="77" x="23.5" y="190.2969"/><text fill="#000000" font-family="sans-serif" font-size="14" lengthAdjust="spacing" textLength="57" x="33.5" y="213.292">Sprint 2</text></g><g id="elem_sch_analysis"><ellipse cx="338.9293" cy="720.0827" fill="#ADD8E6" rx="71.9293" ry="16.7859" style="stroke:#181818;stroke-width:0.5;"/><text fill="#000000" font-family="sans-serif" font-size="14" lengthAdjust="spacing" textLength="98" x="286.9293" y="723.8303">Iniciar An&#225;lise</text></g><g id="elem_sch_cripto_info"><ellipse cx="339.0721" cy="786.2113" fill="#ADD8E6" rx="132.5721" ry="28.9144" style="stroke:#181818;stroke-width:0.5;"/><text fill="#000000" font-family="sans-serif" font-size="14" lengthAdjust="spacing" textLength="234" x="222.0721" y="789.058">Coletar Informa&#231;&#245;es das moedas</text></g><g id="elem_collect_cripto_week_incresse"><ellipse cx="754.3276" cy="443.0624" fill="#ADD8E6" rx="106.8276" ry="23.7655" style="stroke:#181818;stroke-width:0.5;"/><text fill="#000000" font-family="sans-serif" font-size="14" lengthAdjust="spacing" textLength="179" x="664.8276" y="445.9091">Coletar varia&#231;&#227;o semanal</text></g><g id="elem_collect_cripto_current_price"><ellipse cx="754.3518" cy="507.3672" fill="#90EE90" rx="88.3518" ry="20.0704" style="stroke:#181818;stroke-width:0.5;"/><text fill="#000000" font-family="sans-serif" font-size="14" lengthAdjust="spacing" textLength="138" x="685.3518" y="510.2139">Coletar pre&#231;o atual</text></g><g id="elem_sch_sectors"><ellipse cx="338.7532" cy="853.2475" fill="#90EE90" rx="77.7532" ry="17.9506" style="stroke:#181818;stroke-width:0.5;"/><text fill="#000000" font-family="sans-serif" font-size="14" lengthAdjust="spacing" textLength="113" x="279.6994" y="856.8777">Coletar Setores</text></g><g id="elem_collect_cripto_open_close"><ellipse cx="754.7488" cy="582.4466" fill="#90EE90" rx="163.7488" ry="35.1498" style="stroke:#181818;stroke-width:0.5;"/><text fill="#000000" font-family="sans-serif" font-size="14" lengthAdjust="spacing" textLength="299" x="605.2488" y="585.2933">Coletar pre&#231;os de abertura e fechamento</text></g><g id="elem_collect_ema8_relations"><ellipse cx="754.5935" cy="662.1156" fill="#90EE90" rx="109.5935" ry="24.3187" style="stroke:#181818;stroke-width:0.5;"/><text fill="#000000" font-family="sans-serif" font-size="14" lengthAdjust="spacing" textLength="185" x="662.0935" y="664.9623">Calcular rela&#231;&#245;es de ema8</text></g><g id="elem_collect_volume_relations"><ellipse cx="754.6274" cy="732.3224" fill="#90EE90" rx="115.6274" ry="25.5255" style="stroke:#181818;stroke-width:0.5;"/><text fill="#000000" font-family="sans-serif" font-size="14" lengthAdjust="spacing" textLength="198" x="655.6274" y="735.169">Calcular rela&#231;&#245;es de volume</text></g><g id="elem_collect_expressive_volume_date"><ellipse cx="754.4716" cy="809.1912" fill="#90EE90" rx="144.9716" ry="31.3943" style="stroke:#181818;stroke-width:0.5;"/><text fill="#000000" font-family="sans-serif" font-size="14" lengthAdjust="spacing" textLength="260" x="624.4716" y="812.0379">Coletar data do aumento expressivo</text></g><g id="elem_view_cripto_info"><ellipse cx="339.212" cy="110.1393" fill="#ADD8E6" rx="139.712" ry="30.3424" style="stroke:#181818;stroke-width:0.5;"/><text fill="#000000" font-family="sans-serif" font-size="14" lengthAdjust="spacing" textLength="249" x="214.712" y="112.986">Vizualizar logo e nome das moedas</text></g><g id="elem_view_cripto_week_incresse"><ellipse cx="338.9557" cy="198.288" fill="#ADD8E6" rx="172.9557" ry="36.9911" style="stroke:#181818;stroke-width:0.5;"/><text fill="#000000" font-family="sans-serif" font-size="14" lengthAdjust="spacing" textLength="318" x="179.9557" y="201.1347">Vizualizar porcentagem de varia&#231;&#227;o semanal</text></g><g id="elem_view_cripto_current_price"><ellipse cx="339.0118" cy="277.1992" fill="#90EE90" rx="95.0118" ry="21.4024" style="stroke:#181818;stroke-width:0.5;"/><text fill="#000000" font-family="sans-serif" font-size="14" lengthAdjust="spacing" textLength="153" x="262.5118" y="280.0459">Vizualizar pre&#231;o atual</text></g><g id="elem_view_sectors"><ellipse cx="339.0656" cy="338.41" fill="#90EE90" rx="83.5656" ry="19.1131" style="stroke:#181818;stroke-width:0.5;"/><text fill="#000000" font-family="sans-serif" font-size="14" lengthAdjust="spacing" textLength="127" x="275.1623" y="341.3943">Visualizar Setores</text></g><g id="elem_view_cripto_open_close"><ellipse cx="339.1369" cy="413.1243" fill="#90EE90" rx="167.1369" ry="35.8274" style="stroke:#181818;stroke-width:0.5;"/><text fill="#000000" font-family="sans-serif" font-size="14" lengthAdjust="spacing" textLength="306" x="186.1369" y="415.9709">Visualizar pre&#231;o de abertura e fechamento</text></g><g id="elem_view_ema8_relations"><ellipse cx="339.1957" cy="495.136" fill="#90EE90" rx="114.6957" ry="25.3391" style="stroke:#181818;stroke-width:0.5;"/><text fill="#000000" font-family="sans-serif" font-size="14" lengthAdjust="spacing" textLength="196" x="241.1957" y="497.9827">Visualizar rela&#231;&#245;es de ema8</text></g><g id="elem_view_volume_relations"><ellipse cx="338.7717" cy="567.3512" fill="#90EE90" rx="120.7717" ry="26.5543" style="stroke:#181818;stroke-width:0.5;"/><text fill="#000000" font-family="sans-serif" font-size="14" lengthAdjust="spacing" textLength="209" x="234.2717" y="570.1979">Visualizar rela&#231;&#245;es de volume</text></g><g id="elem_view_expressive_volume_increase"><ellipse cx="338.8317" cy="648.4632" fill="#90EE90" rx="161.3317" ry="34.6663" style="stroke:#181818;stroke-width:0.5;"/><text fill="#000000" font-family="sans-serif" font-size="14" lengthAdjust="spacing" textLength="294" x="191.8317" y="651.3099">Visualizar aumento do volume expressivo</text></g><!--entity investor--><g id="elem_investor"><ellipse cx="62" cy="346.7969" fill="#F1F1F1" rx="8" ry="8" style="stroke:#181818;stroke-width:0.5;"/><path d="M62,354.7969 L62,381.7969 M49,362.7969 L75,362.7969 M62,381.7969 L49,396.7969 M62,381.7969 L75,396.7969 " fill="none" style="stroke:#181818;stroke-width:0.5;"/><text fill="#000000" font-family="sans-serif" font-size="14" lengthAdjust="spacing" textLength="72" x="26" y="411.292">Investidor</text></g><!--entity schedule--><g id="elem_schedule"><ellipse cx="62" cy="756.7969" fill="#F1F1F1" rx="8" ry="8" style="stroke:#181818;stroke-width:0.5;"/><path d="M62,764.7969 L62,791.7969 M49,772.7969 L75,772.7969 M62,791.7969 L49,806.7969 M62,791.7969 L75,806.7969 " fill="none" style="stroke:#181818;stroke-width:0.5;"/><text fill="#000000" font-family="sans-serif" font-size="14" lengthAdjust="spacing" textLength="101" x="11.5" y="821.292">Temporizador</text></g><!--entity binance--><g id="elem_binance"><ellipse cx="1001" cy="632.7969" fill="#F1F1F1" rx="8" ry="8" style="stroke:#181818;stroke-width:0.5;"/><path d="M1001,640.7969 L1001,667.7969 M988,648.7969 L1014,648.7969 M1001,667.7969 L988,682.7969 M1001,667.7969 L1014,682.7969 " fill="none" style="stroke:#181818;stroke-width:0.5;"/><text fill="#000000" font-family="sans-serif" font-size="14" lengthAdjust="spacing" textLength="84" x="959" y="697.292">Binance API</text></g><!--entity cmc--><g id="elem_cmc"><ellipse cx="754.5" cy="911.7969" fill="#F1F1F1" rx="8" ry="8" style="stroke:#181818;stroke-width:0.5;"/><path d="M754.5,919.7969 L754.5,946.7969 M741.5,927.7969 L767.5,927.7969 M754.5,946.7969 L741.5,961.7969 M754.5,946.7969 L767.5,961.7969 " fill="none" style="stroke:#181818;stroke-width:0.5;"/><text fill="#000000" font-family="sans-serif" font-size="14" lengthAdjust="spacing" textLength="138" x="685.5" y="976.292">CoinMarketCap API</text></g><!--link schedule to sch_analysis--><g id="link_schedule_sch_analysis"><path d="M112.579,758.8289 C122.123,754.4069 132.203,750.3029 142,747.2969 C183.047,734.7009 230.739,727.9689 268.801,724.3769 " fill="none" id="schedule-sch_analysis" style="stroke:#181818;stroke-width:1.0;"/></g><!--link schedule to sch_sectors--><g id="link_schedule_sch_sectors"><path d="M112.591,813.7249 C122.134,818.1499 132.21,822.2659 142,825.2969 C181.239,837.4449 226.553,844.3529 263.72,848.2659 " fill="none" id="schedule-sch_sectors" style="stroke:#181818;stroke-width:1.0;"/></g><!--link schedule to sch_cripto_info--><g id="link_schedule_sch_cripto_info"><path d="M112.8,786.2969 C139.19,786.2969 172.978,786.2969 206.309,786.2969 " fill="none" id="schedule-sch_cripto_info" style="stroke:#181818;stroke-width:1.0;"/></g><!--link sch_sectors to cmc--><g id="link_sch_sectors_cmc"><path d="M375.376,869.3629 C411.091,884.837 468.222,907.5719 520,919.2969 C574.803,931.7069 638.374,937.1304 685.335,939.4934 " fill="none" id="sch_sectors-cmc" style="stroke:#181818;stroke-width:1.0;"/></g><!--link sch_cripto_info to binance--><g id="link_sch_cripto_info_binance"><path d="M435.481,806.2519 C460.498,811.9419 487.362,818.4659 512,825.2969 C547.62,835.1729 554.502,845.4449 591,851.2969 C668.016,863.6449 879.275,897.6602 942,851.2969 C988.784,816.7159 999.04,745.0729 1000.63,700.6049 " fill="none" id="sch_cripto_info-binance" style="stroke:#181818;stroke-width:1.0;"/></g><!--link sch_cripto_info to cmc--><g id="link_sch_cripto_info_cmc"><path d="M465.072,795.4799 C482.842,801.8589 499.344,811.3539 512,825.2969 C530.97,846.1959 501.032,867.3959 520,888.2969 C541.895,912.423 624.52,926.8747 685.296,934.454 " fill="none" id="sch_cripto_info-cmc" style="stroke:#181818;stroke-width:1.0;"/></g><!--link collect_cripto_week_incresse to binance--><g id="link_collect_cripto_week_incresse_binance"><path d="M861.54,442.9849 C890.491,447.7709 919.926,457.7929 942,477.2969 C984.124,514.5159 995.97,581.9029 999.12,624.2599 " fill="none" id="collect_cripto_week_incresse-binance" style="stroke:#181818;stroke-width:1.0;"/></g><!--link collect_cripto_current_price to binance--><g id="link_collect_cripto_current_price_binance"><path d="M842.111,504.3499 C876.154,507.2409 913.76,515.9209 942,537.2969 C969.755,558.3049 984.696,595.8119 992.42,624.2769 " fill="none" id="collect_cripto_current_price-binance" style="stroke:#181818;stroke-width:1.0;"/></g><!--link collect_cripto_open_close to binance--><g id="link_collect_cripto_open_close_binance"><path d="M874.534,606.2049 C897.308,612.2979 920.683,619.6329 942,628.2969 C947.623,630.5819 953.354,633.3419 958.919,636.2889 " fill="none" id="collect_cripto_open_close-binance" style="stroke:#181818;stroke-width:1.0;"/></g><!--link collect_ema8_relations to binance--><g id="link_collect_ema8_relations_binance"><path d="M864.165,662.2969 C897.835,662.2969 932.898,662.2969 958.964,662.2969 " fill="none" id="collect_ema8_relations-binance" style="stroke:#181818;stroke-width:1.0;"/></g><!--link collect_volume_relations to binance--><g id="link_collect_volume_relations_binance"><path d="M856.524,720.1149 C884.755,714.9039 915.065,707.5659 942,697.2969 C947.605,695.1599 953.278,692.4859 958.77,689.5729 " fill="none" id="collect_volume_relations-binance" style="stroke:#181818;stroke-width:1.0;"/></g><!--link collect_expressive_volume_date to binance--><g id="link_collect_expressive_volume_date_binance"><path d="M885.664,795.7359 C905.821,789.5279 925.421,780.7249 942,768.2969 C964.408,751.4989 979.218,723.3949 988.261,700.3439 " fill="none" id="collect_expressive_volume_date-binance" style="stroke:#181818;stroke-width:1.0;"/></g><!--link investor to view_sectors--><g id="link_investor_view_sectors"><path d="M98.108,371.4459 C140.534,365.5829 212.964,355.5749 267.163,348.0849 " fill="none" id="investor-view_sectors" style="stroke:#181818;stroke-width:1.0;"/></g><!--link investor to view_cripto_info--><g id="link_investor_view_cripto_info"><path d="M83.1222,338.2759 C96.669,311.2969 114.002,273.8789 125,239.2969 C137.072,201.3359 114.05,179.6799 142,151.2969 C158.526,134.5149 180.032,123.7439 202.725,116.9779 " fill="none" id="investor-view_cripto_info" style="stroke:#181818;stroke-width:1.0;"/></g><!--link investor to view_cripto_week_incresse--><g id="link_investor_view_cripto_week_incresse"><path d="M76.5074,338.1159 C88.9769,308.3949 110.387,268.4309 142,245.2969 C157.602,233.8799 175.599,225.2009 194.23,218.6119 " fill="none" id="investor-view_cripto_week_incresse" style="stroke:#181818;stroke-width:1.0;"/></g><!--link investor to view_cripto_current_price--><g id="link_investor_view_cripto_current_price"><path d="M98.241,339.3289 C110.985,328.0009 126.163,316.6099 142,309.2969 C174.241,294.4079 212.267,286.3199 246.203,281.9709 " fill="none" id="investor-view_cripto_current_price" style="stroke:#181818;stroke-width:1.0;"/></g><!--link investor to view_cripto_open_close--><g id="link_investor_view_cripto_open_close"><path d="M98.108,381.0209 C123.665,384.4589 160.11,389.3629 196.898,394.3119 " fill="none" id="investor-view_cripto_open_close" style="stroke:#181818;stroke-width:1.0;"/></g><!--link investor to view_ema8_relations--><g id="link_investor_view_ema8_relations"><path d="M90.5428,414.6189 C104.205,430.8669 122.053,448.5069 142,459.2969 C168.55,473.6589 199.77,482.4129 229.392,487.7139 " fill="none" id="investor-view_ema8_relations" style="stroke:#181818;stroke-width:1.0;"/></g><!--link investor to view_volume_relations--><g id="link_investor_view_volume_relations"><path d="M72.2482,414.5679 C82.9225,450.2069 104.087,501.9689 142,530.2969 C164.4,547.0339 192.171,556.8939 219.694,562.5499 " fill="none" id="investor-view_volume_relations" style="stroke:#181818;stroke-width:1.0;"/></g><!--link investor to view_expressive_volume_increase--><g id="link_investor_view_expressive_volume_increase"><path d="M65.1697,414.3539 C70.1974,465.3259 86.8548,555.0419 142,604.2969 C156.566,617.3069 174.138,626.7299 192.704,633.5139 " fill="none" id="investor-view_expressive_volume_increase" style="stroke:#181818;stroke-width:1.0;"/></g><!--link sch_analysis to collect_cripto_week_incresse--><g id="link_sch_analysis_collect_cripto_week_incresse"><path d="M402.806,728.3339 C440.135,729.3089 485.272,723.1239 512,693.2969 C524.842,678.9659 510.169,536.8389 520,520.2969 C546.388,475.8969 594.0797,457.2716 643.2817,448.9146 " fill="none" id="sch_analysis-to-collect_cripto_week_incresse" style="stroke:#181818;stroke-width:1.0;"/><polygon fill="#181818" points="649.197,447.9099,639.6543,445.4734,644.2676,448.7471,640.9939,453.3605,649.197,447.9099" style="stroke:#181818;stroke-width:1.0;"/><text fill="#000000" font-family="sans-serif" font-size="13" lengthAdjust="spacing" textLength="61" x="521" y="463.3638">&#171;include&#187;</text></g><!--link sch_analysis to collect_cripto_current_price--><g id="link_sch_analysis_collect_cripto_current_price"><path d="M403.568,727.8969 C440.461,728.5279 484.864,722.1339 512,693.2969 C524.85,679.6409 512.07,626.2889 520,609.2969 C539.007,568.5729 551.293,558.3479 591,537.2969 C614.826,524.6659 637.1435,518.2394 663.3415,513.9314 " fill="none" id="sch_analysis-to-collect_cripto_current_price" style="stroke:#181818;stroke-width:1.0;"/><polygon fill="#181818" points="669.262,512.9579,659.7322,510.4712,664.3283,513.7692,661.0303,518.3652,669.262,512.9579" style="stroke:#181818;stroke-width:1.0;"/><text fill="#000000" font-family="sans-serif" font-size="13" lengthAdjust="spacing" textLength="61" x="521" y="538.3638">&#171;include&#187;</text></g><!--link sch_analysis to collect_cripto_open_close--><g id="link_sch_analysis_collect_cripto_open_close"><path d="M406.879,726.0869 C442.142,725.4829 483.811,718.4559 512,693.2969 C521.975,684.3939 511.537,674.6479 520,664.2969 C542.394,636.9059 558.047,641.1749 591,628.2969 C609.16,621.1999 623.1036,616.4085 642.3046,610.6535 " fill="none" id="sch_analysis-to-collect_cripto_open_close" style="stroke:#181818;stroke-width:1.0;"/><polygon fill="#181818" points="648.052,608.9309,638.2825,607.6832,643.2625,610.3664,640.5793,615.3464,648.052,608.9309" style="stroke:#181818;stroke-width:1.0;"/><text fill="#000000" font-family="sans-serif" font-size="13" lengthAdjust="spacing" textLength="61" x="521" y="627.3638">&#171;include&#187;</text></g><!--link sch_analysis to collect_ema8_relations--><g id="link_sch_analysis_collect_ema8_relations"><path d="M401.459,711.6759 C470.189,702.0359 576.2942,687.1534 655.4952,676.0434 " fill="none" id="sch_analysis-to-collect_ema8_relations" style="stroke:#181818;stroke-width:1.0;"/><polygon fill="#181818" points="661.437,675.2099,651.9686,672.4989,656.4855,675.9045,653.0799,680.4213,661.437,675.2099" style="stroke:#181818;stroke-width:1.0;"/><text fill="#000000" font-family="sans-serif" font-size="13" lengthAdjust="spacing" textLength="61" x="521" y="682.3638">&#171;include&#187;</text></g><!--link sch_analysis to collect_volume_relations--><g id="link_sch_analysis_collect_volume_relations"><path d="M410.613,722.3459 C473.47,724.1699 560.5485,726.6968 633.8725,728.8248 " fill="none" id="sch_analysis-to-collect_volume_relations" style="stroke:#181818;stroke-width:1.0;"/><polygon fill="#181818" points="639.87,728.9989,630.9898,724.7395,634.8721,728.8538,630.7577,732.7361,639.87,728.9989" style="stroke:#181818;stroke-width:1.0;"/><text fill="#000000" font-family="sans-serif" font-size="13" lengthAdjust="spacing" textLength="61" x="521" y="721.3638">&#171;include&#187;</text></g><!--link sch_analysis to collect_expressive_volume_date--><g id="link_sch_analysis_collect_expressive_volume_date"><path d="M402.383,728.4929 C435.162,733.2019 475.916,739.6899 512,747.2969 C547.549,754.7909 555.83,759.1859 591,768.2969 C612.829,773.9519 630.5169,778.4697 652.6819,784.0717 " fill="none" id="sch_analysis-to-collect_expressive_volume_date" style="stroke:#181818;stroke-width:1.0;"/><polygon fill="#181818" points="658.499,785.5419,650.7535,779.4585,653.6514,784.3167,648.7932,787.2146,658.499,785.5419" style="stroke:#181818;stroke-width:1.0;"/><text fill="#000000" font-family="sans-serif" font-size="13" lengthAdjust="spacing" textLength="61" x="521" y="744.3638">&#171;include&#187;</text></g><!--SRC=[hLRDRXCn4BxlKup2eQUeFt10gAhKve0Y5GaHAE8KETvfOiLhhsnl2aKy3EBG9-09ycACD-lK-vTi9NA9xFdc6_kRp_OwuIJ2H0jbsH9X3BFS2ENW8aaatZjm6enOhXoamY1tGgk4SQSDZAPgWzQ9L9iHC0kY76eJmfynoxKHZom0B5zXMaWCW1kXcE88rn-dPNon6uUmNz87PjRe9YpVWtZ6ayGlXAabhNjqYqjKAHlzJ81-TYrKpWpB81Dg8fcrNqNgLd1-rWWhdQB57CuRyuQfzMw-34I5AbdEH_3grkjn8mlimLm4p7k3g4hGIGViTO1Dj66o5_OcmBwXbFeX-LNRVsXSIu2mmukpfAAULVfRA2m2PnPj6Q6H7_Y62YwOWMkr_Is5nT2rELDC_h32DhU-pvneYOuof-fUcunjdxP_gKnAwPb6-jipSIDof-U2S4V9Dim8J_L7WyNChs7d02qbxJzGFI2kYOyRj9HyZ3Ctk7tIm5pHpSOBOr2vEKdFCUuYd9A0Art851O8jZ83B0f7IZiW3s8A9wT9TzaPagNnMGQAquHjsQHdlIGb0bkWSOLXW72FVCKoMgVkseFEKSsvr1OFy3F92qa53Cfzkn18vhSrIZynznX_yEsB-JPQ5XdM67TJWpWh3LBc6AJKjABSCk3tt3TRREgxtqzZg469TGcgW_09wM9oVQVWJZoIEUZUCY3raifHWpDicdaZy66GcoCwgiff1tHQirASRd_7pCFC7PTe-Zjc-y_clXCsb8tzNLOyQl0ekLhpGOl7snZYxuY-n-4bur1xzz951Yy9XxixeWp69e_lyfiMtwsrvU_I6AmX0pqFtLTzU7vXFAvTwgr0rRlMVEHsNuDUv5cTVjzrIl3lTFF2f-dmndU4VCR1kprAFtXhz-CYvtI06cReGBIwsyNIVGr5ID9kMdqhHVg5poUFZ8zGEn3teIzOKwuNLTEj5_MiMXjIrwmTRohMmT1hQo_Kbw0FF5FKlaZ6uwl3NmJm3YulQIIB5A-kZYRNhVJ2vCXVGpCRfXkQrdBYu7hTzgnb_mC0]--></g></svg>
