<?xml version="1.0" encoding="us-ascii" standalone="no"?><svg xmlns="http://www.w3.org/2000/svg" xmlns:xlink="http://www.w3.org/1999/xlink" contentStyleType="text/css" height="1496px" preserveAspectRatio="none" style="width:1295px;height:1496px;background:#FFFFFF;" version="1.1" viewBox="0 0 1295 1496" width="1295px" zoomAndPan="magnify"><defs/><g><text fill="#000000" font-family="sans-serif" font-size="14" font-weight="bold" lengthAdjust="spacing" textLength="151" x="565.25" y="22.9951">Coinsage - Sprint 3</text><!--cluster Legenda--><g id="cluster_Legenda"><rect fill="none" height="143" rx="2.5" ry="2.5" style="stroke:#181818;stroke-width:1.0;" width="420" x="7" y="1347.2969"/><text fill="#000000" font-family="sans-serif" font-size="14" font-weight="bold" lengthAdjust="spacing" textLength="68" x="183" y="1362.292">Legenda</text></g><!--cluster Coinsage--><g id="cluster_Coinsage"><rect fill="none" height="1279" rx="2.5" ry="2.5" style="stroke:#181818;stroke-width:1.0;" width="1001" x="132.5" y="44.2969"/><text fill="#000000" font-family="sans-serif" font-size="14" font-weight="bold" lengthAdjust="spacing" textLength="73" x="596.5" y="59.292">Coinsage</text></g><!--entity Sprint 1--><g id="elem_Sprint 1"><rect fill="#ADD8E6" height="36.2969" rx="2.5" ry="2.5" style="stroke:#181818;stroke-width:0.5;" width="73" x="23" y="1438.2969"/><text fill="#000000" font-family="sans-serif" font-size="14" lengthAdjust="spacing" textLength="53" x="33" y="1461.292">Sprint 1</text></g><!--entity Sprint 2--><g id="elem_Sprint 2"><rect fill="#90EE90" height="36.2969" rx="2.5" ry="2.5" style="stroke:#181818;stroke-width:0.5;" width="73" x="23" y="1382.2969"/><text fill="#000000" font-family="sans-serif" font-size="14" lengthAdjust="spacing" textLength="53" x="33" y="1405.292">Sprint 2</text></g><!--entity Sprint 3--><g id="elem_Sprint 3"><rect fill="#F08080" height="36.2969" rx="2.5" ry="2.5" style="stroke:#181818;stroke-width:0.5;" width="73" x="338" y="1438.2969"/><text fill="#000000" font-family="sans-serif" font-size="14" lengthAdjust="spacing" textLength="53" x="348" y="1461.292">Sprint 3</text></g><g id="elem_sch_cripto_info"><ellipse cx="374.2982" cy="1196.1565" fill="#ADD8E6" rx="162.2982" ry="34.8596" style="stroke:#181818;stroke-width:0.5;"/><text fill="#000000" font-family="sans-serif" font-size="14" lengthAdjust="spacing" textLength="296" x="226.2982" y="1199.0032">Schedule Coletar Informa&#231;&#245;es das moedas</text></g><g id="elem_sch_analysis"><ellipse cx="374.6147" cy="1119.4198" fill="#ADD8E6" rx="98.6147" ry="22.1229" style="stroke:#181818;stroke-width:0.5;"/><text fill="#000000" font-family="sans-serif" font-size="14" lengthAdjust="spacing" textLength="161" x="294.1147" y="1122.2665">Schedule Iniciar An&#225;lise</text></g><g id="elem_sch_sectors"><ellipse cx="374.3083" cy="1279.3585" fill="#F08080" rx="128.3083" ry="28.0617" style="stroke:#181818;stroke-width:0.5;"/><text fill="#000000" font-family="sans-serif" font-size="14" lengthAdjust="spacing" textLength="225" x="261.8083" y="1282.2052">RF01 - Schedule Coletar Setores</text></g><g id="elem_collect_cripto_week_incresse"><ellipse cx="898.4468" cy="682.3862" fill="#ADD8E6" rx="125.9468" ry="27.5894" style="stroke:#181818;stroke-width:0.5;"/><text fill="#000000" font-family="sans-serif" font-size="14" lengthAdjust="spacing" textLength="220" x="788.4468" y="685.2329">RF06 - Coletar varia&#231;&#227;o semanal</text></g><g id="elem_collect_sectors"><ellipse cx="898.3591" cy="1285.4687" fill="#90EE90" rx="96.3591" ry="21.6718" style="stroke:#181818;stroke-width:0.5;"/><text fill="#000000" font-family="sans-serif" font-size="14" lengthAdjust="spacing" textLength="156" x="820.3591" y="1288.3154">RF01 - Coletar Setores</text></g><g id="elem_collect_cripto_open_close"><ellipse cx="898.7327" cy="768.3434" fill="#90EE90" rx="180.7327" ry="38.5465" style="stroke:#181818;stroke-width:0.5;"/><text fill="#000000" font-family="sans-serif" font-size="14" lengthAdjust="spacing" textLength="334" x="731.7327" y="771.1901">RF18 - Coletar pre&#231;os de abertura e fechamento</text></g><g id="elem_collect_ema8_relations"><ellipse cx="898.649" cy="855.4267" fill="#90EE90" rx="131.149" ry="28.6298" style="stroke:#181818;stroke-width:0.5;"/><text fill="#000000" font-family="sans-serif" font-size="14" lengthAdjust="spacing" textLength="231" x="783.149" y="858.2734">RF17 - Calcular rela&#231;&#245;es de ema8</text></g><g id="elem_collect_volume_relations"><ellipse cx="898.3751" cy="933.4719" fill="#90EE90" rx="136.3751" ry="29.675" style="stroke:#181818;stroke-width:0.5;"/><text fill="#000000" font-family="sans-serif" font-size="14" lengthAdjust="spacing" textLength="242" x="777.3751" y="936.3186">RF14 - Calcular rela&#231;&#245;es de volume</text></g><g id="elem_collect_market_cap"><ellipse cx="898.7163" cy="1208.1401" fill="#F08080" rx="164.7163" ry="35.3433" style="stroke:#181818;stroke-width:0.5;"/><text fill="#000000" font-family="sans-serif" font-size="14" lengthAdjust="spacing" textLength="301" x="748.2163" y="1210.9868">RF03 - Coletar valor de mercado em bilh&#245;es</text></g><g id="elem_collect_cripto_current_price"><ellipse cx="898.4123" cy="1020.0793" fill="#F08080" rx="174.4123" ry="37.2825" style="stroke:#181818;stroke-width:0.5;"/><text fill="#000000" font-family="sans-serif" font-size="14" lengthAdjust="spacing" textLength="321" x="737.9123" y="1022.926">RF21 - Coletar o pre&#231;o no momento da an&#225;lise</text></g><g id="elem_collect_expressive_volume_date"><ellipse cx="898.4557" cy="1115.288" fill="#F08080" rx="172.9557" ry="36.9911" style="stroke:#181818;stroke-width:0.5;"/><text fill="#000000" font-family="sans-serif" font-size="14" lengthAdjust="spacing" textLength="318" x="739.4557" y="1118.1347">RF14 - Coletar aumento expressivo de volume</text></g><g id="elem_collect_emas_aligned"><ellipse cx="898.3838" cy="484.2736" fill="#F08080" rx="175.3838" ry="37.4768" style="stroke:#181818;stroke-width:0.5;"/><text fill="#000000" font-family="sans-serif" font-size="14" lengthAdjust="spacing" textLength="323" x="736.8838" y="487.1203">RF27 - Coletar alinhamento das m&#233;dias m&#243;veis</text></g><g id="elem_collect_cripto_price_variations"><ellipse cx="898.3794" cy="588.4728" fill="#F08080" rx="218.8794" ry="46.1759" style="stroke:#181818;stroke-width:0.5;"/><text fill="#000000" font-family="sans-serif" font-size="14" lengthAdjust="spacing" textLength="412" x="692.3794" y="591.3194">RF07 - Coletar vaia&#231;&#245;es de pre&#231;o para: 1y, 6m, 3m, 1m e 7d</text></g><g id="elem_view_cripto_info"><ellipse cx="374.3277" cy="879.1624" fill="#ADD8E6" rx="137.3277" ry="29.8655" style="stroke:#181818;stroke-width:0.5;"/><text fill="#000000" font-family="sans-serif" font-size="14" lengthAdjust="spacing" textLength="244" x="252.3277" y="882.0091">Vizualizar logo e nome das moedas</text></g><g id="elem_view_cripto_week_incresse"><ellipse cx="374.4805" cy="970.293" fill="#ADD8E6" rx="190.4805" ry="40.4961" style="stroke:#181818;stroke-width:0.5;"/><text fill="#000000" font-family="sans-serif" font-size="14" lengthAdjust="spacing" textLength="354" x="197.4805" y="973.1396">RF06 - Vizualizar porcentagem de varia&#231;&#227;o semanal</text></g><g id="elem_view_sectors"><ellipse cx="374.6608" cy="1054.329" fill="#90EE90" rx="103.1608" ry="23.0322" style="stroke:#181818;stroke-width:0.5;"/><text fill="#000000" font-family="sans-serif" font-size="14" lengthAdjust="spacing" textLength="171" x="289.1608" y="1057.1757">RF01 - Visualizar Setores</text></g><g id="elem_view_volume_relations"><ellipse cx="374.6446" cy="110.4258" fill="#90EE90" rx="141.1446" ry="30.6289" style="stroke:#181818;stroke-width:0.5;"/><text fill="#000000" font-family="sans-serif" font-size="14" lengthAdjust="spacing" textLength="252" x="248.6446" y="113.2725">RF14 - Visualizar rela&#231;&#245;es de volume</text></g><g id="elem_view_market_cap"><ellipse cx="374.485" cy="198.0939" fill="#F08080" rx="171.985" ry="36.797" style="stroke:#181818;stroke-width:0.5;"/><text fill="#000000" font-family="sans-serif" font-size="14" lengthAdjust="spacing" textLength="316" x="216.485" y="200.9406">RF03 - Visualizar valor de mercado em bilh&#245;es</text></g><g id="elem_view_cripto_current_price"><ellipse cx="374.7063" cy="294.5381" fill="#F08080" rx="181.7063" ry="38.7413" style="stroke:#181818;stroke-width:0.5;"/><text fill="#000000" font-family="sans-serif" font-size="14" lengthAdjust="spacing" textLength="336" x="206.7063" y="297.3848">RF21 - Visualizar o pre&#231;o no momento da an&#225;lise</text></g><g id="elem_view_expressive_volume_increase"><ellipse cx="374.7461" cy="391.2461" fill="#F08080" rx="180.2461" ry="38.4492" style="stroke:#181818;stroke-width:0.5;"/><text fill="#000000" font-family="sans-serif" font-size="14" lengthAdjust="spacing" textLength="333" x="208.2461" y="394.0928">RF14 - Visualizar aumento do volume expressivo</text></g><g id="elem_view_ema8_relations"><ellipse cx="374.5416" cy="483.3052" fill="#F08080" rx="155.5416" ry="33.5083" style="stroke:#181818;stroke-width:0.5;"/><text fill="#000000" font-family="sans-serif" font-size="14" lengthAdjust="spacing" textLength="282" x="233.5416" y="486.1519">RF17/RF19 - Visualizar rela&#231;&#245;es de ema8</text></g><g id="elem_view_cripto_open_close"><ellipse cx="374.6413" cy="576.5251" fill="#F08080" rx="184.1413" ry="39.2283" style="stroke:#181818;stroke-width:0.5;"/><text fill="#000000" font-family="sans-serif" font-size="14" lengthAdjust="spacing" textLength="341" x="204.1413" y="579.3718">RF18 - Visualizar pre&#231;o de abertura e fechamento</text></g><g id="elem_view_emas_aligned"><ellipse cx="374.6801" cy="674.2329" fill="#F08080" rx="182.6801" ry="38.936" style="stroke:#181818;stroke-width:0.5;"/><text fill="#000000" font-family="sans-serif" font-size="14" lengthAdjust="spacing" textLength="338" x="205.6801" y="677.0796">RF27 - Visualizar alinhamento das m&#233;dias m&#243;veis</text></g><g id="elem_view_cripto_price_variations"><ellipse cx="374.7491" cy="781.4467" fill="#F08080" rx="226.2491" ry="47.6498" style="stroke:#181818;stroke-width:0.5;"/><text fill="#000000" font-family="sans-serif" font-size="14" lengthAdjust="spacing" textLength="427" x="161.2491" y="784.2934">RF07 - Visualizar vaia&#231;&#245;es de pre&#231;o para: 1y, 6m, 3m, 1m e 7d</text></g><!--entity investor--><g id="elem_investor"><ellipse cx="59.5" cy="546.7969" fill="#F1F1F1" rx="8" ry="8" style="stroke:#181818;stroke-width:0.5;"/><path d="M59.5,554.7969 L59.5,581.7969 M46.5,562.7969 L72.5,562.7969 M59.5,581.7969 L46.5,596.7969 M59.5,581.7969 L72.5,596.7969 " fill="none" style="stroke:#181818;stroke-width:0.5;"/><text fill="#000000" font-family="sans-serif" font-size="14" lengthAdjust="spacing" textLength="67" x="26" y="611.292">Investidor</text></g><!--entity schedule--><g id="elem_schedule"><ellipse cx="59.5" cy="1166.7969" fill="#F1F1F1" rx="8" ry="8" style="stroke:#181818;stroke-width:0.5;"/><path d="M59.5,1174.7969 L59.5,1201.7969 M46.5,1182.7969 L72.5,1182.7969 M59.5,1201.7969 L46.5,1216.7969 M59.5,1201.7969 L72.5,1216.7969 " fill="none" style="stroke:#181818;stroke-width:0.5;"/><text fill="#000000" font-family="sans-serif" font-size="14" lengthAdjust="spacing" textLength="96" x="11.5" y="1231.292">Temporizador</text></g><!--entity binance--><g id="elem_binance"><ellipse cx="1223.5" cy="738.7969" fill="#F1F1F1" rx="8" ry="8" style="stroke:#181818;stroke-width:0.5;"/><path d="M1223.5,746.7969 L1223.5,773.7969 M1210.5,754.7969 L1236.5,754.7969 M1223.5,773.7969 L1210.5,788.7969 M1223.5,773.7969 L1236.5,788.7969 " fill="none" style="stroke:#181818;stroke-width:0.5;"/><text fill="#000000" font-family="sans-serif" font-size="14" lengthAdjust="spacing" textLength="81" x="1183" y="803.292">Binance API</text></g><!--entity cmc--><g id="elem_cmc"><ellipse cx="1223.5" cy="1255.7969" fill="#F1F1F1" rx="8" ry="8" style="stroke:#181818;stroke-width:0.5;"/><path d="M1223.5,1263.7969 L1223.5,1290.7969 M1210.5,1271.7969 L1236.5,1271.7969 M1223.5,1290.7969 L1210.5,1305.7969 M1223.5,1290.7969 L1236.5,1305.7969 " fill="none" style="stroke:#181818;stroke-width:0.5;"/><text fill="#000000" font-family="sans-serif" font-size="14" lengthAdjust="spacing" textLength="130" x="1158.5" y="1320.292">CoinMarketCap API</text></g><!--link schedule to sch_analysis--><g id="link_schedule_sch_analysis"><path d="M107.65,1159.4869 C113.13,1156.3369 118.8,1153.5069 124.5,1151.2969 C172.44,1132.6869 229.09,1124.4269 276.24,1120.9369 " fill="none" id="schedule-sch_analysis" style="stroke:#181818;stroke-width:1.0;"/></g><!--link schedule to sch_cripto_info--><g id="link_schedule_sch_cripto_info"><path d="M107.7,1196.2969 C135.96,1196.2969 173.73,1196.2969 211.9,1196.2969 " fill="none" id="schedule-sch_cripto_info" style="stroke:#181818;stroke-width:1.0;"/></g><!--link schedule to sch_sectors--><g id="link_schedule_sch_sectors"><path d="M107.7,1232.9669 C113.17,1236.1469 118.83,1239.0169 124.5,1241.2969 C163.96,1257.1569 209.37,1266.4469 250.52,1271.8769 " fill="none" id="schedule-sch_sectors" style="stroke:#181818;stroke-width:1.0;"/></g><!--link sch_cripto_info to binance--><g id="link_sch_cripto_info_binance"><path d="M535.87,1192.0669 C560.79,1184.2169 583.77,1171.4469 600.5,1151.2969 C611.77,1137.7269 602.13,532.7469 608.5,516.2969 C625.66,471.9569 636.14,455.7869 679.5,436.2969 C866.78,352.1069 980.01,309.4769 1141.5,436.2969 C1187.64,472.5269 1210.83,650.8869 1218.99,730.1769 " fill="none" id="sch_cripto_info-binance" style="stroke:#181818;stroke-width:1.0;"/></g><!--link sch_cripto_info to cmc--><g id="link_sch_cripto_info_cmc"><path d="M518.84,1212.4369 C546.9,1219.0169 575.39,1228.2769 600.5,1241.2969 C643.48,1263.5869 634.53,1298.3569 679.5,1316.2969 C870.21,1392.4069 939.59,1353.6169 1141.5,1316.2969 C1146.98,1315.2869 1152.57,1313.9169 1158.11,1312.3169 " fill="none" id="sch_cripto_info-cmc" style="stroke:#181818;stroke-width:1.0;"/></g><!--link collect_cripto_week_incresse to binance--><g id="link_collect_cripto_week_incresse_binance"><path d="M1018.13,691.0369 C1058.16,696.4369 1102.54,705.1669 1141.5,719.2969 C1155.71,724.4469 1170.17,732.2269 1182.87,740.0769 " fill="none" id="collect_cripto_week_incresse-binance" style="stroke:#181818;stroke-width:1.0;"/></g><!--link collect_cripto_current_price to binance--><g id="link_collect_cripto_current_price_binance"><path d="M1066.26,1009.9369 C1093.57,1002.1569 1119.94,990.2469 1141.5,972.2969 C1191.72,930.4769 1211.01,853.1369 1218.27,806.6369 " fill="none" id="collect_cripto_current_price-binance" style="stroke:#181818;stroke-width:1.0;"/></g><!--link collect_cripto_open_close to binance--><g id="link_collect_cripto_open_close_binance"><path d="M1079.42,768.2969 C1118.38,768.2969 1155.9,768.2969 1182.74,768.2969 " fill="none" id="collect_cripto_open_close-binance" style="stroke:#181818;stroke-width:1.0;"/></g><!--link collect_ema8_relations to binance--><g id="link_collect_ema8_relations_binance"><path d="M1020.53,844.8469 C1059.91,839.0769 1103.29,830.1369 1141.5,816.2969 C1155.64,811.1769 1170.08,803.5369 1182.77,795.8469 " fill="none" id="collect_ema8_relations-binance" style="stroke:#181818;stroke-width:1.0;"/></g><!--link collect_volume_relations to binance--><g id="link_collect_volume_relations_binance"><path d="M1034.56,930.8069 C1071.54,925.0369 1110.06,913.8869 1141.5,893.2969 C1172.98,872.6869 1194.84,835.1269 1207.85,806.5369 " fill="none" id="collect_volume_relations-binance" style="stroke:#181818;stroke-width:1.0;"/></g><!--link collect_expressive_volume_date to binance--><g id="link_collect_expressive_volume_date_binance"><path d="M1067.39,1107.0969 C1094.74,1099.1269 1120.84,1086.5869 1141.5,1067.2969 C1179.58,1031.7469 1206.42,878.7369 1217.22,806.4269 " fill="none" id="collect_expressive_volume_date-binance" style="stroke:#181818;stroke-width:1.0;"/></g><!--link collect_market_cap to cmc--><g id="link_collect_market_cap_cmc"><path d="M1034.03,1228.5669 C1069.31,1235.1669 1107.1,1243.4069 1141.5,1253.2969 C1147.02,1254.8869 1152.69,1256.7069 1158.34,1258.6569 " fill="none" id="collect_market_cap-cmc" style="stroke:#181818;stroke-width:1.0;"/></g><!--link collect_emas_aligned to binance--><g id="link_collect_emas_aligned_binance"><path d="M1067.91,494.0869 C1094.81,501.9669 1120.61,514.0469 1141.5,532.2969 C1199.57,583.0269 1216.05,677.3069 1220.7,730.0469 " fill="none" id="collect_emas_aligned-binance" style="stroke:#181818;stroke-width:1.0;"/></g><!--link collect_cripto_price_variations to binance--><g id="link_collect_cripto_price_variations_binance"><path d="M1080.89,613.9469 C1102.42,621.6169 1123.21,631.5169 1141.5,644.2969 C1171.85,665.5069 1193.69,702.0869 1206.98,730.0369 " fill="none" id="collect_cripto_price_variations-binance" style="stroke:#181818;stroke-width:1.0;"/></g><!--link sch_sectors to collect_sectors--><g id="link_sch_sectors_collect_sectors"><path d="M502.86,1280.7569 C595.21,1281.8269 718.14,1283.2369 802.1,1284.1969 " fill="none" id="sch_sectors-collect_sectors" style="stroke:#181818;stroke-width:1.0;"/></g><!--link collect_sectors to cmc--><g id="link_collect_sectors_cmc"><path d="M995.1,1285.2969 C1047.74,1285.2969 1111.67,1285.2969 1158.32,1285.2969 " fill="none" id="collect_sectors-cmc" style="stroke:#181818;stroke-width:1.0;"/></g><!--link investor to view_sectors--><g id="link_investor_view_sectors"><path d="M60.36,614.3769 C60.84,711.3369 67.64,963.8569 124.5,1020.2969 C166.23,1061.7169 233.01,1068.9469 286.92,1066.5169 " fill="none" id="investor-view_sectors" style="stroke:#181818;stroke-width:1.0;"/></g><!--link investor to view_cripto_info--><g id="link_investor_view_cripto_info"><path d="M64.66,614.3069 C72.57,679.4069 92,808.1869 124.5,838.2969 C155.27,866.8069 197.86,879.7269 239.12,884.7269 " fill="none" id="investor-view_cripto_info" style="stroke:#181818;stroke-width:1.0;"/></g><!--link investor to view_cripto_week_incresse--><g id="link_investor_view_cripto_week_incresse"><path d="M62.39,614.5469 C67.17,694.7269 82.47,876.5169 124.5,919.2969 C142.82,937.9469 166,950.6969 190.81,959.2769 " fill="none" id="investor-view_cripto_week_incresse" style="stroke:#181818;stroke-width:1.0;"/></g><!--link investor to view_cripto_current_price--><g id="link_investor_view_cripto_current_price"><path d="M66.02,537.9069 C75.34,478.5869 96,368.6969 124.5,342.2969 C144.93,323.3769 170.46,310.8769 197.33,302.7769 " fill="none" id="investor-view_cripto_current_price" style="stroke:#181818;stroke-width:1.0;"/></g><!--link investor to view_cripto_open_close--><g id="link_investor_view_cripto_open_close"><path d="M93.11,576.2969 C117.46,576.2969 152.88,576.2969 190.4,576.2969 " fill="none" id="investor-view_cripto_open_close" style="stroke:#181818;stroke-width:1.0;"/></g><!--link investor to view_ema8_relations--><g id="link_investor_view_ema8_relations"><path d="M93.11,546.5769 C102.65,539.2569 113.48,532.1369 124.5,527.2969 C157.65,512.7269 195.3,502.9769 231.1,496.4469 " fill="none" id="investor-view_ema8_relations" style="stroke:#181818;stroke-width:1.0;"/></g><!--link investor to view_volume_relations--><g id="link_investor_view_volume_relations"><path d="M60.72,538.2169 C62.1,444.3569 70.92,205.6169 124.5,151.2969 C153.8,121.5869 195.77,108.3069 236.92,103.3469 " fill="none" id="investor-view_volume_relations" style="stroke:#181818;stroke-width:1.0;"/></g><!--link investor to view_expressive_volume_increase--><g id="link_investor_view_expressive_volume_increase"><path d="M68.27,538.0469 C76.7,506.6669 93.34,463.5869 124.5,439.2969 C146.98,421.7769 174.02,410.0369 201.87,402.2969 " fill="none" id="investor-view_expressive_volume_increase" style="stroke:#181818;stroke-width:1.0;"/></g><!--link investor to view_market_cap--><g id="link_investor_view_market_cap"><path d="M62.62,538.1369 C67.77,460.0569 83.64,285.9769 124.5,245.2969 C146.01,223.8769 174.02,210.5969 203.45,202.6069 " fill="none" id="investor-view_market_cap" style="stroke:#181818;stroke-width:1.0;"/></g><!--link investor to view_emas_aligned--><g id="link_investor_view_emas_aligned"><path d="M93.17,605.8769 C102.71,613.1969 113.53,620.3469 124.5,625.2969 C153.11,638.2069 185.09,647.7269 216.34,654.7469 " fill="none" id="investor-view_emas_aligned" style="stroke:#181818;stroke-width:1.0;"/></g><!--link investor to view_cripto_price_variations--><g id="link_investor_view_cripto_price_variations"><path d="M67.12,614.3169 C74.99,647.9269 91.46,695.7769 124.5,723.2969 C141.38,737.3569 161.04,748.1469 181.78,756.4169 " fill="none" id="investor-view_cripto_price_variations" style="stroke:#181818;stroke-width:1.0;"/></g><!--link sch_analysis to collect_cripto_week_incresse--><g id="link_sch_analysis_collect_cripto_week_incresse"><path d="M456.96,1131.3569 C506,1133.6069 565.52,1126.5469 600.5,1087.2969 C611.81,1074.5969 601.26,796.6869 608.5,781.2969 C637.22,720.2269 702.8539,696.2799 767.5839,686.7599 " fill="none" id="sch_analysis-to-collect_cripto_week_incresse" style="stroke:#181818;stroke-width:1.0;"/><polygon fill="#181818" points="773.52,685.8869,764.0338,683.239,768.5732,686.6144,765.1978,691.1539,773.52,685.8869" style="stroke:#181818;stroke-width:1.0;"/><text fill="#000000" font-family="sans-serif" font-size="13" lengthAdjust="spacing" textLength="61" x="609.5" y="716.3638">&#171;include&#187;</text></g><!--link sch_analysis to collect_cripto_current_price--><g id="link_sch_analysis_collect_cripto_current_price"><path d="M462.96,1129.0469 C509.37,1129.2769 564.16,1120.9269 600.5,1087.2969 C612.53,1076.1669 596.28,1062.2169 608.5,1051.2969 C644.52,1019.0969 688.0415,1007.0185 735.9015,1004.0485 " fill="none" id="sch_analysis-to-collect_cripto_current_price" style="stroke:#181818;stroke-width:1.0;"/><polygon fill="#181818" points="741.89,1003.6769,732.6595,1000.242,736.8996,1003.9866,733.155,1008.2266,741.89,1003.6769" style="stroke:#181818;stroke-width:1.0;"/><text fill="#000000" font-family="sans-serif" font-size="13" lengthAdjust="spacing" textLength="61" x="609.5" y="1014.3638">&#171;include&#187;</text></g><!--link sch_analysis to collect_cripto_current_price--><g id="link_sch_analysis_collect_cripto_current_price"><path d="M460.07,1108.3569 C502.34,1102.6169 554.21,1095.1469 600.5,1087.2969 C632.21,1081.9169 641.59,1085.1269 671.5,1073.2969 C675.4,1071.7569 675.62,1069.8869 679.5,1068.2969 C704.79,1057.9669 726.8583,1051.0981 754.0083,1044.5281 " fill="none" id="sch_analysis-to-collect_cripto_current_price-1" style="stroke:#181818;stroke-width:1.0;"/><polygon fill="#181818" points="759.84,1043.1169,750.1517,1041.3459,754.9803,1044.2929,752.0333,1049.1215,759.84,1043.1169" style="stroke:#181818;stroke-width:1.0;"/><text fill="#000000" font-family="sans-serif" font-size="13" lengthAdjust="spacing" textLength="61" x="609.5" y="1069.3638">&#171;include&#187;</text></g><!--link sch_analysis to collect_cripto_open_close--><g id="link_sch_analysis_collect_cripto_open_close"><path d="M457.4,1131.2769 C506.29,1133.4169 565.49,1126.2569 600.5,1087.2969 C617.67,1068.1969 595.16,878.2469 608.5,856.2969 C633.7,814.8369 672.6216,793.3993 719.4616,780.9393 " fill="none" id="sch_analysis-to-collect_cripto_open_close" style="stroke:#181818;stroke-width:1.0;"/><polygon fill="#181818" points="725.26,779.3969,715.5342,777.845,720.428,780.6822,717.5908,785.5761,725.26,779.3969" style="stroke:#181818;stroke-width:1.0;"/><text fill="#000000" font-family="sans-serif" font-size="13" lengthAdjust="spacing" textLength="61" x="609.5" y="799.3638">&#171;include&#187;</text></g><!--link sch_analysis to collect_ema8_relations--><g id="link_sch_analysis_collect_ema8_relations"><path d="M457.74,1131.1069 C506.44,1133.0969 565.32,1125.8369 600.5,1087.2969 C612.43,1074.2369 598.78,943.0769 608.5,928.2969 C642.68,876.2969 702.5476,857.6222 762.7576,851.8222 " fill="none" id="sch_analysis-to-collect_ema8_relations" style="stroke:#181818;stroke-width:1.0;"/><polygon fill="#181818" points="768.73,851.2469,759.3879,848.1283,763.753,851.7263,760.155,856.0914,768.73,851.2469" style="stroke:#181818;stroke-width:1.0;"/><text fill="#000000" font-family="sans-serif" font-size="13" lengthAdjust="spacing" textLength="61" x="609.5" y="874.3638">&#171;include&#187;</text></g><!--link sch_analysis to collect_volume_relations--><g id="link_sch_analysis_collect_volume_relations"><path d="M458.89,1130.6969 C507.08,1132.2869 565.01,1124.7369 600.5,1087.2969 C614.46,1072.5669 595.95,1012.2569 608.5,996.2969 C645.08,949.7669 701.3133,932.8952 758.6733,927.8252 " fill="none" id="sch_analysis-to-collect_volume_relations" style="stroke:#181818;stroke-width:1.0;"/><polygon fill="#181818" points="764.65,927.2969,755.3328,924.1048,759.6694,927.7371,756.0371,932.0738,764.65,927.2969" style="stroke:#181818;stroke-width:1.0;"/><text fill="#000000" font-family="sans-serif" font-size="13" lengthAdjust="spacing" textLength="61" x="609.5" y="946.3638">&#171;include&#187;</text></g><!--link sch_analysis to collect_expressive_volume_date--><g id="link_sch_analysis_collect_expressive_volume_date"><path d="M473.07,1118.5469 C543.89,1118.0069 635.5802,1117.3027 719.3802,1116.6627 " fill="none" id="sch_analysis-to-collect_expressive_volume_date" style="stroke:#181818;stroke-width:1.0;"/><polygon fill="#181818" points="725.38,1116.6169,716.3497,1112.6857,720.3801,1116.6551,716.4108,1120.6855,725.38,1116.6169" style="stroke:#181818;stroke-width:1.0;"/><text fill="#000000" font-family="sans-serif" font-size="13" lengthAdjust="spacing" textLength="61" x="609.5" y="1113.3638">&#171;include&#187;</text></g><!--link sch_analysis to collect_market_cap--><g id="link_sch_analysis_collect_market_cap"><path d="M460.06,1130.3369 C502.31,1136.1069 554.19,1143.5669 600.5,1151.2969 C659.15,1161.0869 718.1429,1172.2184 772.2629,1182.8684 " fill="none" id="sch_analysis-to-collect_market_cap" style="stroke:#181818;stroke-width:1.0;"/><polygon fill="#181818" points="778.15,1184.0269,770.0917,1178.3644,773.2441,1183.0615,768.547,1186.2139,778.15,1184.0269" style="stroke:#181818;stroke-width:1.0;"/><text fill="#000000" font-family="sans-serif" font-size="13" lengthAdjust="spacing" textLength="61" x="609.5" y="1150.3638">&#171;include&#187;</text></g><!--link sch_analysis to collect_emas_aligned--><g id="link_sch_analysis_collect_emas_aligned"><path d="M456.81,1131.4569 C505.95,1133.7869 565.64,1126.7869 600.5,1087.2969 C617.89,1067.5969 599.11,638.8469 608.5,614.2969 C625.72,569.2669 638.08,556.9569 679.5,532.2969 C700.4,519.8569 718.3807,512.2846 742.3307,505.4446 " fill="none" id="sch_analysis-to-collect_emas_aligned" style="stroke:#181818;stroke-width:1.0;"/><polygon fill="#181818" points="748.1,503.7969,738.3476,502.4222,743.2922,505.17,740.5445,510.1146,748.1,503.7969" style="stroke:#181818;stroke-width:1.0;"/><text fill="#000000" font-family="sans-serif" font-size="13" lengthAdjust="spacing" textLength="61" x="609.5" y="534.3638">&#171;include&#187;</text></g><!--link sch_analysis to collect_cripto_price_variations--><g id="link_sch_analysis_collect_cripto_price_variations"><path d="M456.76,1131.4069 C505.88,1133.7269 565.57,1126.7169 600.5,1087.2969 C614.83,1071.1169 598.7,717.5669 608.5,698.2969 C629.98,656.0669 665.3511,631.937 709.8811,615.747 " fill="none" id="sch_analysis-to-collect_cripto_price_variations" style="stroke:#181818;stroke-width:1.0;"/><polygon fill="#181818" points="715.52,613.6969,705.6949,613.0129,710.8209,615.4053,708.4285,620.5314,715.52,613.6969" style="stroke:#181818;stroke-width:1.0;"/><text fill="#000000" font-family="sans-serif" font-size="13" lengthAdjust="spacing" textLength="61" x="609.5" y="632.3638">&#171;include&#187;</text></g><!--SRC=[jLV1RkCs4BtxAmRkOIzh9BQ3TRfO1CW6Q65W2nIRTekU34QQs4GeKY0bfvkY7rFqiEYvw1VunpgKH9kKA4VPf04Sm-HmvisyuIDPy48WN2ak3LiZJE0wrrmMC1-D1DuMK2ZGVBqf8EKQau8hEM99eJICbtABfk2fqcDW1dZrKsat_HDckTByWJa3asmmBGKwW_TSCfaWNFwuhEPlwjzksaBwWUaxBAvOlZTAicGqia2ON1FkyGTSeqpP-FSHq9-vup9dccMGSNabc36_yBJOmFIqDIrLYWPpcBR6DPDtzNWruGLgoZ8TmpSVR3tUYn9xR6REvdkDA7kCvixeIcacAgDN4RCpP_Oh2g7kHty4sJlQEkcx_6QdeyRrTLDz0wL1I9X1usRokWeqReSfT6DANI6mO1gMybRfZEs-xFwbzIdHa2caBqVhAj4yBzIAarsxF5slIyaJJbulvUvFmGtklJ39n6V3JTk5XJWFdNtyxdHgUxMDz1gfT_00ZEnfmFYbXXFojr6bIE46mJIKmKrPKDKAe6x255wTkBfTLg3myQeHf3S4oI7PCirjnVvIO32pgTNzguGWJAvYzuXtLBQ4C9EFIDwpQDwnT9tdCEL32te-fkUUZrpZxeiYMX7O3UgYr0mGRZ7Pi0nbeMAmLOvobGYrnnmFix1Xc4XAGN4qYdq78L19pWFFTc1bRQp474T_rkzsgqIPOU2u7ZhYEjvUyu1BGOf4xZFK2UaPeIUr4XiRDOYLLNgrIaYmlgBZMX1cFjEguObMqEQhYA6D2CpVGosIab9hibjHl0HV04zTzmOFAsiC-5jkUvTlLK_vzmRec4XPyH9mPWiVZk2owTTQdtP_fxpw_cUBtBGxpQnemLgItxO6-osm25g0UstMS66rzYrCFx-6DzbhcDDdcj7UMQGnEYeQLfKi-7rOXsuQyIFIaLayhZMV-4D96JmGCA7Mn09LAiEsCcyvtW-IvaQwFAy48w5Yqj6ILRp6nSmFy9LAzeaR5zCNiyhp42Kx2ttqga7by1bIuCLuL0sgM2yl1Hw48MhWa_E_I867nwa15QEkiQSB1p1TAQZwXPaNWRGueN_V7ck7_PbJeuaTECz2S1u6RoWwUgxw97KErMUhey_G085qPHckZi6kUB90-iaVLKUwzCOliEv90PD9S8FiJ7Wgs9bhPCR6e5V6TUW-q4zQu1ufaIdxD3bwlVEM7psg- -sy5eaOjJewOj4Hm9YN-84TiVGahfL-q4JzwNH8RnNO7G3MUtYx7RLlkmq0ud3Pl4Cz7jtJr5hv9qjtmk-Jlic0r5whWD9UgmEXNPEGpkvycyo8Xrx1xTeUo8mYsTFPcqgRJCl5puu2EA0CNdgJoSNn9n6yXNVlw9SeKxouU7Hnk96UkDZRNKDNjhRSq6MTVJWuNdnp3bpjRTZdb7LuRGuYyBHu7M48b_y7]--></g></svg>
