<?xml version="1.0" encoding="us-ascii" standalone="no"?><svg xmlns="http://www.w3.org/2000/svg" xmlns:xlink="http://www.w3.org/1999/xlink" contentStyleType="text/css" height="2190px" preserveAspectRatio="none" style="width:1504px;height:2190px;background:#FFFFFF;" version="1.1" viewBox="0 0 1504 2190" width="1504px" zoomAndPan="magnify"><defs/><g><text fill="#000000" font-family="sans-serif" font-size="14" font-weight="bold" lengthAdjust="spacing" textLength="151" x="669.75" y="22.9951">Coinsage - Sprint 4</text><!--cluster Legenda--><g id="cluster_Legenda"><rect fill="none" height="199" rx="2.5" ry="2.5" style="stroke:#181818;stroke-width:1.0;" width="524.5" x="7" y="1985.2969"/><text fill="#000000" font-family="sans-serif" font-size="14" font-weight="bold" lengthAdjust="spacing" textLength="68" x="235.25" y="2000.292">Legenda</text></g><!--cluster Coinsage--><g id="cluster_Coinsage"><rect fill="none" height="1899" rx="2.5" ry="2.5" style="stroke:#181818;stroke-width:1.0;" width="1210" x="132.5" y="44.2969"/><text fill="#000000" font-family="sans-serif" font-size="14" font-weight="bold" lengthAdjust="spacing" textLength="73" x="701" y="59.292">Coinsage</text></g><!--entity Sprint 1--><g id="elem_Sprint 1"><rect fill="#ADD8E6" height="36.2969" rx="2.5" ry="2.5" style="stroke:#181818;stroke-width:0.5;" width="73" x="23" y="2132.2969"/><text fill="#000000" font-family="sans-serif" font-size="14" lengthAdjust="spacing" textLength="53" x="33" y="2155.292">Sprint 1</text></g><!--entity Sprint 2--><g id="elem_Sprint 2"><rect fill="#90EE90" height="36.2969" rx="2.5" ry="2.5" style="stroke:#181818;stroke-width:0.5;" width="73" x="23" y="2076.2969"/><text fill="#000000" font-family="sans-serif" font-size="14" lengthAdjust="spacing" textLength="53" x="33" y="2099.292">Sprint 2</text></g><!--entity Sprint 3--><g id="elem_Sprint 3"><rect fill="#F08080" height="36.2969" rx="2.5" ry="2.5" style="stroke:#181818;stroke-width:0.5;" width="73" x="23" y="2020.2969"/><text fill="#000000" font-family="sans-serif" font-size="14" lengthAdjust="spacing" textLength="53" x="33" y="2043.292">Sprint 3</text></g><!--entity Sprint 4--><g id="elem_Sprint 4"><rect fill="#FFFFE0" height="36.2969" rx="2.5" ry="2.5" style="stroke:#181818;stroke-width:0.5;" width="73" x="442.5" y="2132.2969"/><text fill="#000000" font-family="sans-serif" font-size="14" lengthAdjust="spacing" textLength="53" x="452.5" y="2155.292">Sprint 4</text></g><!--entity Sprint 5--><g id="elem_Sprint 5"><rect fill="#FFA07A" height="36.2969" rx="2.5" ry="2.5" style="stroke:#181818;stroke-width:0.5;" width="73" x="442.5" y="2076.2969"/><text fill="#000000" font-family="sans-serif" font-size="14" lengthAdjust="spacing" textLength="53" x="452.5" y="2099.292">Sprint 5</text></g><g id="elem_sch_cripto_info"><ellipse cx="478.7982" cy="1816.1565" fill="#ADD8E6" rx="162.2982" ry="34.8596" style="stroke:#181818;stroke-width:0.5;"/><text fill="#000000" font-family="sans-serif" font-size="14" lengthAdjust="spacing" textLength="296" x="330.7982" y="1819.0032">Schedule Coletar Informa&#231;&#245;es das moedas</text></g><g id="elem_sch_analysis"><ellipse cx="479.1147" cy="1739.4198" fill="#ADD8E6" rx="98.6147" ry="22.1229" style="stroke:#181818;stroke-width:0.5;"/><text fill="#000000" font-family="sans-serif" font-size="14" lengthAdjust="spacing" textLength="161" x="398.6147" y="1742.2665">Schedule Iniciar An&#225;lise</text></g><g id="elem_sch_sectors"><ellipse cx="478.8083" cy="1899.3585" fill="#F08080" rx="128.3083" ry="28.0617" style="stroke:#181818;stroke-width:0.5;"/><text fill="#000000" font-family="sans-serif" font-size="14" lengthAdjust="spacing" textLength="225" x="366.3083" y="1902.2052">RF02 - Schedule Coletar Setores</text></g><g id="elem_collect_cripto_week_incresse"><ellipse cx="1107.4468" cy="1474.3862" fill="#ADD8E6" rx="125.9468" ry="27.5894" style="stroke:#181818;stroke-width:0.5;"/><text fill="#000000" font-family="sans-serif" font-size="14" lengthAdjust="spacing" textLength="220" x="997.4468" y="1477.2329">RF01 - Coletar varia&#231;&#227;o semanal</text></g><g id="elem_collect_sectors"><ellipse cx="1107.3591" cy="1905.4687" fill="#90EE90" rx="96.3591" ry="21.6718" style="stroke:#181818;stroke-width:0.5;"/><text fill="#000000" font-family="sans-serif" font-size="14" lengthAdjust="spacing" textLength="156" x="1029.3591" y="1908.3154">RF02 - Coletar Setores</text></g><g id="elem_collect_cripto_open_close"><ellipse cx="1107.7327" cy="1560.3434" fill="#90EE90" rx="180.7327" ry="38.5465" style="stroke:#181818;stroke-width:0.5;"/><text fill="#000000" font-family="sans-serif" font-size="14" lengthAdjust="spacing" textLength="334" x="940.7327" y="1563.1901">RF14 - Coletar pre&#231;os de abertura e fechamento</text></g><g id="elem_collect_ema8_relations"><ellipse cx="1107.7292" cy="1651.3427" fill="#90EE90" rx="150.7292" ry="32.5458" style="stroke:#181818;stroke-width:0.5;"/><text fill="#000000" font-family="sans-serif" font-size="14" lengthAdjust="spacing" textLength="272" x="971.7292" y="1654.1894">RF15/RF17 - Calcular rela&#231;&#245;es de ema8</text></g><g id="elem_collect_volume_relations"><ellipse cx="1107.3697" cy="975.3708" fill="#90EE90" rx="175.8697" ry="37.5739" style="stroke:#181818;stroke-width:0.5;"/><text fill="#000000" font-family="sans-serif" font-size="14" lengthAdjust="spacing" textLength="324" x="945.3697" y="978.2175">RF09/RF10/RF11 - Calcular rela&#231;&#245;es de volume</text></g><g id="elem_collect_market_cap"><ellipse cx="1107.7163" cy="1828.1401" fill="#F08080" rx="164.7163" ry="35.3433" style="stroke:#181818;stroke-width:0.5;"/><text fill="#000000" font-family="sans-serif" font-size="14" lengthAdjust="spacing" textLength="301" x="957.2163" y="1830.9868">RF03 - Coletar valor de mercado em bilh&#245;es</text></g><g id="elem_collect_cripto_current_price"><ellipse cx="1107.4123" cy="1070.0793" fill="#F08080" rx="174.4123" ry="37.2825" style="stroke:#181818;stroke-width:0.5;"/><text fill="#000000" font-family="sans-serif" font-size="14" lengthAdjust="spacing" textLength="321" x="946.9123" y="1072.926">RF21 - Coletar o pre&#231;o no momento da an&#225;lise</text></g><g id="elem_collect_expressive_volume_date"><ellipse cx="1107.4903" cy="1173.2949" fill="#F08080" rx="212.9903" ry="44.9981" style="stroke:#181818;stroke-width:0.5;"/><text fill="#000000" font-family="sans-serif" font-size="14" lengthAdjust="spacing" textLength="400" x="907.4903" y="1176.1416">RF09/RF10/RF11 - Coletar aumento expressivo de volume</text></g><g id="elem_collect_emas_aligned"><ellipse cx="1107.3838" cy="1276.2736" fill="#F08080" rx="175.3838" ry="37.4768" style="stroke:#181818;stroke-width:0.5;"/><text fill="#000000" font-family="sans-serif" font-size="14" lengthAdjust="spacing" textLength="323" x="945.8838" y="1279.1203">RF17 - Coletar alinhamento das m&#233;dias m&#243;veis</text></g><g id="elem_collect_cripto_price_variations"><ellipse cx="1107.3794" cy="1380.4728" fill="#F08080" rx="218.8794" ry="46.1759" style="stroke:#181818;stroke-width:0.5;"/><text fill="#000000" font-family="sans-serif" font-size="14" lengthAdjust="spacing" textLength="412" x="901.3794" y="1383.3194">RF19 - Coletar vaia&#231;&#245;es de pre&#231;o para: 1y, 6m, 3m, 1m e 7d</text></g><g id="elem_view_cripto_info"><ellipse cx="478.8277" cy="457.1624" fill="#ADD8E6" rx="137.3277" ry="29.8655" style="stroke:#181818;stroke-width:0.5;"/><text fill="#000000" font-family="sans-serif" font-size="14" lengthAdjust="spacing" textLength="244" x="356.8277" y="460.0091">Vizualizar logo e nome das moedas</text></g><g id="elem_view_cripto_week_incresse"><ellipse cx="478.9805" cy="548.293" fill="#ADD8E6" rx="190.4805" ry="40.4961" style="stroke:#181818;stroke-width:0.5;"/><text fill="#000000" font-family="sans-serif" font-size="14" lengthAdjust="spacing" textLength="354" x="301.9805" y="551.1396">RF01 - Vizualizar porcentagem de varia&#231;&#227;o semanal</text></g><g id="elem_view_sectors"><ellipse cx="479.1608" cy="632.329" fill="#90EE90" rx="103.1608" ry="23.0322" style="stroke:#181818;stroke-width:0.5;"/><text fill="#000000" font-family="sans-serif" font-size="14" lengthAdjust="spacing" textLength="171" x="393.6608" y="635.1757">RF02 - Visualizar Setores</text></g><g id="elem_view_volume_relations"><ellipse cx="479.2327" cy="714.3434" fill="#90EE90" rx="180.7327" ry="38.5465" style="stroke:#181818;stroke-width:0.5;"/><text fill="#000000" font-family="sans-serif" font-size="14" lengthAdjust="spacing" textLength="334" x="312.2327" y="717.1901">RF09/RF10/RF11 - Visualizar rela&#231;&#245;es de volume</text></g><g id="elem_view_market_cap"><ellipse cx="478.985" cy="810.0939" fill="#F08080" rx="171.985" ry="36.797" style="stroke:#181818;stroke-width:0.5;"/><text fill="#000000" font-family="sans-serif" font-size="14" lengthAdjust="spacing" textLength="316" x="320.985" y="812.9406">RF03 - Visualizar valor de mercado em bilh&#245;es</text></g><g id="elem_view_cripto_current_price"><ellipse cx="479.2063" cy="906.5381" fill="#F08080" rx="181.7063" ry="38.7413" style="stroke:#181818;stroke-width:0.5;"/><text fill="#000000" font-family="sans-serif" font-size="14" lengthAdjust="spacing" textLength="336" x="311.2063" y="909.3848">RF21 - Visualizar o pre&#231;o no momento da an&#225;lise</text></g><g id="elem_view_expressive_volume_increase"><ellipse cx="478.8527" cy="1011.2674" fill="#F08080" rx="220.3527" ry="46.4705" style="stroke:#181818;stroke-width:0.5;"/><text fill="#000000" font-family="sans-serif" font-size="14" lengthAdjust="spacing" textLength="415" x="271.3527" y="1014.1141">RF09/RF10/RF11 - Visualizar aumento do volume expressivo</text></g><g id="elem_view_ema8_relations"><ellipse cx="479.0416" cy="1111.3052" fill="#F08080" rx="155.5416" ry="33.5083" style="stroke:#181818;stroke-width:0.5;"/><text fill="#000000" font-family="sans-serif" font-size="14" lengthAdjust="spacing" textLength="282" x="338.0416" y="1114.1519">RF15/RF17 - Visualizar rela&#231;&#245;es de ema8</text></g><g id="elem_view_cripto_open_close"><ellipse cx="479.1413" cy="1204.5251" fill="#F08080" rx="184.1413" ry="39.2283" style="stroke:#181818;stroke-width:0.5;"/><text fill="#000000" font-family="sans-serif" font-size="14" lengthAdjust="spacing" textLength="341" x="308.6413" y="1207.3718">RF14 - Visualizar pre&#231;o de abertura e fechamento</text></g><g id="elem_view_emas_aligned"><ellipse cx="479.1801" cy="1302.2329" fill="#F08080" rx="182.6801" ry="38.936" style="stroke:#181818;stroke-width:0.5;"/><text fill="#000000" font-family="sans-serif" font-size="14" lengthAdjust="spacing" textLength="338" x="310.1801" y="1305.0796">RF17 - Visualizar alinhamento das m&#233;dias m&#243;veis</text></g><g id="elem_view_cripto_price_variations"><ellipse cx="479.2491" cy="1409.4467" fill="#F08080" rx="226.2491" ry="47.6498" style="stroke:#181818;stroke-width:0.5;"/><text fill="#000000" font-family="sans-serif" font-size="14" lengthAdjust="spacing" textLength="427" x="265.7491" y="1412.2934">RF19 - Visualizar vaia&#231;&#245;es de pre&#231;o para: 1y, 6m, 3m, 1m e 7d</text></g><g id="elem_register_cripto"><ellipse cx="478.8656" cy="1511.27" fill="#FFFFE0" rx="160.3656" ry="34.4731" style="stroke:#181818;stroke-width:0.5;"/><text fill="#000000" font-family="sans-serif" font-size="14" lengthAdjust="spacing" textLength="292" x="332.8656" y="1514.1167">RF20 - Cadastrar compra de criptomoedas</text></g><g id="elem_view_xlsl"><ellipse cx="479.1658" cy="1631.33" fill="#FFFFE0" rx="315.6658" ry="65.5332" style="stroke:#181818;stroke-width:0.5;"/><text fill="#000000" font-family="sans-serif" font-size="14" lengthAdjust="spacing" textLength="608" x="175.1658" y="1634.1767">RF08, RF13, RF14, RF19 - Visualizar planilha xlsl com dados da an&#225;lise das criptomoedas</text></g><g id="elem_collect_rankings"><ellipse cx="1107.4172" cy="1738.4803" fill="#FFFFE0" rx="158.9172" ry="34.1834" style="stroke:#181818;stroke-width:0.5;"/><text fill="#000000" font-family="sans-serif" font-size="14" lengthAdjust="spacing" textLength="289" x="962.9172" y="1741.327">RF03 - Coletar rankings das criptomoedas</text></g><g id="elem_delete_cripto"><ellipse cx="478.9187" cy="107.4806" fill="#FFA07A" rx="126.4187" ry="27.6837" style="stroke:#181818;stroke-width:0.5;"/><text fill="#000000" font-family="sans-serif" font-size="14" lengthAdjust="spacing" textLength="221" x="368.4187" y="110.3273">RF23 - Excluir moeda da carteira</text></g><g id="elem_view_active_coins"><ellipse cx="479.0438" cy="223.3056" fill="#FFA07A" rx="330.5438" ry="68.5088" style="stroke:#181818;stroke-width:0.5;"/><text fill="#000000" font-family="sans-serif" font-size="14" lengthAdjust="spacing" textLength="638" x="160.0438" y="226.1523">RF24 - Visualizar hist&#243;rico de moedas ativas em sua carteira e os detalhes da aquisi&#231;&#227;o (xlsx)</text></g><g id="elem_view_monthly_profits"><ellipse cx="478.766" cy="359.2501" fill="#FFA07A" rx="225.266" ry="47.4532" style="stroke:#181818;stroke-width:0.5;"/><text fill="#000000" font-family="sans-serif" font-size="14" lengthAdjust="spacing" textLength="425" x="266.266" y="362.0968">RF25 - Visualizar lucros mensais das moedas da carteira (xlsx)</text></g><!--entity investor--><g id="elem_investor"><ellipse cx="59.5" cy="829.7969" fill="#F1F1F1" rx="8" ry="8" style="stroke:#181818;stroke-width:0.5;"/><path d="M59.5,837.7969 L59.5,864.7969 M46.5,845.7969 L72.5,845.7969 M59.5,864.7969 L46.5,879.7969 M59.5,864.7969 L72.5,879.7969 " fill="none" style="stroke:#181818;stroke-width:0.5;"/><text fill="#000000" font-family="sans-serif" font-size="14" lengthAdjust="spacing" textLength="67" x="26" y="894.292">Investidor</text></g><!--entity schedule--><g id="elem_schedule"><ellipse cx="59.5" cy="1828.7969" fill="#F1F1F1" rx="8" ry="8" style="stroke:#181818;stroke-width:0.5;"/><path d="M59.5,1836.7969 L59.5,1863.7969 M46.5,1844.7969 L72.5,1844.7969 M59.5,1863.7969 L46.5,1878.7969 M59.5,1863.7969 L72.5,1878.7969 " fill="none" style="stroke:#181818;stroke-width:0.5;"/><text fill="#000000" font-family="sans-serif" font-size="14" lengthAdjust="spacing" textLength="96" x="11.5" y="1893.292">Temporizador</text></g><!--entity binance--><g id="elem_binance"><ellipse cx="1432.5" cy="1204.7969" fill="#F1F1F1" rx="8" ry="8" style="stroke:#181818;stroke-width:0.5;"/><path d="M1432.5,1212.7969 L1432.5,1239.7969 M1419.5,1220.7969 L1445.5,1220.7969 M1432.5,1239.7969 L1419.5,1254.7969 M1432.5,1239.7969 L1445.5,1254.7969 " fill="none" style="stroke:#181818;stroke-width:0.5;"/><text fill="#000000" font-family="sans-serif" font-size="14" lengthAdjust="spacing" textLength="81" x="1392" y="1269.292">Binance API</text></g><!--entity cmc--><g id="elem_cmc"><ellipse cx="1432.5" cy="1836.7969" fill="#F1F1F1" rx="8" ry="8" style="stroke:#181818;stroke-width:0.5;"/><path d="M1432.5,1844.7969 L1432.5,1871.7969 M1419.5,1852.7969 L1445.5,1852.7969 M1432.5,1871.7969 L1419.5,1886.7969 M1432.5,1871.7969 L1445.5,1886.7969 " fill="none" style="stroke:#181818;stroke-width:0.5;"/><text fill="#000000" font-family="sans-serif" font-size="14" lengthAdjust="spacing" textLength="130" x="1367.5" y="1901.292">CoinMarketCap API</text></g><!--link schedule to sch_analysis--><g id="link_schedule_sch_analysis"><path d="M78.9,1820.0769 C89.61,1802.1569 104.9,1782.3469 124.5,1771.2969 C207.03,1724.7669 317.94,1722.5769 393.36,1728.2669 " fill="none" id="schedule-sch_analysis" style="stroke:#181818;stroke-width:1.0;"/></g><!--link schedule to sch_cripto_info--><g id="link_schedule_sch_cripto_info"><path d="M107.55,1848.5269 C110.23,1848.0869 112.9,1847.6669 115.5,1847.2969 C183.04,1837.6869 258.11,1830.6669 322.33,1825.7669 " fill="none" id="schedule-sch_cripto_info" style="stroke:#181818;stroke-width:1.0;"/></g><!--link schedule to sch_sectors--><g id="link_schedule_sch_sectors"><path d="M107.58,1862.9169 C168.68,1868.9169 277.38,1879.5969 361.29,1887.8369 " fill="none" id="schedule-sch_sectors" style="stroke:#181818;stroke-width:1.0;"/></g><!--link schedule to collect_rankings--><g id="link_schedule_collect_rankings"><path d="M81.25,1896.6769 C91.92,1912.3169 106.5,1928.7069 124.5,1937.2969 C261.9,2002.8169 679.6,2016.6569 809.5,1937.2969 C875.14,1897.1969 827.27,1829.8669 888.5,1783.2969 C908.88,1767.7969 933.31,1757.3069 958.33,1750.2769 " fill="none" id="schedule-collect_rankings" style="stroke:#181818;stroke-width:1.0;"/></g><!--link register_cripto to binance--><g id="link_register_cripto_binance"><path d="M612.55,1530.4469 C681.67,1532.3869 761.57,1520.4469 809.5,1466.2969 C830.71,1442.3269 794.71,912.7669 817.5,890.2969 C989.01,721.1469 1172.53,738.4069 1359.5,890.2969 C1406.56,928.5269 1423.95,1114.7369 1429.37,1196.1169 " fill="none" id="register_cripto-binance" style="stroke:#181818;stroke-width:1.0;"/></g><!--link sch_cripto_info to binance--><g id="link_sch_cripto_info_binance"><path d="M614.71,1835.5769 C683.37,1837.2369 762.15,1824.9969 809.5,1771.2969 C823.94,1754.9169 808.04,1004.9769 817.5,985.2969 C835.15,948.5769 850.12,940.9769 888.5,927.2969 C985.2,892.8169 1269.17,864.6369 1350.5,927.2969 C1393.13,960.1369 1417.85,1121.4669 1427.18,1196.1869 " fill="none" id="sch_cripto_info-binance" style="stroke:#181818;stroke-width:1.0;"/></g><!--link sch_cripto_info to cmc--><g id="link_sch_cripto_info_cmc"><path d="M641.31,1818.1669 C696.81,1823.9569 757.92,1836.3269 809.5,1861.2969 C853.35,1882.5269 843.31,1919.0869 888.5,1937.2969 C1078.95,2014.0369 1158.32,2009.6069 1350.5,1937.2969 C1368.7,1930.4469 1385.48,1917.4469 1398.99,1904.4169 " fill="none" id="sch_cripto_info-cmc" style="stroke:#181818;stroke-width:1.0;"/></g><!--link collect_cripto_week_incresse to binance--><g id="link_collect_cripto_week_incresse_binance"><path d="M1226.83,1483.2269 C1271.1,1480.1669 1318.38,1468.2269 1350.5,1436.2969 C1366.15,1420.7369 1351.91,1408.3569 1358.5,1387.2969 C1371.3,1346.4369 1393.13,1302.5969 1409.59,1272.3669 " fill="none" id="collect_cripto_week_incresse-binance" style="stroke:#181818;stroke-width:1.0;"/></g><!--link collect_cripto_current_price to binance--><g id="link_collect_cripto_current_price_binance"><path d="M1269.52,1084.3369 C1298.03,1091.6769 1326.29,1102.4869 1350.5,1118.2969 C1379.39,1137.1669 1400.97,1170.2669 1414.56,1196.2869 " fill="none" id="collect_cripto_current_price-binance" style="stroke:#181818;stroke-width:1.0;"/></g><!--link collect_cripto_open_close to binance--><g id="link_collect_cripto_open_close_binance"><path d="M1281.67,1550.0869 C1307.02,1542.1069 1331.07,1530.0869 1350.5,1512.2969 C1352.77,1510.2169 1399.16,1347.9469 1420.69,1272.3169 " fill="none" id="collect_cripto_open_close-binance" style="stroke:#181818;stroke-width:1.0;"/></g><!--link collect_ema8_relations to binance--><g id="link_collect_ema8_relations_binance"><path d="M1257.9,1652.8469 C1292,1646.2869 1325.51,1633.2869 1350.5,1609.2969 C1398.79,1562.9369 1421.18,1358.2069 1428.58,1272.3669 " fill="none" id="collect_ema8_relations-binance" style="stroke:#181818;stroke-width:1.0;"/></g><!--link collect_volume_relations to binance--><g id="link_collect_volume_relations_binance"><path d="M1277.3,985.2169 C1303.92,992.9269 1329.53,1004.6769 1350.5,1022.2969 C1402.84,1066.2769 1421.44,1148.0169 1427.99,1196.1369 " fill="none" id="collect_volume_relations-binance" style="stroke:#181818;stroke-width:1.0;"/></g><!--link collect_expressive_volume_date to binance--><g id="link_collect_expressive_volume_date_binance"><path d="M1267.16,1203.2569 C1313.43,1211.9969 1360.01,1220.7969 1391.7,1226.7769 " fill="none" id="collect_expressive_volume_date-binance" style="stroke:#181818;stroke-width:1.0;"/></g><!--link collect_market_cap to cmc--><g id="link_collect_market_cap_cmc"><path d="M1252.52,1845.2369 C1292.73,1849.9669 1334.4,1854.8769 1367.4,1858.7569 " fill="none" id="collect_market_cap-cmc" style="stroke:#181818;stroke-width:1.0;"/></g><!--link collect_emas_aligned to binance--><g id="link_collect_emas_aligned_binance"><path d="M1257.71,1256.8969 C1307.13,1250.4669 1358.1,1243.8369 1391.95,1239.4369 " fill="none" id="collect_emas_aligned-binance" style="stroke:#181818;stroke-width:1.0;"/></g><!--link collect_cripto_price_variations to binance--><g id="link_collect_cripto_price_variations_binance"><path d="M1283,1352.6269 C1306.58,1345.0969 1329.76,1335.4969 1350.5,1323.2969 C1371.93,1310.6869 1390.94,1290.5669 1405.15,1272.6469 " fill="none" id="collect_cripto_price_variations-binance" style="stroke:#181818;stroke-width:1.0;"/></g><!--link sch_sectors to collect_sectors--><g id="link_sch_sectors_collect_sectors"><path d="M607.54,1900.5169 C727.03,1901.6669 902.96,1903.3469 1010.84,1904.3769 " fill="none" id="sch_sectors-collect_sectors" style="stroke:#181818;stroke-width:1.0;"/></g><!--link collect_sectors to cmc--><g id="link_collect_sectors_cmc"><path d="M1192.94,1895.0969 C1247.52,1888.5069 1317.44,1880.0669 1367.45,1874.0269 " fill="none" id="collect_sectors-cmc" style="stroke:#181818;stroke-width:1.0;"/></g><!--link collect_rankings to binance--><g id="link_collect_rankings_binance"><path d="M1266.49,1737.4669 C1297.79,1730.1869 1327.92,1717.0069 1350.5,1694.2969 C1409.54,1634.9269 1426.04,1372.0269 1430.21,1272.5869 " fill="none" id="collect_rankings-binance" style="stroke:#181818;stroke-width:1.0;"/></g><!--link collect_rankings to cmc--><g id="link_collect_rankings_cmc"><path d="M1255.42,1750.7869 C1288.02,1757.5369 1321.48,1767.7869 1350.5,1783.2969 C1370.74,1794.1169 1389.02,1811.7569 1403.07,1827.9969 " fill="none" id="collect_rankings-cmc" style="stroke:#181818;stroke-width:1.0;"/></g><!--link view_monthly_profits to binance--><g id="link_view_monthly_profits_binance"><path d="M682.37,380.0569 C725.39,388.5369 769.79,400.4769 809.5,417.2969 C1082.92,533.0969 1191.26,558.6769 1350.5,809.2969 C1391.49,873.8069 1418.5,1104.3169 1427.85,1196.1469 " fill="none" id="view_monthly_profits-binance" style="stroke:#181818;stroke-width:1.0;"/></g><!--link investor to view_sectors--><g id="link_investor_view_sectors"><path d="M61.35,821.0469 C64.59,776.0869 77.34,702.8569 124.5,665.2969 C202.49,603.1769 323.05,606.3869 401.25,617.1669 " fill="none" id="investor-view_sectors" style="stroke:#181818;stroke-width:1.0;"/></g><!--link investor to view_cripto_info--><g id="link_investor_view_cripto_info"><path d="M61.67,821.1869 C65.09,737.3669 77.99,540.9969 124.5,497.2969 C189.32,436.3969 293.07,431.3569 371.44,438.5969 " fill="none" id="investor-view_cripto_info" style="stroke:#181818;stroke-width:1.0;"/></g><!--link investor to view_cripto_week_incresse--><g id="link_investor_view_cripto_week_incresse"><path d="M64.67,821.2569 C72.58,756.4569 91.95,628.7969 124.5,599.2969 C171.13,557.0269 236.36,540.2569 298.1,535.4169 " fill="none" id="investor-view_cripto_week_incresse" style="stroke:#181818;stroke-width:1.0;"/></g><!--link investor to view_cripto_current_price--><g id="link_investor_view_cripto_current_price"><path d="M93.26,862.9869 C141.61,868.4269 235.29,878.9769 318.1,888.2969 " fill="none" id="investor-view_cripto_current_price" style="stroke:#181818;stroke-width:1.0;"/></g><!--link investor to view_cripto_open_close--><g id="link_investor_view_cripto_open_close"><path d="M63.47,897.5669 C69.85,969.2869 87.41,1119.8269 124.5,1154.2969 C173.42,1199.7669 243.78,1215.8169 308.87,1219.1569 " fill="none" id="investor-view_cripto_open_close" style="stroke:#181818;stroke-width:1.0;"/></g><!--link investor to view_ema8_relations--><g id="link_investor_view_ema8_relations"><path d="M60.53,897.4669 C62.8,945.0669 74.43,1025.2869 124.5,1067.2969 C184.08,1117.2869 270.42,1128.7769 342.86,1127.5369 " fill="none" id="investor-view_ema8_relations" style="stroke:#181818;stroke-width:1.0;"/></g><!--link investor to view_volume_relations--><g id="link_investor_view_volume_relations"><path d="M76.46,821.0369 C87.03,800.5469 102.95,776.8169 124.5,763.2969 C175.94,731.0269 239.8,716.2869 299.03,710.3769 " fill="none" id="investor-view_volume_relations" style="stroke:#181818;stroke-width:1.0;"/></g><!--link investor to view_expressive_volume_increase--><g id="link_investor_view_expressive_volume_increase"><path d="M76.92,897.4669 C87.56,917.5769 103.39,940.7969 124.5,954.2969 C164.96,980.1669 213.19,995.6169 260.82,1004.5769 " fill="none" id="investor-view_expressive_volume_increase" style="stroke:#181818;stroke-width:1.0;"/></g><!--link investor to view_market_cap--><g id="link_investor_view_market_cap"><path d="M93.03,853.6869 C100.41,852.4969 108.21,851.2969 115.5,850.2969 C183.09,841.0469 258,832.4969 322.1,825.6969 " fill="none" id="investor-view_market_cap" style="stroke:#181818;stroke-width:1.0;"/></g><!--link investor to view_emas_aligned--><g id="link_investor_view_emas_aligned"><path d="M61.14,897.3069 C63.48,986.2769 74.31,1204.2669 124.5,1253.2969 C173.92,1301.5769 247.34,1317.0969 314.5,1319.2269 " fill="none" id="investor-view_emas_aligned" style="stroke:#181818;stroke-width:1.0;"/></g><!--link investor to view_cripto_price_variations--><g id="link_investor_view_cripto_price_variations"><path d="M59.84,897.5369 C58.89,1001.6669 62.14,1286.8269 124.5,1351.2969 C158.87,1386.8369 205.99,1405.8969 254.62,1415.2769 " fill="none" id="investor-view_cripto_price_variations" style="stroke:#181818;stroke-width:1.0;"/></g><!--link investor to view_xlsl--><g id="link_investor_view_xlsl"><path d="M61.4,897.5369 C65.03,1036.1669 80.5,1506.7969 124.5,1556.2969 C142.94,1577.0469 165.57,1592.8669 190.39,1604.8369 " fill="none" id="investor-view_xlsl" style="stroke:#181818;stroke-width:1.0;"/></g><!--link investor to register_cripto--><g id="link_investor_register_cripto"><path d="M61.82,897.4469 C66.56,1024.1869 84.62,1425.5469 124.5,1466.2969 C180.97,1523.9969 271.73,1534.5669 347.14,1531.0569 " fill="none" id="investor-register_cripto" style="stroke:#181818;stroke-width:1.0;"/></g><!--link investor to view_monthly_profits--><g id="link_investor_view_monthly_profits"><path d="M60.47,821.1169 C61.24,724.5469 68.7,474.1569 124.5,417.2969 C159.13,382.0069 206.34,363.0469 254.98,353.6669 " fill="none" id="investor-view_monthly_profits" style="stroke:#181818;stroke-width:1.0;"/></g><!--link investor to view_active_coins--><g id="link_investor_view_active_coins"><path d="M62.35,821.0369 C68.46,701.3869 89.68,339.8969 124.5,301.2969 C141.86,282.0469 162.81,266.9769 185.73,255.2369 " fill="none" id="investor-view_active_coins" style="stroke:#181818;stroke-width:1.0;"/></g><!--link investor to delete_cripto--><g id="link_investor_delete_cripto"><path d="M61.14,820.8869 C63.88,679.3769 76.72,192.7969 124.5,144.2969 C191.62,76.1569 307.05,76.9669 387.69,88.2169 " fill="none" id="investor-delete_cripto" style="stroke:#181818;stroke-width:1.0;"/></g><!--link sch_analysis to collect_cripto_week_incresse--><g id="link_sch_analysis_collect_cripto_week_incresse"><path d="M547.18,1755.2769 C622.4,1768.7369 742.49,1776.2069 809.5,1707.2969 C827.51,1688.7769 807.43,1615.0869 817.5,1591.2969 C835.9,1547.8269 847.2,1535.1669 888.5,1512.2969 C917.74,1496.1069 946.375,1487.5431 979.235,1481.9531 " fill="none" id="sch_analysis-to-collect_cripto_week_incresse" style="stroke:#181818;stroke-width:1.0;"/><polygon fill="#181818" points="985.15,1480.9469,975.6066,1478.5129,980.2208,1481.7854,976.9483,1486.3996,985.15,1480.9469" style="stroke:#181818;stroke-width:1.0;"/><text fill="#000000" font-family="sans-serif" font-size="13" lengthAdjust="spacing" textLength="61" x="818.5" y="1513.3638">&#171;include&#187;</text></g><!--link sch_analysis to collect_cripto_current_price--><g id="link_sch_analysis_collect_cripto_current_price"><path d="M545.82,1755.5269 C621.5,1769.7969 743.74,1778.5869 809.5,1707.2969 C828.15,1687.0769 806.67,1237.5769 817.5,1212.2969 C832.97,1176.1869 861.01,1184.4069 880.5,1150.2969 C887.77,1137.5669 877.99,1128.5169 888.5,1118.2969 C904.41,1102.8269 918.465,1093.9477 939.465,1086.2677 " fill="none" id="sch_analysis-to-collect_cripto_current_price" style="stroke:#181818;stroke-width:1.0;"/><polygon fill="#181818" points="945.1,1084.2069,935.2736,1083.5414,940.4042,1085.9242,938.0214,1091.0547,945.1,1084.2069" style="stroke:#181818;stroke-width:1.0;"/><text fill="#000000" font-family="sans-serif" font-size="13" lengthAdjust="spacing" textLength="61" x="818.5" y="1146.3638">&#171;include&#187;</text></g><!--link sch_analysis to collect_cripto_current_price--><g id="link_sch_analysis_collect_cripto_current_price"><path d="M545.85,1755.5469 C621.56,1769.8469 743.82,1778.6569 809.5,1707.2969 C831.13,1683.7869 797.25,1157.0069 817.5,1132.2969 C845.97,1097.5769 882.8609,1080.5452 926.8209,1071.5852 " fill="none" id="sch_analysis-to-collect_cripto_current_price-1" style="stroke:#181818;stroke-width:1.0;"/><polygon fill="#181818" points="932.7,1070.3869,923.0825,1068.2649,927.8007,1071.3855,924.6802,1076.1037,932.7,1070.3869" style="stroke:#181818;stroke-width:1.0;"/><text fill="#000000" font-family="sans-serif" font-size="13" lengthAdjust="spacing" textLength="61" x="818.5" y="1083.3638">&#171;include&#187;</text></g><!--link sch_analysis to collect_cripto_open_close--><g id="link_sch_analysis_collect_cripto_open_close"><path d="M551.35,1754.2469 C625.16,1765.2369 739.27,1769.0769 809.5,1707.2969 C821.48,1696.7569 809.37,1686.0269 817.5,1672.2969 C839,1635.9969 850.95,1628.5269 888.5,1609.2969 C910.6,1597.9769 929.4824,1590.8392 954.0624,1584.1192 " fill="none" id="sch_analysis-to-collect_cripto_open_close" style="stroke:#181818;stroke-width:1.0;"/><polygon fill="#181818" points="959.85,1582.5369,950.1137,1581.0519,955.027,1583.8555,952.2235,1588.7687,959.85,1582.5369" style="stroke:#181818;stroke-width:1.0;"/><text fill="#000000" font-family="sans-serif" font-size="13" lengthAdjust="spacing" textLength="61" x="818.5" y="1609.3638">&#171;include&#187;</text></g><!--link sch_analysis to collect_ema8_relations--><g id="link_sch_analysis_collect_ema8_relations"><path d="M572.94,1732.5069 C639.09,1727.1269 729.98,1718.6269 809.5,1707.2969 C844.95,1702.2469 921.1511,1687.8063 990.0611,1674.3563 " fill="none" id="sch_analysis-to-collect_ema8_relations" style="stroke:#181818;stroke-width:1.0;"/><polygon fill="#181818" points="995.95,1673.2069,986.3504,1671.0051,991.0426,1674.1647,987.883,1678.8569,995.95,1673.2069" style="stroke:#181818;stroke-width:1.0;"/><text fill="#000000" font-family="sans-serif" font-size="13" lengthAdjust="spacing" textLength="61" x="818.5" y="1690.3638">&#171;include&#187;</text></g><!--link sch_analysis to collect_volume_relations--><g id="link_sch_analysis_collect_volume_relations"><path d="M545.86,1755.5669 C621.59,1769.8769 743.87,1778.7069 809.5,1707.2969 C821.57,1694.1669 808.65,1080.7769 817.5,1065.2969 C842.47,1021.6169 883.376,999.4993 932.086,987.0793 " fill="none" id="sch_analysis-to-collect_volume_relations" style="stroke:#181818;stroke-width:1.0;"/><polygon fill="#181818" points="937.9,985.5969,928.1907,983.9445,933.055,986.8322,930.1673,991.6965,937.9,985.5969" style="stroke:#181818;stroke-width:1.0;"/><text fill="#000000" font-family="sans-serif" font-size="13" lengthAdjust="spacing" textLength="61" x="818.5" y="1003.3638">&#171;include&#187;</text></g><!--link sch_analysis to collect_expressive_volume_date--><g id="link_sch_analysis_collect_expressive_volume_date"><path d="M545.77,1755.4769 C621.41,1769.7069 743.6,1778.4569 809.5,1707.2969 C824.56,1691.0269 809.42,1328.9469 817.5,1308.2969 C834.82,1264.0269 847.87,1252.9869 888.5,1228.2969 C905.76,1217.8069 919.2874,1211.2905 938.9274,1204.4105 " fill="none" id="sch_analysis-to-collect_expressive_volume_date" style="stroke:#181818;stroke-width:1.0;"/><polygon fill="#181818" points="944.59,1202.4269,934.7737,1201.6273,939.8712,1204.0799,937.4185,1209.1774,944.59,1202.4269" style="stroke:#181818;stroke-width:1.0;"/><text fill="#000000" font-family="sans-serif" font-size="13" lengthAdjust="spacing" textLength="61" x="818.5" y="1230.3638">&#171;include&#187;</text></g><!--link sch_analysis to collect_market_cap--><g id="link_sch_analysis_collect_market_cap"><path d="M572.95,1746.0069 C639.11,1751.3469 730,1759.8369 809.5,1771.2969 C869.39,1779.9369 929.6688,1791.1588 984.3188,1802.1988 " fill="none" id="sch_analysis-to-collect_market_cap" style="stroke:#181818;stroke-width:1.0;"/><polygon fill="#181818" points="990.2,1803.3869,982.1703,1797.684,985.299,1802.3968,980.5862,1805.5256,990.2,1803.3869" style="stroke:#181818;stroke-width:1.0;"/><text fill="#000000" font-family="sans-serif" font-size="13" lengthAdjust="spacing" textLength="61" x="818.5" y="1768.3638">&#171;include&#187;</text></g><!--link sch_analysis to collect_emas_aligned--><g id="link_sch_analysis_collect_emas_aligned"><path d="M546.02,1755.4669 C621.6,1769.5769 743.46,1778.1269 809.5,1707.2969 C820.79,1695.1869 811.64,1424.7869 817.5,1409.2969 C834.9,1363.2569 846.43,1349.8469 888.5,1324.2969 C909.2,1311.7269 927.0248,1304.0889 950.8548,1297.2189 " fill="none" id="sch_analysis-to-collect_emas_aligned" style="stroke:#181818;stroke-width:1.0;"/><polygon fill="#181818" points="956.62,1295.5569,946.8642,1294.2065,951.8157,1296.9419,949.0802,1301.8934,956.62,1295.5569" style="stroke:#181818;stroke-width:1.0;"/><text fill="#000000" font-family="sans-serif" font-size="13" lengthAdjust="spacing" textLength="61" x="818.5" y="1326.3638">&#171;include&#187;</text></g><!--link sch_analysis to collect_cripto_price_variations--><g id="link_sch_analysis_collect_cripto_price_variations"><path d="M546.22,1755.3969 C621.7,1769.3569 743.17,1777.6669 809.5,1707.2969 C825.67,1690.1469 807.09,1516.4469 817.5,1495.2969 C839.27,1451.0869 876.6011,1425.837 922.8911,1409.007 " fill="none" id="sch_analysis-to-collect_cripto_price_variations" style="stroke:#181818;stroke-width:1.0;"/><polygon fill="#181818" points="928.53,1406.9569,918.7049,1406.2729,923.8309,1408.6653,921.4385,1413.7914,928.53,1406.9569" style="stroke:#181818;stroke-width:1.0;"/><text fill="#000000" font-family="sans-serif" font-size="13" lengthAdjust="spacing" textLength="61" x="818.5" y="1427.3638">&#171;include&#187;</text></g><!--link sch_analysis to collect_rankings--><g id="link_sch_analysis_collect_rankings"><path d="M577.55,1739.1369 C676.6,1738.9869 825.58,1738.7466 942.23,1738.5566 " fill="none" id="sch_analysis-to-collect_rankings" style="stroke:#181818;stroke-width:1.0;"/><polygon fill="#181818" points="948.23,1738.5469,939.2235,1734.5615,943.23,1738.555,939.2365,1742.5615,948.23,1738.5469" style="stroke:#181818;stroke-width:1.0;"/><text fill="#000000" font-family="sans-serif" font-size="13" lengthAdjust="spacing" textLength="61" x="818.5" y="1734.3638">&#171;include&#187;</text></g><!--SRC=[jLZRRjms47tVho3SXxI03U_wqbmG672CjZ2G04NS9kZJWgR6kuGfKIMfZUsY7rFq8UXpq2_O7-kG4hKa9Qtbs3LW2KiEPmvd3Wz96Mu4a3F92qqNGFR8HQbuOSZHP2BWoX0ZYUABfI4PLy0CbyM4CYCLsJalLg0DpwJQ8LGJxdvAvRj_WRoKYjzHRw3P4h9AW3TummjQC22dFv-x_ilwj- -saDvHTGtcZ9Qj4SlPP6A1q6A1k7VUmWAAZExyCI7ufwzvKL95SvBpuanGhJ_op2p9R9fq5p833IMP9UsA5jTrk-i80ZLfcUsGRzxQVBmH5GpO77YRdnH0CM1qw8tEfA9YmEZ86_q6GiXF0rR7tkg2YXphysUK8L_QJefy3WwczMIVaOkcGffK6WYZ6hJlAUjCORjjnj2DAJ97WA6Ad1TNKkLq_NdzBuxFi5Iv17pvqi-PugMHSuvsQGgxNiyBpZXwFItMVmckeVL22ofkDTUf2mlnC7Rs_iVfWULpYlG2a5-m0ORssA33Sf1zzBUKbSZ89H3Tb9LSLWQpPWWo3ZBoRD_dxTI1WlkpXf1c2CaZML75RSR-baH3RgTMSrmAWPXynZu1N6FQ66967ptpFkYTTzzqlUTuoXkQ1ZvcHu6FKi7wiyIo0g6Ne4obA05o1Mn9SoYCx8CjIoZcJCWMSt-OutryFBUng62Lm60AH4iZ89YN5v5xsp2tDbQBjavX-jBwdjh7R3Z0IeegXoX4tRGbI3_R3gFI2XGnT9-3OYY1E0yKEB6qKQDOkPEuEKED-me29X0EGdR9fcmu0jUYgnEkIqB39PNKZ5LAeTqSup5u0Znf1HfajAhHm4rfISrNSg0GhG7uccJKF0Mmcd4UZk15G-HQkDR_PDozlwo0wvHzUeu35WNwJGKy3F0o8WCF2DTKnOhmApAxtINVvxla4FzdEIwgvrbVOLn1vaulGaRMeHjAlWVSRytz8lI1trKuWpi49kG2gu2PoY6Lx1M7JwCqkz6qm2l2O9XCt7DoLzT-bGi3VAN4VU3QnmnLpdaU8N49EmDlWmhXN3z27e8Ozog4Y_NqyX106ACGOPd-Pta8a7c5mBJKsGwqOWEhAm-EGrG_YKIqEzCWCTgzgKRJjp4z2i5H7BmfrjPDE2nNPmT-j6A65HeXcZujunKpMXyF5irmycCKyoD5aJKUn4OmZpeBP-hE3pXFen0Qatc9oKTOTR10DXKik3QW6XZTutj8_nUx1ETzw9v7xfdae1IqG4cWv4PeOSDYgZDx3jiiKfVy3WoN2JTeAu3mn6AlFhnOw7w7VZzghJf-RUAEEucp4NwuOQBYgjvTB7P6bG6kgFES0SQ7E5_DHIPrbgo79MPw_GNhxDP43PPWjLVuGZ55kpOISiGTNmqLIwZpztl5DQ-tfMynKpVVRHA7Dr2hASpUdBOZEeuHYOefZ8EhGbCUteB2MNV2eMEp5BT8MNd5JHBHtkRwRsR-FatszgAhKQSZsCKxVSqs6RMdjRO0yFvz4SHEQOwZ_FKzlUjjxxBt-QttdM3uriFgi5qWWpr6YMhtM7Is-pul_GVL7ijWGq-c7mdby7GwmfOas1zyWaBw8gVNlmH0kxPxWeTzTamlSODnI9dpveDGG1l_ZSXQXgUqRaV8sQ7EY2Y3LX5D1gqs9EcQn1JfzgS4wV4mU53fscu8qekafSZWL5A2T0tjnX2r9ikv1rHSwQv1A9bHRoJl4ykBNpqTo2PZqQUTlRsJxTz0o2lo-ZN-4bK69oVt3ew5ue630_KOEpAHbB73EZepEbw_-8mS7GZIOz8wFZSRaNjOl8xmZHpUIbTi_ny0]--></g></svg>
