<?xml version="1.0" encoding="us-ascii" standalone="no"?><svg xmlns="http://www.w3.org/2000/svg" xmlns:xlink="http://www.w3.org/1999/xlink" contentStyleType="text/css" height="919px" preserveAspectRatio="none" style="width:670px;height:919px;background:#FFFFFF;" version="1.1" viewBox="0 0 670 919" width="670px" zoomAndPan="magnify"><defs/><g><text fill="#000000" font-family="sans-serif" font-size="14" font-weight="bold" lengthAdjust="spacing" textLength="423" x="116.75" y="22.9951">Diagrama de Classes de Dom&#237;nio | Coinsage - Sprint 3</text><!--class Cryptocurrency--><g id="elem_Cryptocurrency"><rect codeLine="3" fill="#F1F1F1" height="194.6719" id="Cryptocurrency" rx="2.5" ry="2.5" style="stroke:#181818;stroke-width:0.5;" width="203" x="7" y="44.2969"/><ellipse cx="51.75" cy="60.2969" fill="#ADD1B2" rx="11" ry="11" style="stroke:#181818;stroke-width:1.0;"/><path d="M54.7188,65.9375 Q54.1406,66.2344 53.5,66.375 Q52.8594,66.5313 52.1563,66.5313 Q49.6563,66.5313 48.3281,64.8906 Q47.0156,63.2344 47.0156,60.1094 Q47.0156,56.9844 48.3281,55.3281 Q49.6563,53.6719 52.1563,53.6719 Q52.8594,53.6719 53.5,53.8281 Q54.1563,53.9844 54.7188,54.2813 L54.7188,57 Q54.0938,56.4219 53.5,56.1563 Q52.9063,55.875 52.2813,55.875 Q50.9375,55.875 50.25,56.9531 Q49.5625,58.0156 49.5625,60.1094 Q49.5625,62.2031 50.25,63.2813 Q50.9375,64.3438 52.2813,64.3438 Q52.9063,64.3438 53.5,64.0781 Q54.0938,63.7969 54.7188,63.2188 L54.7188,65.9375 Z " fill="#000000"/><text fill="#000000" font-family="sans-serif" font-size="14" lengthAdjust="spacing" textLength="105" x="72.25" y="65.1436">Cryptocurrency</text><line style="stroke:#181818;stroke-width:0.5;" x1="8" x2="209" y1="76.2969" y2="76.2969"/><rect fill="none" height="6" style="stroke:#C82930;stroke-width:1.0;" width="6" x="15" y="86.9453"/><text fill="#000000" font-family="sans-serif" font-size="14" lengthAdjust="spacing" textLength="73" x="27" y="93.292">uuid: UUID</text><rect fill="none" height="6" style="stroke:#C82930;stroke-width:1.0;" width="6" x="15" y="103.2422"/><text fill="#000000" font-family="sans-serif" font-size="14" lengthAdjust="spacing" textLength="98" x="27" y="109.5889">symbol: String</text><rect fill="none" height="6" style="stroke:#C82930;stroke-width:1.0;" width="6" x="15" y="119.5391"/><text fill="#000000" font-family="sans-serif" font-size="14" lengthAdjust="spacing" textLength="106" x="27" y="125.8857">cmc_id: Integer</text><rect fill="none" height="6" style="stroke:#C82930;stroke-width:1.0;" width="6" x="15" y="135.8359"/><text fill="#000000" font-family="sans-serif" font-size="14" lengthAdjust="spacing" textLength="114" x="27" y="142.1826">cmc_slug: String</text><rect fill="none" height="6" style="stroke:#C82930;stroke-width:1.0;" width="6" x="15" y="152.1328"/><text fill="#000000" font-family="sans-serif" font-size="14" lengthAdjust="spacing" textLength="79" x="27" y="158.4795">logo: String</text><rect fill="none" height="6" style="stroke:#C82930;stroke-width:1.0;" width="6" x="15" y="168.4297"/><text fill="#000000" font-family="sans-serif" font-size="14" lengthAdjust="spacing" textLength="88" x="27" y="174.7764">name: String</text><rect fill="none" height="6" style="stroke:#C82930;stroke-width:1.0;" width="6" x="15" y="184.7266"/><text fill="#000000" font-family="sans-serif" font-size="14" lengthAdjust="spacing" textLength="126" x="27" y="191.0732">description: String</text><rect fill="none" height="6" style="stroke:#C82930;stroke-width:1.0;" width="6" x="15" y="201.0234"/><text fill="#000000" font-family="sans-serif" font-size="14" lengthAdjust="spacing" textLength="177" x="27" y="207.3701">technical_doc: List[String]</text><rect fill="none" height="6" style="stroke:#C82930;stroke-width:1.0;" width="6" x="15" y="217.3203"/><text fill="#000000" font-family="sans-serif" font-size="14" lengthAdjust="spacing" textLength="107" x="27" y="223.667">urls: List[String]</text><line style="stroke:#181818;stroke-width:0.5;" x1="8" x2="209" y1="230.9688" y2="230.9688"/></g><!--class Sector--><g id="elem_Sector"><rect codeLine="15" fill="#F1F1F1" height="145.7813" id="Sector" rx="2.5" ry="2.5" style="stroke:#181818;stroke-width:0.5;" width="183" x="17" y="315.9669"/><ellipse cx="81.75" cy="331.9669" fill="#ADD1B2" rx="11" ry="11" style="stroke:#181818;stroke-width:1.0;"/><path d="M84.7188,337.6075 Q84.1406,337.9044 83.5,338.045 Q82.8594,338.2012 82.1563,338.2012 Q79.6563,338.2012 78.3281,336.5606 Q77.0156,334.9044 77.0156,331.7794 Q77.0156,328.6544 78.3281,326.9981 Q79.6563,325.3419 82.1563,325.3419 Q82.8594,325.3419 83.5,325.4981 Q84.1563,325.6544 84.7188,325.9512 L84.7188,328.67 Q84.0938,328.0919 83.5,327.8262 Q82.9063,327.545 82.2813,327.545 Q80.9375,327.545 80.25,328.6231 Q79.5625,329.6856 79.5625,331.7794 Q79.5625,333.8731 80.25,334.9512 Q80.9375,336.0137 82.2813,336.0137 Q82.9063,336.0137 83.5,335.7481 Q84.0938,335.4669 84.7188,334.8887 L84.7188,337.6075 Z " fill="#000000"/><text fill="#000000" font-family="sans-serif" font-size="14" lengthAdjust="spacing" textLength="45" x="102.25" y="336.8136">Sector</text><line style="stroke:#181818;stroke-width:0.5;" x1="18" x2="199" y1="347.9669" y2="347.9669"/><rect fill="none" height="6" style="stroke:#C82930;stroke-width:1.0;" width="6" x="25" y="358.6153"/><text fill="#000000" font-family="sans-serif" font-size="14" lengthAdjust="spacing" textLength="73" x="37" y="364.962">uuid: UUID</text><rect fill="none" height="6" style="stroke:#C82930;stroke-width:1.0;" width="6" x="25" y="374.9122"/><text fill="#000000" font-family="sans-serif" font-size="14" lengthAdjust="spacing" textLength="88" x="37" y="381.2589">name: String</text><rect fill="none" height="6" style="stroke:#C82930;stroke-width:1.0;" width="6" x="25" y="391.2091"/><text fill="#000000" font-family="sans-serif" font-size="14" lengthAdjust="spacing" textLength="74" x="37" y="397.5557">title: String</text><rect fill="none" height="6" style="stroke:#C82930;stroke-width:1.0;" width="6" x="25" y="407.5059"/><text fill="#000000" font-family="sans-serif" font-size="14" lengthAdjust="spacing" textLength="157" x="37" y="413.8526">coins_quantity: Integer</text><rect fill="none" height="6" style="stroke:#C82930;stroke-width:1.0;" width="6" x="25" y="423.8028"/><text fill="#000000" font-family="sans-serif" font-size="14" lengthAdjust="spacing" textLength="97" x="37" y="430.1495">cmc_id: String</text><rect fill="none" height="6" style="stroke:#C82930;stroke-width:1.0;" width="6" x="25" y="440.0997"/><text fill="#000000" font-family="sans-serif" font-size="14" lengthAdjust="spacing" textLength="106" x="37" y="446.4464">active: Boolean</text><line style="stroke:#181818;stroke-width:0.5;" x1="18" x2="199" y1="453.7481" y2="453.7481"/></g><!--class Analysis--><g id="elem_Analysis"><rect codeLine="24" fill="#F1F1F1" height="96.8906" id="Analysis" rx="2.5" ry="2.5" style="stroke:#181818;stroke-width:0.5;" width="137" x="256" y="340.4169"/><ellipse cx="293.5" cy="356.4169" fill="#ADD1B2" rx="11" ry="11" style="stroke:#181818;stroke-width:1.0;"/><path d="M296.4688,362.0575 Q295.8906,362.3544 295.25,362.495 Q294.6094,362.6513 293.9063,362.6513 Q291.4063,362.6513 290.0781,361.0106 Q288.7656,359.3544 288.7656,356.2294 Q288.7656,353.1044 290.0781,351.4481 Q291.4063,349.7919 293.9063,349.7919 Q294.6094,349.7919 295.25,349.9481 Q295.9063,350.1044 296.4688,350.4013 L296.4688,353.12 Q295.8438,352.5419 295.25,352.2763 Q294.6563,351.995 294.0313,351.995 Q292.6875,351.995 292,353.0731 Q291.3125,354.1356 291.3125,356.2294 Q291.3125,358.3231 292,359.4013 Q292.6875,360.4638 294.0313,360.4638 Q294.6563,360.4638 295.25,360.1981 Q295.8438,359.9169 296.4688,359.3388 L296.4688,362.0575 Z " fill="#000000"/><text fill="#000000" font-family="sans-serif" font-size="14" lengthAdjust="spacing" textLength="55" x="312.5" y="361.2636">Analysis</text><line style="stroke:#181818;stroke-width:0.5;" x1="257" x2="392" y1="372.4169" y2="372.4169"/><rect fill="none" height="6" style="stroke:#C82930;stroke-width:1.0;" width="6" x="264" y="383.0653"/><text fill="#000000" font-family="sans-serif" font-size="14" lengthAdjust="spacing" textLength="73" x="276" y="389.412">uuid: UUID</text><rect fill="none" height="6" style="stroke:#C82930;stroke-width:1.0;" width="6" x="264" y="399.3622"/><text fill="#000000" font-family="sans-serif" font-size="14" lengthAdjust="spacing" textLength="107" x="276" y="405.7089">date: DateTime</text><rect fill="none" height="6" style="stroke:#C82930;stroke-width:1.0;" width="6" x="264" y="415.6591"/><text fill="#000000" font-family="sans-serif" font-size="14" lengthAdjust="spacing" textLength="111" x="276" y="422.0057">ended: Boolean</text><line style="stroke:#181818;stroke-width:0.5;" x1="257" x2="392" y1="429.3075" y2="429.3075"/></g><!--class User--><g id="elem_User"><rect codeLine="30" fill="#F1F1F1" height="113.1875" id="User" rx="2.5" ry="2.5" style="stroke:#181818;stroke-width:0.5;" width="201" x="245" y="85.0369"/><ellipse cx="325.25" cy="101.0369" fill="#ADD1B2" rx="11" ry="11" style="stroke:#181818;stroke-width:1.0;"/><path d="M328.2188,106.6775 Q327.6406,106.9744 327,107.115 Q326.3594,107.2713 325.6563,107.2713 Q323.1563,107.2713 321.8281,105.6306 Q320.5156,103.9744 320.5156,100.8494 Q320.5156,97.7244 321.8281,96.0681 Q323.1563,94.4119 325.6563,94.4119 Q326.3594,94.4119 327,94.5681 Q327.6563,94.7244 328.2188,95.0213 L328.2188,97.74 Q327.5938,97.1619 327,96.8963 Q326.4063,96.615 325.7813,96.615 Q324.4375,96.615 323.75,97.6931 Q323.0625,98.7556 323.0625,100.8494 Q323.0625,102.9431 323.75,104.0213 Q324.4375,105.0838 325.7813,105.0838 Q326.4063,105.0838 327,104.8181 Q327.5938,104.5369 328.2188,103.9588 L328.2188,106.6775 Z " fill="#000000"/><text fill="#000000" font-family="sans-serif" font-size="14" lengthAdjust="spacing" textLength="32" x="345.75" y="105.8836">User</text><line style="stroke:#181818;stroke-width:0.5;" x1="246" x2="445" y1="117.0369" y2="117.0369"/><rect fill="none" height="6" style="stroke:#C82930;stroke-width:1.0;" width="6" x="253" y="127.6853"/><text fill="#000000" font-family="sans-serif" font-size="14" lengthAdjust="spacing" textLength="70" x="265" y="134.032">id: Integer</text><rect fill="none" height="6" style="stroke:#C82930;stroke-width:1.0;" width="6" x="253" y="143.9822"/><text fill="#000000" font-family="sans-serif" font-size="14" lengthAdjust="spacing" textLength="85" x="265" y="150.3289">email: String</text><rect fill="none" height="6" style="stroke:#C82930;stroke-width:1.0;" width="6" x="253" y="160.2791"/><text fill="#000000" font-family="sans-serif" font-size="14" lengthAdjust="spacing" textLength="175" x="265" y="166.6257">hashed_password: String</text><rect fill="none" height="6" style="stroke:#C82930;stroke-width:1.0;" width="6" x="253" y="176.5759"/><text fill="#000000" font-family="sans-serif" font-size="14" lengthAdjust="spacing" textLength="124" x="265" y="182.9226">is_active: Boolean</text><line style="stroke:#181818;stroke-width:0.5;" x1="246" x2="445" y1="190.2244" y2="190.2244"/></g><!--class AnalysisInfoSchedule--><g id="elem_AnalysisInfoSchedule"><rect codeLine="37" fill="#F1F1F1" height="113.1875" id="AnalysisInfoSchedule" rx="2.5" ry="2.5" style="stroke:#181818;stroke-width:0.5;" width="249" x="48" y="669.1269"/><ellipse cx="95.75" cy="685.1269" fill="#ADD1B2" rx="11" ry="11" style="stroke:#181818;stroke-width:1.0;"/><path d="M98.7188,690.7675 Q98.1406,691.0644 97.5,691.205 Q96.8594,691.3613 96.1563,691.3613 Q93.6563,691.3613 92.3281,689.7206 Q91.0156,688.0644 91.0156,684.9394 Q91.0156,681.8144 92.3281,680.1581 Q93.6563,678.5019 96.1563,678.5019 Q96.8594,678.5019 97.5,678.6581 Q98.1563,678.8144 98.7188,679.1113 L98.7188,681.83 Q98.0938,681.2519 97.5,680.9863 Q96.9063,680.705 96.2813,680.705 Q94.9375,680.705 94.25,681.7831 Q93.5625,682.8456 93.5625,684.9394 Q93.5625,687.0331 94.25,688.1113 Q94.9375,689.1738 96.2813,689.1738 Q96.9063,689.1738 97.5,688.9081 Q98.0938,688.6269 98.7188,688.0488 L98.7188,690.7675 Z " fill="#000000"/><text fill="#000000" font-family="sans-serif" font-size="14" lengthAdjust="spacing" textLength="145" x="116.25" y="689.9736">AnalysisInfoSchedule</text><line style="stroke:#181818;stroke-width:0.5;" x1="49" x2="296" y1="701.1269" y2="701.1269"/><rect fill="none" height="6" style="stroke:#C82930;stroke-width:1.0;" width="6" x="56" y="711.7753"/><text fill="#000000" font-family="sans-serif" font-size="14" lengthAdjust="spacing" textLength="70" x="68" y="718.122">id: Integer</text><rect fill="none" height="6" style="stroke:#C82930;stroke-width:1.0;" width="6" x="56" y="728.0722"/><text fill="#000000" font-family="sans-serif" font-size="14" lengthAdjust="spacing" textLength="134" x="68" y="734.4189">uuid_analysis: UUID</text><rect fill="none" height="6" style="stroke:#C82930;stroke-width:1.0;" width="6" x="56" y="744.3691"/><text fill="#000000" font-family="sans-serif" font-size="14" lengthAdjust="spacing" textLength="193" x="68" y="750.7157">last_update_time: DateTime</text><rect fill="none" height="6" style="stroke:#C82930;stroke-width:1.0;" width="6" x="56" y="760.6659"/><text fill="#000000" font-family="sans-serif" font-size="14" lengthAdjust="spacing" textLength="223" x="68" y="767.0126">next_scheduled_time: DateTime</text><line style="stroke:#181818;stroke-width:0.5;" x1="49" x2="296" y1="774.3144" y2="774.3144"/></g><!--class FirstStageAnalysis--><g id="elem_FirstStageAnalysis"><rect codeLine="44" fill="#F1F1F1" height="373.9375" id="FirstStageAnalysis" rx="2.5" ry="2.5" style="stroke:#181818;stroke-width:0.5;" width="289" x="332" y="538.7469"/><ellipse cx="410.25" cy="554.7469" fill="#ADD1B2" rx="11" ry="11" style="stroke:#181818;stroke-width:1.0;"/><path d="M413.2188,560.3875 Q412.6406,560.6844 412,560.825 Q411.3594,560.9813 410.6563,560.9813 Q408.1563,560.9813 406.8281,559.3406 Q405.5156,557.6844 405.5156,554.5594 Q405.5156,551.4344 406.8281,549.7781 Q408.1563,548.1219 410.6563,548.1219 Q411.3594,548.1219 412,548.2781 Q412.6563,548.4344 413.2188,548.7313 L413.2188,551.45 Q412.5938,550.8719 412,550.6063 Q411.4063,550.325 410.7813,550.325 Q409.4375,550.325 408.75,551.4031 Q408.0625,552.4656 408.0625,554.5594 Q408.0625,556.6531 408.75,557.7313 Q409.4375,558.7938 410.7813,558.7938 Q411.4063,558.7938 412,558.5281 Q412.5938,558.2469 413.2188,557.6688 L413.2188,560.3875 Z " fill="#000000"/><text fill="#000000" font-family="sans-serif" font-size="14" lengthAdjust="spacing" textLength="124" x="430.75" y="559.5936">FirstStageAnalysis</text><line style="stroke:#181818;stroke-width:0.5;" x1="333" x2="620" y1="570.7469" y2="570.7469"/><rect fill="none" height="6" style="stroke:#C82930;stroke-width:1.0;" width="6" x="340" y="581.3953"/><text fill="#000000" font-family="sans-serif" font-size="14" lengthAdjust="spacing" textLength="73" x="352" y="587.742">uuid: UUID</text><rect fill="none" height="6" style="stroke:#C82930;stroke-width:1.0;" width="6" x="340" y="597.6922"/><text fill="#000000" font-family="sans-serif" font-size="14" lengthAdjust="spacing" textLength="134" x="352" y="604.0389">uuid_analysis: UUID</text><rect fill="none" height="6" style="stroke:#C82930;stroke-width:1.0;" width="6" x="340" y="613.9891"/><text fill="#000000" font-family="sans-serif" font-size="14" lengthAdjust="spacing" textLength="140" x="352" y="620.3357">uuid_currency: UUID</text><rect fill="none" height="6" style="stroke:#C82930;stroke-width:1.0;" width="6" x="340" y="630.2859"/><text fill="#000000" font-family="sans-serif" font-size="14" lengthAdjust="spacing" textLength="109" x="352" y="636.6326">ranking: Integer</text><rect fill="none" height="6" style="stroke:#C82930;stroke-width:1.0;" width="6" x="340" y="646.5828"/><text fill="#000000" font-family="sans-serif" font-size="14" lengthAdjust="spacing" textLength="157" x="352" y="652.9295">market_value: Numeric</text><rect fill="none" height="6" style="stroke:#C82930;stroke-width:1.0;" width="6" x="340" y="662.8797"/><text fill="#000000" font-family="sans-serif" font-size="14" lengthAdjust="spacing" textLength="256" x="352" y="669.2264">week_increase_percentage: Numeric</text><rect fill="none" height="6" style="stroke:#C82930;stroke-width:1.0;" width="6" x="340" y="679.1766"/><text fill="#000000" font-family="sans-serif" font-size="14" lengthAdjust="spacing" textLength="173" x="352" y="685.5232">increase_date: DateTime</text><rect fill="none" height="6" style="stroke:#C82930;stroke-width:1.0;" width="6" x="340" y="695.4734"/><text fill="#000000" font-family="sans-serif" font-size="14" lengthAdjust="spacing" textLength="156" x="352" y="701.8201">closing_price: Numeric</text><rect fill="none" height="6" style="stroke:#C82930;stroke-width:1.0;" width="6" x="340" y="711.7703"/><text fill="#000000" font-family="sans-serif" font-size="14" lengthAdjust="spacing" textLength="231" x="352" y="718.117">last_week_closing_price: Numeric</text><rect fill="none" height="6" style="stroke:#C82930;stroke-width:1.0;" width="6" x="340" y="728.0672"/><text fill="#000000" font-family="sans-serif" font-size="14" lengthAdjust="spacing" textLength="143" x="352" y="734.4139">open_price: Numeric</text><rect fill="none" height="6" style="stroke:#C82930;stroke-width:1.0;" width="6" x="340" y="744.3641"/><text fill="#000000" font-family="sans-serif" font-size="14" lengthAdjust="spacing" textLength="105" x="352" y="750.7107">ema8: Numeric</text><rect fill="none" height="6" style="stroke:#C82930;stroke-width:1.0;" width="6" x="340" y="760.6609"/><text fill="#000000" font-family="sans-serif" font-size="14" lengthAdjust="spacing" textLength="205" x="352" y="767.0076">ema8_greater_open: Boolean</text><rect fill="none" height="6" style="stroke:#C82930;stroke-width:1.0;" width="6" x="340" y="776.9578"/><text fill="#000000" font-family="sans-serif" font-size="14" lengthAdjust="spacing" textLength="184" x="352" y="783.3045">ema8_less_close: Boolean</text><rect fill="none" height="6" style="stroke:#C82930;stroke-width:1.0;" width="6" x="340" y="793.2547"/><text fill="#000000" font-family="sans-serif" font-size="14" lengthAdjust="spacing" textLength="226" x="352" y="799.6014">week_increase_volume: Numeric</text><rect fill="none" height="6" style="stroke:#C82930;stroke-width:1.0;" width="6" x="340" y="809.5516"/><text fill="#000000" font-family="sans-serif" font-size="14" lengthAdjust="spacing" textLength="223" x="352" y="815.8982">increase_volume_day: DateTime</text><rect fill="none" height="6" style="stroke:#C82930;stroke-width:1.0;" width="6" x="340" y="825.8484"/><text fill="#000000" font-family="sans-serif" font-size="14" lengthAdjust="spacing" textLength="199" x="352" y="832.1951">day_before_volume: Numeric</text><rect fill="none" height="6" style="stroke:#C82930;stroke-width:1.0;" width="6" x="340" y="842.1453"/><text fill="#000000" font-family="sans-serif" font-size="14" lengthAdjust="spacing" textLength="182" x="352" y="848.492">volumes_relation: Numeric</text><rect fill="none" height="6" style="stroke:#C82930;stroke-width:1.0;" width="6" x="340" y="858.4422"/><text fill="#000000" font-family="sans-serif" font-size="14" lengthAdjust="spacing" textLength="263" x="352" y="864.7889">expressive_volume_increase: Boolean</text><rect fill="none" height="6" style="stroke:#C82930;stroke-width:1.0;" width="6" x="340" y="874.7391"/><text fill="#000000" font-family="sans-serif" font-size="14" lengthAdjust="spacing" textLength="153" x="352" y="881.0857">ema_aligned: Boolean</text><rect fill="none" height="6" style="stroke:#C82930;stroke-width:1.0;" width="6" x="340" y="891.0359"/><text fill="#000000" font-family="sans-serif" font-size="14" lengthAdjust="spacing" textLength="159" x="352" y="897.3826">buying_signal: Boolean</text><line style="stroke:#181818;stroke-width:0.5;" x1="333" x2="620" y1="904.6844" y2="904.6844"/></g><!--class MarketData--><g id="elem_MarketData"><rect codeLine="67" fill="#F1F1F1" height="129.4844" id="MarketData" rx="2.5" ry="2.5" style="stroke:#181818;stroke-width:0.5;" width="182" x="481.5" y="76.8869"/><ellipse cx="528.75" cy="92.8869" fill="#ADD1B2" rx="11" ry="11" style="stroke:#181818;stroke-width:1.0;"/><path d="M531.7188,98.5275 Q531.1406,98.8244 530.5,98.965 Q529.8594,99.1213 529.1563,99.1213 Q526.6563,99.1213 525.3281,97.4806 Q524.0156,95.8244 524.0156,92.6994 Q524.0156,89.5744 525.3281,87.9181 Q526.6563,86.2619 529.1563,86.2619 Q529.8594,86.2619 530.5,86.4181 Q531.1563,86.5744 531.7188,86.8713 L531.7188,89.59 Q531.0938,89.0119 530.5,88.7463 Q529.9063,88.465 529.2813,88.465 Q527.9375,88.465 527.25,89.5431 Q526.5625,90.6056 526.5625,92.6994 Q526.5625,94.7931 527.25,95.8713 Q527.9375,96.9338 529.2813,96.9338 Q529.9063,96.9338 530.5,96.6681 Q531.0938,96.3869 531.7188,95.8088 L531.7188,98.5275 Z " fill="#000000"/><text fill="#000000" font-family="sans-serif" font-size="14" lengthAdjust="spacing" textLength="79" x="549.25" y="97.7336">MarketData</text><line style="stroke:#181818;stroke-width:0.5;" x1="482.5" x2="662.5" y1="108.8869" y2="108.8869"/><rect fill="none" height="6" style="stroke:#C82930;stroke-width:1.0;" width="6" x="489.5" y="119.5353"/><text fill="#000000" font-family="sans-serif" font-size="14" lengthAdjust="spacing" textLength="98" x="501.5" y="125.882">symbol: String</text><rect fill="none" height="6" style="stroke:#C82930;stroke-width:1.0;" width="6" x="489.5" y="135.8322"/><text fill="#000000" font-family="sans-serif" font-size="14" lengthAdjust="spacing" textLength="128" x="501.5" y="142.1789">base_asset: String</text><rect fill="none" height="6" style="stroke:#C82930;stroke-width:1.0;" width="6" x="489.5" y="152.1291"/><text fill="#000000" font-family="sans-serif" font-size="14" lengthAdjust="spacing" textLength="135" x="501.5" y="158.4757">quote_asset: String</text><rect fill="none" height="6" style="stroke:#C82930;stroke-width:1.0;" width="6" x="489.5" y="168.4259"/><text fill="#000000" font-family="sans-serif" font-size="14" lengthAdjust="spacing" textLength="156" x="501.5" y="174.7726">closing_price: Numeric</text><rect fill="none" height="6" style="stroke:#C82930;stroke-width:1.0;" width="6" x="489.5" y="184.7228"/><text fill="#000000" font-family="sans-serif" font-size="14" lengthAdjust="spacing" textLength="143" x="501.5" y="191.0695">open_price: Numeric</text><line style="stroke:#181818;stroke-width:0.5;" x1="482.5" x2="662.5" y1="198.3713" y2="198.3713"/></g><!--link Cryptocurrency to Sector--><g id="link_Cryptocurrency_Sector"><path codeLine="76" d="M108.5,239.1969 C108.5,264.6669 108.5,291.7069 108.5,315.6369 " fill="none" id="Cryptocurrency-Sector" style="stroke:#181818;stroke-width:1.0;"/><text fill="#000000" font-family="sans-serif" font-size="13" lengthAdjust="spacing" textLength="8" x="100.2063" y="258.9843">1</text><text fill="#000000" font-family="sans-serif" font-size="13" lengthAdjust="spacing" textLength="23" x="84.4039" y="305.0164">0..*</text></g><!--link Cryptocurrency to Analysis--><g id="link_Cryptocurrency_Analysis"><path codeLine="77" d="M193.56,239.1969 C224.02,273.7769 257.03,311.2569 282.29,339.9269 " fill="none" id="Cryptocurrency-Analysis" style="stroke:#181818;stroke-width:1.0;"/><text fill="#000000" font-family="sans-serif" font-size="13" lengthAdjust="spacing" textLength="8" x="191.5128" y="258.9843">1</text><text fill="#000000" font-family="sans-serif" font-size="13" lengthAdjust="spacing" textLength="23" x="252.0727" y="329.4192">0..*</text></g><!--link User to Analysis--><g id="link_User_Analysis"><path codeLine="78" d="M340.71,198.5869 C337.05,241.2769 332.07,299.4569 328.6,339.9969 " fill="none" id="User-Analysis" style="stroke:#181818;stroke-width:1.0;"/><text fill="#000000" font-family="sans-serif" font-size="13" lengthAdjust="spacing" textLength="32" x="335.5" y="282.0338">owns</text><text fill="#000000" font-family="sans-serif" font-size="13" lengthAdjust="spacing" textLength="8" x="331.6937" y="218.1142">1</text><text fill="#000000" font-family="sans-serif" font-size="13" lengthAdjust="spacing" textLength="7" x="321.6806" y="329.4986">*</text></g><!--link Analysis to AnalysisInfoSchedule--><g id="link_Analysis_AnalysisInfoSchedule"><path codeLine="79" d="M302.88,437.4769 C275.18,498.5069 227.23,604.1469 197.84,668.8869 " fill="none" id="Analysis-AnalysisInfoSchedule" style="stroke:#181818;stroke-width:1.0;"/><text fill="#000000" font-family="sans-serif" font-size="13" lengthAdjust="spacing" textLength="64" x="276.5" y="504.8138">schedules</text><text fill="#000000" font-family="sans-serif" font-size="13" lengthAdjust="spacing" textLength="8" x="291.2772" y="457.4442">1</text><text fill="#000000" font-family="sans-serif" font-size="13" lengthAdjust="spacing" textLength="7" x="193.5018" y="658.1212">*</text></g><!--link Analysis to FirstStageAnalysis--><g id="link_Analysis_FirstStageAnalysis"><path codeLine="80" d="M346.12,437.4769 C358.49,464.7469 374.91,500.9169 391.91,538.3569 " fill="none" id="Analysis-FirstStageAnalysis" style="stroke:#181818;stroke-width:1.0;"/><text fill="#000000" font-family="sans-serif" font-size="13" lengthAdjust="spacing" textLength="52" x="378.5" y="504.8138">includes</text><text fill="#000000" font-family="sans-serif" font-size="13" lengthAdjust="spacing" textLength="8" x="340.5978" y="457.4442">1</text><text fill="#000000" font-family="sans-serif" font-size="13" lengthAdjust="spacing" textLength="7" x="381.469" y="527.8147">*</text></g><!--SRC=[bLNDZXCn3BxFKqIz825r1UA2UeDMI9M00wKdX28tuvr6pIIp-Mbt13mF9uuyGLyCfvtfJvhP5JrKhJyx_Zx7Thpq2jbCGcMX1bOYcofm3btyEJFr_e-MXlraKoErWmhPc2qQAxLdRuf2H5SsjMtZZGZMeXOj-r4m-enP2BASiELoFkiChgrNHatOmbDyrHb5BNZqcskF5TeBgrEXIfoLgKnYqb1ZOYhH2IiRBurE48zYhQK0nKiZ9koZTFxRqU5xJzegbm2_UfqB5DxOONqPAZvMDrKSAyaV0cX2svpoUEvL20WljtJEUsCKWZvJUgT1jKwwOL8bU0gSqVTNMMDdH5rYcJbkwV2ix_PMi0QPtjyQt1fBtb3upjYKk7JyMUvpVMyMWWu9r8Z3oQCo3btCbKGwpVFGHANSo_fMhiP7prsNeanzJeG-IElymbEJFr_MOJO7f1-6AyI2tb1fKc4rs0rwlWKLYDRdKAELeiDsY1ikjR083dc3Lg2E15E_aqlskeKoZX9pcbjn4tgetY7FaswcGPr7g2lUvcoy8aeUBO-Xv_k_S53et24hfl2rxgrHeHxMV8H9UdkZd6nyXVV63Xroj3fkKS5nOIH27XjBBAc3-pHzsemY3afM-dAoZj0gjB6kZa1GcKduTEW0eWwdXilkobLK6vUpJu27O7mU-Uyx9L8ls1Ugnlxt_Y-z0jHl5Xau9exFGf5i-z7h4HkFsUZLtTtBKRSYd_RfXwiuR9iUkm3OX9cTTiNfVyRdQcbCM3_S-Q3CO4zY-wX0JyK_]--></g></svg>
