<?xml version="1.0" encoding="us-ascii" standalone="no"?><svg xmlns="http://www.w3.org/2000/svg" xmlns:xlink="http://www.w3.org/1999/xlink" contentStyleType="text/css" height="1001px" preserveAspectRatio="none" style="width:1132px;height:1001px;background:#FFFFFF;" version="1.1" viewBox="0 0 1132 1001" width="1132px" zoomAndPan="magnify"><defs/><g><text fill="#000000" font-family="sans-serif" font-size="14" font-weight="bold" lengthAdjust="spacing" textLength="423" x="347.5" y="22.9951">Diagrama de Classes de Dom&#237;nio | Coinsage - Sprint 4</text><!--class Cryptocurrency--><g id="elem_Cryptocurrency"><rect codeLine="3" fill="#F1F1F1" height="227.2656" id="Cryptocurrency" rx="2.5" ry="2.5" style="stroke:#181818;stroke-width:0.5;" width="203" x="330" y="44.2969"/><ellipse cx="374.75" cy="60.2969" fill="#ADD1B2" rx="11" ry="11" style="stroke:#181818;stroke-width:1.0;"/><path d="M377.7188,65.9375 Q377.1406,66.2344 376.5,66.375 Q375.8594,66.5313 375.1563,66.5313 Q372.6563,66.5313 371.3281,64.8906 Q370.0156,63.2344 370.0156,60.1094 Q370.0156,56.9844 371.3281,55.3281 Q372.6563,53.6719 375.1563,53.6719 Q375.8594,53.6719 376.5,53.8281 Q377.1563,53.9844 377.7188,54.2813 L377.7188,57 Q377.0938,56.4219 376.5,56.1563 Q375.9063,55.875 375.2813,55.875 Q373.9375,55.875 373.25,56.9531 Q372.5625,58.0156 372.5625,60.1094 Q372.5625,62.2031 373.25,63.2813 Q373.9375,64.3438 375.2813,64.3438 Q375.9063,64.3438 376.5,64.0781 Q377.0938,63.7969 377.7188,63.2188 L377.7188,65.9375 Z " fill="#000000"/><text fill="#000000" font-family="sans-serif" font-size="14" lengthAdjust="spacing" textLength="105" x="395.25" y="65.1436">Cryptocurrency</text><line style="stroke:#181818;stroke-width:0.5;" x1="331" x2="532" y1="76.2969" y2="76.2969"/><ellipse cx="341" cy="89.9453" fill="none" rx="3" ry="3" style="stroke:#038048;stroke-width:1.0;"/><text fill="#000000" font-family="sans-serif" font-size="14" lengthAdjust="spacing" textLength="73" x="350" y="93.292">uuid: UUID</text><rect fill="none" height="6" style="stroke:#C82930;stroke-width:1.0;" width="6" x="338" y="103.2422"/><text fill="#000000" font-family="sans-serif" font-size="14" lengthAdjust="spacing" textLength="98" x="350" y="109.5889">symbol: String</text><rect fill="none" height="6" style="stroke:#C82930;stroke-width:1.0;" width="6" x="338" y="119.5391"/><text fill="#000000" font-family="sans-serif" font-size="14" lengthAdjust="spacing" textLength="106" x="350" y="125.8857">cmc_id: Integer</text><rect fill="none" height="6" style="stroke:#C82930;stroke-width:1.0;" width="6" x="338" y="135.8359"/><text fill="#000000" font-family="sans-serif" font-size="14" lengthAdjust="spacing" textLength="114" x="350" y="142.1826">cmc_slug: String</text><rect fill="none" height="6" style="stroke:#C82930;stroke-width:1.0;" width="6" x="338" y="152.1328"/><text fill="#000000" font-family="sans-serif" font-size="14" lengthAdjust="spacing" textLength="79" x="350" y="158.4795">logo: String</text><rect fill="none" height="6" style="stroke:#C82930;stroke-width:1.0;" width="6" x="338" y="168.4297"/><text fill="#000000" font-family="sans-serif" font-size="14" lengthAdjust="spacing" textLength="88" x="350" y="174.7764">name: String</text><rect fill="none" height="6" style="stroke:#C82930;stroke-width:1.0;" width="6" x="338" y="184.7266"/><text fill="#000000" font-family="sans-serif" font-size="14" lengthAdjust="spacing" textLength="126" x="350" y="191.0732">description: String</text><rect fill="none" height="6" style="stroke:#C82930;stroke-width:1.0;" width="6" x="338" y="201.0234"/><text fill="#000000" font-family="sans-serif" font-size="14" lengthAdjust="spacing" textLength="177" x="350" y="207.3701">technical_doc: List[String]</text><rect fill="none" height="6" style="stroke:#C82930;stroke-width:1.0;" width="6" x="338" y="217.3203"/><text fill="#000000" font-family="sans-serif" font-size="14" lengthAdjust="spacing" textLength="107" x="350" y="223.667">urls: List[String]</text><rect fill="none" height="6" style="stroke:#C82930;stroke-width:1.0;" width="6" x="338" y="233.6172"/><text fill="#000000" font-family="sans-serif" font-size="14" lengthAdjust="spacing" textLength="149" x="350" y="239.9639">created_at: DateTime</text><rect fill="none" height="6" style="stroke:#C82930;stroke-width:1.0;" width="6" x="338" y="249.9141"/><text fill="#000000" font-family="sans-serif" font-size="14" lengthAdjust="spacing" textLength="156" x="350" y="256.2607">last_update: DateTime</text><line style="stroke:#181818;stroke-width:0.5;" x1="331" x2="532" y1="263.5625" y2="263.5625"/></g><!--class CurrencyInfoSchedule--><g id="elem_CurrencyInfoSchedule"><rect codeLine="17" fill="#F1F1F1" height="96.8906" id="CurrencyInfoSchedule" rx="2.5" ry="2.5" style="stroke:#181818;stroke-width:0.5;" width="249" x="7" y="372.7969"/><ellipse cx="51.25" cy="388.7969" fill="#ADD1B2" rx="11" ry="11" style="stroke:#181818;stroke-width:1.0;"/><path d="M54.2188,394.4375 Q53.6406,394.7344 53,394.875 Q52.3594,395.0313 51.6563,395.0313 Q49.1563,395.0313 47.8281,393.3906 Q46.5156,391.7344 46.5156,388.6094 Q46.5156,385.4844 47.8281,383.8281 Q49.1563,382.1719 51.6563,382.1719 Q52.3594,382.1719 53,382.3281 Q53.6563,382.4844 54.2188,382.7813 L54.2188,385.5 Q53.5938,384.9219 53,384.6563 Q52.4063,384.375 51.7813,384.375 Q50.4375,384.375 49.75,385.4531 Q49.0625,386.5156 49.0625,388.6094 Q49.0625,390.7031 49.75,391.7813 Q50.4375,392.8438 51.7813,392.8438 Q52.4063,392.8438 53,392.5781 Q53.5938,392.2969 54.2188,391.7188 L54.2188,394.4375 Z " fill="#000000"/><text fill="#000000" font-family="sans-serif" font-size="14" lengthAdjust="spacing" textLength="152" x="71.75" y="393.6436">CurrencyInfoSchedule</text><line style="stroke:#181818;stroke-width:0.5;" x1="8" x2="255" y1="404.7969" y2="404.7969"/><ellipse cx="18" cy="418.4453" fill="none" rx="3" ry="3" style="stroke:#038048;stroke-width:1.0;"/><text fill="#000000" font-family="sans-serif" font-size="14" lengthAdjust="spacing" textLength="70" x="27" y="421.792">id: Integer</text><rect fill="none" height="6" style="stroke:#C82930;stroke-width:1.0;" width="6" x="15" y="431.7422"/><text fill="#000000" font-family="sans-serif" font-size="14" lengthAdjust="spacing" textLength="193" x="27" y="438.0889">last_update_time: DateTime</text><rect fill="none" height="6" style="stroke:#C82930;stroke-width:1.0;" width="6" x="15" y="448.0391"/><text fill="#000000" font-family="sans-serif" font-size="14" lengthAdjust="spacing" textLength="223" x="27" y="454.3857">next_scheduled_time: DateTime</text><line style="stroke:#181818;stroke-width:0.5;" x1="8" x2="255" y1="461.6875" y2="461.6875"/></g><!--class Sector--><g id="elem_Sector"><rect codeLine="24" fill="#F1F1F1" height="145.7813" id="Sector" rx="2.5" ry="2.5" style="stroke:#181818;stroke-width:0.5;" width="183" x="291" y="348.2969"/><ellipse cx="355.75" cy="364.2969" fill="#ADD1B2" rx="11" ry="11" style="stroke:#181818;stroke-width:1.0;"/><path d="M358.7188,369.9375 Q358.1406,370.2344 357.5,370.375 Q356.8594,370.5313 356.1563,370.5313 Q353.6563,370.5313 352.3281,368.8906 Q351.0156,367.2344 351.0156,364.1094 Q351.0156,360.9844 352.3281,359.3281 Q353.6563,357.6719 356.1563,357.6719 Q356.8594,357.6719 357.5,357.8281 Q358.1563,357.9844 358.7188,358.2813 L358.7188,361 Q358.0938,360.4219 357.5,360.1563 Q356.9063,359.875 356.2813,359.875 Q354.9375,359.875 354.25,360.9531 Q353.5625,362.0156 353.5625,364.1094 Q353.5625,366.2031 354.25,367.2813 Q354.9375,368.3438 356.2813,368.3438 Q356.9063,368.3438 357.5,368.0781 Q358.0938,367.7969 358.7188,367.2188 L358.7188,369.9375 Z " fill="#000000"/><text fill="#000000" font-family="sans-serif" font-size="14" lengthAdjust="spacing" textLength="45" x="376.25" y="369.1436">Sector</text><line style="stroke:#181818;stroke-width:0.5;" x1="292" x2="473" y1="380.2969" y2="380.2969"/><ellipse cx="302" cy="393.9453" fill="none" rx="3" ry="3" style="stroke:#038048;stroke-width:1.0;"/><text fill="#000000" font-family="sans-serif" font-size="14" lengthAdjust="spacing" textLength="73" x="311" y="397.292">uuid: UUID</text><rect fill="none" height="6" style="stroke:#C82930;stroke-width:1.0;" width="6" x="299" y="407.2422"/><text fill="#000000" font-family="sans-serif" font-size="14" lengthAdjust="spacing" textLength="88" x="311" y="413.5889">name: String</text><rect fill="none" height="6" style="stroke:#C82930;stroke-width:1.0;" width="6" x="299" y="423.5391"/><text fill="#000000" font-family="sans-serif" font-size="14" lengthAdjust="spacing" textLength="74" x="311" y="429.8857">title: String</text><rect fill="none" height="6" style="stroke:#C82930;stroke-width:1.0;" width="6" x="299" y="439.8359"/><text fill="#000000" font-family="sans-serif" font-size="14" lengthAdjust="spacing" textLength="157" x="311" y="446.1826">coins_quantity: Integer</text><rect fill="none" height="6" style="stroke:#C82930;stroke-width:1.0;" width="6" x="299" y="456.1328"/><text fill="#000000" font-family="sans-serif" font-size="14" lengthAdjust="spacing" textLength="97" x="311" y="462.4795">cmc_id: String</text><rect fill="none" height="6" style="stroke:#C82930;stroke-width:1.0;" width="6" x="299" y="472.4297"/><text fill="#000000" font-family="sans-serif" font-size="14" lengthAdjust="spacing" textLength="106" x="311" y="478.7764">active: Boolean</text><line style="stroke:#181818;stroke-width:0.5;" x1="292" x2="473" y1="486.0781" y2="486.0781"/></g><!--class Analysis--><g id="elem_Analysis"><rect codeLine="33" fill="#F1F1F1" height="96.8906" id="Analysis" rx="2.5" ry="2.5" style="stroke:#181818;stroke-width:0.5;" width="137" x="509" y="372.7969"/><ellipse cx="546.5" cy="388.7969" fill="#ADD1B2" rx="11" ry="11" style="stroke:#181818;stroke-width:1.0;"/><path d="M549.4688,394.4375 Q548.8906,394.7344 548.25,394.875 Q547.6094,395.0313 546.9063,395.0313 Q544.4063,395.0313 543.0781,393.3906 Q541.7656,391.7344 541.7656,388.6094 Q541.7656,385.4844 543.0781,383.8281 Q544.4063,382.1719 546.9063,382.1719 Q547.6094,382.1719 548.25,382.3281 Q548.9063,382.4844 549.4688,382.7813 L549.4688,385.5 Q548.8438,384.9219 548.25,384.6563 Q547.6563,384.375 547.0313,384.375 Q545.6875,384.375 545,385.4531 Q544.3125,386.5156 544.3125,388.6094 Q544.3125,390.7031 545,391.7813 Q545.6875,392.8438 547.0313,392.8438 Q547.6563,392.8438 548.25,392.5781 Q548.8438,392.2969 549.4688,391.7188 L549.4688,394.4375 Z " fill="#000000"/><text fill="#000000" font-family="sans-serif" font-size="14" lengthAdjust="spacing" textLength="55" x="565.5" y="393.6436">Analysis</text><line style="stroke:#181818;stroke-width:0.5;" x1="510" x2="645" y1="404.7969" y2="404.7969"/><ellipse cx="520" cy="418.4453" fill="none" rx="3" ry="3" style="stroke:#038048;stroke-width:1.0;"/><text fill="#000000" font-family="sans-serif" font-size="14" lengthAdjust="spacing" textLength="73" x="529" y="421.792">uuid: UUID</text><rect fill="none" height="6" style="stroke:#C82930;stroke-width:1.0;" width="6" x="517" y="431.7422"/><text fill="#000000" font-family="sans-serif" font-size="14" lengthAdjust="spacing" textLength="107" x="529" y="438.0889">date: DateTime</text><rect fill="none" height="6" style="stroke:#C82930;stroke-width:1.0;" width="6" x="517" y="448.0391"/><text fill="#000000" font-family="sans-serif" font-size="14" lengthAdjust="spacing" textLength="111" x="529" y="454.3857">ended: Boolean</text><line style="stroke:#181818;stroke-width:0.5;" x1="510" x2="645" y1="461.6875" y2="461.6875"/></g><!--class User--><g id="elem_User"><rect codeLine="39" fill="#F1F1F1" height="48" id="User" rx="2.5" ry="2.5" style="stroke:#181818;stroke-width:0.5;" width="64" x="981.5" y="133.7969"/><ellipse cx="996.5" cy="149.7969" fill="#ADD1B2" rx="11" ry="11" style="stroke:#181818;stroke-width:1.0;"/><path d="M999.4688,155.4375 Q998.8906,155.7344 998.25,155.875 Q997.6094,156.0313 996.9063,156.0313 Q994.4063,156.0313 993.0781,154.3906 Q991.7656,152.7344 991.7656,149.6094 Q991.7656,146.4844 993.0781,144.8281 Q994.4063,143.1719 996.9063,143.1719 Q997.6094,143.1719 998.25,143.3281 Q998.9063,143.4844 999.4688,143.7813 L999.4688,146.5 Q998.8438,145.9219 998.25,145.6563 Q997.6563,145.375 997.0313,145.375 Q995.6875,145.375 995,146.4531 Q994.3125,147.5156 994.3125,149.6094 Q994.3125,151.7031 995,152.7813 Q995.6875,153.8438 997.0313,153.8438 Q997.6563,153.8438 998.25,153.5781 Q998.8438,153.2969 999.4688,152.7188 L999.4688,155.4375 Z " fill="#000000"/><text fill="#000000" font-family="sans-serif" font-size="14" lengthAdjust="spacing" textLength="32" x="1010.5" y="154.6436">User</text><line style="stroke:#181818;stroke-width:0.5;" x1="982.5" x2="1044.5" y1="165.7969" y2="165.7969"/><line style="stroke:#181818;stroke-width:0.5;" x1="982.5" x2="1044.5" y1="173.7969" y2="173.7969"/></g><!--class AnalysisInfoSchedule--><g id="elem_AnalysisInfoSchedule"><rect codeLine="42" fill="#F1F1F1" height="113.1875" id="AnalysisInfoSchedule" rx="2.5" ry="2.5" style="stroke:#181818;stroke-width:0.5;" width="249" x="301" y="726.2969"/><ellipse cx="348.75" cy="742.2969" fill="#ADD1B2" rx="11" ry="11" style="stroke:#181818;stroke-width:1.0;"/><path d="M351.7188,747.9375 Q351.1406,748.2344 350.5,748.375 Q349.8594,748.5313 349.1563,748.5313 Q346.6563,748.5313 345.3281,746.8906 Q344.0156,745.2344 344.0156,742.1094 Q344.0156,738.9844 345.3281,737.3281 Q346.6563,735.6719 349.1563,735.6719 Q349.8594,735.6719 350.5,735.8281 Q351.1563,735.9844 351.7188,736.2813 L351.7188,739 Q351.0938,738.4219 350.5,738.1563 Q349.9063,737.875 349.2813,737.875 Q347.9375,737.875 347.25,738.9531 Q346.5625,740.0156 346.5625,742.1094 Q346.5625,744.2031 347.25,745.2813 Q347.9375,746.3438 349.2813,746.3438 Q349.9063,746.3438 350.5,746.0781 Q351.0938,745.7969 351.7188,745.2188 L351.7188,747.9375 Z " fill="#000000"/><text fill="#000000" font-family="sans-serif" font-size="14" lengthAdjust="spacing" textLength="145" x="369.25" y="747.1436">AnalysisInfoSchedule</text><line style="stroke:#181818;stroke-width:0.5;" x1="302" x2="549" y1="758.2969" y2="758.2969"/><ellipse cx="312" cy="771.9453" fill="none" rx="3" ry="3" style="stroke:#038048;stroke-width:1.0;"/><text fill="#000000" font-family="sans-serif" font-size="14" lengthAdjust="spacing" textLength="70" x="321" y="775.292">id: Integer</text><rect fill="none" height="6" style="stroke:#C82930;stroke-width:1.0;" width="6" x="309" y="785.2422"/><text fill="#000000" font-family="sans-serif" font-size="14" lengthAdjust="spacing" textLength="134" x="321" y="791.5889">uuid_analysis: UUID</text><rect fill="none" height="6" style="stroke:#C82930;stroke-width:1.0;" width="6" x="309" y="801.5391"/><text fill="#000000" font-family="sans-serif" font-size="14" lengthAdjust="spacing" textLength="193" x="321" y="807.8857">last_update_time: DateTime</text><rect fill="none" height="6" style="stroke:#C82930;stroke-width:1.0;" width="6" x="309" y="817.8359"/><text fill="#000000" font-family="sans-serif" font-size="14" lengthAdjust="spacing" textLength="223" x="321" y="824.1826">next_scheduled_time: DateTime</text><line style="stroke:#181818;stroke-width:0.5;" x1="302" x2="549" y1="831.4844" y2="831.4844"/></g><!--class FirstStageAnalysis--><g id="elem_FirstStageAnalysis"><rect codeLine="49" fill="#F1F1F1" height="422.8281" id="FirstStageAnalysis" rx="2.5" ry="2.5" style="stroke:#181818;stroke-width:0.5;" width="289" x="585" y="571.2969"/><ellipse cx="663.25" cy="587.2969" fill="#ADD1B2" rx="11" ry="11" style="stroke:#181818;stroke-width:1.0;"/><path d="M666.2188,592.9375 Q665.6406,593.2344 665,593.375 Q664.3594,593.5313 663.6563,593.5313 Q661.1563,593.5313 659.8281,591.8906 Q658.5156,590.2344 658.5156,587.1094 Q658.5156,583.9844 659.8281,582.3281 Q661.1563,580.6719 663.6563,580.6719 Q664.3594,580.6719 665,580.8281 Q665.6563,580.9844 666.2188,581.2813 L666.2188,584 Q665.5938,583.4219 665,583.1563 Q664.4063,582.875 663.7813,582.875 Q662.4375,582.875 661.75,583.9531 Q661.0625,585.0156 661.0625,587.1094 Q661.0625,589.2031 661.75,590.2813 Q662.4375,591.3438 663.7813,591.3438 Q664.4063,591.3438 665,591.0781 Q665.5938,590.7969 666.2188,590.2188 L666.2188,592.9375 Z " fill="#000000"/><text fill="#000000" font-family="sans-serif" font-size="14" lengthAdjust="spacing" textLength="124" x="683.75" y="592.1436">FirstStageAnalysis</text><line style="stroke:#181818;stroke-width:0.5;" x1="586" x2="873" y1="603.2969" y2="603.2969"/><ellipse cx="596" cy="616.9453" fill="none" rx="3" ry="3" style="stroke:#038048;stroke-width:1.0;"/><text fill="#000000" font-family="sans-serif" font-size="14" lengthAdjust="spacing" textLength="73" x="605" y="620.292">uuid: UUID</text><rect fill="none" height="6" style="stroke:#C82930;stroke-width:1.0;" width="6" x="593" y="630.2422"/><text fill="#000000" font-family="sans-serif" font-size="14" lengthAdjust="spacing" textLength="134" x="605" y="636.5889">uuid_analysis: UUID</text><rect fill="none" height="6" style="stroke:#C82930;stroke-width:1.0;" width="6" x="593" y="646.5391"/><text fill="#000000" font-family="sans-serif" font-size="14" lengthAdjust="spacing" textLength="108" x="605" y="652.8857">currency: string</text><rect fill="none" height="6" style="stroke:#C82930;stroke-width:1.0;" width="6" x="593" y="662.8359"/><text fill="#000000" font-family="sans-serif" font-size="14" lengthAdjust="spacing" textLength="109" x="605" y="669.1826">ranking: Integer</text><rect fill="none" height="6" style="stroke:#C82930;stroke-width:1.0;" width="6" x="593" y="679.1328"/><text fill="#000000" font-family="sans-serif" font-size="14" lengthAdjust="spacing" textLength="146" x="605" y="685.4795">market_cap: Numeric</text><rect fill="none" height="6" style="stroke:#C82930;stroke-width:1.0;" width="6" x="593" y="695.4297"/><text fill="#000000" font-family="sans-serif" font-size="14" lengthAdjust="spacing" textLength="256" x="605" y="701.7764">week_increase_percentage: Numeric</text><rect fill="none" height="6" style="stroke:#C82930;stroke-width:1.0;" width="6" x="593" y="711.7266"/><text fill="#000000" font-family="sans-serif" font-size="14" lengthAdjust="spacing" textLength="173" x="605" y="718.0732">increase_date: DateTime</text><rect fill="none" height="6" style="stroke:#C82930;stroke-width:1.0;" width="6" x="593" y="728.0234"/><text fill="#000000" font-family="sans-serif" font-size="14" lengthAdjust="spacing" textLength="156" x="605" y="734.3701">closing_price: Numeric</text><rect fill="none" height="6" style="stroke:#C82930;stroke-width:1.0;" width="6" x="593" y="744.3203"/><text fill="#000000" font-family="sans-serif" font-size="14" lengthAdjust="spacing" textLength="231" x="605" y="750.667">last_week_closing_price: Numeric</text><rect fill="none" height="6" style="stroke:#C82930;stroke-width:1.0;" width="6" x="593" y="760.6172"/><text fill="#000000" font-family="sans-serif" font-size="14" lengthAdjust="spacing" textLength="143" x="605" y="766.9639">open_price: Numeric</text><rect fill="none" height="6" style="stroke:#C82930;stroke-width:1.0;" width="6" x="593" y="776.9141"/><text fill="#000000" font-family="sans-serif" font-size="14" lengthAdjust="spacing" textLength="105" x="605" y="783.2607">ema8: Numeric</text><rect fill="none" height="6" style="stroke:#C82930;stroke-width:1.0;" width="6" x="593" y="793.2109"/><text fill="#000000" font-family="sans-serif" font-size="14" lengthAdjust="spacing" textLength="205" x="605" y="799.5576">ema8_greater_open: Boolean</text><rect fill="none" height="6" style="stroke:#C82930;stroke-width:1.0;" width="6" x="593" y="809.5078"/><text fill="#000000" font-family="sans-serif" font-size="14" lengthAdjust="spacing" textLength="184" x="605" y="815.8545">ema8_less_close: Boolean</text><rect fill="none" height="6" style="stroke:#C82930;stroke-width:1.0;" width="6" x="593" y="825.8047"/><text fill="#000000" font-family="sans-serif" font-size="14" lengthAdjust="spacing" textLength="226" x="605" y="832.1514">week_increase_volume: Numeric</text><rect fill="none" height="6" style="stroke:#C82930;stroke-width:1.0;" width="6" x="593" y="842.1016"/><text fill="#000000" font-family="sans-serif" font-size="14" lengthAdjust="spacing" textLength="223" x="605" y="848.4482">increase_volume_day: DateTime</text><rect fill="none" height="6" style="stroke:#C82930;stroke-width:1.0;" width="6" x="593" y="858.3984"/><text fill="#000000" font-family="sans-serif" font-size="14" lengthAdjust="spacing" textLength="182" x="605" y="864.7451">increase_volume: Numeric</text><rect fill="none" height="6" style="stroke:#C82930;stroke-width:1.0;" width="6" x="593" y="874.6953"/><text fill="#000000" font-family="sans-serif" font-size="14" lengthAdjust="spacing" textLength="161" x="605" y="881.042">today_volume: Numeric</text><rect fill="none" height="6" style="stroke:#C82930;stroke-width:1.0;" width="6" x="593" y="890.9922"/><text fill="#000000" font-family="sans-serif" font-size="14" lengthAdjust="spacing" textLength="234" x="605" y="897.3389">volume_before_increase: Numeric</text><rect fill="none" height="6" style="stroke:#C82930;stroke-width:1.0;" width="6" x="593" y="907.2891"/><text fill="#000000" font-family="sans-serif" font-size="14" lengthAdjust="spacing" textLength="182" x="605" y="913.6357">volumes_relation: Numeric</text><rect fill="none" height="6" style="stroke:#C82930;stroke-width:1.0;" width="6" x="593" y="923.5859"/><text fill="#000000" font-family="sans-serif" font-size="14" lengthAdjust="spacing" textLength="263" x="605" y="929.9326">expressive_volume_increase: Boolean</text><rect fill="none" height="6" style="stroke:#C82930;stroke-width:1.0;" width="6" x="593" y="939.8828"/><text fill="#000000" font-family="sans-serif" font-size="14" lengthAdjust="spacing" textLength="153" x="605" y="946.2295">ema_aligned: Boolean</text><rect fill="none" height="6" style="stroke:#C82930;stroke-width:1.0;" width="6" x="593" y="956.1797"/><text fill="#000000" font-family="sans-serif" font-size="14" lengthAdjust="spacing" textLength="159" x="605" y="962.5264">buying_signal: Boolean</text><rect fill="none" height="6" style="stroke:#C82930;stroke-width:1.0;" width="6" x="593" y="972.4766"/><text fill="#000000" font-family="sans-serif" font-size="14" lengthAdjust="spacing" textLength="114" x="605" y="978.8232">today: DateTime</text><line style="stroke:#181818;stroke-width:0.5;" x1="586" x2="873" y1="986.125" y2="986.125"/></g><!--class WalletTransaction--><g id="elem_WalletTransaction"><rect codeLine="75" fill="#F1F1F1" height="129.4844" id="WalletTransaction" rx="2.5" ry="2.5" style="stroke:#181818;stroke-width:0.5;" width="223" x="902" y="356.7969"/><ellipse cx="948.25" cy="372.7969" fill="#ADD1B2" rx="11" ry="11" style="stroke:#181818;stroke-width:1.0;"/><path d="M951.2188,378.4375 Q950.6406,378.7344 950,378.875 Q949.3594,379.0313 948.6563,379.0313 Q946.1563,379.0313 944.8281,377.3906 Q943.5156,375.7344 943.5156,372.6094 Q943.5156,369.4844 944.8281,367.8281 Q946.1563,366.1719 948.6563,366.1719 Q949.3594,366.1719 950,366.3281 Q950.6563,366.4844 951.2188,366.7813 L951.2188,369.5 Q950.5938,368.9219 950,368.6563 Q949.4063,368.375 948.7813,368.375 Q947.4375,368.375 946.75,369.4531 Q946.0625,370.5156 946.0625,372.6094 Q946.0625,374.7031 946.75,375.7813 Q947.4375,376.8438 948.7813,376.8438 Q949.4063,376.8438 950,376.5781 Q950.5938,376.2969 951.2188,375.7188 L951.2188,378.4375 Z " fill="#000000"/><text fill="#000000" font-family="sans-serif" font-size="14" lengthAdjust="spacing" textLength="122" x="968.75" y="377.6436">WalletTransaction</text><line style="stroke:#181818;stroke-width:0.5;" x1="903" x2="1124" y1="388.7969" y2="388.7969"/><ellipse cx="913" cy="402.4453" fill="none" rx="3" ry="3" style="stroke:#038048;stroke-width:1.0;"/><text fill="#000000" font-family="sans-serif" font-size="14" lengthAdjust="spacing" textLength="73" x="922" y="405.792">uudi: UUID</text><rect fill="none" height="6" style="stroke:#C82930;stroke-width:1.0;" width="6" x="910" y="415.7422"/><text fill="#000000" font-family="sans-serif" font-size="14" lengthAdjust="spacing" textLength="121" x="922" y="422.0889">quantity: Numeric</text><rect fill="none" height="6" style="stroke:#C82930;stroke-width:1.0;" width="6" x="910" y="432.0391"/><text fill="#000000" font-family="sans-serif" font-size="14" lengthAdjust="spacing" textLength="119" x="922" y="438.3857">amount: Numeric</text><rect fill="none" height="6" style="stroke:#C82930;stroke-width:1.0;" width="6" x="910" y="448.3359"/><text fill="#000000" font-family="sans-serif" font-size="14" lengthAdjust="spacing" textLength="107" x="922" y="454.6826">date: DateTime</text><rect fill="none" height="6" style="stroke:#C82930;stroke-width:1.0;" width="6" x="910" y="464.6328"/><text fill="#000000" font-family="sans-serif" font-size="14" lengthAdjust="spacing" textLength="197" x="922" y="470.9795">price_on_purchase: Numeric</text><line style="stroke:#181818;stroke-width:0.5;" x1="903" x2="1124" y1="478.2813" y2="478.2813"/></g><!--class CryptoRanking--><g id="elem_CryptoRanking"><rect codeLine="83" fill="#F1F1F1" height="129.4844" id="CryptoRanking" rx="2.5" ry="2.5" style="stroke:#181818;stroke-width:0.5;" width="186" x="681.5" y="356.7969"/><ellipse cx="720.35" cy="372.7969" fill="#ADD1B2" rx="11" ry="11" style="stroke:#181818;stroke-width:1.0;"/><path d="M723.3188,378.4375 Q722.7406,378.7344 722.1,378.875 Q721.4594,379.0313 720.7563,379.0313 Q718.2563,379.0313 716.9281,377.3906 Q715.6156,375.7344 715.6156,372.6094 Q715.6156,369.4844 716.9281,367.8281 Q718.2563,366.1719 720.7563,366.1719 Q721.4594,366.1719 722.1,366.3281 Q722.7563,366.4844 723.3188,366.7813 L723.3188,369.5 Q722.6938,368.9219 722.1,368.6563 Q721.5063,368.375 720.8813,368.375 Q719.5375,368.375 718.85,369.4531 Q718.1625,370.5156 718.1625,372.6094 Q718.1625,374.7031 718.85,375.7813 Q719.5375,376.8438 720.8813,376.8438 Q721.5063,376.8438 722.1,376.5781 Q722.6938,376.2969 723.3188,375.7188 L723.3188,378.4375 Z " fill="#000000"/><text fill="#000000" font-family="sans-serif" font-size="14" lengthAdjust="spacing" textLength="101" x="739.65" y="377.6436">CryptoRanking</text><line style="stroke:#181818;stroke-width:0.5;" x1="682.5" x2="866.5" y1="388.7969" y2="388.7969"/><rect fill="none" height="6" style="stroke:#C82930;stroke-width:1.0;" width="6" x="689.5" y="399.4453"/><text fill="#000000" font-family="sans-serif" font-size="14" lengthAdjust="spacing" textLength="73" x="701.5" y="405.792">uuid: UUID</text><rect fill="none" height="6" style="stroke:#C82930;stroke-width:1.0;" width="6" x="689.5" y="415.7422"/><text fill="#000000" font-family="sans-serif" font-size="14" lengthAdjust="spacing" textLength="98" x="701.5" y="422.0889">symbol: String</text><rect fill="none" height="6" style="stroke:#C82930;stroke-width:1.0;" width="6" x="689.5" y="432.0391"/><text fill="#000000" font-family="sans-serif" font-size="14" lengthAdjust="spacing" textLength="146" x="701.5" y="438.3857">market_cap: Numeric</text><rect fill="none" height="6" style="stroke:#C82930;stroke-width:1.0;" width="6" x="689.5" y="448.3359"/><text fill="#000000" font-family="sans-serif" font-size="14" lengthAdjust="spacing" textLength="156" x="701.5" y="454.6826">closing_price: Numeric</text><rect fill="none" height="6" style="stroke:#C82930;stroke-width:1.0;" width="6" x="689.5" y="464.6328"/><text fill="#000000" font-family="sans-serif" font-size="14" lengthAdjust="spacing" textLength="160" x="701.5" y="470.9795">ranking_value: Numeric</text><line style="stroke:#181818;stroke-width:0.5;" x1="682.5" x2="866.5" y1="478.2813" y2="478.2813"/></g><!--link Cryptocurrency to CurrencyInfoSchedule--><g id="link_Cryptocurrency_CurrencyInfoSchedule"><path codeLine="92" d="M329.93,247.3269 C281.83,289.2569 226.28,337.6869 186.21,372.6069 " fill="none" id="Cryptocurrency-CurrencyInfoSchedule" style="stroke:#181818;stroke-width:1.0;"/><text fill="#000000" font-family="sans-serif" font-size="13" lengthAdjust="spacing" textLength="64" x="265.5" y="314.3638">schedules</text><text fill="#000000" font-family="sans-serif" font-size="13" lengthAdjust="spacing" textLength="8" x="313.8473" y="250.6691">1</text><text fill="#000000" font-family="sans-serif" font-size="13" lengthAdjust="spacing" textLength="7" x="186.4114" y="361.7891">*</text></g><!--link Cryptocurrency to Sector--><g id="link_Cryptocurrency_Sector"><path codeLine="93" d="M410.36,271.5969 C405.49,297.5769 400.44,324.5369 396,348.2369 " fill="none" id="Cryptocurrency-Sector" style="stroke:#181818;stroke-width:1.0;"/><text fill="#000000" font-family="sans-serif" font-size="13" lengthAdjust="spacing" textLength="8" x="400.6709" y="291.8092">1</text><text fill="#000000" font-family="sans-serif" font-size="13" lengthAdjust="spacing" textLength="23" x="373.2063" y="337.0141">0..*</text></g><!--link Cryptocurrency to Analysis--><g id="link_Cryptocurrency_Analysis"><path codeLine="94" d="M494.48,271.5969 C514.23,306.9769 534.99,344.1569 550.81,372.4869 " fill="none" id="Cryptocurrency-Analysis" style="stroke:#181818;stroke-width:1.0;"/><text fill="#000000" font-family="sans-serif" font-size="13" lengthAdjust="spacing" textLength="8" x="490.4427" y="291.8092">1</text><text fill="#000000" font-family="sans-serif" font-size="13" lengthAdjust="spacing" textLength="23" x="522.4395" y="361.6522">0..*</text></g><!--link Analysis to AnalysisInfoSchedule--><g id="link_Analysis_AnalysisInfoSchedule"><path codeLine="95" d="M557.32,470.0369 C529.29,536.3169 478.71,655.9569 449.01,726.1769 " fill="none" id="Analysis-AnalysisInfoSchedule" style="stroke:#181818;stroke-width:1.0;"/><text fill="#000000" font-family="sans-serif" font-size="13" lengthAdjust="spacing" textLength="64" x="534.5" y="537.3638">schedules</text><text fill="#000000" font-family="sans-serif" font-size="13" lengthAdjust="spacing" textLength="8" x="546.0708" y="489.6773">1</text><text fill="#000000" font-family="sans-serif" font-size="13" lengthAdjust="spacing" textLength="7" x="444.4487" y="715.4258">*</text></g><!--link Analysis to FirstStageAnalysis--><g id="link_Analysis_FirstStageAnalysis"><path codeLine="96" d="M597.68,470.0369 C609.15,497.1569 624.4,533.2169 640.44,571.1669 " fill="none" id="Analysis-FirstStageAnalysis" style="stroke:#181818;stroke-width:1.0;"/><text fill="#000000" font-family="sans-serif" font-size="13" lengthAdjust="spacing" textLength="52" x="628.5" y="537.3638">includes</text><text fill="#000000" font-family="sans-serif" font-size="13" lengthAdjust="spacing" textLength="8" x="591.8542" y="489.6773">1</text><text fill="#000000" font-family="sans-serif" font-size="13" lengthAdjust="spacing" textLength="7" x="630.1136" y="560.3643">*</text></g><!--link User to WalletTransaction--><g id="link_User_WalletTransaction"><path codeLine="97" d="M1013.5,182.0069 C1013.5,220.8169 1013.5,300.1869 1013.5,356.6569 " fill="none" id="User-WalletTransaction" style="stroke:#181818;stroke-width:1.0;"/><text fill="#000000" font-family="sans-serif" font-size="13" lengthAdjust="spacing" textLength="32" x="1014.5" y="314.3638">owns</text><text fill="#000000" font-family="sans-serif" font-size="13" lengthAdjust="spacing" textLength="8" x="1004.525" y="201.8193">1</text><text fill="#000000" font-family="sans-serif" font-size="13" lengthAdjust="spacing" textLength="27" x="985.0234" y="345.8142">0...*</text></g><!--link Cryptocurrency to CryptoRanking--><g id="link_Cryptocurrency_CryptoRanking"><path codeLine="98" d="M533.02,236.1969 C583.39,274.5969 643.49,320.4169 691.13,356.7369 " fill="none" id="Cryptocurrency-CryptoRanking" style="stroke:#181818;stroke-width:1.0;"/><text fill="#000000" font-family="sans-serif" font-size="13" lengthAdjust="spacing" textLength="74" x="635.5" y="314.3638">has ranking</text><text fill="#000000" font-family="sans-serif" font-size="13" lengthAdjust="spacing" textLength="8" x="541.0989" y="238.687">1</text><text fill="#000000" font-family="sans-serif" font-size="13" lengthAdjust="spacing" textLength="7" x="674.6286" y="345.903">*</text></g><!--SRC=[fLLBRjim4Dth58Gt1LeuQ84k2krQ6m4255t42Ree2c92JMGY5AdouqHeSvwkkkm9Sh6IacnB5EK4g5VoVD-y-T1oAv2iEPGQAY05afK0Oz24pxMgdlv8hiWlib9S6YYHBCccrbnQyZxBM30bAztKLZ6dDKhMa9yPyRytn3bUvEJw-cBT2fR4DDMD4ZdPMEzVza9MCHhiBgJ54lL0QeGh8sEXIXM995GOYGeqJFFQSYKZZKMsbPo1e8LYEVdCZVtM6NplBPmM9gbW6i5YGS7cPEs_hdY5UrHWB7LruQK3tUE1dfwO2tchDcoBXVE4xqcQbZw8HYslS99EueEbfWzKn3R7l1jaLkdvTYIOis4OuWQ5njCV3gJNDgb6XRWZ5s2MxtoSJqe917c4z562Q0mtyw0Y4ZiXoWABHBXhWw6-IVWNCXsIK-XzHYZ-imS7GETS6xknVcsUhtmUpNwpScA6B6kGT_vVN5K5-WujPL3dv8khK7FMQ-uHxoYNOP8DqXerGncmnNO7asGpc536fwN-2B29QqjSc-UacQfHfZLOmOUKZ9Rj_caQN8-ZC30GQ4oR5MFrkEwT4gwQhxbJ-zARIUNFXB3AEyte-gWtUAiq7h2ahGpLAA2xNX4H3xNsLVhTsiCyHfemGa7mKWxtfbFTk2RqnNWbY5ZPrf2QvAyW1DehFtCcRBUIWq4k-6XSZwTYZ1ugvQIDfSaPQqU3AZyZJhFjYAd7yQjpsIr1ZsRvmaTdVaTEZcs_SNG7meqXlIANlcTFlv_- -eVJRvL60eQmxYNDeWToyMv1bakoUBr8lWr-pVklMS-tPsVUkJlmfstsToSx7A11zkIz7APFEILkMXvMGpZ_xcRjIHv021YcivCJTIzFyZ9gRauMVWZsz2-oVm00]--></g></svg>
