<?xml version="1.0" encoding="us-ascii" standalone="no"?><svg xmlns="http://www.w3.org/2000/svg" xmlns:xlink="http://www.w3.org/1999/xlink" contentStyleType="text/css" height="1207px" preserveAspectRatio="none" style="width:881px;height:1207px;background:#FFFFFF;" version="1.1" viewBox="0 0 881 1207" width="881px" zoomAndPan="magnify"><defs/><g><text fill="#000000" font-family="sans-serif" font-size="14" font-weight="bold" lengthAdjust="spacing" textLength="423" x="222" y="22.9951">Diagrama de Classes de Dom&#237;nio | Coinsage - Sprint 4</text><!--class Cryptocurrency--><g id="elem_Cryptocurrency"><rect codeLine="3" fill="#F1F1F1" height="227.2656" id="Cryptocurrency" rx="2.5" ry="2.5" style="stroke:#181818;stroke-width:0.5;" width="203" x="340" y="250.2969"/><ellipse cx="384.75" cy="266.2969" fill="#ADD1B2" rx="11" ry="11" style="stroke:#181818;stroke-width:1.0;"/><path d="M387.7188,271.9375 Q387.1406,272.2344 386.5,272.375 Q385.8594,272.5313 385.1563,272.5313 Q382.6563,272.5313 381.3281,270.8906 Q380.0156,269.2344 380.0156,266.1094 Q380.0156,262.9844 381.3281,261.3281 Q382.6563,259.6719 385.1563,259.6719 Q385.8594,259.6719 386.5,259.8281 Q387.1563,259.9844 387.7188,260.2813 L387.7188,263 Q387.0938,262.4219 386.5,262.1563 Q385.9063,261.875 385.2813,261.875 Q383.9375,261.875 383.25,262.9531 Q382.5625,264.0156 382.5625,266.1094 Q382.5625,268.2031 383.25,269.2813 Q383.9375,270.3438 385.2813,270.3438 Q385.9063,270.3438 386.5,270.0781 Q387.0938,269.7969 387.7188,269.2188 L387.7188,271.9375 Z " fill="#000000"/><text fill="#000000" font-family="sans-serif" font-size="14" lengthAdjust="spacing" textLength="105" x="405.25" y="271.1436">Cryptocurrency</text><line style="stroke:#181818;stroke-width:0.5;" x1="341" x2="542" y1="282.2969" y2="282.2969"/><ellipse cx="351" cy="295.9453" fill="none" rx="3" ry="3" style="stroke:#038048;stroke-width:1.0;"/><text fill="#000000" font-family="sans-serif" font-size="14" lengthAdjust="spacing" textLength="73" x="360" y="299.292">uuid: UUID</text><rect fill="none" height="6" style="stroke:#C82930;stroke-width:1.0;" width="6" x="348" y="309.2422"/><text fill="#000000" font-family="sans-serif" font-size="14" lengthAdjust="spacing" textLength="98" x="360" y="315.5889">symbol: String</text><rect fill="none" height="6" style="stroke:#C82930;stroke-width:1.0;" width="6" x="348" y="325.5391"/><text fill="#000000" font-family="sans-serif" font-size="14" lengthAdjust="spacing" textLength="106" x="360" y="331.8857">cmc_id: Integer</text><rect fill="none" height="6" style="stroke:#C82930;stroke-width:1.0;" width="6" x="348" y="341.8359"/><text fill="#000000" font-family="sans-serif" font-size="14" lengthAdjust="spacing" textLength="114" x="360" y="348.1826">cmc_slug: String</text><rect fill="none" height="6" style="stroke:#C82930;stroke-width:1.0;" width="6" x="348" y="358.1328"/><text fill="#000000" font-family="sans-serif" font-size="14" lengthAdjust="spacing" textLength="79" x="360" y="364.4795">logo: String</text><rect fill="none" height="6" style="stroke:#C82930;stroke-width:1.0;" width="6" x="348" y="374.4297"/><text fill="#000000" font-family="sans-serif" font-size="14" lengthAdjust="spacing" textLength="88" x="360" y="380.7764">name: String</text><rect fill="none" height="6" style="stroke:#C82930;stroke-width:1.0;" width="6" x="348" y="390.7266"/><text fill="#000000" font-family="sans-serif" font-size="14" lengthAdjust="spacing" textLength="126" x="360" y="397.0732">description: String</text><rect fill="none" height="6" style="stroke:#C82930;stroke-width:1.0;" width="6" x="348" y="407.0234"/><text fill="#000000" font-family="sans-serif" font-size="14" lengthAdjust="spacing" textLength="177" x="360" y="413.3701">technical_doc: List[String]</text><rect fill="none" height="6" style="stroke:#C82930;stroke-width:1.0;" width="6" x="348" y="423.3203"/><text fill="#000000" font-family="sans-serif" font-size="14" lengthAdjust="spacing" textLength="107" x="360" y="429.667">urls: List[String]</text><rect fill="none" height="6" style="stroke:#C82930;stroke-width:1.0;" width="6" x="348" y="439.6172"/><text fill="#000000" font-family="sans-serif" font-size="14" lengthAdjust="spacing" textLength="149" x="360" y="445.9639">created_at: DateTime</text><rect fill="none" height="6" style="stroke:#C82930;stroke-width:1.0;" width="6" x="348" y="455.9141"/><text fill="#000000" font-family="sans-serif" font-size="14" lengthAdjust="spacing" textLength="156" x="360" y="462.2607">last_update: DateTime</text><line style="stroke:#181818;stroke-width:0.5;" x1="341" x2="542" y1="469.5625" y2="469.5625"/></g><!--class CurrencyInfoSchedule--><g id="elem_CurrencyInfoSchedule"><rect codeLine="17" fill="#F1F1F1" height="96.8906" id="CurrencyInfoSchedule" rx="2.5" ry="2.5" style="stroke:#181818;stroke-width:0.5;" width="249" x="7" y="578.7969"/><ellipse cx="51.25" cy="594.7969" fill="#ADD1B2" rx="11" ry="11" style="stroke:#181818;stroke-width:1.0;"/><path d="M54.2188,600.4375 Q53.6406,600.7344 53,600.875 Q52.3594,601.0313 51.6563,601.0313 Q49.1563,601.0313 47.8281,599.3906 Q46.5156,597.7344 46.5156,594.6094 Q46.5156,591.4844 47.8281,589.8281 Q49.1563,588.1719 51.6563,588.1719 Q52.3594,588.1719 53,588.3281 Q53.6563,588.4844 54.2188,588.7813 L54.2188,591.5 Q53.5938,590.9219 53,590.6563 Q52.4063,590.375 51.7813,590.375 Q50.4375,590.375 49.75,591.4531 Q49.0625,592.5156 49.0625,594.6094 Q49.0625,596.7031 49.75,597.7813 Q50.4375,598.8438 51.7813,598.8438 Q52.4063,598.8438 53,598.5781 Q53.5938,598.2969 54.2188,597.7188 L54.2188,600.4375 Z " fill="#000000"/><text fill="#000000" font-family="sans-serif" font-size="14" lengthAdjust="spacing" textLength="152" x="71.75" y="599.6436">CurrencyInfoSchedule</text><line style="stroke:#181818;stroke-width:0.5;" x1="8" x2="255" y1="610.7969" y2="610.7969"/><ellipse cx="18" cy="624.4453" fill="none" rx="3" ry="3" style="stroke:#038048;stroke-width:1.0;"/><text fill="#000000" font-family="sans-serif" font-size="14" lengthAdjust="spacing" textLength="70" x="27" y="627.792">id: Integer</text><rect fill="none" height="6" style="stroke:#C82930;stroke-width:1.0;" width="6" x="15" y="637.7422"/><text fill="#000000" font-family="sans-serif" font-size="14" lengthAdjust="spacing" textLength="193" x="27" y="644.0889">last_update_time: DateTime</text><rect fill="none" height="6" style="stroke:#C82930;stroke-width:1.0;" width="6" x="15" y="654.0391"/><text fill="#000000" font-family="sans-serif" font-size="14" lengthAdjust="spacing" textLength="223" x="27" y="660.3857">next_scheduled_time: DateTime</text><line style="stroke:#181818;stroke-width:0.5;" x1="8" x2="255" y1="667.6875" y2="667.6875"/></g><!--class Sector--><g id="elem_Sector"><rect codeLine="24" fill="#F1F1F1" height="145.7813" id="Sector" rx="2.5" ry="2.5" style="stroke:#181818;stroke-width:0.5;" width="183" x="291" y="554.2969"/><ellipse cx="355.75" cy="570.2969" fill="#ADD1B2" rx="11" ry="11" style="stroke:#181818;stroke-width:1.0;"/><path d="M358.7188,575.9375 Q358.1406,576.2344 357.5,576.375 Q356.8594,576.5313 356.1563,576.5313 Q353.6563,576.5313 352.3281,574.8906 Q351.0156,573.2344 351.0156,570.1094 Q351.0156,566.9844 352.3281,565.3281 Q353.6563,563.6719 356.1563,563.6719 Q356.8594,563.6719 357.5,563.8281 Q358.1563,563.9844 358.7188,564.2813 L358.7188,567 Q358.0938,566.4219 357.5,566.1563 Q356.9063,565.875 356.2813,565.875 Q354.9375,565.875 354.25,566.9531 Q353.5625,568.0156 353.5625,570.1094 Q353.5625,572.2031 354.25,573.2813 Q354.9375,574.3438 356.2813,574.3438 Q356.9063,574.3438 357.5,574.0781 Q358.0938,573.7969 358.7188,573.2188 L358.7188,575.9375 Z " fill="#000000"/><text fill="#000000" font-family="sans-serif" font-size="14" lengthAdjust="spacing" textLength="45" x="376.25" y="575.1436">Sector</text><line style="stroke:#181818;stroke-width:0.5;" x1="292" x2="473" y1="586.2969" y2="586.2969"/><ellipse cx="302" cy="599.9453" fill="none" rx="3" ry="3" style="stroke:#038048;stroke-width:1.0;"/><text fill="#000000" font-family="sans-serif" font-size="14" lengthAdjust="spacing" textLength="73" x="311" y="603.292">uuid: UUID</text><rect fill="none" height="6" style="stroke:#C82930;stroke-width:1.0;" width="6" x="299" y="613.2422"/><text fill="#000000" font-family="sans-serif" font-size="14" lengthAdjust="spacing" textLength="88" x="311" y="619.5889">name: String</text><rect fill="none" height="6" style="stroke:#C82930;stroke-width:1.0;" width="6" x="299" y="629.5391"/><text fill="#000000" font-family="sans-serif" font-size="14" lengthAdjust="spacing" textLength="74" x="311" y="635.8857">title: String</text><rect fill="none" height="6" style="stroke:#C82930;stroke-width:1.0;" width="6" x="299" y="645.8359"/><text fill="#000000" font-family="sans-serif" font-size="14" lengthAdjust="spacing" textLength="157" x="311" y="652.1826">coins_quantity: Integer</text><rect fill="none" height="6" style="stroke:#C82930;stroke-width:1.0;" width="6" x="299" y="662.1328"/><text fill="#000000" font-family="sans-serif" font-size="14" lengthAdjust="spacing" textLength="97" x="311" y="668.4795">cmc_id: String</text><rect fill="none" height="6" style="stroke:#C82930;stroke-width:1.0;" width="6" x="299" y="678.4297"/><text fill="#000000" font-family="sans-serif" font-size="14" lengthAdjust="spacing" textLength="106" x="311" y="684.7764">active: Boolean</text><line style="stroke:#181818;stroke-width:0.5;" x1="292" x2="473" y1="692.0781" y2="692.0781"/></g><!--class Analysis--><g id="elem_Analysis"><rect codeLine="33" fill="#F1F1F1" height="96.8906" id="Analysis" rx="2.5" ry="2.5" style="stroke:#181818;stroke-width:0.5;" width="137" x="509" y="578.7969"/><ellipse cx="546.5" cy="594.7969" fill="#ADD1B2" rx="11" ry="11" style="stroke:#181818;stroke-width:1.0;"/><path d="M549.4688,600.4375 Q548.8906,600.7344 548.25,600.875 Q547.6094,601.0313 546.9063,601.0313 Q544.4063,601.0313 543.0781,599.3906 Q541.7656,597.7344 541.7656,594.6094 Q541.7656,591.4844 543.0781,589.8281 Q544.4063,588.1719 546.9063,588.1719 Q547.6094,588.1719 548.25,588.3281 Q548.9063,588.4844 549.4688,588.7813 L549.4688,591.5 Q548.8438,590.9219 548.25,590.6563 Q547.6563,590.375 547.0313,590.375 Q545.6875,590.375 545,591.4531 Q544.3125,592.5156 544.3125,594.6094 Q544.3125,596.7031 545,597.7813 Q545.6875,598.8438 547.0313,598.8438 Q547.6563,598.8438 548.25,598.5781 Q548.8438,598.2969 549.4688,597.7188 L549.4688,600.4375 Z " fill="#000000"/><text fill="#000000" font-family="sans-serif" font-size="14" lengthAdjust="spacing" textLength="55" x="565.5" y="599.6436">Analysis</text><line style="stroke:#181818;stroke-width:0.5;" x1="510" x2="645" y1="610.7969" y2="610.7969"/><ellipse cx="520" cy="624.4453" fill="none" rx="3" ry="3" style="stroke:#038048;stroke-width:1.0;"/><text fill="#000000" font-family="sans-serif" font-size="14" lengthAdjust="spacing" textLength="73" x="529" y="627.792">uuid: UUID</text><rect fill="none" height="6" style="stroke:#C82930;stroke-width:1.0;" width="6" x="517" y="637.7422"/><text fill="#000000" font-family="sans-serif" font-size="14" lengthAdjust="spacing" textLength="107" x="529" y="644.0889">date: DateTime</text><rect fill="none" height="6" style="stroke:#C82930;stroke-width:1.0;" width="6" x="517" y="654.0391"/><text fill="#000000" font-family="sans-serif" font-size="14" lengthAdjust="spacing" textLength="111" x="529" y="660.3857">ended: Boolean</text><line style="stroke:#181818;stroke-width:0.5;" x1="510" x2="645" y1="667.6875" y2="667.6875"/></g><!--class AnalysisInfoSchedule--><g id="elem_AnalysisInfoSchedule"><rect codeLine="39" fill="#F1F1F1" height="113.1875" id="AnalysisInfoSchedule" rx="2.5" ry="2.5" style="stroke:#181818;stroke-width:0.5;" width="249" x="301" y="932.2969"/><ellipse cx="348.75" cy="948.2969" fill="#ADD1B2" rx="11" ry="11" style="stroke:#181818;stroke-width:1.0;"/><path d="M351.7188,953.9375 Q351.1406,954.2344 350.5,954.375 Q349.8594,954.5313 349.1563,954.5313 Q346.6563,954.5313 345.3281,952.8906 Q344.0156,951.2344 344.0156,948.1094 Q344.0156,944.9844 345.3281,943.3281 Q346.6563,941.6719 349.1563,941.6719 Q349.8594,941.6719 350.5,941.8281 Q351.1563,941.9844 351.7188,942.2813 L351.7188,945 Q351.0938,944.4219 350.5,944.1563 Q349.9063,943.875 349.2813,943.875 Q347.9375,943.875 347.25,944.9531 Q346.5625,946.0156 346.5625,948.1094 Q346.5625,950.2031 347.25,951.2813 Q347.9375,952.3438 349.2813,952.3438 Q349.9063,952.3438 350.5,952.0781 Q351.0938,951.7969 351.7188,951.2188 L351.7188,953.9375 Z " fill="#000000"/><text fill="#000000" font-family="sans-serif" font-size="14" lengthAdjust="spacing" textLength="145" x="369.25" y="953.1436">AnalysisInfoSchedule</text><line style="stroke:#181818;stroke-width:0.5;" x1="302" x2="549" y1="964.2969" y2="964.2969"/><ellipse cx="312" cy="977.9453" fill="none" rx="3" ry="3" style="stroke:#038048;stroke-width:1.0;"/><text fill="#000000" font-family="sans-serif" font-size="14" lengthAdjust="spacing" textLength="70" x="321" y="981.292">id: Integer</text><rect fill="none" height="6" style="stroke:#C82930;stroke-width:1.0;" width="6" x="309" y="991.2422"/><text fill="#000000" font-family="sans-serif" font-size="14" lengthAdjust="spacing" textLength="134" x="321" y="997.5889">uuid_analysis: UUID</text><rect fill="none" height="6" style="stroke:#C82930;stroke-width:1.0;" width="6" x="309" y="1007.5391"/><text fill="#000000" font-family="sans-serif" font-size="14" lengthAdjust="spacing" textLength="193" x="321" y="1013.8857">last_update_time: DateTime</text><rect fill="none" height="6" style="stroke:#C82930;stroke-width:1.0;" width="6" x="309" y="1023.8359"/><text fill="#000000" font-family="sans-serif" font-size="14" lengthAdjust="spacing" textLength="223" x="321" y="1030.1826">next_scheduled_time: DateTime</text><line style="stroke:#181818;stroke-width:0.5;" x1="302" x2="549" y1="1037.4844" y2="1037.4844"/></g><!--class FirstStageAnalysis--><g id="elem_FirstStageAnalysis"><rect codeLine="46" fill="#F1F1F1" height="422.8281" id="FirstStageAnalysis" rx="2.5" ry="2.5" style="stroke:#181818;stroke-width:0.5;" width="289" x="585" y="777.2969"/><ellipse cx="663.25" cy="793.2969" fill="#ADD1B2" rx="11" ry="11" style="stroke:#181818;stroke-width:1.0;"/><path d="M666.2188,798.9375 Q665.6406,799.2344 665,799.375 Q664.3594,799.5313 663.6563,799.5313 Q661.1563,799.5313 659.8281,797.8906 Q658.5156,796.2344 658.5156,793.1094 Q658.5156,789.9844 659.8281,788.3281 Q661.1563,786.6719 663.6563,786.6719 Q664.3594,786.6719 665,786.8281 Q665.6563,786.9844 666.2188,787.2813 L666.2188,790 Q665.5938,789.4219 665,789.1563 Q664.4063,788.875 663.7813,788.875 Q662.4375,788.875 661.75,789.9531 Q661.0625,791.0156 661.0625,793.1094 Q661.0625,795.2031 661.75,796.2813 Q662.4375,797.3438 663.7813,797.3438 Q664.4063,797.3438 665,797.0781 Q665.5938,796.7969 666.2188,796.2188 L666.2188,798.9375 Z " fill="#000000"/><text fill="#000000" font-family="sans-serif" font-size="14" lengthAdjust="spacing" textLength="124" x="683.75" y="798.1436">FirstStageAnalysis</text><line style="stroke:#181818;stroke-width:0.5;" x1="586" x2="873" y1="809.2969" y2="809.2969"/><ellipse cx="596" cy="822.9453" fill="none" rx="3" ry="3" style="stroke:#038048;stroke-width:1.0;"/><text fill="#000000" font-family="sans-serif" font-size="14" lengthAdjust="spacing" textLength="73" x="605" y="826.292">uuid: UUID</text><rect fill="none" height="6" style="stroke:#C82930;stroke-width:1.0;" width="6" x="593" y="836.2422"/><text fill="#000000" font-family="sans-serif" font-size="14" lengthAdjust="spacing" textLength="134" x="605" y="842.5889">uuid_analysis: UUID</text><rect fill="none" height="6" style="stroke:#C82930;stroke-width:1.0;" width="6" x="593" y="852.5391"/><text fill="#000000" font-family="sans-serif" font-size="14" lengthAdjust="spacing" textLength="108" x="605" y="858.8857">currency: string</text><rect fill="none" height="6" style="stroke:#C82930;stroke-width:1.0;" width="6" x="593" y="868.8359"/><text fill="#000000" font-family="sans-serif" font-size="14" lengthAdjust="spacing" textLength="109" x="605" y="875.1826">ranking: Integer</text><rect fill="none" height="6" style="stroke:#C82930;stroke-width:1.0;" width="6" x="593" y="885.1328"/><text fill="#000000" font-family="sans-serif" font-size="14" lengthAdjust="spacing" textLength="146" x="605" y="891.4795">market_cap: Numeric</text><rect fill="none" height="6" style="stroke:#C82930;stroke-width:1.0;" width="6" x="593" y="901.4297"/><text fill="#000000" font-family="sans-serif" font-size="14" lengthAdjust="spacing" textLength="256" x="605" y="907.7764">week_increase_percentage: Numeric</text><rect fill="none" height="6" style="stroke:#C82930;stroke-width:1.0;" width="6" x="593" y="917.7266"/><text fill="#000000" font-family="sans-serif" font-size="14" lengthAdjust="spacing" textLength="173" x="605" y="924.0732">increase_date: DateTime</text><rect fill="none" height="6" style="stroke:#C82930;stroke-width:1.0;" width="6" x="593" y="934.0234"/><text fill="#000000" font-family="sans-serif" font-size="14" lengthAdjust="spacing" textLength="156" x="605" y="940.3701">closing_price: Numeric</text><rect fill="none" height="6" style="stroke:#C82930;stroke-width:1.0;" width="6" x="593" y="950.3203"/><text fill="#000000" font-family="sans-serif" font-size="14" lengthAdjust="spacing" textLength="231" x="605" y="956.667">last_week_closing_price: Numeric</text><rect fill="none" height="6" style="stroke:#C82930;stroke-width:1.0;" width="6" x="593" y="966.6172"/><text fill="#000000" font-family="sans-serif" font-size="14" lengthAdjust="spacing" textLength="143" x="605" y="972.9639">open_price: Numeric</text><rect fill="none" height="6" style="stroke:#C82930;stroke-width:1.0;" width="6" x="593" y="982.9141"/><text fill="#000000" font-family="sans-serif" font-size="14" lengthAdjust="spacing" textLength="105" x="605" y="989.2607">ema8: Numeric</text><rect fill="none" height="6" style="stroke:#C82930;stroke-width:1.0;" width="6" x="593" y="999.2109"/><text fill="#000000" font-family="sans-serif" font-size="14" lengthAdjust="spacing" textLength="205" x="605" y="1005.5576">ema8_greater_open: Boolean</text><rect fill="none" height="6" style="stroke:#C82930;stroke-width:1.0;" width="6" x="593" y="1015.5078"/><text fill="#000000" font-family="sans-serif" font-size="14" lengthAdjust="spacing" textLength="184" x="605" y="1021.8545">ema8_less_close: Boolean</text><rect fill="none" height="6" style="stroke:#C82930;stroke-width:1.0;" width="6" x="593" y="1031.8047"/><text fill="#000000" font-family="sans-serif" font-size="14" lengthAdjust="spacing" textLength="226" x="605" y="1038.1514">week_increase_volume: Numeric</text><rect fill="none" height="6" style="stroke:#C82930;stroke-width:1.0;" width="6" x="593" y="1048.1016"/><text fill="#000000" font-family="sans-serif" font-size="14" lengthAdjust="spacing" textLength="223" x="605" y="1054.4482">increase_volume_day: DateTime</text><rect fill="none" height="6" style="stroke:#C82930;stroke-width:1.0;" width="6" x="593" y="1064.3984"/><text fill="#000000" font-family="sans-serif" font-size="14" lengthAdjust="spacing" textLength="182" x="605" y="1070.7451">increase_volume: Numeric</text><rect fill="none" height="6" style="stroke:#C82930;stroke-width:1.0;" width="6" x="593" y="1080.6953"/><text fill="#000000" font-family="sans-serif" font-size="14" lengthAdjust="spacing" textLength="161" x="605" y="1087.042">today_volume: Numeric</text><rect fill="none" height="6" style="stroke:#C82930;stroke-width:1.0;" width="6" x="593" y="1096.9922"/><text fill="#000000" font-family="sans-serif" font-size="14" lengthAdjust="spacing" textLength="234" x="605" y="1103.3389">volume_before_increase: Numeric</text><rect fill="none" height="6" style="stroke:#C82930;stroke-width:1.0;" width="6" x="593" y="1113.2891"/><text fill="#000000" font-family="sans-serif" font-size="14" lengthAdjust="spacing" textLength="182" x="605" y="1119.6357">volumes_relation: Numeric</text><rect fill="none" height="6" style="stroke:#C82930;stroke-width:1.0;" width="6" x="593" y="1129.5859"/><text fill="#000000" font-family="sans-serif" font-size="14" lengthAdjust="spacing" textLength="263" x="605" y="1135.9326">expressive_volume_increase: Boolean</text><rect fill="none" height="6" style="stroke:#C82930;stroke-width:1.0;" width="6" x="593" y="1145.8828"/><text fill="#000000" font-family="sans-serif" font-size="14" lengthAdjust="spacing" textLength="153" x="605" y="1152.2295">ema_aligned: Boolean</text><rect fill="none" height="6" style="stroke:#C82930;stroke-width:1.0;" width="6" x="593" y="1162.1797"/><text fill="#000000" font-family="sans-serif" font-size="14" lengthAdjust="spacing" textLength="159" x="605" y="1168.5264">buying_signal: Boolean</text><rect fill="none" height="6" style="stroke:#C82930;stroke-width:1.0;" width="6" x="593" y="1178.4766"/><text fill="#000000" font-family="sans-serif" font-size="14" lengthAdjust="spacing" textLength="114" x="605" y="1184.8232">today: DateTime</text><line style="stroke:#181818;stroke-width:0.5;" x1="586" x2="873" y1="1192.125" y2="1192.125"/></g><!--class WalletTransaction--><g id="elem_WalletTransaction"><rect codeLine="72" fill="#F1F1F1" height="129.4844" id="WalletTransaction" rx="2.5" ry="2.5" style="stroke:#181818;stroke-width:0.5;" width="223" x="330" y="44.2969"/><ellipse cx="376.25" cy="60.2969" fill="#ADD1B2" rx="11" ry="11" style="stroke:#181818;stroke-width:1.0;"/><path d="M379.2188,65.9375 Q378.6406,66.2344 378,66.375 Q377.3594,66.5313 376.6563,66.5313 Q374.1563,66.5313 372.8281,64.8906 Q371.5156,63.2344 371.5156,60.1094 Q371.5156,56.9844 372.8281,55.3281 Q374.1563,53.6719 376.6563,53.6719 Q377.3594,53.6719 378,53.8281 Q378.6563,53.9844 379.2188,54.2813 L379.2188,57 Q378.5938,56.4219 378,56.1563 Q377.4063,55.875 376.7813,55.875 Q375.4375,55.875 374.75,56.9531 Q374.0625,58.0156 374.0625,60.1094 Q374.0625,62.2031 374.75,63.2813 Q375.4375,64.3438 376.7813,64.3438 Q377.4063,64.3438 378,64.0781 Q378.5938,63.7969 379.2188,63.2188 L379.2188,65.9375 Z " fill="#000000"/><text fill="#000000" font-family="sans-serif" font-size="14" lengthAdjust="spacing" textLength="122" x="396.75" y="65.1436">WalletTransaction</text><line style="stroke:#181818;stroke-width:0.5;" x1="331" x2="552" y1="76.2969" y2="76.2969"/><ellipse cx="341" cy="89.9453" fill="none" rx="3" ry="3" style="stroke:#038048;stroke-width:1.0;"/><text fill="#000000" font-family="sans-serif" font-size="14" lengthAdjust="spacing" textLength="73" x="350" y="93.292">uudi: UUID</text><rect fill="none" height="6" style="stroke:#C82930;stroke-width:1.0;" width="6" x="338" y="103.2422"/><text fill="#000000" font-family="sans-serif" font-size="14" lengthAdjust="spacing" textLength="121" x="350" y="109.5889">quantity: Numeric</text><rect fill="none" height="6" style="stroke:#C82930;stroke-width:1.0;" width="6" x="338" y="119.5391"/><text fill="#000000" font-family="sans-serif" font-size="14" lengthAdjust="spacing" textLength="119" x="350" y="125.8857">amount: Numeric</text><rect fill="none" height="6" style="stroke:#C82930;stroke-width:1.0;" width="6" x="338" y="135.8359"/><text fill="#000000" font-family="sans-serif" font-size="14" lengthAdjust="spacing" textLength="107" x="350" y="142.1826">date: DateTime</text><rect fill="none" height="6" style="stroke:#C82930;stroke-width:1.0;" width="6" x="338" y="152.1328"/><text fill="#000000" font-family="sans-serif" font-size="14" lengthAdjust="spacing" textLength="197" x="350" y="158.4795">price_on_purchase: Numeric</text><line style="stroke:#181818;stroke-width:0.5;" x1="331" x2="552" y1="165.7813" y2="165.7813"/></g><!--class CryptoRanking--><g id="elem_CryptoRanking"><rect codeLine="80" fill="#F1F1F1" height="129.4844" id="CryptoRanking" rx="2.5" ry="2.5" style="stroke:#181818;stroke-width:0.5;" width="186" x="681.5" y="562.7969"/><ellipse cx="720.35" cy="578.7969" fill="#ADD1B2" rx="11" ry="11" style="stroke:#181818;stroke-width:1.0;"/><path d="M723.3188,584.4375 Q722.7406,584.7344 722.1,584.875 Q721.4594,585.0313 720.7563,585.0313 Q718.2563,585.0313 716.9281,583.3906 Q715.6156,581.7344 715.6156,578.6094 Q715.6156,575.4844 716.9281,573.8281 Q718.2563,572.1719 720.7563,572.1719 Q721.4594,572.1719 722.1,572.3281 Q722.7563,572.4844 723.3188,572.7813 L723.3188,575.5 Q722.6938,574.9219 722.1,574.6563 Q721.5063,574.375 720.8813,574.375 Q719.5375,574.375 718.85,575.4531 Q718.1625,576.5156 718.1625,578.6094 Q718.1625,580.7031 718.85,581.7813 Q719.5375,582.8438 720.8813,582.8438 Q721.5063,582.8438 722.1,582.5781 Q722.6938,582.2969 723.3188,581.7188 L723.3188,584.4375 Z " fill="#000000"/><text fill="#000000" font-family="sans-serif" font-size="14" lengthAdjust="spacing" textLength="101" x="739.65" y="583.6436">CryptoRanking</text><line style="stroke:#181818;stroke-width:0.5;" x1="682.5" x2="866.5" y1="594.7969" y2="594.7969"/><rect fill="none" height="6" style="stroke:#C82930;stroke-width:1.0;" width="6" x="689.5" y="605.4453"/><text fill="#000000" font-family="sans-serif" font-size="14" lengthAdjust="spacing" textLength="73" x="701.5" y="611.792">uuid: UUID</text><rect fill="none" height="6" style="stroke:#C82930;stroke-width:1.0;" width="6" x="689.5" y="621.7422"/><text fill="#000000" font-family="sans-serif" font-size="14" lengthAdjust="spacing" textLength="98" x="701.5" y="628.0889">symbol: String</text><rect fill="none" height="6" style="stroke:#C82930;stroke-width:1.0;" width="6" x="689.5" y="638.0391"/><text fill="#000000" font-family="sans-serif" font-size="14" lengthAdjust="spacing" textLength="146" x="701.5" y="644.3857">market_cap: Numeric</text><rect fill="none" height="6" style="stroke:#C82930;stroke-width:1.0;" width="6" x="689.5" y="654.3359"/><text fill="#000000" font-family="sans-serif" font-size="14" lengthAdjust="spacing" textLength="156" x="701.5" y="660.6826">closing_price: Numeric</text><rect fill="none" height="6" style="stroke:#C82930;stroke-width:1.0;" width="6" x="689.5" y="670.6328"/><text fill="#000000" font-family="sans-serif" font-size="14" lengthAdjust="spacing" textLength="160" x="701.5" y="676.9795">ranking_value: Numeric</text><line style="stroke:#181818;stroke-width:0.5;" x1="682.5" x2="866.5" y1="684.2813" y2="684.2813"/></g><!--link Cryptocurrency to CurrencyInfoSchedule--><g id="link_Cryptocurrency_CurrencyInfoSchedule"><path codeLine="89" d="M339.99,450.4169 C289.49,493.0269 230.35,542.9069 187.99,578.6469 " fill="none" id="Cryptocurrency-CurrencyInfoSchedule" style="stroke:#181818;stroke-width:1.0;"/><text fill="#000000" font-family="sans-serif" font-size="13" lengthAdjust="spacing" textLength="64" x="269.5" y="520.3638">schedules</text><text fill="#000000" font-family="sans-serif" font-size="13" lengthAdjust="spacing" textLength="8" x="323.9119" y="453.5363">1</text><text fill="#000000" font-family="sans-serif" font-size="13" lengthAdjust="spacing" textLength="7" x="188.4417" y="567.8347">*</text></g><!--link Cryptocurrency to Sector--><g id="link_Cryptocurrency_Sector"><path codeLine="90" d="M416.05,477.5969 C410.19,503.5769 404.11,530.5369 398.76,554.2369 " fill="none" id="Cryptocurrency-Sector" style="stroke:#181818;stroke-width:1.0;"/><text fill="#000000" font-family="sans-serif" font-size="13" lengthAdjust="spacing" textLength="8" x="406.0713" y="497.8092">1</text><text fill="#000000" font-family="sans-serif" font-size="13" lengthAdjust="spacing" textLength="23" x="376.2509" y="543.0141">0..*</text></g><!--link Cryptocurrency to Analysis--><g id="link_Cryptocurrency_Analysis"><path codeLine="91" d="M500.16,477.5969 C518.57,512.9769 537.9,550.1569 552.63,578.4869 " fill="none" id="Cryptocurrency-Analysis" style="stroke:#181818;stroke-width:1.0;"/><text fill="#000000" font-family="sans-serif" font-size="13" lengthAdjust="spacing" textLength="8" x="495.8325" y="497.8092">1</text><text fill="#000000" font-family="sans-serif" font-size="13" lengthAdjust="spacing" textLength="23" x="524.5155" y="567.6522">0..*</text></g><!--link Analysis to AnalysisInfoSchedule--><g id="link_Analysis_AnalysisInfoSchedule"><path codeLine="92" d="M557.32,676.0369 C529.29,742.3169 478.71,861.9569 449.01,932.1769 " fill="none" id="Analysis-AnalysisInfoSchedule" style="stroke:#181818;stroke-width:1.0;"/><text fill="#000000" font-family="sans-serif" font-size="13" lengthAdjust="spacing" textLength="64" x="534.5" y="743.3638">schedules</text><text fill="#000000" font-family="sans-serif" font-size="13" lengthAdjust="spacing" textLength="8" x="546.0708" y="695.6773">1</text><text fill="#000000" font-family="sans-serif" font-size="13" lengthAdjust="spacing" textLength="7" x="444.4487" y="921.4258">*</text></g><!--link Analysis to FirstStageAnalysis--><g id="link_Analysis_FirstStageAnalysis"><path codeLine="93" d="M597.68,676.0369 C609.15,703.1569 624.4,739.2169 640.44,777.1669 " fill="none" id="Analysis-FirstStageAnalysis" style="stroke:#181818;stroke-width:1.0;"/><text fill="#000000" font-family="sans-serif" font-size="13" lengthAdjust="spacing" textLength="52" x="628.5" y="743.3638">includes</text><text fill="#000000" font-family="sans-serif" font-size="13" lengthAdjust="spacing" textLength="8" x="591.8542" y="695.6773">1</text><text fill="#000000" font-family="sans-serif" font-size="13" lengthAdjust="spacing" textLength="7" x="630.1136" y="766.3643">*</text></g><!--link Cryptocurrency to CryptoRanking--><g id="link_Cryptocurrency_CryptoRanking"><path codeLine="94" d="M543.22,444.6769 C591.42,482.5269 648.2,527.1169 693.44,562.6369 " fill="none" id="Cryptocurrency-CryptoRanking" style="stroke:#181818;stroke-width:1.0;"/><text fill="#000000" font-family="sans-serif" font-size="13" lengthAdjust="spacing" textLength="74" x="638.5" y="520.3638">has ranking</text><text fill="#000000" font-family="sans-serif" font-size="13" lengthAdjust="spacing" textLength="8" x="550.9838" y="447.1277">1</text><text fill="#000000" font-family="sans-serif" font-size="13" lengthAdjust="spacing" textLength="7" x="677.1913" y="551.792">*</text></g><!--link WalletTransaction to Cryptocurrency--><g id="link_WalletTransaction_Cryptocurrency"><path codeLine="95" d="M441.5,173.3169 C441.5,196.5869 441.5,223.6769 441.5,249.9769 " fill="none" id="WalletTransaction-Cryptocurrency" style="stroke:#181818;stroke-width:1.0;"/><text fill="#000000" font-family="sans-serif" font-size="13" lengthAdjust="spacing" textLength="23" x="442.5" y="216.3638">has</text><text fill="#000000" font-family="sans-serif" font-size="13" lengthAdjust="spacing" textLength="8" x="433.0375" y="193.6908">1</text><text fill="#000000" font-family="sans-serif" font-size="13" lengthAdjust="spacing" textLength="8" x="433.2438" y="239.2675">1</text></g><!--SRC=[fLRDQjmm4BxxAOGlXPOD3VHGV6jt2GHA3zc47aeH4tdYYCYIgvyqfitpzDHZdo0lLia_kxPMtWIQapF_yyryexNS2YGR3fM66aY9P2t063JXSwFgfp-IA_ABh1MN1YeaAx9jD9UMlCio5ap9MhUDLSnfZPArv6T6_DyRuXml2t9rTRxf12jYslfQYO9ihVUl1Y6h6Grsvz9YXNeYDS9LaR5GbOf44cgCH2KQfdbZkPAHnYAxbPo1eALY1Vd4ZVtQ6tmRB9mM9gbW6i5YIS4MPEE_BdcDOrLWB7LDwQKJtUCEdW6OStcZjkmMI-S17q4wR7qIZLfUuq4wYG-McY5G6TliyswHMQMNnv50pePbY0SK1a-_Ev1UswO65UBEN81PVk_ZV5HA8CXzIHyaYDPmirnK168lH5bYUIJS2v4DoIWCFhEi_udvhg0phetTMa-JvpjThcPaKa7C55KDyix_5tTLWxv3Inaq1VdiQjIS3PeVY7UKox2v1cc3cg4CjSLsEvCa-4meuzDIJtfsuDe1r-KvQgOQb6aDrl0-9QDLnpTDW-j-z1C3WSPqMJ5Mp_k-LyBLopttQjzwUz3vCo6iyauBkY7gDTueZRjQqbQ6QXJGNwi8Y8T6-ouzbyOozv4E4A4WU2MdFEbLrwuDSp5U2I9MTZsaDlaB287sqk-S2MnMShB89P-jw_uqpAk7MZbfOsbonxhLeChlYDFiTeRKu_oLkUX9C5IpUk4ZiyoHesixC8xUWt3pabwH2p-pfzzFV_r3wLcbaO0Xh7yvi-X1p4zpibgH_7MUV0iypOUlHS-t9oVUkJ_enst6kvFj3j0aU_9UJjEdd18thGZK4AuytkfiNWN9_Ln7HFFiSBz6rzCy_a7H- -RPFm00]--></g></svg>
