<svg xmlns="http://www.w3.org/2000/svg" xmlns:xlink="http://www.w3.org/1999/xlink" contentStyleType="text/css" height="1397px" preserveAspectRatio="none" style="width:1033px;height:1397px;background:#FFFFFF;" version="1.1" viewBox="0 0 1033 1397" width="1033px" zoomAndPan="magnify"><defs/><g><text fill="#000000" font-family="sans-serif" font-size="14" font-weight="bold" lengthAdjust="spacing" textLength="423" x="298" y="22.9951">Diagrama de Classes de Dom&#237;nio | Coinsage - Sprint 5</text><!--class User--><g id="elem_User"><rect codeLine="3" fill="#F1F1F1" height="113.1875" id="User" rx="2.5" ry="2.5" style="stroke:#181818;stroke-width:0.5;" width="142" x="432.5" y="44.2969"/><ellipse cx="483.25" cy="60.2969" fill="#ADD1B2" rx="11" ry="11" style="stroke:#181818;stroke-width:1.0;"/><path d="M486.2188,65.9375 Q485.6406,66.2344 485,66.375 Q484.3594,66.5313 483.6563,66.5313 Q481.1563,66.5313 479.8281,64.8906 Q478.5156,63.2344 478.5156,60.1094 Q478.5156,56.9844 479.8281,55.3281 Q481.1563,53.6719 483.6563,53.6719 Q484.3594,53.6719 485,53.8281 Q485.6563,53.9844 486.2188,54.2813 L486.2188,57 Q485.5938,56.4219 485,56.1563 Q484.4063,55.875 483.7813,55.875 Q482.4375,55.875 481.75,56.9531 Q481.0625,58.0156 481.0625,60.1094 Q481.0625,62.2031 481.75,63.2813 Q482.4375,64.3438 483.7813,64.3438 Q484.4063,64.3438 485,64.0781 Q485.5938,63.7969 486.2188,63.2188 L486.2188,65.9375 Z " fill="#000000"/><text fill="#000000" font-family="sans-serif" font-size="14" lengthAdjust="spacing" textLength="32" x="503.75" y="65.1436">User</text><line style="stroke:#181818;stroke-width:0.5;" x1="433.5" x2="573.5" y1="76.2969" y2="76.2969"/><rect fill="none" height="6" style="stroke:#C82930;stroke-width:1.0;" width="6" x="440.5" y="86.9453"/><text fill="#000000" font-family="sans-serif" font-size="14" lengthAdjust="spacing" textLength="70" x="452.5" y="93.292">id: Integer</text><rect fill="none" height="6" style="stroke:#C82930;stroke-width:1.0;" width="6" x="440.5" y="103.2422"/><text fill="#000000" font-family="sans-serif" font-size="14" lengthAdjust="spacing" textLength="88" x="452.5" y="109.5889">name: String</text><rect fill="none" height="6" style="stroke:#C82930;stroke-width:1.0;" width="6" x="440.5" y="119.5391"/><text fill="#000000" font-family="sans-serif" font-size="14" lengthAdjust="spacing" textLength="85" x="452.5" y="125.8857">email: String</text><rect fill="none" height="6" style="stroke:#C82930;stroke-width:1.0;" width="6" x="440.5" y="135.8359"/><text fill="#000000" font-family="sans-serif" font-size="14" lengthAdjust="spacing" textLength="116" x="452.5" y="142.1826">password: String</text><line style="stroke:#181818;stroke-width:0.5;" x1="433.5" x2="573.5" y1="149.4844" y2="149.4844"/></g><!--class WalletTransaction--><g id="elem_WalletTransaction"><rect codeLine="10" fill="#F1F1F1" height="129.4844" id="WalletTransaction" rx="2.5" ry="2.5" style="stroke:#181818;stroke-width:0.5;" width="223" x="392" y="234.4869"/><ellipse cx="438.25" cy="250.4869" fill="#ADD1B2" rx="11" ry="11" style="stroke:#181818;stroke-width:1.0;"/><path d="M441.2188,256.1275 Q440.6406,256.4244 440,256.565 Q439.3594,256.7213 438.6563,256.7213 Q436.1563,256.7213 434.8281,255.0806 Q433.5156,253.4244 433.5156,250.2994 Q433.5156,247.1744 434.8281,245.5181 Q436.1563,243.8619 438.6563,243.8619 Q439.3594,243.8619 440,244.0181 Q440.6563,244.1744 441.2188,244.4713 L441.2188,247.19 Q440.5938,246.6119 440,246.3463 Q439.4063,246.065 438.7813,246.065 Q437.4375,246.065 436.75,247.1431 Q436.0625,248.2056 436.0625,250.2994 Q436.0625,252.3931 436.75,253.4713 Q437.4375,254.5338 438.7813,254.5338 Q439.4063,254.5338 440,254.2681 Q440.5938,253.9869 441.2188,253.4088 L441.2188,256.1275 Z " fill="#000000"/><text fill="#000000" font-family="sans-serif" font-size="14" lengthAdjust="spacing" textLength="122" x="458.75" y="255.3336">WalletTransaction</text><line style="stroke:#181818;stroke-width:0.5;" x1="393" x2="614" y1="266.4869" y2="266.4869"/><ellipse cx="403" cy="280.1353" fill="none" rx="3" ry="3" style="stroke:#038048;stroke-width:1.0;"/><text fill="#000000" font-family="sans-serif" font-size="14" lengthAdjust="spacing" textLength="73" x="412" y="283.482">uudi: UUID</text><rect fill="none" height="6" style="stroke:#C82930;stroke-width:1.0;" width="6" x="400" y="293.4322"/><text fill="#000000" font-family="sans-serif" font-size="14" lengthAdjust="spacing" textLength="121" x="412" y="299.7789">quantity: Numeric</text><rect fill="none" height="6" style="stroke:#C82930;stroke-width:1.0;" width="6" x="400" y="309.7291"/><text fill="#000000" font-family="sans-serif" font-size="14" lengthAdjust="spacing" textLength="119" x="412" y="316.0757">amount: Numeric</text><rect fill="none" height="6" style="stroke:#C82930;stroke-width:1.0;" width="6" x="400" y="326.0259"/><text fill="#000000" font-family="sans-serif" font-size="14" lengthAdjust="spacing" textLength="107" x="412" y="332.3726">date: DateTime</text><rect fill="none" height="6" style="stroke:#C82930;stroke-width:1.0;" width="6" x="400" y="342.3228"/><text fill="#000000" font-family="sans-serif" font-size="14" lengthAdjust="spacing" textLength="197" x="412" y="348.6695">price_on_purchase: Numeric</text><line style="stroke:#181818;stroke-width:0.5;" x1="393" x2="614" y1="355.9713" y2="355.9713"/></g><!--class Cryptocurrency--><g id="elem_Cryptocurrency"><rect codeLine="18" fill="#F1F1F1" height="227.2656" id="Cryptocurrency" rx="2.5" ry="2.5" style="stroke:#181818;stroke-width:0.5;" width="203" x="402" y="440.9669"/><ellipse cx="446.75" cy="456.9669" fill="#ADD1B2" rx="11" ry="11" style="stroke:#181818;stroke-width:1.0;"/><path d="M449.7188,462.6075 Q449.1406,462.9044 448.5,463.045 Q447.8594,463.2012 447.1563,463.2012 Q444.6563,463.2012 443.3281,461.5606 Q442.0156,459.9044 442.0156,456.7794 Q442.0156,453.6544 443.3281,451.9981 Q444.6563,450.3419 447.1563,450.3419 Q447.8594,450.3419 448.5,450.4981 Q449.1563,450.6544 449.7188,450.9512 L449.7188,453.67 Q449.0938,453.0919 448.5,452.8262 Q447.9063,452.545 447.2813,452.545 Q445.9375,452.545 445.25,453.6231 Q444.5625,454.6856 444.5625,456.7794 Q444.5625,458.8731 445.25,459.9512 Q445.9375,461.0137 447.2813,461.0137 Q447.9063,461.0137 448.5,460.7481 Q449.0938,460.4669 449.7188,459.8887 L449.7188,462.6075 Z " fill="#000000"/><text fill="#000000" font-family="sans-serif" font-size="14" lengthAdjust="spacing" textLength="105" x="467.25" y="461.8136">Cryptocurrency</text><line style="stroke:#181818;stroke-width:0.5;" x1="403" x2="604" y1="472.9669" y2="472.9669"/><ellipse cx="413" cy="486.6153" fill="none" rx="3" ry="3" style="stroke:#038048;stroke-width:1.0;"/><text fill="#000000" font-family="sans-serif" font-size="14" lengthAdjust="spacing" textLength="73" x="422" y="489.962">uuid: UUID</text><rect fill="none" height="6" style="stroke:#C82930;stroke-width:1.0;" width="6" x="410" y="499.9122"/><text fill="#000000" font-family="sans-serif" font-size="14" lengthAdjust="spacing" textLength="98" x="422" y="506.2589">symbol: String</text><rect fill="none" height="6" style="stroke:#C82930;stroke-width:1.0;" width="6" x="410" y="516.2091"/><text fill="#000000" font-family="sans-serif" font-size="14" lengthAdjust="spacing" textLength="106" x="422" y="522.5557">cmc_id: Integer</text><rect fill="none" height="6" style="stroke:#C82930;stroke-width:1.0;" width="6" x="410" y="532.5059"/><text fill="#000000" font-family="sans-serif" font-size="14" lengthAdjust="spacing" textLength="114" x="422" y="538.8526">cmc_slug: String</text><rect fill="none" height="6" style="stroke:#C82930;stroke-width:1.0;" width="6" x="410" y="548.8028"/><text fill="#000000" font-family="sans-serif" font-size="14" lengthAdjust="spacing" textLength="79" x="422" y="555.1495">logo: String</text><rect fill="none" height="6" style="stroke:#C82930;stroke-width:1.0;" width="6" x="410" y="565.0997"/><text fill="#000000" font-family="sans-serif" font-size="14" lengthAdjust="spacing" textLength="88" x="422" y="571.4464">name: String</text><rect fill="none" height="6" style="stroke:#C82930;stroke-width:1.0;" width="6" x="410" y="581.3966"/><text fill="#000000" font-family="sans-serif" font-size="14" lengthAdjust="spacing" textLength="126" x="422" y="587.7432">description: String</text><rect fill="none" height="6" style="stroke:#C82930;stroke-width:1.0;" width="6" x="410" y="597.6934"/><text fill="#000000" font-family="sans-serif" font-size="14" lengthAdjust="spacing" textLength="177" x="422" y="604.0401">technical_doc: List[String]</text><rect fill="none" height="6" style="stroke:#C82930;stroke-width:1.0;" width="6" x="410" y="613.9903"/><text fill="#000000" font-family="sans-serif" font-size="14" lengthAdjust="spacing" textLength="107" x="422" y="620.337">urls: List[String]</text><rect fill="none" height="6" style="stroke:#C82930;stroke-width:1.0;" width="6" x="410" y="630.2872"/><text fill="#000000" font-family="sans-serif" font-size="14" lengthAdjust="spacing" textLength="149" x="422" y="636.6339">created_at: DateTime</text><rect fill="none" height="6" style="stroke:#C82930;stroke-width:1.0;" width="6" x="410" y="646.5841"/><text fill="#000000" font-family="sans-serif" font-size="14" lengthAdjust="spacing" textLength="156" x="422" y="652.9307">last_update: DateTime</text><line style="stroke:#181818;stroke-width:0.5;" x1="403" x2="604" y1="660.2325" y2="660.2325"/></g><!--class CurrencyInfoSchedule--><g id="elem_CurrencyInfoSchedule"><rect codeLine="32" fill="#F1F1F1" height="96.8906" id="CurrencyInfoSchedule" rx="2.5" ry="2.5" style="stroke:#181818;stroke-width:0.5;" width="249" x="7" y="769.6869"/><ellipse cx="51.25" cy="785.6869" fill="#ADD1B2" rx="11" ry="11" style="stroke:#181818;stroke-width:1.0;"/><path d="M54.2188,791.3275 Q53.6406,791.6244 53,791.765 Q52.3594,791.9213 51.6563,791.9213 Q49.1563,791.9213 47.8281,790.2806 Q46.5156,788.6244 46.5156,785.4994 Q46.5156,782.3744 47.8281,780.7181 Q49.1563,779.0619 51.6563,779.0619 Q52.3594,779.0619 53,779.2181 Q53.6563,779.3744 54.2188,779.6713 L54.2188,782.39 Q53.5938,781.8119 53,781.5463 Q52.4063,781.265 51.7813,781.265 Q50.4375,781.265 49.75,782.3431 Q49.0625,783.4056 49.0625,785.4994 Q49.0625,787.5931 49.75,788.6713 Q50.4375,789.7338 51.7813,789.7338 Q52.4063,789.7338 53,789.4681 Q53.5938,789.1869 54.2188,788.6088 L54.2188,791.3275 Z " fill="#000000"/><text fill="#000000" font-family="sans-serif" font-size="14" lengthAdjust="spacing" textLength="152" x="71.75" y="790.5336">CurrencyInfoSchedule</text><line style="stroke:#181818;stroke-width:0.5;" x1="8" x2="255" y1="801.6869" y2="801.6869"/><ellipse cx="18" cy="815.3353" fill="none" rx="3" ry="3" style="stroke:#038048;stroke-width:1.0;"/><text fill="#000000" font-family="sans-serif" font-size="14" lengthAdjust="spacing" textLength="70" x="27" y="818.682">id: Integer</text><rect fill="none" height="6" style="stroke:#C82930;stroke-width:1.0;" width="6" x="15" y="828.6322"/><text fill="#000000" font-family="sans-serif" font-size="14" lengthAdjust="spacing" textLength="193" x="27" y="834.9789">last_update_time: DateTime</text><rect fill="none" height="6" style="stroke:#C82930;stroke-width:1.0;" width="6" x="15" y="844.9291"/><text fill="#000000" font-family="sans-serif" font-size="14" lengthAdjust="spacing" textLength="223" x="27" y="851.2757">next_scheduled_time: DateTime</text><line style="stroke:#181818;stroke-width:0.5;" x1="8" x2="255" y1="858.5775" y2="858.5775"/></g><!--class Sector--><g id="elem_Sector"><rect codeLine="38" fill="#F1F1F1" height="145.7813" id="Sector" rx="2.5" ry="2.5" style="stroke:#181818;stroke-width:0.5;" width="183" x="291" y="745.2369"/><ellipse cx="355.75" cy="761.2369" fill="#ADD1B2" rx="11" ry="11" style="stroke:#181818;stroke-width:1.0;"/><path d="M358.7188,766.8775 Q358.1406,767.1744 357.5,767.315 Q356.8594,767.4712 356.1563,767.4712 Q353.6563,767.4712 352.3281,765.8306 Q351.0156,764.1744 351.0156,761.0494 Q351.0156,757.9244 352.3281,756.2681 Q353.6563,754.6119 356.1563,754.6119 Q356.8594,754.6119 357.5,754.7681 Q358.1563,754.9244 358.7188,755.2212 L358.7188,757.94 Q358.0938,757.3619 357.5,757.0962 Q356.9063,756.815 356.2813,756.815 Q354.9375,756.815 354.25,757.8931 Q353.5625,758.9556 353.5625,761.0494 Q353.5625,763.1431 354.25,764.2212 Q354.9375,765.2837 356.2813,765.2837 Q356.9063,765.2837 357.5,765.0181 Q358.0938,764.7369 358.7188,764.1587 L358.7188,766.8775 Z " fill="#000000"/><text fill="#000000" font-family="sans-serif" font-size="14" lengthAdjust="spacing" textLength="45" x="376.25" y="766.0836">Sector</text><line style="stroke:#181818;stroke-width:0.5;" x1="292" x2="473" y1="777.2369" y2="777.2369"/><ellipse cx="302" cy="790.8853" fill="none" rx="3" ry="3" style="stroke:#038048;stroke-width:1.0;"/><text fill="#000000" font-family="sans-serif" font-size="14" lengthAdjust="spacing" textLength="73" x="311" y="794.232">uuid: UUID</text><rect fill="none" height="6" style="stroke:#C82930;stroke-width:1.0;" width="6" x="299" y="804.1822"/><text fill="#000000" font-family="sans-serif" font-size="14" lengthAdjust="spacing" textLength="88" x="311" y="810.5289">name: String</text><rect fill="none" height="6" style="stroke:#C82930;stroke-width:1.0;" width="6" x="299" y="820.4791"/><text fill="#000000" font-family="sans-serif" font-size="14" lengthAdjust="spacing" textLength="74" x="311" y="826.8257">title: String</text><rect fill="none" height="6" style="stroke:#C82930;stroke-width:1.0;" width="6" x="299" y="836.7759"/><text fill="#000000" font-family="sans-serif" font-size="14" lengthAdjust="spacing" textLength="157" x="311" y="843.1226">coins_quantity: Integer</text><rect fill="none" height="6" style="stroke:#C82930;stroke-width:1.0;" width="6" x="299" y="853.0728"/><text fill="#000000" font-family="sans-serif" font-size="14" lengthAdjust="spacing" textLength="97" x="311" y="859.4195">cmc_id: String</text><rect fill="none" height="6" style="stroke:#C82930;stroke-width:1.0;" width="6" x="299" y="869.3697"/><text fill="#000000" font-family="sans-serif" font-size="14" lengthAdjust="spacing" textLength="106" x="311" y="875.7164">active: Boolean</text><line style="stroke:#181818;stroke-width:0.5;" x1="292" x2="473" y1="883.0181" y2="883.0181"/></g><!--class SectorInfoSchedule--><g id="elem_SectorInfoSchedule"><rect codeLine="47" fill="#F1F1F1" height="96.8906" id="SectorInfoSchedule" rx="2.5" ry="2.5" style="stroke:#181818;stroke-width:0.5;" width="249" x="169" y="1130.9869"/><ellipse cx="221.75" cy="1146.9869" fill="#ADD1B2" rx="11" ry="11" style="stroke:#181818;stroke-width:1.0;"/><path d="M224.7188,1152.6275 Q224.1406,1152.9244 223.5,1153.065 Q222.8594,1153.2212 222.1563,1153.2212 Q219.6563,1153.2212 218.3281,1151.5806 Q217.0156,1149.9244 217.0156,1146.7994 Q217.0156,1143.6744 218.3281,1142.0181 Q219.6563,1140.3619 222.1563,1140.3619 Q222.8594,1140.3619 223.5,1140.5181 Q224.1563,1140.6744 224.7188,1140.9712 L224.7188,1143.69 Q224.0938,1143.1119 223.5,1142.8462 Q222.9063,1142.565 222.2813,1142.565 Q220.9375,1142.565 220.25,1143.6431 Q219.5625,1144.7056 219.5625,1146.7994 Q219.5625,1148.8931 220.25,1149.9712 Q220.9375,1151.0337 222.2813,1151.0337 Q222.9063,1151.0337 223.5,1150.7681 Q224.0938,1150.4869 224.7188,1149.9087 L224.7188,1152.6275 Z " fill="#000000"/><text fill="#000000" font-family="sans-serif" font-size="14" lengthAdjust="spacing" textLength="135" x="242.25" y="1151.8336">SectorInfoSchedule</text><line style="stroke:#181818;stroke-width:0.5;" x1="170" x2="417" y1="1162.9869" y2="1162.9869"/><ellipse cx="180" cy="1176.6353" fill="none" rx="3" ry="3" style="stroke:#038048;stroke-width:1.0;"/><text fill="#000000" font-family="sans-serif" font-size="14" lengthAdjust="spacing" textLength="70" x="189" y="1179.982">id: Integer</text><rect fill="none" height="6" style="stroke:#C82930;stroke-width:1.0;" width="6" x="177" y="1189.9322"/><text fill="#000000" font-family="sans-serif" font-size="14" lengthAdjust="spacing" textLength="193" x="189" y="1196.2789">last_update_time: DateTime</text><rect fill="none" height="6" style="stroke:#C82930;stroke-width:1.0;" width="6" x="177" y="1206.2291"/><text fill="#000000" font-family="sans-serif" font-size="14" lengthAdjust="spacing" textLength="223" x="189" y="1212.5757">next_scheduled_time: DateTime</text><line style="stroke:#181818;stroke-width:0.5;" x1="170" x2="417" y1="1219.8775" y2="1219.8775"/></g><!--class Analysis--><g id="elem_Analysis"><rect codeLine="53" fill="#F1F1F1" height="96.8906" id="Analysis" rx="2.5" ry="2.5" style="stroke:#181818;stroke-width:0.5;" width="137" x="509" y="769.6869"/><ellipse cx="546.5" cy="785.6869" fill="#ADD1B2" rx="11" ry="11" style="stroke:#181818;stroke-width:1.0;"/><path d="M549.4688,791.3275 Q548.8906,791.6244 548.25,791.765 Q547.6094,791.9213 546.9063,791.9213 Q544.4063,791.9213 543.0781,790.2806 Q541.7656,788.6244 541.7656,785.4994 Q541.7656,782.3744 543.0781,780.7181 Q544.4063,779.0619 546.9063,779.0619 Q547.6094,779.0619 548.25,779.2181 Q548.9063,779.3744 549.4688,779.6713 L549.4688,782.39 Q548.8438,781.8119 548.25,781.5463 Q547.6563,781.265 547.0313,781.265 Q545.6875,781.265 545,782.3431 Q544.3125,783.4056 544.3125,785.4994 Q544.3125,787.5931 545,788.6713 Q545.6875,789.7338 547.0313,789.7338 Q547.6563,789.7338 548.25,789.4681 Q548.8438,789.1869 549.4688,788.6088 L549.4688,791.3275 Z " fill="#000000"/><text fill="#000000" font-family="sans-serif" font-size="14" lengthAdjust="spacing" textLength="55" x="565.5" y="790.5336">Analysis</text><line style="stroke:#181818;stroke-width:0.5;" x1="510" x2="645" y1="801.6869" y2="801.6869"/><ellipse cx="520" cy="815.3353" fill="none" rx="3" ry="3" style="stroke:#038048;stroke-width:1.0;"/><text fill="#000000" font-family="sans-serif" font-size="14" lengthAdjust="spacing" textLength="73" x="529" y="818.682">uuid: UUID</text><rect fill="none" height="6" style="stroke:#C82930;stroke-width:1.0;" width="6" x="517" y="828.6322"/><text fill="#000000" font-family="sans-serif" font-size="14" lengthAdjust="spacing" textLength="107" x="529" y="834.9789">date: DateTime</text><rect fill="none" height="6" style="stroke:#C82930;stroke-width:1.0;" width="6" x="517" y="844.9291"/><text fill="#000000" font-family="sans-serif" font-size="14" lengthAdjust="spacing" textLength="111" x="529" y="851.2757">ended: Boolean</text><line style="stroke:#181818;stroke-width:0.5;" x1="510" x2="645" y1="858.5775" y2="858.5775"/></g><!--class AnalysisInfoSchedule--><g id="elem_AnalysisInfoSchedule"><rect codeLine="59" fill="#F1F1F1" height="113.1875" id="AnalysisInfoSchedule" rx="2.5" ry="2.5" style="stroke:#181818;stroke-width:0.5;" width="249" x="453" y="1122.8369"/><ellipse cx="500.75" cy="1138.8369" fill="#ADD1B2" rx="11" ry="11" style="stroke:#181818;stroke-width:1.0;"/><path d="M503.7188,1144.4775 Q503.1406,1144.7744 502.5,1144.915 Q501.8594,1145.0713 501.1563,1145.0713 Q498.6563,1145.0713 497.3281,1143.4306 Q496.0156,1141.7744 496.0156,1138.6494 Q496.0156,1135.5244 497.3281,1133.8681 Q498.6563,1132.2119 501.1563,1132.2119 Q501.8594,1132.2119 502.5,1132.3681 Q503.1563,1132.5244 503.7188,1132.8213 L503.7188,1135.54 Q503.0938,1134.9619 502.5,1134.6963 Q501.9063,1134.415 501.2813,1134.415 Q499.9375,1134.415 499.25,1135.4931 Q498.5625,1136.5556 498.5625,1138.6494 Q498.5625,1140.7431 499.25,1141.8213 Q499.9375,1142.8838 501.2813,1142.8838 Q501.9063,1142.8838 502.5,1142.6181 Q503.0938,1142.3369 503.7188,1141.7588 L503.7188,1144.4775 Z " fill="#000000"/><text fill="#000000" font-family="sans-serif" font-size="14" lengthAdjust="spacing" textLength="145" x="521.25" y="1143.6836">AnalysisInfoSchedule</text><line style="stroke:#181818;stroke-width:0.5;" x1="454" x2="701" y1="1154.8369" y2="1154.8369"/><ellipse cx="464" cy="1168.4853" fill="none" rx="3" ry="3" style="stroke:#038048;stroke-width:1.0;"/><text fill="#000000" font-family="sans-serif" font-size="14" lengthAdjust="spacing" textLength="70" x="473" y="1171.832">id: Integer</text><rect fill="none" height="6" style="stroke:#C82930;stroke-width:1.0;" width="6" x="461" y="1181.7822"/><text fill="#000000" font-family="sans-serif" font-size="14" lengthAdjust="spacing" textLength="134" x="473" y="1188.1289">uuid_analysis: UUID</text><rect fill="none" height="6" style="stroke:#C82930;stroke-width:1.0;" width="6" x="461" y="1198.0791"/><text fill="#000000" font-family="sans-serif" font-size="14" lengthAdjust="spacing" textLength="193" x="473" y="1204.4257">last_update_time: DateTime</text><rect fill="none" height="6" style="stroke:#C82930;stroke-width:1.0;" width="6" x="461" y="1214.3759"/><text fill="#000000" font-family="sans-serif" font-size="14" lengthAdjust="spacing" textLength="223" x="473" y="1220.7226">next_scheduled_time: DateTime</text><line style="stroke:#181818;stroke-width:0.5;" x1="454" x2="701" y1="1228.0244" y2="1228.0244"/></g><!--class FirstStageAnalysis--><g id="elem_FirstStageAnalysis"><rect codeLine="66" fill="#F1F1F1" height="422.8281" id="FirstStageAnalysis" rx="2.5" ry="2.5" style="stroke:#181818;stroke-width:0.5;" width="289" x="737" y="968.0169"/><ellipse cx="815.25" cy="984.0169" fill="#ADD1B2" rx="11" ry="11" style="stroke:#181818;stroke-width:1.0;"/><path d="M818.2188,989.6575 Q817.6406,989.9544 817,990.095 Q816.3594,990.2513 815.6563,990.2513 Q813.1563,990.2513 811.8281,988.6106 Q810.5156,986.9544 810.5156,983.8294 Q810.5156,980.7044 811.8281,979.0481 Q813.1563,977.3919 815.6563,977.3919 Q816.3594,977.3919 817,977.5481 Q817.6563,977.7044 818.2188,978.0013 L818.2188,980.72 Q817.5938,980.1419 817,979.8763 Q816.4063,979.595 815.7813,979.595 Q814.4375,979.595 813.75,980.6731 Q813.0625,981.7356 813.0625,983.8294 Q813.0625,985.9231 813.75,987.0013 Q814.4375,988.0638 815.7813,988.0638 Q816.4063,988.0638 817,987.7981 Q817.5938,987.5169 818.2188,986.9388 L818.2188,989.6575 Z " fill="#000000"/><text fill="#000000" font-family="sans-serif" font-size="14" lengthAdjust="spacing" textLength="124" x="835.75" y="988.8636">FirstStageAnalysis</text><line style="stroke:#181818;stroke-width:0.5;" x1="738" x2="1025" y1="1000.0169" y2="1000.0169"/><ellipse cx="748" cy="1013.6653" fill="none" rx="3" ry="3" style="stroke:#038048;stroke-width:1.0;"/><text fill="#000000" font-family="sans-serif" font-size="14" lengthAdjust="spacing" textLength="73" x="757" y="1017.012">uuid: UUID</text><rect fill="none" height="6" style="stroke:#C82930;stroke-width:1.0;" width="6" x="745" y="1026.9622"/><text fill="#000000" font-family="sans-serif" font-size="14" lengthAdjust="spacing" textLength="134" x="757" y="1033.3089">uuid_analysis: UUID</text><rect fill="none" height="6" style="stroke:#C82930;stroke-width:1.0;" width="6" x="745" y="1043.2591"/><text fill="#000000" font-family="sans-serif" font-size="14" lengthAdjust="spacing" textLength="108" x="757" y="1049.6057">currency: string</text><rect fill="none" height="6" style="stroke:#C82930;stroke-width:1.0;" width="6" x="745" y="1059.5559"/><text fill="#000000" font-family="sans-serif" font-size="14" lengthAdjust="spacing" textLength="109" x="757" y="1065.9026">ranking: Integer</text><rect fill="none" height="6" style="stroke:#C82930;stroke-width:1.0;" width="6" x="745" y="1075.8528"/><text fill="#000000" font-family="sans-serif" font-size="14" lengthAdjust="spacing" textLength="146" x="757" y="1082.1995">market_cap: Numeric</text><rect fill="none" height="6" style="stroke:#C82930;stroke-width:1.0;" width="6" x="745" y="1092.1497"/><text fill="#000000" font-family="sans-serif" font-size="14" lengthAdjust="spacing" textLength="256" x="757" y="1098.4964">week_increase_percentage: Numeric</text><rect fill="none" height="6" style="stroke:#C82930;stroke-width:1.0;" width="6" x="745" y="1108.4466"/><text fill="#000000" font-family="sans-serif" font-size="14" lengthAdjust="spacing" textLength="173" x="757" y="1114.7932">increase_date: DateTime</text><rect fill="none" height="6" style="stroke:#C82930;stroke-width:1.0;" width="6" x="745" y="1124.7434"/><text fill="#000000" font-family="sans-serif" font-size="14" lengthAdjust="spacing" textLength="156" x="757" y="1131.0901">closing_price: Numeric</text><rect fill="none" height="6" style="stroke:#C82930;stroke-width:1.0;" width="6" x="745" y="1141.0403"/><text fill="#000000" font-family="sans-serif" font-size="14" lengthAdjust="spacing" textLength="231" x="757" y="1147.387">last_week_closing_price: Numeric</text><rect fill="none" height="6" style="stroke:#C82930;stroke-width:1.0;" width="6" x="745" y="1157.3372"/><text fill="#000000" font-family="sans-serif" font-size="14" lengthAdjust="spacing" textLength="143" x="757" y="1163.6839">open_price: Numeric</text><rect fill="none" height="6" style="stroke:#C82930;stroke-width:1.0;" width="6" x="745" y="1173.6341"/><text fill="#000000" font-family="sans-serif" font-size="14" lengthAdjust="spacing" textLength="105" x="757" y="1179.9807">ema8: Numeric</text><rect fill="none" height="6" style="stroke:#C82930;stroke-width:1.0;" width="6" x="745" y="1189.9309"/><text fill="#000000" font-family="sans-serif" font-size="14" lengthAdjust="spacing" textLength="205" x="757" y="1196.2776">ema8_greater_open: Boolean</text><rect fill="none" height="6" style="stroke:#C82930;stroke-width:1.0;" width="6" x="745" y="1206.2278"/><text fill="#000000" font-family="sans-serif" font-size="14" lengthAdjust="spacing" textLength="184" x="757" y="1212.5745">ema8_less_close: Boolean</text><rect fill="none" height="6" style="stroke:#C82930;stroke-width:1.0;" width="6" x="745" y="1222.5247"/><text fill="#000000" font-family="sans-serif" font-size="14" lengthAdjust="spacing" textLength="226" x="757" y="1228.8714">week_increase_volume: Numeric</text><rect fill="none" height="6" style="stroke:#C82930;stroke-width:1.0;" width="6" x="745" y="1238.8216"/><text fill="#000000" font-family="sans-serif" font-size="14" lengthAdjust="spacing" textLength="223" x="757" y="1245.1682">increase_volume_day: DateTime</text><rect fill="none" height="6" style="stroke:#C82930;stroke-width:1.0;" width="6" x="745" y="1255.1184"/><text fill="#000000" font-family="sans-serif" font-size="14" lengthAdjust="spacing" textLength="182" x="757" y="1261.4651">increase_volume: Numeric</text><rect fill="none" height="6" style="stroke:#C82930;stroke-width:1.0;" width="6" x="745" y="1271.4153"/><text fill="#000000" font-family="sans-serif" font-size="14" lengthAdjust="spacing" textLength="161" x="757" y="1277.762">today_volume: Numeric</text><rect fill="none" height="6" style="stroke:#C82930;stroke-width:1.0;" width="6" x="745" y="1287.7122"/><text fill="#000000" font-family="sans-serif" font-size="14" lengthAdjust="spacing" textLength="234" x="757" y="1294.0589">volume_before_increase: Numeric</text><rect fill="none" height="6" style="stroke:#C82930;stroke-width:1.0;" width="6" x="745" y="1304.0091"/><text fill="#000000" font-family="sans-serif" font-size="14" lengthAdjust="spacing" textLength="182" x="757" y="1310.3557">volumes_relation: Numeric</text><rect fill="none" height="6" style="stroke:#C82930;stroke-width:1.0;" width="6" x="745" y="1320.3059"/><text fill="#000000" font-family="sans-serif" font-size="14" lengthAdjust="spacing" textLength="263" x="757" y="1326.6526">expressive_volume_increase: Boolean</text><rect fill="none" height="6" style="stroke:#C82930;stroke-width:1.0;" width="6" x="745" y="1336.6028"/><text fill="#000000" font-family="sans-serif" font-size="14" lengthAdjust="spacing" textLength="153" x="757" y="1342.9495">ema_aligned: Boolean</text><rect fill="none" height="6" style="stroke:#C82930;stroke-width:1.0;" width="6" x="745" y="1352.8997"/><text fill="#000000" font-family="sans-serif" font-size="14" lengthAdjust="spacing" textLength="159" x="757" y="1359.2464">buying_signal: Boolean</text><rect fill="none" height="6" style="stroke:#C82930;stroke-width:1.0;" width="6" x="745" y="1369.1966"/><text fill="#000000" font-family="sans-serif" font-size="14" lengthAdjust="spacing" textLength="114" x="757" y="1375.5432">today: DateTime</text><line style="stroke:#181818;stroke-width:0.5;" x1="738" x2="1025" y1="1382.845" y2="1382.845"/></g><!--class CryptoRanking--><g id="elem_CryptoRanking"><rect codeLine="92" fill="#F1F1F1" height="129.4844" id="CryptoRanking" rx="2.5" ry="2.5" style="stroke:#181818;stroke-width:0.5;" width="186" x="680.5" y="753.3869"/><ellipse cx="719.35" cy="769.3869" fill="#ADD1B2" rx="11" ry="11" style="stroke:#181818;stroke-width:1.0;"/><path d="M722.3188,775.0275 Q721.7406,775.3244 721.1,775.465 Q720.4594,775.6212 719.7563,775.6212 Q717.2563,775.6212 715.9281,773.9806 Q714.6156,772.3244 714.6156,769.1994 Q714.6156,766.0744 715.9281,764.4181 Q717.2563,762.7619 719.7563,762.7619 Q720.4594,762.7619 721.1,762.9181 Q721.7563,763.0744 722.3188,763.3712 L722.3188,766.09 Q721.6938,765.5119 721.1,765.2462 Q720.5063,764.965 719.8813,764.965 Q718.5375,764.965 717.85,766.0431 Q717.1625,767.1056 717.1625,769.1994 Q717.1625,771.2931 717.85,772.3712 Q718.5375,773.4337 719.8813,773.4337 Q720.5063,773.4337 721.1,773.1681 Q721.6938,772.8869 722.3188,772.3087 L722.3188,775.0275 Z " fill="#000000"/><text fill="#000000" font-family="sans-serif" font-size="14" lengthAdjust="spacing" textLength="101" x="738.65" y="774.2336">CryptoRanking</text><line style="stroke:#181818;stroke-width:0.5;" x1="681.5" x2="865.5" y1="785.3869" y2="785.3869"/><rect fill="none" height="6" style="stroke:#C82930;stroke-width:1.0;" width="6" x="688.5" y="796.0353"/><text fill="#000000" font-family="sans-serif" font-size="14" lengthAdjust="spacing" textLength="73" x="700.5" y="802.382">uuid: UUID</text><rect fill="none" height="6" style="stroke:#C82930;stroke-width:1.0;" width="6" x="688.5" y="812.3322"/><text fill="#000000" font-family="sans-serif" font-size="14" lengthAdjust="spacing" textLength="98" x="700.5" y="818.6789">symbol: String</text><rect fill="none" height="6" style="stroke:#C82930;stroke-width:1.0;" width="6" x="688.5" y="828.6291"/><text fill="#000000" font-family="sans-serif" font-size="14" lengthAdjust="spacing" textLength="146" x="700.5" y="834.9757">market_cap: Numeric</text><rect fill="none" height="6" style="stroke:#C82930;stroke-width:1.0;" width="6" x="688.5" y="844.9259"/><text fill="#000000" font-family="sans-serif" font-size="14" lengthAdjust="spacing" textLength="156" x="700.5" y="851.2726">closing_price: Numeric</text><rect fill="none" height="6" style="stroke:#C82930;stroke-width:1.0;" width="6" x="688.5" y="861.2228"/><text fill="#000000" font-family="sans-serif" font-size="14" lengthAdjust="spacing" textLength="160" x="700.5" y="867.5695">ranking_value: Numeric</text><line style="stroke:#181818;stroke-width:0.5;" x1="681.5" x2="865.5" y1="874.8712" y2="874.8712"/></g><!--link User to WalletTransaction--><g id="link_User_WalletTransaction"><path codeLine="101" d="M503.5,157.8969 C503.5,181.6969 503.5,209.5769 503.5,234.1969 " fill="none" id="User-WalletTransaction" style="stroke:#181818;stroke-width:1.0;"/><text fill="#000000" font-family="sans-serif" font-size="13" lengthAdjust="spacing" textLength="23" x="504.5" y="200.5538">has</text><text fill="#000000" font-family="sans-serif" font-size="13" lengthAdjust="spacing" textLength="8" x="495.0375" y="177.43">1</text><text fill="#000000" font-family="sans-serif" font-size="13" lengthAdjust="spacing" textLength="7" x="496.1172" y="223.3378">*</text></g><!--link WalletTransaction to Cryptocurrency--><g id="link_WalletTransaction_Cryptocurrency"><path codeLine="102" d="M503.5,364.1669 C503.5,387.4769 503.5,414.5769 503.5,440.8669 " fill="none" id="WalletTransaction-Cryptocurrency" style="stroke:#181818;stroke-width:1.0;"/><text fill="#000000" font-family="sans-serif" font-size="13" lengthAdjust="spacing" textLength="23" x="504.5" y="407.0338">has</text><text fill="#000000" font-family="sans-serif" font-size="13" lengthAdjust="spacing" textLength="8" x="495.0625" y="384.1639">1</text><text fill="#000000" font-family="sans-serif" font-size="13" lengthAdjust="spacing" textLength="8" x="495.2313" y="429.7929">1</text></g><!--link Cryptocurrency to CurrencyInfoSchedule--><g id="link_Cryptocurrency_CurrencyInfoSchedule"><path codeLine="103" d="M401.85,627.0669 C337.53,672.2869 256.13,729.5069 199.54,769.2969 " fill="none" id="Cryptocurrency-CurrencyInfoSchedule" style="stroke:#181818;stroke-width:1.0;"/><text fill="#000000" font-family="sans-serif" font-size="13" lengthAdjust="spacing" textLength="64" x="296.5" y="711.3038">schedules</text><text fill="#000000" font-family="sans-serif" font-size="13" lengthAdjust="spacing" textLength="8" x="386.0913" y="628.9097">1</text><text fill="#000000" font-family="sans-serif" font-size="13" lengthAdjust="spacing" textLength="7" x="201.6159" y="758.451">*</text></g><!--link Cryptocurrency to Sector--><g id="link_Cryptocurrency_Sector"><path codeLine="104" d="M451.31,668.4069 C439.28,694.3969 426.81,721.3569 415.84,745.0669 " fill="none" id="Cryptocurrency-Sector" style="stroke:#181818;stroke-width:1.0;"/><text fill="#000000" font-family="sans-serif" font-size="13" lengthAdjust="spacing" textLength="8" x="439.7103" y="688.2493">1</text><text fill="#000000" font-family="sans-serif" font-size="13" lengthAdjust="spacing" textLength="23" x="394.9899" y="734.2101">0..*</text></g><!--link Sector to SectorInfoSchedule--><g id="link_Sector_SectorInfoSchedule"><path codeLine="105" d="M364.6,891.4069 C346.96,962.6169 320.51,1069.3869 305.34,1130.6369 " fill="none" id="Sector-SectorInfoSchedule" style="stroke:#181818;stroke-width:1.0;"/><text fill="#000000" font-family="sans-serif" font-size="13" lengthAdjust="spacing" textLength="64" x="357.5" y="934.0838">schedules</text><text fill="#000000" font-family="sans-serif" font-size="13" lengthAdjust="spacing" textLength="8" x="354.5127" y="911.1794">1</text><text fill="#000000" font-family="sans-serif" font-size="13" lengthAdjust="spacing" textLength="7" x="299.5128" y="1119.7966">*</text></g><!--link Cryptocurrency to Analysis--><g id="link_Cryptocurrency_Analysis"><path codeLine="106" d="M535.42,668.4069 C545.43,703.8069 555.95,740.9769 563.97,769.3169 " fill="none" id="Cryptocurrency-Analysis" style="stroke:#181818;stroke-width:1.0;"/><text fill="#000000" font-family="sans-serif" font-size="13" lengthAdjust="spacing" textLength="8" x="529.2086" y="688.2493">1</text><text fill="#000000" font-family="sans-serif" font-size="13" lengthAdjust="spacing" textLength="23" x="537.4502" y="758.4738">0..*</text></g><!--link Analysis to AnalysisInfoSchedule--><g id="link_Analysis_AnalysisInfoSchedule"><path codeLine="107" d="M577.5,866.8369 C577.5,932.9869 577.5,1052.3169 577.5,1122.5469 " fill="none" id="Analysis-AnalysisInfoSchedule" style="stroke:#181818;stroke-width:1.0;"/><text fill="#000000" font-family="sans-serif" font-size="13" lengthAdjust="spacing" textLength="64" x="578.5" y="934.0838">schedules</text><text fill="#000000" font-family="sans-serif" font-size="13" lengthAdjust="spacing" textLength="8" x="568.9375" y="886.8169">1</text><text fill="#000000" font-family="sans-serif" font-size="13" lengthAdjust="spacing" textLength="7" x="570.0734" y="1111.7751">*</text></g><!--link Analysis to FirstStageAnalysis--><g id="link_Analysis_FirstStageAnalysis"><path codeLine="108" d="M625.52,866.8769 C653.68,895.5069 689.5,933.0369 719.5,968.0169 C725.2,974.6669 730.95,981.4869 736.71,988.4169 " fill="none" id="Analysis-FirstStageAnalysis" style="stroke:#181818;stroke-width:1.0;"/><text fill="#000000" font-family="sans-serif" font-size="13" lengthAdjust="spacing" textLength="52" x="691.5" y="934.0838">includes</text><text fill="#000000" font-family="sans-serif" font-size="13" lengthAdjust="spacing" textLength="8" x="623.4352" y="886.5106">1</text><text fill="#000000" font-family="sans-serif" font-size="13" lengthAdjust="spacing" textLength="7" x="722.0638" y="975.2513">*</text></g><!--link Cryptocurrency to CryptoRanking--><g id="link_Cryptocurrency_CryptoRanking"><path codeLine="109" d="M605.19,654.1069 C639.42,687.2569 676.7,723.3669 707.46,753.1569 " fill="none" id="Cryptocurrency-CryptoRanking" style="stroke:#181818;stroke-width:1.0;"/><text fill="#000000" font-family="sans-serif" font-size="13" lengthAdjust="spacing" textLength="74" x="664.5" y="711.3038">has ranking</text><text fill="#000000" font-family="sans-serif" font-size="13" lengthAdjust="spacing" textLength="8" x="612.9516" y="657.9354">1</text><text fill="#000000" font-family="sans-serif" font-size="13" lengthAdjust="spacing" textLength="7" x="692.8541" y="742.3044">*</text></g><!--SRC=[lLRBRjGm5DtFLrZP81LD1Giab1rqLAaIOj5fnG8XoxLlKwkE7Vne6nM-XnLBlg0_ndKUCwdZj5qWPZ6JkUzxxYjUUWLa8rbbMSs807Aac7FWukF6r0-_jJJa1paoKZjM0LcJRMEbzkJTQiMZA3btOEzN13zh8aL9JhI72kn0qQo6acmzwbG32MecLK9hqDAjiM97_ZcQ_yAK0dzc6VhdNXfDUcUlIGX2bkJy_6Gp6FaUcFRIjoNv76gmaWzqLfkWVKeLp6Da6_m-apMCSI0VgD6q2PPVCGTxhLr4HxPjlE71Mj2ydOGJiv-4uzhwmgI9yfhJEKgHwbIe4c5bAfEGCdWASDpA9cAJS3pmAoqvKrGONf9FqlcllS2tGI9OvR8CRW6H4PJv6KO8WgUXIV3RmpC0Sw8lpPPVWGZOOID8yzGdrgYNzRma6kuyTOCXaShit6w1UsENgv41piVcJ-iJ6vtkEsbU9oaIbTYMDsZdep4Ac4v3-iyuVD1CjKwwPIIoZGzQWCZaC9fxOHRH6MM3pYEl_og_OscTtthSHSzdkXpDEBqbSTDIufQvndzfLZMpr-0fPqswH6u1hgdKSLeSq0Oi1nrZI-Ls8bdmkJ8EtT9k-wIg7N2TdoV5J0Cwpy5z-pv7erKtuvP6rNtf9m8AdEkyGif-dFUDKQ5UphbdO-hjBFDdJ7Y3IWkymUe5N1eBkrZoKevQKApVa0aGTut5B760np3tbcQ8KAPafQTpqhCkGXlhuf39LChiSiWkokwEdFOjH-udFVly6Ldko2URPEXlUiDKU7pQNf5JHEZXryCVlFtOmnO8SuJtBmEhUED9yROWwpKf3ehCKIv9WUUoMCqvenh-99Tpr4d84p-vMu8ZEpov9SqtXuUetA_VrN0O9bOpU_d5HiUbizfjdudXxBASciufPHPQ6UT21R4Sp46Hj4-FvLZWuYy0]--></g></svg>