<?xml version="1.0" encoding="us-ascii" standalone="no"?><svg xmlns="http://www.w3.org/2000/svg" xmlns:xlink="http://www.w3.org/1999/xlink" contentStyleType="text/css" height="919px" preserveAspectRatio="none" style="width:825px;height:919px;background:#FFFFFF;" version="1.1" viewBox="0 0 825 919" width="825px" zoomAndPan="magnify"><defs/><g><text fill="#000000" font-family="sans-serif" font-size="14" font-weight="bold" lengthAdjust="spacing" textLength="423" x="194.25" y="22.9951">Diagrama de Classes de Dom&#237;nio | Coinsage - Sprint 3</text><!--class Cryptocurrency--><g id="elem_Cryptocurrency"><rect codeLine="3" fill="#F1F1F1" height="194.6719" id="Cryptocurrency" rx="2.5" ry="2.5" style="stroke:#181818;stroke-width:0.5;" width="203" x="399" y="44.2969"/><ellipse cx="443.75" cy="60.2969" fill="#ADD1B2" rx="11" ry="11" style="stroke:#181818;stroke-width:1.0;"/><path d="M446.7188,65.9375 Q446.1406,66.2344 445.5,66.375 Q444.8594,66.5313 444.1563,66.5313 Q441.6563,66.5313 440.3281,64.8906 Q439.0156,63.2344 439.0156,60.1094 Q439.0156,56.9844 440.3281,55.3281 Q441.6563,53.6719 444.1563,53.6719 Q444.8594,53.6719 445.5,53.8281 Q446.1563,53.9844 446.7188,54.2813 L446.7188,57 Q446.0938,56.4219 445.5,56.1563 Q444.9063,55.875 444.2813,55.875 Q442.9375,55.875 442.25,56.9531 Q441.5625,58.0156 441.5625,60.1094 Q441.5625,62.2031 442.25,63.2813 Q442.9375,64.3438 444.2813,64.3438 Q444.9063,64.3438 445.5,64.0781 Q446.0938,63.7969 446.7188,63.2188 L446.7188,65.9375 Z " fill="#000000"/><text fill="#000000" font-family="sans-serif" font-size="14" lengthAdjust="spacing" textLength="105" x="464.25" y="65.1436">Cryptocurrency</text><line style="stroke:#181818;stroke-width:0.5;" x1="400" x2="601" y1="76.2969" y2="76.2969"/><rect fill="none" height="6" style="stroke:#C82930;stroke-width:1.0;" width="6" x="407" y="86.9453"/><text fill="#000000" font-family="sans-serif" font-size="14" lengthAdjust="spacing" textLength="73" x="419" y="93.292">uuid: UUID</text><rect fill="none" height="6" style="stroke:#C82930;stroke-width:1.0;" width="6" x="407" y="103.2422"/><text fill="#000000" font-family="sans-serif" font-size="14" lengthAdjust="spacing" textLength="98" x="419" y="109.5889">symbol: String</text><rect fill="none" height="6" style="stroke:#C82930;stroke-width:1.0;" width="6" x="407" y="119.5391"/><text fill="#000000" font-family="sans-serif" font-size="14" lengthAdjust="spacing" textLength="106" x="419" y="125.8857">cmc_id: Integer</text><rect fill="none" height="6" style="stroke:#C82930;stroke-width:1.0;" width="6" x="407" y="135.8359"/><text fill="#000000" font-family="sans-serif" font-size="14" lengthAdjust="spacing" textLength="114" x="419" y="142.1826">cmc_slug: String</text><rect fill="none" height="6" style="stroke:#C82930;stroke-width:1.0;" width="6" x="407" y="152.1328"/><text fill="#000000" font-family="sans-serif" font-size="14" lengthAdjust="spacing" textLength="79" x="419" y="158.4795">logo: String</text><rect fill="none" height="6" style="stroke:#C82930;stroke-width:1.0;" width="6" x="407" y="168.4297"/><text fill="#000000" font-family="sans-serif" font-size="14" lengthAdjust="spacing" textLength="88" x="419" y="174.7764">name: String</text><rect fill="none" height="6" style="stroke:#C82930;stroke-width:1.0;" width="6" x="407" y="184.7266"/><text fill="#000000" font-family="sans-serif" font-size="14" lengthAdjust="spacing" textLength="126" x="419" y="191.0732">description: String</text><rect fill="none" height="6" style="stroke:#C82930;stroke-width:1.0;" width="6" x="407" y="201.0234"/><text fill="#000000" font-family="sans-serif" font-size="14" lengthAdjust="spacing" textLength="177" x="419" y="207.3701">technical_doc: List[String]</text><rect fill="none" height="6" style="stroke:#C82930;stroke-width:1.0;" width="6" x="407" y="217.3203"/><text fill="#000000" font-family="sans-serif" font-size="14" lengthAdjust="spacing" textLength="107" x="419" y="223.667">urls: List[String]</text><line style="stroke:#181818;stroke-width:0.5;" x1="400" x2="601" y1="230.9688" y2="230.9688"/></g><!--class Sector--><g id="elem_Sector"><rect codeLine="15" fill="#F1F1F1" height="145.7813" id="Sector" rx="2.5" ry="2.5" style="stroke:#181818;stroke-width:0.5;" width="183" x="618" y="315.9669"/><ellipse cx="682.75" cy="331.9669" fill="#ADD1B2" rx="11" ry="11" style="stroke:#181818;stroke-width:1.0;"/><path d="M685.7188,337.6075 Q685.1406,337.9044 684.5,338.045 Q683.8594,338.2012 683.1563,338.2012 Q680.6563,338.2012 679.3281,336.5606 Q678.0156,334.9044 678.0156,331.7794 Q678.0156,328.6544 679.3281,326.9981 Q680.6563,325.3419 683.1563,325.3419 Q683.8594,325.3419 684.5,325.4981 Q685.1563,325.6544 685.7188,325.9512 L685.7188,328.67 Q685.0938,328.0919 684.5,327.8262 Q683.9063,327.545 683.2813,327.545 Q681.9375,327.545 681.25,328.6231 Q680.5625,329.6856 680.5625,331.7794 Q680.5625,333.8731 681.25,334.9512 Q681.9375,336.0137 683.2813,336.0137 Q683.9063,336.0137 684.5,335.7481 Q685.0938,335.4669 685.7188,334.8887 L685.7188,337.6075 Z " fill="#000000"/><text fill="#000000" font-family="sans-serif" font-size="14" lengthAdjust="spacing" textLength="45" x="703.25" y="336.8136">Sector</text><line style="stroke:#181818;stroke-width:0.5;" x1="619" x2="800" y1="347.9669" y2="347.9669"/><rect fill="none" height="6" style="stroke:#C82930;stroke-width:1.0;" width="6" x="626" y="358.6153"/><text fill="#000000" font-family="sans-serif" font-size="14" lengthAdjust="spacing" textLength="73" x="638" y="364.962">uuid: UUID</text><rect fill="none" height="6" style="stroke:#C82930;stroke-width:1.0;" width="6" x="626" y="374.9122"/><text fill="#000000" font-family="sans-serif" font-size="14" lengthAdjust="spacing" textLength="88" x="638" y="381.2589">name: String</text><rect fill="none" height="6" style="stroke:#C82930;stroke-width:1.0;" width="6" x="626" y="391.2091"/><text fill="#000000" font-family="sans-serif" font-size="14" lengthAdjust="spacing" textLength="74" x="638" y="397.5557">title: String</text><rect fill="none" height="6" style="stroke:#C82930;stroke-width:1.0;" width="6" x="626" y="407.5059"/><text fill="#000000" font-family="sans-serif" font-size="14" lengthAdjust="spacing" textLength="157" x="638" y="413.8526">coins_quantity: Integer</text><rect fill="none" height="6" style="stroke:#C82930;stroke-width:1.0;" width="6" x="626" y="423.8028"/><text fill="#000000" font-family="sans-serif" font-size="14" lengthAdjust="spacing" textLength="97" x="638" y="430.1495">cmc_id: String</text><rect fill="none" height="6" style="stroke:#C82930;stroke-width:1.0;" width="6" x="626" y="440.0997"/><text fill="#000000" font-family="sans-serif" font-size="14" lengthAdjust="spacing" textLength="106" x="638" y="446.4464">active: Boolean</text><line style="stroke:#181818;stroke-width:0.5;" x1="619" x2="800" y1="453.7481" y2="453.7481"/></g><!--class Analysis--><g id="elem_Analysis"><rect codeLine="24" fill="#F1F1F1" height="96.8906" id="Analysis" rx="2.5" ry="2.5" style="stroke:#181818;stroke-width:0.5;" width="137" x="215" y="340.4169"/><ellipse cx="252.5" cy="356.4169" fill="#ADD1B2" rx="11" ry="11" style="stroke:#181818;stroke-width:1.0;"/><path d="M255.4688,362.0575 Q254.8906,362.3544 254.25,362.495 Q253.6094,362.6513 252.9063,362.6513 Q250.4063,362.6513 249.0781,361.0106 Q247.7656,359.3544 247.7656,356.2294 Q247.7656,353.1044 249.0781,351.4481 Q250.4063,349.7919 252.9063,349.7919 Q253.6094,349.7919 254.25,349.9481 Q254.9063,350.1044 255.4688,350.4013 L255.4688,353.12 Q254.8438,352.5419 254.25,352.2763 Q253.6563,351.995 253.0313,351.995 Q251.6875,351.995 251,353.0731 Q250.3125,354.1356 250.3125,356.2294 Q250.3125,358.3231 251,359.4013 Q251.6875,360.4638 253.0313,360.4638 Q253.6563,360.4638 254.25,360.1981 Q254.8438,359.9169 255.4688,359.3388 L255.4688,362.0575 Z " fill="#000000"/><text fill="#000000" font-family="sans-serif" font-size="14" lengthAdjust="spacing" textLength="55" x="271.5" y="361.2636">Analysis</text><line style="stroke:#181818;stroke-width:0.5;" x1="216" x2="351" y1="372.4169" y2="372.4169"/><rect fill="none" height="6" style="stroke:#C82930;stroke-width:1.0;" width="6" x="223" y="383.0653"/><text fill="#000000" font-family="sans-serif" font-size="14" lengthAdjust="spacing" textLength="73" x="235" y="389.412">uuid: UUID</text><rect fill="none" height="6" style="stroke:#C82930;stroke-width:1.0;" width="6" x="223" y="399.3622"/><text fill="#000000" font-family="sans-serif" font-size="14" lengthAdjust="spacing" textLength="107" x="235" y="405.7089">date: DateTime</text><rect fill="none" height="6" style="stroke:#C82930;stroke-width:1.0;" width="6" x="223" y="415.6591"/><text fill="#000000" font-family="sans-serif" font-size="14" lengthAdjust="spacing" textLength="111" x="235" y="422.0057">ended: Boolean</text><line style="stroke:#181818;stroke-width:0.5;" x1="216" x2="351" y1="429.3075" y2="429.3075"/></g><!--class User--><g id="elem_User"><rect codeLine="30" fill="#F1F1F1" height="113.1875" id="User" rx="2.5" ry="2.5" style="stroke:#181818;stroke-width:0.5;" width="201" x="163" y="85.0369"/><ellipse cx="243.25" cy="101.0369" fill="#ADD1B2" rx="11" ry="11" style="stroke:#181818;stroke-width:1.0;"/><path d="M246.2188,106.6775 Q245.6406,106.9744 245,107.115 Q244.3594,107.2713 243.6563,107.2713 Q241.1563,107.2713 239.8281,105.6306 Q238.5156,103.9744 238.5156,100.8494 Q238.5156,97.7244 239.8281,96.0681 Q241.1563,94.4119 243.6563,94.4119 Q244.3594,94.4119 245,94.5681 Q245.6563,94.7244 246.2188,95.0213 L246.2188,97.74 Q245.5938,97.1619 245,96.8963 Q244.4063,96.615 243.7813,96.615 Q242.4375,96.615 241.75,97.6931 Q241.0625,98.7556 241.0625,100.8494 Q241.0625,102.9431 241.75,104.0213 Q242.4375,105.0838 243.7813,105.0838 Q244.4063,105.0838 245,104.8181 Q245.5938,104.5369 246.2188,103.9588 L246.2188,106.6775 Z " fill="#000000"/><text fill="#000000" font-family="sans-serif" font-size="14" lengthAdjust="spacing" textLength="32" x="263.75" y="105.8836">User</text><line style="stroke:#181818;stroke-width:0.5;" x1="164" x2="363" y1="117.0369" y2="117.0369"/><rect fill="none" height="6" style="stroke:#C82930;stroke-width:1.0;" width="6" x="171" y="127.6853"/><text fill="#000000" font-family="sans-serif" font-size="14" lengthAdjust="spacing" textLength="70" x="183" y="134.032">id: Integer</text><rect fill="none" height="6" style="stroke:#C82930;stroke-width:1.0;" width="6" x="171" y="143.9822"/><text fill="#000000" font-family="sans-serif" font-size="14" lengthAdjust="spacing" textLength="85" x="183" y="150.3289">email: String</text><rect fill="none" height="6" style="stroke:#C82930;stroke-width:1.0;" width="6" x="171" y="160.2791"/><text fill="#000000" font-family="sans-serif" font-size="14" lengthAdjust="spacing" textLength="175" x="183" y="166.6257">hashed_password: String</text><rect fill="none" height="6" style="stroke:#C82930;stroke-width:1.0;" width="6" x="171" y="176.5759"/><text fill="#000000" font-family="sans-serif" font-size="14" lengthAdjust="spacing" textLength="124" x="183" y="182.9226">is_active: Boolean</text><line style="stroke:#181818;stroke-width:0.5;" x1="164" x2="363" y1="190.2244" y2="190.2244"/></g><!--class AnalysisInfoSchedule--><g id="elem_AnalysisInfoSchedule"><rect codeLine="37" fill="#F1F1F1" height="113.1875" id="AnalysisInfoSchedule" rx="2.5" ry="2.5" style="stroke:#181818;stroke-width:0.5;" width="249" x="7" y="669.1269"/><ellipse cx="54.75" cy="685.1269" fill="#ADD1B2" rx="11" ry="11" style="stroke:#181818;stroke-width:1.0;"/><path d="M57.7188,690.7675 Q57.1406,691.0644 56.5,691.205 Q55.8594,691.3613 55.1563,691.3613 Q52.6563,691.3613 51.3281,689.7206 Q50.0156,688.0644 50.0156,684.9394 Q50.0156,681.8144 51.3281,680.1581 Q52.6563,678.5019 55.1563,678.5019 Q55.8594,678.5019 56.5,678.6581 Q57.1563,678.8144 57.7188,679.1113 L57.7188,681.83 Q57.0938,681.2519 56.5,680.9863 Q55.9063,680.705 55.2813,680.705 Q53.9375,680.705 53.25,681.7831 Q52.5625,682.8456 52.5625,684.9394 Q52.5625,687.0331 53.25,688.1113 Q53.9375,689.1738 55.2813,689.1738 Q55.9063,689.1738 56.5,688.9081 Q57.0938,688.6269 57.7188,688.0488 L57.7188,690.7675 Z " fill="#000000"/><text fill="#000000" font-family="sans-serif" font-size="14" lengthAdjust="spacing" textLength="145" x="75.25" y="689.9736">AnalysisInfoSchedule</text><line style="stroke:#181818;stroke-width:0.5;" x1="8" x2="255" y1="701.1269" y2="701.1269"/><rect fill="none" height="6" style="stroke:#C82930;stroke-width:1.0;" width="6" x="15" y="711.7753"/><text fill="#000000" font-family="sans-serif" font-size="14" lengthAdjust="spacing" textLength="70" x="27" y="718.122">id: Integer</text><rect fill="none" height="6" style="stroke:#C82930;stroke-width:1.0;" width="6" x="15" y="728.0722"/><text fill="#000000" font-family="sans-serif" font-size="14" lengthAdjust="spacing" textLength="134" x="27" y="734.4189">uuid_analysis: UUID</text><rect fill="none" height="6" style="stroke:#C82930;stroke-width:1.0;" width="6" x="15" y="744.3691"/><text fill="#000000" font-family="sans-serif" font-size="14" lengthAdjust="spacing" textLength="193" x="27" y="750.7157">last_update_time: DateTime</text><rect fill="none" height="6" style="stroke:#C82930;stroke-width:1.0;" width="6" x="15" y="760.6659"/><text fill="#000000" font-family="sans-serif" font-size="14" lengthAdjust="spacing" textLength="223" x="27" y="767.0126">next_scheduled_time: DateTime</text><line style="stroke:#181818;stroke-width:0.5;" x1="8" x2="255" y1="774.3144" y2="774.3144"/></g><!--class FirstStageAnalysis--><g id="elem_FirstStageAnalysis"><rect codeLine="44" fill="#F1F1F1" height="373.9375" id="FirstStageAnalysis" rx="2.5" ry="2.5" style="stroke:#181818;stroke-width:0.5;" width="289" x="291" y="538.7469"/><ellipse cx="369.25" cy="554.7469" fill="#ADD1B2" rx="11" ry="11" style="stroke:#181818;stroke-width:1.0;"/><path d="M372.2188,560.3875 Q371.6406,560.6844 371,560.825 Q370.3594,560.9813 369.6563,560.9813 Q367.1563,560.9813 365.8281,559.3406 Q364.5156,557.6844 364.5156,554.5594 Q364.5156,551.4344 365.8281,549.7781 Q367.1563,548.1219 369.6563,548.1219 Q370.3594,548.1219 371,548.2781 Q371.6563,548.4344 372.2188,548.7313 L372.2188,551.45 Q371.5938,550.8719 371,550.6063 Q370.4063,550.325 369.7813,550.325 Q368.4375,550.325 367.75,551.4031 Q367.0625,552.4656 367.0625,554.5594 Q367.0625,556.6531 367.75,557.7313 Q368.4375,558.7938 369.7813,558.7938 Q370.4063,558.7938 371,558.5281 Q371.5938,558.2469 372.2188,557.6688 L372.2188,560.3875 Z " fill="#000000"/><text fill="#000000" font-family="sans-serif" font-size="14" lengthAdjust="spacing" textLength="124" x="389.75" y="559.5936">FirstStageAnalysis</text><line style="stroke:#181818;stroke-width:0.5;" x1="292" x2="579" y1="570.7469" y2="570.7469"/><rect fill="none" height="6" style="stroke:#C82930;stroke-width:1.0;" width="6" x="299" y="581.3953"/><text fill="#000000" font-family="sans-serif" font-size="14" lengthAdjust="spacing" textLength="73" x="311" y="587.742">uuid: UUID</text><rect fill="none" height="6" style="stroke:#C82930;stroke-width:1.0;" width="6" x="299" y="597.6922"/><text fill="#000000" font-family="sans-serif" font-size="14" lengthAdjust="spacing" textLength="134" x="311" y="604.0389">uuid_analysis: UUID</text><rect fill="none" height="6" style="stroke:#C82930;stroke-width:1.0;" width="6" x="299" y="613.9891"/><text fill="#000000" font-family="sans-serif" font-size="14" lengthAdjust="spacing" textLength="140" x="311" y="620.3357">uuid_currency: UUID</text><rect fill="none" height="6" style="stroke:#C82930;stroke-width:1.0;" width="6" x="299" y="630.2859"/><text fill="#000000" font-family="sans-serif" font-size="14" lengthAdjust="spacing" textLength="109" x="311" y="636.6326">ranking: Integer</text><rect fill="none" height="6" style="stroke:#C82930;stroke-width:1.0;" width="6" x="299" y="646.5828"/><text fill="#000000" font-family="sans-serif" font-size="14" lengthAdjust="spacing" textLength="157" x="311" y="652.9295">market_value: Numeric</text><rect fill="none" height="6" style="stroke:#C82930;stroke-width:1.0;" width="6" x="299" y="662.8797"/><text fill="#000000" font-family="sans-serif" font-size="14" lengthAdjust="spacing" textLength="256" x="311" y="669.2264">week_increase_percentage: Numeric</text><rect fill="none" height="6" style="stroke:#C82930;stroke-width:1.0;" width="6" x="299" y="679.1766"/><text fill="#000000" font-family="sans-serif" font-size="14" lengthAdjust="spacing" textLength="173" x="311" y="685.5232">increase_date: DateTime</text><rect fill="none" height="6" style="stroke:#C82930;stroke-width:1.0;" width="6" x="299" y="695.4734"/><text fill="#000000" font-family="sans-serif" font-size="14" lengthAdjust="spacing" textLength="156" x="311" y="701.8201">closing_price: Numeric</text><rect fill="none" height="6" style="stroke:#C82930;stroke-width:1.0;" width="6" x="299" y="711.7703"/><text fill="#000000" font-family="sans-serif" font-size="14" lengthAdjust="spacing" textLength="231" x="311" y="718.117">last_week_closing_price: Numeric</text><rect fill="none" height="6" style="stroke:#C82930;stroke-width:1.0;" width="6" x="299" y="728.0672"/><text fill="#000000" font-family="sans-serif" font-size="14" lengthAdjust="spacing" textLength="143" x="311" y="734.4139">open_price: Numeric</text><rect fill="none" height="6" style="stroke:#C82930;stroke-width:1.0;" width="6" x="299" y="744.3641"/><text fill="#000000" font-family="sans-serif" font-size="14" lengthAdjust="spacing" textLength="105" x="311" y="750.7107">ema8: Numeric</text><rect fill="none" height="6" style="stroke:#C82930;stroke-width:1.0;" width="6" x="299" y="760.6609"/><text fill="#000000" font-family="sans-serif" font-size="14" lengthAdjust="spacing" textLength="205" x="311" y="767.0076">ema8_greater_open: Boolean</text><rect fill="none" height="6" style="stroke:#C82930;stroke-width:1.0;" width="6" x="299" y="776.9578"/><text fill="#000000" font-family="sans-serif" font-size="14" lengthAdjust="spacing" textLength="184" x="311" y="783.3045">ema8_less_close: Boolean</text><rect fill="none" height="6" style="stroke:#C82930;stroke-width:1.0;" width="6" x="299" y="793.2547"/><text fill="#000000" font-family="sans-serif" font-size="14" lengthAdjust="spacing" textLength="226" x="311" y="799.6014">week_increase_volume: Numeric</text><rect fill="none" height="6" style="stroke:#C82930;stroke-width:1.0;" width="6" x="299" y="809.5516"/><text fill="#000000" font-family="sans-serif" font-size="14" lengthAdjust="spacing" textLength="223" x="311" y="815.8982">increase_volume_day: DateTime</text><rect fill="none" height="6" style="stroke:#C82930;stroke-width:1.0;" width="6" x="299" y="825.8484"/><text fill="#000000" font-family="sans-serif" font-size="14" lengthAdjust="spacing" textLength="199" x="311" y="832.1951">day_before_volume: Numeric</text><rect fill="none" height="6" style="stroke:#C82930;stroke-width:1.0;" width="6" x="299" y="842.1453"/><text fill="#000000" font-family="sans-serif" font-size="14" lengthAdjust="spacing" textLength="182" x="311" y="848.492">volumes_relation: Numeric</text><rect fill="none" height="6" style="stroke:#C82930;stroke-width:1.0;" width="6" x="299" y="858.4422"/><text fill="#000000" font-family="sans-serif" font-size="14" lengthAdjust="spacing" textLength="263" x="311" y="864.7889">expressive_volume_increase: Boolean</text><rect fill="none" height="6" style="stroke:#C82930;stroke-width:1.0;" width="6" x="299" y="874.7391"/><text fill="#000000" font-family="sans-serif" font-size="14" lengthAdjust="spacing" textLength="153" x="311" y="881.0857">ema_aligned: Boolean</text><rect fill="none" height="6" style="stroke:#C82930;stroke-width:1.0;" width="6" x="299" y="891.0359"/><text fill="#000000" font-family="sans-serif" font-size="14" lengthAdjust="spacing" textLength="159" x="311" y="897.3826">buying_signal: Boolean</text><line style="stroke:#181818;stroke-width:0.5;" x1="292" x2="579" y1="904.6844" y2="904.6844"/></g><!--class MarketData--><g id="elem_MarketData"><rect codeLine="67" fill="#F1F1F1" height="129.4844" id="MarketData" rx="2.5" ry="2.5" style="stroke:#181818;stroke-width:0.5;" width="182" x="636.5" y="76.8869"/><ellipse cx="683.75" cy="92.8869" fill="#ADD1B2" rx="11" ry="11" style="stroke:#181818;stroke-width:1.0;"/><path d="M686.7188,98.5275 Q686.1406,98.8244 685.5,98.965 Q684.8594,99.1213 684.1563,99.1213 Q681.6563,99.1213 680.3281,97.4806 Q679.0156,95.8244 679.0156,92.6994 Q679.0156,89.5744 680.3281,87.9181 Q681.6563,86.2619 684.1563,86.2619 Q684.8594,86.2619 685.5,86.4181 Q686.1563,86.5744 686.7188,86.8713 L686.7188,89.59 Q686.0938,89.0119 685.5,88.7463 Q684.9063,88.465 684.2813,88.465 Q682.9375,88.465 682.25,89.5431 Q681.5625,90.6056 681.5625,92.6994 Q681.5625,94.7931 682.25,95.8713 Q682.9375,96.9338 684.2813,96.9338 Q684.9063,96.9338 685.5,96.6681 Q686.0938,96.3869 686.7188,95.8088 L686.7188,98.5275 Z " fill="#000000"/><text fill="#000000" font-family="sans-serif" font-size="14" lengthAdjust="spacing" textLength="79" x="704.25" y="97.7336">MarketData</text><line style="stroke:#181818;stroke-width:0.5;" x1="637.5" x2="817.5" y1="108.8869" y2="108.8869"/><rect fill="none" height="6" style="stroke:#C82930;stroke-width:1.0;" width="6" x="644.5" y="119.5353"/><text fill="#000000" font-family="sans-serif" font-size="14" lengthAdjust="spacing" textLength="98" x="656.5" y="125.882">symbol: String</text><rect fill="none" height="6" style="stroke:#C82930;stroke-width:1.0;" width="6" x="644.5" y="135.8322"/><text fill="#000000" font-family="sans-serif" font-size="14" lengthAdjust="spacing" textLength="128" x="656.5" y="142.1789">base_asset: String</text><rect fill="none" height="6" style="stroke:#C82930;stroke-width:1.0;" width="6" x="644.5" y="152.1291"/><text fill="#000000" font-family="sans-serif" font-size="14" lengthAdjust="spacing" textLength="135" x="656.5" y="158.4757">quote_asset: String</text><rect fill="none" height="6" style="stroke:#C82930;stroke-width:1.0;" width="6" x="644.5" y="168.4259"/><text fill="#000000" font-family="sans-serif" font-size="14" lengthAdjust="spacing" textLength="156" x="656.5" y="174.7726">closing_price: Numeric</text><rect fill="none" height="6" style="stroke:#C82930;stroke-width:1.0;" width="6" x="644.5" y="184.7228"/><text fill="#000000" font-family="sans-serif" font-size="14" lengthAdjust="spacing" textLength="143" x="656.5" y="191.0695">open_price: Numeric</text><line style="stroke:#181818;stroke-width:0.5;" x1="637.5" x2="817.5" y1="198.3713" y2="198.3713"/></g><!--class CryptoRanking--><g id="elem_CryptoRanking"><rect codeLine="75" fill="#F1F1F1" height="129.4844" id="CryptoRanking" rx="2.5" ry="2.5" style="stroke:#181818;stroke-width:0.5;" width="186" x="396.5" y="324.1169"/><ellipse cx="435.35" cy="340.1169" fill="#ADD1B2" rx="11" ry="11" style="stroke:#181818;stroke-width:1.0;"/><path d="M438.3188,345.7575 Q437.7406,346.0544 437.1,346.195 Q436.4594,346.3512 435.7563,346.3512 Q433.2563,346.3512 431.9281,344.7106 Q430.6156,343.0544 430.6156,339.9294 Q430.6156,336.8044 431.9281,335.1481 Q433.2563,333.4919 435.7563,333.4919 Q436.4594,333.4919 437.1,333.6481 Q437.7563,333.8044 438.3188,334.1012 L438.3188,336.82 Q437.6938,336.2419 437.1,335.9762 Q436.5063,335.695 435.8813,335.695 Q434.5375,335.695 433.85,336.7731 Q433.1625,337.8356 433.1625,339.9294 Q433.1625,342.0231 433.85,343.1012 Q434.5375,344.1637 435.8813,344.1637 Q436.5063,344.1637 437.1,343.8981 Q437.6938,343.6169 438.3188,343.0387 L438.3188,345.7575 Z " fill="#000000"/><text fill="#000000" font-family="sans-serif" font-size="14" lengthAdjust="spacing" textLength="101" x="454.65" y="344.9636">CryptoRanking</text><line style="stroke:#181818;stroke-width:0.5;" x1="397.5" x2="581.5" y1="356.1169" y2="356.1169"/><rect fill="none" height="6" style="stroke:#C82930;stroke-width:1.0;" width="6" x="404.5" y="366.7653"/><text fill="#000000" font-family="sans-serif" font-size="14" lengthAdjust="spacing" textLength="73" x="416.5" y="373.112">uuid: UUID</text><rect fill="none" height="6" style="stroke:#C82930;stroke-width:1.0;" width="6" x="404.5" y="383.0622"/><text fill="#000000" font-family="sans-serif" font-size="14" lengthAdjust="spacing" textLength="98" x="416.5" y="389.4089">symbol: String</text><rect fill="none" height="6" style="stroke:#C82930;stroke-width:1.0;" width="6" x="404.5" y="399.3591"/><text fill="#000000" font-family="sans-serif" font-size="14" lengthAdjust="spacing" textLength="146" x="416.5" y="405.7057">market_cap: Numeric</text><rect fill="none" height="6" style="stroke:#C82930;stroke-width:1.0;" width="6" x="404.5" y="415.6559"/><text fill="#000000" font-family="sans-serif" font-size="14" lengthAdjust="spacing" textLength="156" x="416.5" y="422.0026">closing_price: Numeric</text><rect fill="none" height="6" style="stroke:#C82930;stroke-width:1.0;" width="6" x="404.5" y="431.9528"/><text fill="#000000" font-family="sans-serif" font-size="14" lengthAdjust="spacing" textLength="160" x="416.5" y="438.2995">ranking_value: Numeric</text><line style="stroke:#181818;stroke-width:0.5;" x1="397.5" x2="581.5" y1="445.6012" y2="445.6012"/></g><!--link Cryptocurrency to Sector--><g id="link_Cryptocurrency_Sector"><path codeLine="84" d="M582.8,239.1969 C604.51,264.6669 627.55,291.7069 647.95,315.6369 " fill="none" id="Cryptocurrency-Sector" style="stroke:#181818;stroke-width:1.0;"/><text fill="#000000" font-family="sans-serif" font-size="13" lengthAdjust="spacing" textLength="8" x="580.5502" y="258.9843">1</text><text fill="#000000" font-family="sans-serif" font-size="13" lengthAdjust="spacing" textLength="23" x="617.9874" y="305.0164">0..*</text></g><!--link Cryptocurrency to Analysis--><g id="link_Cryptocurrency_Analysis"><path codeLine="85" d="M415.05,239.1969 C384.45,273.7769 351.28,311.2569 325.91,339.9269 " fill="none" id="Cryptocurrency-Analysis" style="stroke:#181818;stroke-width:1.0;"/><text fill="#000000" font-family="sans-serif" font-size="13" lengthAdjust="spacing" textLength="8" x="400.481" y="258.9843">1</text><text fill="#000000" font-family="sans-serif" font-size="13" lengthAdjust="spacing" textLength="23" x="307.0635" y="329.4192">0..*</text></g><!--link User to Analysis--><g id="link_User_Analysis"><path codeLine="86" d="M268.06,198.5869 C271.55,241.2769 276.29,299.4569 279.6,339.9969 " fill="none" id="User-Analysis" style="stroke:#181818;stroke-width:1.0;"/><text fill="#000000" font-family="sans-serif" font-size="13" lengthAdjust="spacing" textLength="32" x="276.5" y="282.0338">owns</text><text fill="#000000" font-family="sans-serif" font-size="13" lengthAdjust="spacing" textLength="8" x="260.1248" y="218.1142">1</text><text fill="#000000" font-family="sans-serif" font-size="13" lengthAdjust="spacing" textLength="7" x="271.6056" y="329.4986">*</text></g><!--link Analysis to AnalysisInfoSchedule--><g id="link_Analysis_AnalysisInfoSchedule"><path codeLine="87" d="M261.88,437.4769 C234.18,498.5069 186.23,604.1469 156.84,668.8869 " fill="none" id="Analysis-AnalysisInfoSchedule" style="stroke:#181818;stroke-width:1.0;"/><text fill="#000000" font-family="sans-serif" font-size="13" lengthAdjust="spacing" textLength="64" x="235.5" y="504.8138">schedules</text><text fill="#000000" font-family="sans-serif" font-size="13" lengthAdjust="spacing" textLength="8" x="250.2772" y="457.4442">1</text><text fill="#000000" font-family="sans-serif" font-size="13" lengthAdjust="spacing" textLength="7" x="152.5018" y="658.1212">*</text></g><!--link Analysis to FirstStageAnalysis--><g id="link_Analysis_FirstStageAnalysis"><path codeLine="88" d="M305.12,437.4769 C317.49,464.7469 333.91,500.9169 350.91,538.3569 " fill="none" id="Analysis-FirstStageAnalysis" style="stroke:#181818;stroke-width:1.0;"/><text fill="#000000" font-family="sans-serif" font-size="13" lengthAdjust="spacing" textLength="52" x="338.5" y="504.8138">includes</text><text fill="#000000" font-family="sans-serif" font-size="13" lengthAdjust="spacing" textLength="8" x="299.5978" y="457.4442">1</text><text fill="#000000" font-family="sans-serif" font-size="13" lengthAdjust="spacing" textLength="7" x="340.469" y="527.8147">*</text></g><!--link Cryptocurrency to CryptoRanking--><g id="link_Cryptocurrency_CryptoRanking"><path codeLine="89" d="M496.17,239.1969 C494.89,267.6169 493.53,297.9869 492.37,323.8169 " fill="none" id="Cryptocurrency-CryptoRanking" style="stroke:#181818;stroke-width:1.0;"/><text fill="#000000" font-family="sans-serif" font-size="13" lengthAdjust="spacing" textLength="74" x="495.5" y="282.0338">has ranking</text><text fill="#000000" font-family="sans-serif" font-size="13" lengthAdjust="spacing" textLength="8" x="487.5583" y="258.9843">1</text><text fill="#000000" font-family="sans-serif" font-size="13" lengthAdjust="spacing" textLength="7" x="485.3011" y="312.9567">*</text></g><!--SRC=[bLNDRjim3BxdAOHS1Wn8iM6NmRUjGO40smxDUXe6WP5PLwWikVf9Qsnzdfrst1FqnKR5TX8hSelc42JyIF7xA9BoqYjaImcLXHfOYUnSWNFeui-bgP_-QcdORtPkf7PG8LkmTMEbzkp3R2QYApktRUED2DQY5YtxDMFqMR0GP5cmgwlLiZUujjuOLR2rf_YgDufQyEYtqXuhj4TMfqALE2jJcSIaeSR4LA8JLZPU6fqW7iMDbW8KBuqes1Vf_8_EuUT0sYgN08-3pZKAR-oqlWmL7wkRAewLv7S1DA5jJdayTnG2miijdVFP68MW3vG-QL2jaswQL0cU0fVq_LtMs1jHbrXcZhjoUD1tUYjOWqplxmRS3PQyeV1xOrFYql4NkQ_qjLaBEYHG8qudZyeuz34ZYNIQvw69IhcNzQbSZG-Ukpv5cVhi2Lr8w_pQKvE_NDPfDZja68OHOa7VKcbIOJNOM_Hy2oeGhM-XHYj5ZzqZtdAfXKLmo1kq0dKacFhjNRBNBPHnb9ZJt8gJq5trTdcUTJCDwZn2NV4nP-CLKV9eUGmztF-HWqBdTbanXSUwjqQ5Ubfp1vFqzaGvsVW6husTEgIpEcvHGRSm4Y4FZIMMrC53cY5jHX479IjzF5aTj0bjhAiZ45Hc4hxkEe2emxxXihjo4zN6vUmJu2uOdqTUVQUFuwr-sVNiAvTwtz82cZJbitpw0Kb7WIYzOPTqGKz_dlxHmqGZO961Ow9xgMR90pH_FsUB1Pk_EpjxE- -tzlC-mxpFTWjmm8u0LZ1phzri_p_ZCzfZ1HlsJJueiskAsD4gbDE2A6vyAmMRq_uTwZR_3m00]--></g></svg>
