<?xml version="1.0" encoding="us-ascii" standalone="no"?><svg xmlns="http://www.w3.org/2000/svg" xmlns:xlink="http://www.w3.org/1999/xlink" contentStyleType="text/css" height="1001px" preserveAspectRatio="none" style="width:911px;height:1001px;background:#FFFFFF;" version="1.1" viewBox="0 0 911 1001" width="911px" zoomAndPan="magnify"><defs/><g><text fill="#000000" font-family="sans-serif" font-size="14" font-weight="bold" lengthAdjust="spacing" textLength="423" x="237" y="22.9951">Diagrama de Classes de Dom&#237;nio | Coinsage - Sprint 4</text><!--class Cryptocurrency--><g id="elem_Cryptocurrency"><rect codeLine="3" fill="#F1F1F1" height="227.2656" id="Cryptocurrency" rx="2.5" ry="2.5" style="stroke:#181818;stroke-width:0.5;" width="203" x="281" y="44.2969"/><ellipse cx="325.75" cy="60.2969" fill="#ADD1B2" rx="11" ry="11" style="stroke:#181818;stroke-width:1.0;"/><path d="M328.7188,65.9375 Q328.1406,66.2344 327.5,66.375 Q326.8594,66.5313 326.1563,66.5313 Q323.6563,66.5313 322.3281,64.8906 Q321.0156,63.2344 321.0156,60.1094 Q321.0156,56.9844 322.3281,55.3281 Q323.6563,53.6719 326.1563,53.6719 Q326.8594,53.6719 327.5,53.8281 Q328.1563,53.9844 328.7188,54.2813 L328.7188,57 Q328.0938,56.4219 327.5,56.1563 Q326.9063,55.875 326.2813,55.875 Q324.9375,55.875 324.25,56.9531 Q323.5625,58.0156 323.5625,60.1094 Q323.5625,62.2031 324.25,63.2813 Q324.9375,64.3438 326.2813,64.3438 Q326.9063,64.3438 327.5,64.0781 Q328.0938,63.7969 328.7188,63.2188 L328.7188,65.9375 Z " fill="#000000"/><text fill="#000000" font-family="sans-serif" font-size="14" lengthAdjust="spacing" textLength="105" x="346.25" y="65.1436">Cryptocurrency</text><line style="stroke:#181818;stroke-width:0.5;" x1="282" x2="483" y1="76.2969" y2="76.2969"/><ellipse cx="292" cy="89.9453" fill="none" rx="3" ry="3" style="stroke:#038048;stroke-width:1.0;"/><text fill="#000000" font-family="sans-serif" font-size="14" lengthAdjust="spacing" textLength="73" x="301" y="93.292">uuid: UUID</text><rect fill="none" height="6" style="stroke:#C82930;stroke-width:1.0;" width="6" x="289" y="103.2422"/><text fill="#000000" font-family="sans-serif" font-size="14" lengthAdjust="spacing" textLength="98" x="301" y="109.5889">symbol: String</text><rect fill="none" height="6" style="stroke:#C82930;stroke-width:1.0;" width="6" x="289" y="119.5391"/><text fill="#000000" font-family="sans-serif" font-size="14" lengthAdjust="spacing" textLength="106" x="301" y="125.8857">cmc_id: Integer</text><rect fill="none" height="6" style="stroke:#C82930;stroke-width:1.0;" width="6" x="289" y="135.8359"/><text fill="#000000" font-family="sans-serif" font-size="14" lengthAdjust="spacing" textLength="114" x="301" y="142.1826">cmc_slug: String</text><rect fill="none" height="6" style="stroke:#C82930;stroke-width:1.0;" width="6" x="289" y="152.1328"/><text fill="#000000" font-family="sans-serif" font-size="14" lengthAdjust="spacing" textLength="79" x="301" y="158.4795">logo: String</text><rect fill="none" height="6" style="stroke:#C82930;stroke-width:1.0;" width="6" x="289" y="168.4297"/><text fill="#000000" font-family="sans-serif" font-size="14" lengthAdjust="spacing" textLength="88" x="301" y="174.7764">name: String</text><rect fill="none" height="6" style="stroke:#C82930;stroke-width:1.0;" width="6" x="289" y="184.7266"/><text fill="#000000" font-family="sans-serif" font-size="14" lengthAdjust="spacing" textLength="126" x="301" y="191.0732">description: String</text><rect fill="none" height="6" style="stroke:#C82930;stroke-width:1.0;" width="6" x="289" y="201.0234"/><text fill="#000000" font-family="sans-serif" font-size="14" lengthAdjust="spacing" textLength="177" x="301" y="207.3701">technical_doc: List[String]</text><rect fill="none" height="6" style="stroke:#C82930;stroke-width:1.0;" width="6" x="289" y="217.3203"/><text fill="#000000" font-family="sans-serif" font-size="14" lengthAdjust="spacing" textLength="107" x="301" y="223.667">urls: List[String]</text><rect fill="none" height="6" style="stroke:#C82930;stroke-width:1.0;" width="6" x="289" y="233.6172"/><text fill="#000000" font-family="sans-serif" font-size="14" lengthAdjust="spacing" textLength="149" x="301" y="239.9639">created_at: DateTime</text><rect fill="none" height="6" style="stroke:#C82930;stroke-width:1.0;" width="6" x="289" y="249.9141"/><text fill="#000000" font-family="sans-serif" font-size="14" lengthAdjust="spacing" textLength="156" x="301" y="256.2607">last_update: DateTime</text><line style="stroke:#181818;stroke-width:0.5;" x1="282" x2="483" y1="263.5625" y2="263.5625"/></g><!--class CurrencyInfoSchedule--><g id="elem_CurrencyInfoSchedule"><rect codeLine="17" fill="#F1F1F1" height="96.8906" id="CurrencyInfoSchedule" rx="2.5" ry="2.5" style="stroke:#181818;stroke-width:0.5;" width="249" x="7" y="372.7969"/><ellipse cx="51.25" cy="388.7969" fill="#ADD1B2" rx="11" ry="11" style="stroke:#181818;stroke-width:1.0;"/><path d="M54.2188,394.4375 Q53.6406,394.7344 53,394.875 Q52.3594,395.0313 51.6563,395.0313 Q49.1563,395.0313 47.8281,393.3906 Q46.5156,391.7344 46.5156,388.6094 Q46.5156,385.4844 47.8281,383.8281 Q49.1563,382.1719 51.6563,382.1719 Q52.3594,382.1719 53,382.3281 Q53.6563,382.4844 54.2188,382.7813 L54.2188,385.5 Q53.5938,384.9219 53,384.6563 Q52.4063,384.375 51.7813,384.375 Q50.4375,384.375 49.75,385.4531 Q49.0625,386.5156 49.0625,388.6094 Q49.0625,390.7031 49.75,391.7813 Q50.4375,392.8438 51.7813,392.8438 Q52.4063,392.8438 53,392.5781 Q53.5938,392.2969 54.2188,391.7188 L54.2188,394.4375 Z " fill="#000000"/><text fill="#000000" font-family="sans-serif" font-size="14" lengthAdjust="spacing" textLength="152" x="71.75" y="393.6436">CurrencyInfoSchedule</text><line style="stroke:#181818;stroke-width:0.5;" x1="8" x2="255" y1="404.7969" y2="404.7969"/><ellipse cx="18" cy="418.4453" fill="none" rx="3" ry="3" style="stroke:#038048;stroke-width:1.0;"/><text fill="#000000" font-family="sans-serif" font-size="14" lengthAdjust="spacing" textLength="70" x="27" y="421.792">id: Integer</text><rect fill="none" height="6" style="stroke:#C82930;stroke-width:1.0;" width="6" x="15" y="431.7422"/><text fill="#000000" font-family="sans-serif" font-size="14" lengthAdjust="spacing" textLength="193" x="27" y="438.0889">last_update_time: DateTime</text><rect fill="none" height="6" style="stroke:#C82930;stroke-width:1.0;" width="6" x="15" y="448.0391"/><text fill="#000000" font-family="sans-serif" font-size="14" lengthAdjust="spacing" textLength="223" x="27" y="454.3857">next_scheduled_time: DateTime</text><line style="stroke:#181818;stroke-width:0.5;" x1="8" x2="255" y1="461.6875" y2="461.6875"/></g><!--class Sector--><g id="elem_Sector"><rect codeLine="24" fill="#F1F1F1" height="145.7813" id="Sector" rx="2.5" ry="2.5" style="stroke:#181818;stroke-width:0.5;" width="183" x="291" y="348.2969"/><ellipse cx="355.75" cy="364.2969" fill="#ADD1B2" rx="11" ry="11" style="stroke:#181818;stroke-width:1.0;"/><path d="M358.7188,369.9375 Q358.1406,370.2344 357.5,370.375 Q356.8594,370.5313 356.1563,370.5313 Q353.6563,370.5313 352.3281,368.8906 Q351.0156,367.2344 351.0156,364.1094 Q351.0156,360.9844 352.3281,359.3281 Q353.6563,357.6719 356.1563,357.6719 Q356.8594,357.6719 357.5,357.8281 Q358.1563,357.9844 358.7188,358.2813 L358.7188,361 Q358.0938,360.4219 357.5,360.1563 Q356.9063,359.875 356.2813,359.875 Q354.9375,359.875 354.25,360.9531 Q353.5625,362.0156 353.5625,364.1094 Q353.5625,366.2031 354.25,367.2813 Q354.9375,368.3438 356.2813,368.3438 Q356.9063,368.3438 357.5,368.0781 Q358.0938,367.7969 358.7188,367.2188 L358.7188,369.9375 Z " fill="#000000"/><text fill="#000000" font-family="sans-serif" font-size="14" lengthAdjust="spacing" textLength="45" x="376.25" y="369.1436">Sector</text><line style="stroke:#181818;stroke-width:0.5;" x1="292" x2="473" y1="380.2969" y2="380.2969"/><ellipse cx="302" cy="393.9453" fill="none" rx="3" ry="3" style="stroke:#038048;stroke-width:1.0;"/><text fill="#000000" font-family="sans-serif" font-size="14" lengthAdjust="spacing" textLength="73" x="311" y="397.292">uuid: UUID</text><rect fill="none" height="6" style="stroke:#C82930;stroke-width:1.0;" width="6" x="299" y="407.2422"/><text fill="#000000" font-family="sans-serif" font-size="14" lengthAdjust="spacing" textLength="88" x="311" y="413.5889">name: String</text><rect fill="none" height="6" style="stroke:#C82930;stroke-width:1.0;" width="6" x="299" y="423.5391"/><text fill="#000000" font-family="sans-serif" font-size="14" lengthAdjust="spacing" textLength="74" x="311" y="429.8857">title: String</text><rect fill="none" height="6" style="stroke:#C82930;stroke-width:1.0;" width="6" x="299" y="439.8359"/><text fill="#000000" font-family="sans-serif" font-size="14" lengthAdjust="spacing" textLength="157" x="311" y="446.1826">coins_quantity: Integer</text><rect fill="none" height="6" style="stroke:#C82930;stroke-width:1.0;" width="6" x="299" y="456.1328"/><text fill="#000000" font-family="sans-serif" font-size="14" lengthAdjust="spacing" textLength="97" x="311" y="462.4795">cmc_id: String</text><rect fill="none" height="6" style="stroke:#C82930;stroke-width:1.0;" width="6" x="299" y="472.4297"/><text fill="#000000" font-family="sans-serif" font-size="14" lengthAdjust="spacing" textLength="106" x="311" y="478.7764">active: Boolean</text><line style="stroke:#181818;stroke-width:0.5;" x1="292" x2="473" y1="486.0781" y2="486.0781"/></g><!--class Analysis--><g id="elem_Analysis"><rect codeLine="33" fill="#F1F1F1" height="96.8906" id="Analysis" rx="2.5" ry="2.5" style="stroke:#181818;stroke-width:0.5;" width="137" x="509" y="372.7969"/><ellipse cx="546.5" cy="388.7969" fill="#ADD1B2" rx="11" ry="11" style="stroke:#181818;stroke-width:1.0;"/><path d="M549.4688,394.4375 Q548.8906,394.7344 548.25,394.875 Q547.6094,395.0313 546.9063,395.0313 Q544.4063,395.0313 543.0781,393.3906 Q541.7656,391.7344 541.7656,388.6094 Q541.7656,385.4844 543.0781,383.8281 Q544.4063,382.1719 546.9063,382.1719 Q547.6094,382.1719 548.25,382.3281 Q548.9063,382.4844 549.4688,382.7813 L549.4688,385.5 Q548.8438,384.9219 548.25,384.6563 Q547.6563,384.375 547.0313,384.375 Q545.6875,384.375 545,385.4531 Q544.3125,386.5156 544.3125,388.6094 Q544.3125,390.7031 545,391.7813 Q545.6875,392.8438 547.0313,392.8438 Q547.6563,392.8438 548.25,392.5781 Q548.8438,392.2969 549.4688,391.7188 L549.4688,394.4375 Z " fill="#000000"/><text fill="#000000" font-family="sans-serif" font-size="14" lengthAdjust="spacing" textLength="55" x="565.5" y="393.6436">Analysis</text><line style="stroke:#181818;stroke-width:0.5;" x1="510" x2="645" y1="404.7969" y2="404.7969"/><ellipse cx="520" cy="418.4453" fill="none" rx="3" ry="3" style="stroke:#038048;stroke-width:1.0;"/><text fill="#000000" font-family="sans-serif" font-size="14" lengthAdjust="spacing" textLength="73" x="529" y="421.792">uuid: UUID</text><rect fill="none" height="6" style="stroke:#C82930;stroke-width:1.0;" width="6" x="517" y="431.7422"/><text fill="#000000" font-family="sans-serif" font-size="14" lengthAdjust="spacing" textLength="107" x="529" y="438.0889">date: DateTime</text><rect fill="none" height="6" style="stroke:#C82930;stroke-width:1.0;" width="6" x="517" y="448.0391"/><text fill="#000000" font-family="sans-serif" font-size="14" lengthAdjust="spacing" textLength="111" x="529" y="454.3857">ended: Boolean</text><line style="stroke:#181818;stroke-width:0.5;" x1="510" x2="645" y1="461.6875" y2="461.6875"/></g><!--class User--><g id="elem_User"><rect codeLine="39" fill="#F1F1F1" height="48" id="User" rx="2.5" ry="2.5" style="stroke:#181818;stroke-width:0.5;" width="64" x="760.5" y="133.7969"/><ellipse cx="775.5" cy="149.7969" fill="#ADD1B2" rx="11" ry="11" style="stroke:#181818;stroke-width:1.0;"/><path d="M778.4688,155.4375 Q777.8906,155.7344 777.25,155.875 Q776.6094,156.0313 775.9063,156.0313 Q773.4063,156.0313 772.0781,154.3906 Q770.7656,152.7344 770.7656,149.6094 Q770.7656,146.4844 772.0781,144.8281 Q773.4063,143.1719 775.9063,143.1719 Q776.6094,143.1719 777.25,143.3281 Q777.9063,143.4844 778.4688,143.7813 L778.4688,146.5 Q777.8438,145.9219 777.25,145.6563 Q776.6563,145.375 776.0313,145.375 Q774.6875,145.375 774,146.4531 Q773.3125,147.5156 773.3125,149.6094 Q773.3125,151.7031 774,152.7813 Q774.6875,153.8438 776.0313,153.8438 Q776.6563,153.8438 777.25,153.5781 Q777.8438,153.2969 778.4688,152.7188 L778.4688,155.4375 Z " fill="#000000"/><text fill="#000000" font-family="sans-serif" font-size="14" lengthAdjust="spacing" textLength="32" x="789.5" y="154.6436">User</text><line style="stroke:#181818;stroke-width:0.5;" x1="761.5" x2="823.5" y1="165.7969" y2="165.7969"/><line style="stroke:#181818;stroke-width:0.5;" x1="761.5" x2="823.5" y1="173.7969" y2="173.7969"/></g><!--class AnalysisInfoSchedule--><g id="elem_AnalysisInfoSchedule"><rect codeLine="42" fill="#F1F1F1" height="113.1875" id="AnalysisInfoSchedule" rx="2.5" ry="2.5" style="stroke:#181818;stroke-width:0.5;" width="249" x="301" y="726.2969"/><ellipse cx="348.75" cy="742.2969" fill="#ADD1B2" rx="11" ry="11" style="stroke:#181818;stroke-width:1.0;"/><path d="M351.7188,747.9375 Q351.1406,748.2344 350.5,748.375 Q349.8594,748.5313 349.1563,748.5313 Q346.6563,748.5313 345.3281,746.8906 Q344.0156,745.2344 344.0156,742.1094 Q344.0156,738.9844 345.3281,737.3281 Q346.6563,735.6719 349.1563,735.6719 Q349.8594,735.6719 350.5,735.8281 Q351.1563,735.9844 351.7188,736.2813 L351.7188,739 Q351.0938,738.4219 350.5,738.1563 Q349.9063,737.875 349.2813,737.875 Q347.9375,737.875 347.25,738.9531 Q346.5625,740.0156 346.5625,742.1094 Q346.5625,744.2031 347.25,745.2813 Q347.9375,746.3438 349.2813,746.3438 Q349.9063,746.3438 350.5,746.0781 Q351.0938,745.7969 351.7188,745.2188 L351.7188,747.9375 Z " fill="#000000"/><text fill="#000000" font-family="sans-serif" font-size="14" lengthAdjust="spacing" textLength="145" x="369.25" y="747.1436">AnalysisInfoSchedule</text><line style="stroke:#181818;stroke-width:0.5;" x1="302" x2="549" y1="758.2969" y2="758.2969"/><ellipse cx="312" cy="771.9453" fill="none" rx="3" ry="3" style="stroke:#038048;stroke-width:1.0;"/><text fill="#000000" font-family="sans-serif" font-size="14" lengthAdjust="spacing" textLength="70" x="321" y="775.292">id: Integer</text><rect fill="none" height="6" style="stroke:#C82930;stroke-width:1.0;" width="6" x="309" y="785.2422"/><text fill="#000000" font-family="sans-serif" font-size="14" lengthAdjust="spacing" textLength="134" x="321" y="791.5889">uuid_analysis: UUID</text><rect fill="none" height="6" style="stroke:#C82930;stroke-width:1.0;" width="6" x="309" y="801.5391"/><text fill="#000000" font-family="sans-serif" font-size="14" lengthAdjust="spacing" textLength="193" x="321" y="807.8857">last_update_time: DateTime</text><rect fill="none" height="6" style="stroke:#C82930;stroke-width:1.0;" width="6" x="309" y="817.8359"/><text fill="#000000" font-family="sans-serif" font-size="14" lengthAdjust="spacing" textLength="223" x="321" y="824.1826">next_scheduled_time: DateTime</text><line style="stroke:#181818;stroke-width:0.5;" x1="302" x2="549" y1="831.4844" y2="831.4844"/></g><!--class FirstStageAnalysis--><g id="elem_FirstStageAnalysis"><rect codeLine="49" fill="#F1F1F1" height="422.8281" id="FirstStageAnalysis" rx="2.5" ry="2.5" style="stroke:#181818;stroke-width:0.5;" width="289" x="585" y="571.2969"/><ellipse cx="663.25" cy="587.2969" fill="#ADD1B2" rx="11" ry="11" style="stroke:#181818;stroke-width:1.0;"/><path d="M666.2188,592.9375 Q665.6406,593.2344 665,593.375 Q664.3594,593.5313 663.6563,593.5313 Q661.1563,593.5313 659.8281,591.8906 Q658.5156,590.2344 658.5156,587.1094 Q658.5156,583.9844 659.8281,582.3281 Q661.1563,580.6719 663.6563,580.6719 Q664.3594,580.6719 665,580.8281 Q665.6563,580.9844 666.2188,581.2813 L666.2188,584 Q665.5938,583.4219 665,583.1563 Q664.4063,582.875 663.7813,582.875 Q662.4375,582.875 661.75,583.9531 Q661.0625,585.0156 661.0625,587.1094 Q661.0625,589.2031 661.75,590.2813 Q662.4375,591.3438 663.7813,591.3438 Q664.4063,591.3438 665,591.0781 Q665.5938,590.7969 666.2188,590.2188 L666.2188,592.9375 Z " fill="#000000"/><text fill="#000000" font-family="sans-serif" font-size="14" lengthAdjust="spacing" textLength="124" x="683.75" y="592.1436">FirstStageAnalysis</text><line style="stroke:#181818;stroke-width:0.5;" x1="586" x2="873" y1="603.2969" y2="603.2969"/><ellipse cx="596" cy="616.9453" fill="none" rx="3" ry="3" style="stroke:#038048;stroke-width:1.0;"/><text fill="#000000" font-family="sans-serif" font-size="14" lengthAdjust="spacing" textLength="73" x="605" y="620.292">uuid: UUID</text><rect fill="none" height="6" style="stroke:#C82930;stroke-width:1.0;" width="6" x="593" y="630.2422"/><text fill="#000000" font-family="sans-serif" font-size="14" lengthAdjust="spacing" textLength="134" x="605" y="636.5889">uuid_analysis: UUID</text><rect fill="none" height="6" style="stroke:#C82930;stroke-width:1.0;" width="6" x="593" y="646.5391"/><text fill="#000000" font-family="sans-serif" font-size="14" lengthAdjust="spacing" textLength="108" x="605" y="652.8857">currency: string</text><rect fill="none" height="6" style="stroke:#C82930;stroke-width:1.0;" width="6" x="593" y="662.8359"/><text fill="#000000" font-family="sans-serif" font-size="14" lengthAdjust="spacing" textLength="109" x="605" y="669.1826">ranking: Integer</text><rect fill="none" height="6" style="stroke:#C82930;stroke-width:1.0;" width="6" x="593" y="679.1328"/><text fill="#000000" font-family="sans-serif" font-size="14" lengthAdjust="spacing" textLength="146" x="605" y="685.4795">market_cap: Numeric</text><rect fill="none" height="6" style="stroke:#C82930;stroke-width:1.0;" width="6" x="593" y="695.4297"/><text fill="#000000" font-family="sans-serif" font-size="14" lengthAdjust="spacing" textLength="256" x="605" y="701.7764">week_increase_percentage: Numeric</text><rect fill="none" height="6" style="stroke:#C82930;stroke-width:1.0;" width="6" x="593" y="711.7266"/><text fill="#000000" font-family="sans-serif" font-size="14" lengthAdjust="spacing" textLength="173" x="605" y="718.0732">increase_date: DateTime</text><rect fill="none" height="6" style="stroke:#C82930;stroke-width:1.0;" width="6" x="593" y="728.0234"/><text fill="#000000" font-family="sans-serif" font-size="14" lengthAdjust="spacing" textLength="156" x="605" y="734.3701">closing_price: Numeric</text><rect fill="none" height="6" style="stroke:#C82930;stroke-width:1.0;" width="6" x="593" y="744.3203"/><text fill="#000000" font-family="sans-serif" font-size="14" lengthAdjust="spacing" textLength="231" x="605" y="750.667">last_week_closing_price: Numeric</text><rect fill="none" height="6" style="stroke:#C82930;stroke-width:1.0;" width="6" x="593" y="760.6172"/><text fill="#000000" font-family="sans-serif" font-size="14" lengthAdjust="spacing" textLength="143" x="605" y="766.9639">open_price: Numeric</text><rect fill="none" height="6" style="stroke:#C82930;stroke-width:1.0;" width="6" x="593" y="776.9141"/><text fill="#000000" font-family="sans-serif" font-size="14" lengthAdjust="spacing" textLength="105" x="605" y="783.2607">ema8: Numeric</text><rect fill="none" height="6" style="stroke:#C82930;stroke-width:1.0;" width="6" x="593" y="793.2109"/><text fill="#000000" font-family="sans-serif" font-size="14" lengthAdjust="spacing" textLength="205" x="605" y="799.5576">ema8_greater_open: Boolean</text><rect fill="none" height="6" style="stroke:#C82930;stroke-width:1.0;" width="6" x="593" y="809.5078"/><text fill="#000000" font-family="sans-serif" font-size="14" lengthAdjust="spacing" textLength="184" x="605" y="815.8545">ema8_less_close: Boolean</text><rect fill="none" height="6" style="stroke:#C82930;stroke-width:1.0;" width="6" x="593" y="825.8047"/><text fill="#000000" font-family="sans-serif" font-size="14" lengthAdjust="spacing" textLength="226" x="605" y="832.1514">week_increase_volume: Numeric</text><rect fill="none" height="6" style="stroke:#C82930;stroke-width:1.0;" width="6" x="593" y="842.1016"/><text fill="#000000" font-family="sans-serif" font-size="14" lengthAdjust="spacing" textLength="223" x="605" y="848.4482">increase_volume_day: DateTime</text><rect fill="none" height="6" style="stroke:#C82930;stroke-width:1.0;" width="6" x="593" y="858.3984"/><text fill="#000000" font-family="sans-serif" font-size="14" lengthAdjust="spacing" textLength="182" x="605" y="864.7451">increase_volume: Numeric</text><rect fill="none" height="6" style="stroke:#C82930;stroke-width:1.0;" width="6" x="593" y="874.6953"/><text fill="#000000" font-family="sans-serif" font-size="14" lengthAdjust="spacing" textLength="161" x="605" y="881.042">today_volume: Numeric</text><rect fill="none" height="6" style="stroke:#C82930;stroke-width:1.0;" width="6" x="593" y="890.9922"/><text fill="#000000" font-family="sans-serif" font-size="14" lengthAdjust="spacing" textLength="234" x="605" y="897.3389">volume_before_increase: Numeric</text><rect fill="none" height="6" style="stroke:#C82930;stroke-width:1.0;" width="6" x="593" y="907.2891"/><text fill="#000000" font-family="sans-serif" font-size="14" lengthAdjust="spacing" textLength="182" x="605" y="913.6357">volumes_relation: Numeric</text><rect fill="none" height="6" style="stroke:#C82930;stroke-width:1.0;" width="6" x="593" y="923.5859"/><text fill="#000000" font-family="sans-serif" font-size="14" lengthAdjust="spacing" textLength="263" x="605" y="929.9326">expressive_volume_increase: Boolean</text><rect fill="none" height="6" style="stroke:#C82930;stroke-width:1.0;" width="6" x="593" y="939.8828"/><text fill="#000000" font-family="sans-serif" font-size="14" lengthAdjust="spacing" textLength="153" x="605" y="946.2295">ema_aligned: Boolean</text><rect fill="none" height="6" style="stroke:#C82930;stroke-width:1.0;" width="6" x="593" y="956.1797"/><text fill="#000000" font-family="sans-serif" font-size="14" lengthAdjust="spacing" textLength="159" x="605" y="962.5264">buying_signal: Boolean</text><rect fill="none" height="6" style="stroke:#C82930;stroke-width:1.0;" width="6" x="593" y="972.4766"/><text fill="#000000" font-family="sans-serif" font-size="14" lengthAdjust="spacing" textLength="114" x="605" y="978.8232">today: DateTime</text><line style="stroke:#181818;stroke-width:0.5;" x1="586" x2="873" y1="986.125" y2="986.125"/></g><!--class WalletTransaction--><g id="elem_WalletTransaction"><rect codeLine="75" fill="#F1F1F1" height="129.4844" id="WalletTransaction" rx="2.5" ry="2.5" style="stroke:#181818;stroke-width:0.5;" width="223" x="681" y="356.7969"/><ellipse cx="727.25" cy="372.7969" fill="#ADD1B2" rx="11" ry="11" style="stroke:#181818;stroke-width:1.0;"/><path d="M730.2188,378.4375 Q729.6406,378.7344 729,378.875 Q728.3594,379.0313 727.6563,379.0313 Q725.1563,379.0313 723.8281,377.3906 Q722.5156,375.7344 722.5156,372.6094 Q722.5156,369.4844 723.8281,367.8281 Q725.1563,366.1719 727.6563,366.1719 Q728.3594,366.1719 729,366.3281 Q729.6563,366.4844 730.2188,366.7813 L730.2188,369.5 Q729.5938,368.9219 729,368.6563 Q728.4063,368.375 727.7813,368.375 Q726.4375,368.375 725.75,369.4531 Q725.0625,370.5156 725.0625,372.6094 Q725.0625,374.7031 725.75,375.7813 Q726.4375,376.8438 727.7813,376.8438 Q728.4063,376.8438 729,376.5781 Q729.5938,376.2969 730.2188,375.7188 L730.2188,378.4375 Z " fill="#000000"/><text fill="#000000" font-family="sans-serif" font-size="14" lengthAdjust="spacing" textLength="122" x="747.75" y="377.6436">WalletTransaction</text><line style="stroke:#181818;stroke-width:0.5;" x1="682" x2="903" y1="388.7969" y2="388.7969"/><ellipse cx="692" cy="402.4453" fill="none" rx="3" ry="3" style="stroke:#038048;stroke-width:1.0;"/><text fill="#000000" font-family="sans-serif" font-size="14" lengthAdjust="spacing" textLength="73" x="701" y="405.792">uudi: UUID</text><rect fill="none" height="6" style="stroke:#C82930;stroke-width:1.0;" width="6" x="689" y="415.7422"/><text fill="#000000" font-family="sans-serif" font-size="14" lengthAdjust="spacing" textLength="121" x="701" y="422.0889">quantity: Numeric</text><rect fill="none" height="6" style="stroke:#C82930;stroke-width:1.0;" width="6" x="689" y="432.0391"/><text fill="#000000" font-family="sans-serif" font-size="14" lengthAdjust="spacing" textLength="119" x="701" y="438.3857">amount: Numeric</text><rect fill="none" height="6" style="stroke:#C82930;stroke-width:1.0;" width="6" x="689" y="448.3359"/><text fill="#000000" font-family="sans-serif" font-size="14" lengthAdjust="spacing" textLength="107" x="701" y="454.6826">date: DateTime</text><rect fill="none" height="6" style="stroke:#C82930;stroke-width:1.0;" width="6" x="689" y="464.6328"/><text fill="#000000" font-family="sans-serif" font-size="14" lengthAdjust="spacing" textLength="197" x="701" y="470.9795">price_on_purchase: Numeric</text><line style="stroke:#181818;stroke-width:0.5;" x1="682" x2="903" y1="478.2813" y2="478.2813"/></g><!--link Cryptocurrency to CurrencyInfoSchedule--><g id="link_Cryptocurrency_CurrencyInfoSchedule"><path codeLine="84" d="M280.77,264.7869 C244.9,302.1569 206.33,342.3369 177.39,372.4869 " fill="none" id="Cryptocurrency-CurrencyInfoSchedule" style="stroke:#181818;stroke-width:1.0;"/><text fill="#000000" font-family="sans-serif" font-size="13" lengthAdjust="spacing" textLength="64" x="243.5" y="314.3638">schedules</text><text fill="#000000" font-family="sans-serif" font-size="13" lengthAdjust="spacing" textLength="8" x="265.0055" y="269.1552">1</text><text fill="#000000" font-family="sans-serif" font-size="13" lengthAdjust="spacing" textLength="7" x="176.3511" y="361.6522">*</text></g><!--link Cryptocurrency to Sector--><g id="link_Cryptocurrency_Sector"><path codeLine="85" d="M382.5,271.5969 C382.5,297.5769 382.5,324.5369 382.5,348.2369 " fill="none" id="Cryptocurrency-Sector" style="stroke:#181818;stroke-width:1.0;"/><text fill="#000000" font-family="sans-serif" font-size="13" lengthAdjust="spacing" textLength="8" x="374.2313" y="291.8092">1</text><text fill="#000000" font-family="sans-serif" font-size="13" lengthAdjust="spacing" textLength="23" x="358.3141" y="337.0141">0..*</text></g><!--link Cryptocurrency to Analysis--><g id="link_Cryptocurrency_Analysis"><path codeLine="86" d="M466.61,271.5969 C493,306.9769 520.72,344.1569 541.85,372.4869 " fill="none" id="Cryptocurrency-Analysis" style="stroke:#181818;stroke-width:1.0;"/><text fill="#000000" font-family="sans-serif" font-size="13" lengthAdjust="spacing" textLength="8" x="463.9924" y="291.8092">1</text><text fill="#000000" font-family="sans-serif" font-size="13" lengthAdjust="spacing" textLength="23" x="512.2195" y="361.6522">0..*</text></g><!--link Analysis to AnalysisInfoSchedule--><g id="link_Analysis_AnalysisInfoSchedule"><path codeLine="87" d="M557.32,470.0369 C529.29,536.3169 478.71,655.9569 449.01,726.1769 " fill="none" id="Analysis-AnalysisInfoSchedule" style="stroke:#181818;stroke-width:1.0;"/><text fill="#000000" font-family="sans-serif" font-size="13" lengthAdjust="spacing" textLength="64" x="534.5" y="537.3638">schedules</text><text fill="#000000" font-family="sans-serif" font-size="13" lengthAdjust="spacing" textLength="8" x="546.0708" y="489.6773">1</text><text fill="#000000" font-family="sans-serif" font-size="13" lengthAdjust="spacing" textLength="7" x="444.4487" y="715.4258">*</text></g><!--link Analysis to FirstStageAnalysis--><g id="link_Analysis_FirstStageAnalysis"><path codeLine="88" d="M597.68,470.0369 C609.15,497.1569 624.4,533.2169 640.44,571.1669 " fill="none" id="Analysis-FirstStageAnalysis" style="stroke:#181818;stroke-width:1.0;"/><text fill="#000000" font-family="sans-serif" font-size="13" lengthAdjust="spacing" textLength="52" x="628.5" y="537.3638">includes</text><text fill="#000000" font-family="sans-serif" font-size="13" lengthAdjust="spacing" textLength="8" x="591.8542" y="489.6773">1</text><text fill="#000000" font-family="sans-serif" font-size="13" lengthAdjust="spacing" textLength="7" x="630.1136" y="560.3643">*</text></g><!--link User to WalletTransaction--><g id="link_User_WalletTransaction"><path codeLine="89" d="M792.5,182.0069 C792.5,220.8169 792.5,300.1869 792.5,356.6569 " fill="none" id="User-WalletTransaction" style="stroke:#181818;stroke-width:1.0;"/><text fill="#000000" font-family="sans-serif" font-size="13" lengthAdjust="spacing" textLength="32" x="793.5" y="314.3638">owns</text><text fill="#000000" font-family="sans-serif" font-size="13" lengthAdjust="spacing" textLength="8" x="783.525" y="201.8193">1</text><text fill="#000000" font-family="sans-serif" font-size="13" lengthAdjust="spacing" textLength="27" x="764.0234" y="345.8142">0...*</text></g><!--SRC=[fLNDRjD04BxxAKQv885IWSG1-GQDa28X3gGH1uHMq_NKNNMzQ_QdhGKy3oUEF45VZ5tRIPprfaKY9sT-l_dcPvrmac0bi3RO85G4vnAj9Hi_Lxfv-As4XXzmheMoM1CiOTCQeHoyBWeUJU7STAtJt1j3YdVmlO3mUm7UYwg4xNQzwWLBi5rpgMK96nVywr786ywYtLevgibCf5RwEZ6MkjQ9I653YQWYouredT0gqJZYrqfmbApIl8GFmhelWy7NqS8RQRCARWWTLGnT2QlmTI4Qsg52wvXlgo2Tw7xkwHc9MQihlU7NLFb0-8waUUcJQCo9XcRf5DqxPiT0LMfpoBiXxhGvtOuCSouEGzgWs7ZspQCAsYxNg1Zto0Mv4xSXpZkj9Q4wG7ghK7PMsDEW4X878QcAgaouhQLOtopyFp8TapCSVOvG_6SFze3U2sFTneMrURhoqsXscrM2dR9iKDs4VsbL3PeRSenZMy97tv0HVDJS4TqmeU8aMs8j6KugOaljzYRPPd2fRKZBmX7WCzUUk3xFesQw9PNNK8DlSZ9Mz_jdM7GzZCB4G9ArVLPArSTrtshfczCr3-fGUZUh_8aGJWUd4xenwYLTQKDxB7ahomn97AvNGiHzQqALORTsC0-HPemmbA9MqxqPL9U-YtsnGOaoLVOrv2RvCqf9xYBCd8tRhTLaa2jnDAw7Kt6C7XljbKkbsHdhHuFfC2FUyEiZfWAYP_0f4FJmw-5FUAN221i2jC27Pwj8NgF5gmKibx1uliWUuh1JuzT9pvTdPy5vkAQFs-oMlDXl-oHxzZXDq-USCWUaZ7CeVNZaYlx-JI143FD6bQ3lb2sAlm00]--></g></svg>
